<svg xmlns="http://www.w3.org/2000/svg" width="3779" height="3239" fill="none"><g filter="url(#a)"><path fill="url(#b)" d="M2378.96 355.559c301.72 343.529 307.93 333.457 699.01 455.487 193.77 60.463-265.05 399.594-482.7 125.859-58.68-135.006-287.19-422.841-536.89-141.471-253.54 285.676 123.26-620.267-610.38-61.124 219.34-261.494 665.62-680.865 930.96-378.751Z"/></g><g filter="url(#c)"><path fill="url(#d)" fill-opacity=".5" d="M2378.96 2302.07c301.72 343.53 307.93 333.45 699.01 455.48 193.77 60.47-265.05 399.59-482.7 125.86-58.68-135-287.19-422.84-536.89-141.47-253.54 285.68 123.26-620.26-610.38-61.12 219.34-261.5 665.62-680.87 930.96-378.75Z"/></g><g filter="url(#e)"><path fill="url(#f)" fill-opacity=".5" d="M1107.79 1656.64c-371.52-297.72-376.066-286.27-799.171-340.7-209.638-26.97 199.557-457.694 472.24-216.34 84.582 127.83 370.961 381.68 576.151 48 208.34-338.8-14.25 658.35 636.98-47.68-177.65 307.81-559.47 818.56-886.2 556.72Z"/></g><defs><linearGradient id="b" x1="3252.77" x2="2167.86" y1="802.42" y2="-171.011" gradientUnits="userSpaceOnUse"><stop stop-color="#20145E"/><stop offset=".406" stop-color="#66E3FF"/><stop offset=".899" stop-color="#1E1C7D"/></linearGradient><linearGradient id="d" x1="3252.77" x2="2167.86" y1="2748.93" y2="1775.5" gradientUnits="userSpaceOnUse"><stop stop-color="#20145E"/><stop offset=".406" stop-color="#66E3FF"/><stop offset=".899" stop-color="#1E1C7D"/></linearGradient><linearGradient id="f" x1="130.923" x2="1419.48" y1="1356.39" y2="2158.46" gradientUnits="userSpaceOnUse"><stop stop-color="#20145E"/><stop offset=".406" stop-color="#A966FF" stop-opacity=".72"/><stop offset=".899" stop-color="#1E1C7D"/></linearGradient><filter id="a" width="2176.61" height="1291.77" x="1198" y=".492" color-interpolation-filters="sRGB" filterUnits="userSpaceOnUse"><feFlood flood-opacity="0" result="BackgroundImageFix"/><feBlend in="SourceGraphic" in2="BackgroundImageFix" result="shape"/><feGaussianBlur result="effect1_foregroundBlur_404_2" stdDeviation="125"/></filter><filter id="c" width="2176.61" height="1291.77" x="1198" y="1947" color-interpolation-filters="sRGB" filterUnits="userSpaceOnUse"><feFlood flood-opacity="0" result="BackgroundImageFix"/><feBlend in="SourceGraphic" in2="BackgroundImageFix" result="shape"/><feGaussianBlur result="effect1_foregroundBlur_404_2" stdDeviation="125"/></filter><filter id="e" width="2243.03" height="1202.5" x=".959" y="776.427" color-interpolation-filters="sRGB" filterUnits="userSpaceOnUse"><feFlood flood-opacity="0" result="BackgroundImageFix"/><feBlend in="SourceGraphic" in2="BackgroundImageFix" result="shape"/><feGaussianBlur result="effect1_foregroundBlur_404_2" stdDeviation="125"/></filter></defs></svg>