<svg width="75" height="38" viewBox="0 0 75 38" fill="none" xmlns="http://www.w3.org/2000/svg">
<path d="M8.75537 37.563C7.25999 37.6807 5.96837 37.5578 4.8805 37.1941C3.79146 36.8461 2.91107 36.2958 2.23931 35.5432C1.59523 34.8348 1.13177 33.9883 0.848948 33.0037C0.5817 32.0179 0.490441 30.9562 0.57517 29.8187C0.669184 28.5566 0.967437 27.2552 1.46993 25.9144C1.97358 24.5581 2.64941 23.2811 3.4974 22.0836C4.36445 20.8381 5.37451 19.7517 6.52756 18.8245C7.69619 17.896 8.97145 17.1993 10.3533 16.7342C9.4098 16.0959 8.73374 15.2972 8.32514 14.3379C7.93212 13.3775 7.77739 12.3363 7.86096 11.2144C7.95265 9.98343 8.30078 8.74003 8.90535 7.48419C9.52665 6.21154 10.3412 5.04762 11.3489 3.99241C12.3913 2.888 13.5726 1.99727 14.8928 1.32021C16.2298 0.626352 17.6382 0.22119 19.118 0.104727C20.0682 0.0299456 20.954 0.0919006 21.7754 0.290592C22.598 0.473701 23.2944 0.79066 23.8648 1.24147C24.4651 1.7054 24.9088 2.29785 25.1958 3.01881C25.4828 3.73977 25.5903 4.58328 25.5183 5.54936C25.4661 6.25054 25.3239 6.91233 25.0917 7.53473C24.8595 8.15714 24.563 8.70715 24.2022 9.18476C23.8415 9.66238 23.4337 10.043 22.979 10.3266C22.5243 10.6103 22.0633 10.7705 21.596 10.8073C20.7237 10.8759 20.0079 10.5063 19.4487 9.69829C19.7204 9.58396 19.9992 9.37614 20.2849 9.07483C20.5717 8.75793 20.8315 8.38895 21.0642 7.96789C21.2801 7.56363 21.4594 7.13127 21.6021 6.67082C21.7448 6.21036 21.8318 5.76978 21.8632 5.34907C21.9305 4.44533 21.7095 3.77339 21.2003 3.33326C20.7776 2.97927 20.1846 2.8323 19.4214 2.89237C18.736 2.94631 18.0756 3.18417 17.4403 3.60595C16.8049 4.02772 16.2448 4.58299 15.7599 5.27175C15.2762 5.94493 14.8795 6.69646 14.5699 7.52633C14.2759 8.35497 14.0976 9.19001 14.0349 10.0314C13.9223 11.5429 14.1992 12.8145 14.8657 13.8464C15.5851 14.998 16.7614 15.7342 18.3945 16.0549C16.7478 16.5408 15.1909 17.4843 13.7238 18.8855C12.405 20.1666 11.3097 21.6701 10.4378 23.3962C9.58149 25.1211 9.09937 26.7081 8.99143 28.1572C8.88349 29.6063 9.14866 30.724 9.78694 31.5103C10.4961 32.3839 11.6218 32.76 13.1639 32.6386C13.9272 32.5786 14.7369 32.4141 15.5932 32.1454C16.4661 31.8598 17.3071 31.4838 18.1161 31.0174C19.9915 29.9558 21.4139 28.6357 22.3832 27.0568L23.4448 27.4612C21.9776 30.3185 19.8902 32.6669 17.1826 34.5065C15.8784 35.3837 14.5103 36.08 13.0782 36.5954C11.645 37.1265 10.204 37.449 8.75537 37.563ZM27.8528 35.4791C26.0303 35.6226 24.6007 35.1697 23.5638 34.1205C22.3552 32.8834 21.8496 30.9404 22.0469 28.2915C22.1304 27.1696 22.3355 25.9762 22.662 24.7113C22.9729 23.4476 23.3917 22.1909 23.9184 20.9411C25.1196 18.1203 26.6474 15.8004 28.5018 13.9815C30.6383 11.908 33.0073 10.7689 35.6086 10.5642C36.9015 10.4624 37.8505 10.6123 38.4554 11.014C39.0772 11.3988 39.3608 11.9573 39.3062 12.6897L39.2923 12.8767L42.4488 1.6842L49.5999 0.168738L42.1835 26.4511C42.0085 26.9296 41.9001 27.4493 41.8583 28.0103C41.8096 28.6647 41.9311 29.1121 42.2229 29.3525C42.5147 29.5929 43.0033 29.6861 43.6887 29.6321C44.5765 29.5623 45.4006 29.1024 46.1607 28.2526C46.8049 27.5048 47.3788 26.4528 47.8824 25.0964L49.8918 24.9383C48.8719 27.4041 47.6951 29.3788 46.3612 30.8624C45.2317 32.0976 44.0114 32.9914 42.7004 33.5438C41.757 33.9434 40.7401 34.186 39.6498 34.2719C38.3257 34.3761 37.2848 34.1094 36.5271 33.472C35.7693 32.8346 35.3469 31.8532 35.2598 30.5279C34.3067 31.8886 33.3056 32.9588 32.2565 33.7384C30.8939 34.7751 29.426 35.3553 27.8528 35.4791ZM31.3051 30.6068C31.6478 30.5798 32.0202 30.4653 32.4224 30.2632C32.8402 30.06 33.2398 29.7884 33.6213 29.4486C34.5193 28.6189 35.1543 27.5775 35.5264 26.3245L35.5456 26.0674L38.6986 14.9217C38.6221 14.4939 38.4924 14.1556 38.3097 13.9067C38.0127 13.5273 37.5294 13.3639 36.8595 13.4167C36.2209 13.4669 35.5822 13.7263 34.9433 14.1948C34.3201 14.6621 33.7158 15.2906 33.1304 16.0802C32.0949 17.5094 31.1921 19.3386 30.4221 21.5678C30.0697 22.556 29.7881 23.5308 29.5771 24.4923C29.3672 25.4383 29.2339 26.293 29.177 27.0565C29.0586 28.6459 29.2745 29.6977 29.8246 30.2121C30.0109 30.4143 30.2263 30.5368 30.4709 30.5795C30.7155 30.6222 30.9935 30.6313 31.3051 30.6068ZM52.4676 33.5419C50.9411 33.662 49.7675 33.3052 48.947 32.4713C48.0243 31.5525 47.6344 30.1349 47.7772 28.2183C47.8445 27.3146 48.0469 26.2608 48.3843 25.0569L52.7759 9.44543L59.6687 8.90296L55.0222 25.4407C54.8928 25.9311 54.8124 26.3866 54.7811 26.8074C54.6836 28.1162 55.1099 28.7333 56.0601 28.6585C56.9324 28.5898 57.7486 28.1306 58.5088 27.2808C59.1195 26.5666 59.6856 25.5152 60.2071 24.1265L64.5987 8.51495L71.4915 7.97248L66.8451 24.5102C66.67 24.9887 66.5616 25.5084 66.5199 26.0694C66.4711 26.7238 66.5926 27.1712 66.8844 27.4116C67.1763 27.652 67.6648 27.7452 68.3502 27.6912C69.2381 27.6214 70.0621 27.1615 70.8223 26.3117C71.4976 25.5614 72.0715 24.5094 72.544 23.1555L74.5534 22.9974C73.5156 25.4956 72.3364 27.5014 71.0158 29.015C69.9007 30.2646 68.6775 31.1973 67.3463 31.8133C66.3683 32.262 65.3497 32.5281 64.2904 32.6114C62.9197 32.7193 61.8577 32.4234 61.1046 31.7236C60.3515 31.0238 59.945 29.9328 59.885 28.4504C58.6647 30.2814 57.3412 31.6248 55.9148 32.4806C54.894 33.0876 53.7449 33.4414 52.4676 33.5419Z" fill="white"/>
</svg>
