<svg width="183" height="37" fill="none" xmlns="http://www.w3.org/2000/svg"><path d="m143.704 5.946-5.19 5.445v23.83h10.964V17.86c0-9.54-.146-17.361-.292-17.361s-2.632 2.449-5.482 5.446ZM5.953 6.42.361 12.014V35.22h10.234V23.014c0-6.725.11-12.317.292-12.39.585-.366 5.117.548 6.652 1.316.95.475 2.12 1.498 2.741 2.412.987 1.389 1.097 1.864 1.097 4.166-.037 4.934-2.084 7.164-6.944 7.493l-2.742.183v9.137l4.313-.22c2.34-.11 5.117-.438 6.104-.767 4.312-1.316 7.602-4.313 9.1-8.15.877-2.267 1.206-8.334.622-11.148C30.22 7.371 23.422 2.181 13.518 1.048l-2.01-.22-5.556 5.593ZM37.349 5.873l-3.728 5.007v24.34h22.66V26.816H43.49v-4.02h12.792v-8.772H43.49v-4.02H56.208l3.509-4.386c1.937-2.412 3.508-4.46 3.508-4.569 0-.11-4.97-.183-11.074-.183H41.113L37.35 5.873Z" fill="#000"/><path d="m61.688 5.69-3.948 4.824v24.707h10.234V17.129l9.685 9.686 9.685 9.685V.865h-9.137v11.001l-6.103-5.518C68.778 3.35 65.927.865 65.817.865c-.11 0-1.973 2.193-4.13 4.825ZM91.621 5.982c-1.937 2.814-3.545 5.19-3.545 5.3 0 .11 1.572.182 3.472.182h3.472V35.221h10.234V12.013l5.299-5.3c2.924-2.924 5.3-5.409 5.3-5.555 0-.183-4.642-.293-10.343-.293H95.13l-3.509 5.117Z" fill="#000"/><path d="M117.17 12.012 106.352 23.16v6.213c0 3.436.109 6.213.255 6.213.183 0 4.861-4.568 10.417-10.124l10.16-10.16v6.761h-5.665l-4.203 4.203-4.203 4.203H127.55v4.752h8.771V.865h-8.333L117.17 12.012ZM156.168 6.42l-5.592 5.593V35.22h10.234V23.014c0-6.725.109-12.317.292-12.39.146-.11 1.316-.037 2.595.146 5.775.804 8.772 4.642 7.675 9.795-.731 3.472-3.435 5.482-7.346 5.519h-2.12v9.247l4.13-.22c10.563-.511 15.606-4.934 16.228-14.327.256-3.764-.293-6.688-1.901-9.94-2.631-5.374-8.479-8.773-16.629-9.76L161.723.83l-5.555 5.592Z" fill="#000"/></svg>