<svg width="207" height="56" fill="none" xmlns="http://www.w3.org/2000/svg"><path d="M100.174 25.031a5.214 5.214 0 0 1-2.391 1.198c-2.53.489-4.096-1.119-4.073-4.61.053-1.895.911-4.018 3.026-5.448a5.095 5.095 0 0 1 2.234-.822c1.677-.177 3.01.779 3.361 2.421.593 2.783.003 5.309-2.157 7.261Zm9.109-10.643c-1.304-3.835-4.482-5.845-8.511-5.491-2.255.198-4.085 1.218-5.638 2.808l-.136.095.033-.195.426-2.18h-6.62l-5.843 31.55c2.395 0 4.645.012 6.895-.021.168-.003.442-.3.48-.496.434-2.208.831-4.423 1.237-6.636.21-1.15.42-2.299.623-3.419.772.519 1.432 1.094 2.195 1.45 2.8 1.307 5.579.983 8.257-.37 6.508-3.287 8.538-11.403 6.602-17.095ZM71.56 25.52h12.626c-.29 1.587-.56 3.121-.853 4.65-.123.64-.097 1.515-.497 1.838-.405.328-1.254.122-1.908.123-6.005.004-12.01.002-18.014.002h-.876c-.023-2.67.484-5.139 1.647-7.462 1.592-3.18 4.142-5.462 7.024-7.417 1.738-1.18 3.54-2.268 5.242-3.495a11.595 11.595 0 0 0 2.278-2.198c.732-.928.92-2.063.25-3.124-.678-1.076-1.789-1.23-2.955-1.083-1.46.184-2.568 1.01-3.55 2.03-.364.377-.68.8-1.048 1.24l-5.193-4.218C68.037 3.28 70.92 1.078 74.751.268c2.37-.502 4.69-.313 6.908.684 4.79 2.153 6.564 7.323 4.207 12.188-1.15 2.376-3.001 4.134-5.118 5.604-1.91 1.327-3.927 2.499-5.872 3.776-.822.54-1.603 1.15-2.357 1.782-.333.278-.553.69-.96 1.217ZM120.566 11.972c-.024.065-.053.123-.061.185-.003.016.057.042.089.063.031-.06.065-.118.088-.181.002-.006-.065-.038-.116-.067Zm10.678 20.127h-7.297c.303-1.613.601-3.171.887-4.732.551-3.01 1.151-6.012 1.624-9.035.32-2.047-.694-2.903-2.728-2.441-2.363.536-3.736 2.225-4.515 4.33-.581 1.573-.812 3.281-1.145 4.94-.429 2.132-.796 4.277-1.219 6.41-.041.208-.281.537-.433.54-2.3.034-4.6.024-6.988.024L115.314.587h7.342l-2.098 11.268.157.113c.183-.173.368-.344.55-.518 2.496-2.389 5.435-3.14 8.751-2.248 2.91.783 4.508 3.188 4.184 6.456-.216 2.184-.687 4.344-1.075 6.509-.558 3.112-1.143 6.219-1.72 9.327-.036.198-.102.39-.161.605ZM147.165 26.185c-.343.073-.701.084-1.052.123-2.159-.056-3.596-1.325-3.924-3.489-.485-3.199 1.656-6.556 4.731-7.421 2.651-.746 4.851.683 5.246 3.406.49 3.384-1.74 6.683-5.001 7.38Zm10.13-13.675c-2.304-2.646-5.377-3.558-8.765-3.667-6.31-.18-12.433 4.762-13.57 10.985-.505 2.765-.351 5.465 1.177 7.921 2.056 3.308 5.25 4.663 8.963 4.866 6.806.372 12.692-4.045 14.22-10.68.785-3.41.37-6.675-2.025-9.425ZM10.992 12.499l-.041-.05-.046.046.063.051.024-.047ZM.219 32.137 4.452 9.413h7.08l-.572 2.993c.65-.59 1.167-1.138 1.76-1.588 2.38-1.807 5.036-2.411 7.952-1.672 2.63.667 4.32 2.7 4.3 5.46-.011 1.681-.296 3.372-.588 5.035-.726 4.135-1.526 8.257-2.306 12.438h-7.289c.025-.247.033-.488.077-.723.77-4.102 1.55-8.203 2.314-12.307.082-.445.113-.907.11-1.36-.01-1.34-.634-1.936-1.988-1.903-1.16.028-2.167.472-3.042 1.215-1.662 1.41-2.51 3.265-2.898 5.365-.565 3.06-1.12 6.123-1.707 9.178-.043.221-.322.564-.495.567-2.278.039-4.556.026-6.941.026ZM162.907 9.411h7.083l-.621 3.191c1.099-1.354 2.277-2.274 3.668-2.916 2.197-1.015 4.447-1.13 6.72-.327 2.376.839 3.602 2.65 3.644 5.079.03 1.75-.28 3.52-.579 5.257-.677 3.938-1.441 7.862-2.172 11.79-.036.197-.098.39-.155.614h-7.297c.251-1.364.488-2.676.735-3.986.571-3.032 1.15-6.063 1.717-9.096.06-.322.075-.654.094-.983.1-1.726-.752-2.495-2.475-2.216-1.743.281-2.972 1.324-3.949 2.72-.999 1.428-1.382 3.072-1.681 4.752a580.943 580.943 0 0 1-1.539 8.28c-.04.209-.284.539-.437.541-2.301.035-4.602.024-6.989.024l4.233-22.724ZM198.815 17.841h-6.292c.456-1.884 2.219-3.285 4.069-3.26 1.636.02 2.592 1.383 2.223 3.26Zm7.13-1.548c-.441-3.251-2.038-5.621-5.187-6.787-4.574-1.692-10.192-.147-13.31 3.61-2.34 2.817-3.367 6.1-3.328 9.698.041 3.721 1.592 6.693 4.971 8.443 4.586 2.374 10.247 1.669 14.69-1.362.129-.088.224-.395.175-.55-.55-1.754-1.132-3.498-1.687-5.188-1.369.585-2.663 1.219-4.012 1.696-1.585.56-3.221.688-4.809-.05-1.356-.632-2.191-2.26-1.838-3.567h.822c4.028 0 8.056-.011 12.084.013.553.004.807-.152.94-.698.421-1.732.733-3.464.489-5.258ZM40.325 17.843h-6.343c.723-1.768 1.79-2.976 3.679-3.228 1.935-.258 3.223 1.289 2.664 3.228Zm7.184-1.358c-.376-3.316-1.925-5.86-5.172-6.94-4.557-1.515-8.783-.72-12.347 2.567-3.261 3.008-4.501 6.92-4.294 11.257.207 4.349 2.742 7.448 6.921 8.691 3.968 1.18 7.755.598 11.365-1.343 1.686-.907 1.684-.913 1.099-2.707-.427-1.307-.859-2.613-1.306-3.97-.554.307-1.006.58-1.477.816-1.76.876-3.572 1.547-5.593 1.407-2.267-.158-3.762-1.754-3.625-4.027h.942c4.026 0 8.052-.01 12.079.013.527.003.75-.15.884-.662.442-1.678.721-3.366.525-5.102ZM50.937 15.751h-2.706c.18-1.033.346-1.992.518-2.949.147-.822.32-1.639.448-2.463.066-.422.228-.609.687-.587.782.037 1.568.01 2.436.01.274-1.43.537-2.837.815-4.242.146-.739.087-1.748.544-2.132.455-.383 1.44-.153 2.192-.159 1.494-.01 2.99.002 4.484.007.048 0 .096.027.225.065l-1.188 6.443h4.59c-.193 1.1-.367 2.11-.548 3.116-.135.747-.312 1.488-.407 2.239-.064.499-.25.682-.77.665-1.138-.039-2.28.009-3.419-.022-.451-.012-.613.148-.687.58-.362 2.12-.766 4.232-1.13 6.35-.292 1.704.379 2.633 2.073 2.863.697.094 1.406.099 2.206.15l-1.205 6.536c-2.997.3-5.903.18-8.387-1.751-2.108-1.639-2.655-3.958-2.277-6.479.368-2.449.905-4.872 1.365-7.308.051-.272.083-.547.141-.932Z" fill="#000"/><path d="m95.134 11.705-.136.095.033-.195c.035.032.07.066.103.1ZM120.565 11.972c.052.029.119.06.117.067-.023.063-.058.121-.089.18-.031-.02-.091-.046-.089-.062.009-.062.038-.12.061-.185ZM10.992 12.5l-.024.046a35.159 35.159 0 0 1-.064-.051l.046-.046.042.05ZM100.789 48.32l-1.176-3.133c-.153-.397-.31-.883-.47-1.46-.102.443-.248.93-.437 1.46l-1.19 3.134h3.273Zm1.626 4.276-1.26-3.217h-4.054l-1.245 3.217h-1.19l3.999-10.156h.99l3.977 10.156h-1.217ZM110.038 52.596v-4.905c0-.618-.14-1.08-.422-1.384-.281-.304-.722-.456-1.321-.456-.793 0-1.374.214-1.744.643-.368.43-.553 1.137-.553 2.124v3.978h-1.148v-7.582h.934l.186 1.037h.056c.235-.373.565-.663.989-.868a3.214 3.214 0 0 1 1.418-.308c.914 0 1.601.22 2.062.661.461.44.692 1.145.692 2.114v4.946h-1.149ZM117.281 42.481h2.145v10.115h-2.145V42.482ZM128.137 47.497c0-2.172-.96-3.258-2.878-3.258h-1.142v6.586h.92c2.067 0 3.1-1.11 3.1-3.328Zm2.228-.055c0 1.665-.474 2.94-1.422 3.826-.948.886-2.317 1.328-4.106 1.328h-2.864V42.482h3.175c1.651 0 2.933.436 3.847 1.307.913.872 1.37 2.09 1.37 3.653ZM136.362 52.596h-2.145v-8.33h-2.746v-1.785h7.638v1.786h-2.747v8.33ZM148.794 43.388c-1.111 0-1.989.37-2.632 1.11-.644.74-.965 1.754-.965 3.041 0 1.324.31 2.346.93 3.068.62.722 1.505 1.083 2.653 1.083.706 0 1.511-.127 2.415-.38v1.03c-.701.263-1.566.395-2.594.395-1.49 0-2.64-.452-3.449-1.356-.81-.904-1.214-2.189-1.214-3.854 0-1.042.194-1.955.584-2.74a4.199 4.199 0 0 1 1.688-1.812c.736-.424 1.602-.636 2.598-.636 1.061 0 1.988.193 2.781.58l-.498 1.01c-.766-.36-1.531-.54-2.297-.54ZM153.997 48.798c0 .969.193 1.707.581 2.214.387.508.957.76 1.708.76.752 0 1.323-.252 1.713-.756.39-.506.584-1.245.584-2.218 0-.964-.194-1.696-.584-2.197-.39-.5-.965-.75-1.726-.75-.752 0-1.319.247-1.702.74-.383.494-.574 1.23-.574 2.207Zm5.776 0c0 1.236-.311 2.201-.934 2.895-.622.695-1.482 1.042-2.58 1.042-.678 0-1.28-.16-1.806-.478-.526-.318-.931-.774-1.217-1.37-.286-.595-.429-1.29-.429-2.089 0-1.236.309-2.199.927-2.888.618-.69 1.476-1.035 2.573-1.035 1.061 0 1.904.353 2.529 1.059s.937 1.66.937 2.864ZM171.452 52.596v-4.933c0-.604-.129-1.057-.387-1.359-.259-.302-.66-.453-1.204-.453-.715 0-1.243.205-1.585.616-.341.41-.511 1.042-.511 1.895v4.234h-1.149v-4.933c0-.604-.129-1.057-.387-1.359-.259-.302-.662-.453-1.211-.453-.72 0-1.247.215-1.581.647-.334.431-.501 1.138-.501 2.12v3.978h-1.149v-7.582h.934l.187 1.037h.055c.217-.369.523-.657.917-.864a2.8 2.8 0 0 1 1.325-.312c1.185 0 1.96.43 2.324 1.287h.056c.226-.396.553-.71.982-.94.429-.231.918-.347 1.467-.347.857 0 1.5.22 1.926.661.427.44.64 1.145.64 2.114v4.946h-1.148ZM178.329 45.85c-.775 0-1.335.215-1.681.644-.346.43-.523 1.112-.533 2.048v.256c0 1.066.178 1.828.533 2.286.355.46.925.689 1.709.689.655 0 1.168-.265 1.539-.796.371-.53.557-1.261.557-2.193 0-.945-.186-1.67-.557-2.176-.371-.505-.894-.757-1.567-.757Zm.166 6.885a3.28 3.28 0 0 1-1.352-.274 2.54 2.54 0 0 1-1.028-.84h-.083c.056.442.083.862.083 1.259V56h-1.148V45.014h.934l.159 1.037h.055c.295-.415.639-.714 1.031-.899.392-.184.842-.277 1.349-.277 1.006 0 1.782.344 2.328 1.031.547.687.82 1.651.82 2.892 0 1.245-.278 2.213-.834 2.902-.555.69-1.327 1.035-2.314 1.035ZM185.718 51.787c.715 0 1.276-.196 1.684-.588.409-.392.613-.941.613-1.647v-.685l-1.149.049c-.913.032-1.571.174-1.975.425-.403.252-.605.642-.605 1.173 0 .415.125.73.377.948.251.216.603.325 1.055.325Zm2.594.81-.228-1.08h-.055c-.379.475-.756.797-1.132.965-.375.168-.845.253-1.407.253-.752 0-1.342-.194-1.768-.581-.427-.388-.64-.94-.64-1.654 0-1.531 1.225-2.334 3.674-2.408l1.286-.041v-.47c0-.596-.127-1.035-.384-1.319-.256-.283-.665-.425-1.228-.425-.631 0-1.347.194-2.144.581l-.353-.879a5.407 5.407 0 0 1 1.228-.477 5.317 5.317 0 0 1 1.339-.173c.904 0 1.574.2 2.009.602.436.401.654 1.045.654 1.93v5.175h-.851ZM196.718 52.596v-4.905c0-.618-.141-1.08-.422-1.384-.281-.304-.722-.456-1.321-.456-.794 0-1.375.214-1.744.643-.369.43-.553 1.137-.553 2.124v3.978h-1.149v-7.582h.934l.187 1.037h.056c.235-.373.564-.663.989-.868a3.214 3.214 0 0 1 1.418-.308c.913 0 1.601.22 2.062.661.461.44.692 1.145.692 2.114v4.946h-1.149ZM199.021 45.014h1.232l1.66 4.324c.365.987.591 1.7.678 2.137h.056c.06-.235.185-.637.377-1.207.191-.57.817-2.32 1.878-5.254h1.232l-3.259 8.634c-.323.853-.7 1.458-1.131 1.816-.431.357-.961.536-1.588.536-.351 0-.696-.04-1.038-.117v-.92c.254.054.538.082.851.082.789 0 1.351-.443 1.688-1.328l.422-1.08-3.058-7.623Z" fill="#000"/></svg>