<svg width="200" height="77" fill="none" xmlns="http://www.w3.org/2000/svg"><path d="m22.392 49.485 3.297.103 3.092-.103h2.783c.309 0 .515.103.515.411s-.206.513-.722.616c-.103-.103-.206-.103-.412-.103s-.412.103-.618.206l-.618-.103h-1.237c-.618.308-1.134.513-1.752.513l-.927-.205-.619.513h-.412v-.308l-.824.411h-.413l-.103.41c-.309-.102-.721-.102-1.34-.205 0 .206-.102.308-.205.308-.104 0-.104-.102-.31-.205l-.618.103-.412.513-.103 2.259.103 1.334-.103 1.746v1.95l.103.924v.822l.515 1.129v.205c0 .514.31 1.027.928 1.54l.103.411.824.205.618.616 1.752.308 2.267-.513.619.205 1.649-.718.618.102c.206.206.31.411.31.616 0 .206-.207.514-.62.719l-.308-.103-.722.616-1.546.206-.515.308-.515-.308c-.515.308-1.03.41-1.649.41l-1.03-.102h-.516l-1.752-1.027-.824-1.13-.515-.615-.825-2.259-.412-2.156.206-.821-.412-.411.206-.513-.103-.822.515-.41-.206-.411.103-.513-.309-.719.103-.924-.103-.41.206-.103v-1.746c-.103-.41-.206-.616-.412-.616-.103 0-.206.103-.31.206l-.514-.206-.722.206-.721-.514h-.412c-.413 0-.516-.205-.516-.616V50l-.309-.206.206-.41.722.102.515-.102.721.205h1.958l.103-1.13V47.33l-.309-.821.412-.308c.103-.205.103-.308.103-.308 0-.205-.103-.41-.412-.513l.103-1.848-.412-.616.103-.411c-.309-.103-.412-.205-.412-.41l.31-1.233c.308-.308.411-.513.411-.616.928.411 1.443.719 1.443.822l-.206.41c.206.411.31.822.31 1.027v.103c-.104.205-.104.513-.104.616 0 .102 0 .308.103.41v.924l-.412.616.31 1.13-.207 1.437.206.308-.31.41.413 1.13h.824l.619-.103Z" fill="#000"/><path d="m24.763 67.965-.927-.205h-.619l-1.958-1.13-.824-1.231-.618-.719-.928-2.464-.412-2.259.206-.718-.412-.514.206-.718-.206-1.027.412-.308-.103-.205.103-.616-.206-.616.103-.924-.103-.719.31-.205v-1.232l-.722-.308-.825.205-.824-.616h-.206c-.722 0-1.134-.41-1.134-1.13v-.41l-.412-.308.515-1.232 1.03.103.62-.103.824.205h1.34v-1.437l-.413-1.13.515-.41h-.103l-.309-.205.103-1.95-.309-.309v-.205a.889.889 0 0 1-.412-.719v-.103l.412-1.437.103-.103c.31-.308.31-.513.31-.513l.205-.616.619.308c1.545.719 1.752.924 1.752 1.335v.102l-.104.308c.207.411.31.72.31 1.027v.308c-.103.205-.103.308-.103.513l.206.206-.103.616.103.616-.412.616.206 1.026-.206 1.335.309.41-.31.514.207.513h.309l.618-.41 3.4.102 3.092-.102h2.783c.618 0 1.03.41 1.03.924 0 .308-.103.924-1.236 1.13h-.207l-.206-.104h-.103c-.103 0-.103 0-.206.103l-.206.205-.824-.205h-1.03c-.62.308-1.237.513-1.856.513h-.103l-.618-.102-.412.41H24.66l-.206.103h-.103l-.206.513-.928.103c-.103 0-.412-.103-.927-.103-.206.206-.412.206-.515.206-.206 0-.31-.103-.412-.206h-.207l-.206.206-.103 2.053.103 1.335-.206 1.95v1.951l.103 1.027v.718l.515 1.13v.308c0 .308.207.718.722 1.13l.103.102.103.205.721.205.619.616 1.442.308 2.37-.513.619.205 1.546-.718.927.102.103.103c.31.308.515.616.515 1.027 0 .41-.309.821-.824 1.232l-.206.205-.31-.103-.618.514-1.648.205-.722.41-.618-.307c-.31 0-.825.102-1.443.102Zm-1.237-1.232h.413l.927.206a2.86 2.86 0 0 0 1.34-.308l.31-.103.514.308.31-.205 1.545-.206.825-.718.309.102.103-.102v-.103h-.31l-1.648.821-.722-.205-2.267.513-2.06-.41-.619-.719-.927-.205.412.513 1.545.821Zm-2.782-2.566.515.616.31.41-.206-.41c-.31-.308-.619-.616-.825-.924l.206.308Zm-.824-2.054.412 1.232c0-.102-.103-.308-.103-.41v-.103l-.412-1.027.103.308Zm-.31-1.95.207 1.13v-.617l-.103-.821-.103.308Zm-.102-1.438.206.206v-1.438l-.206.103.103.616-.104.513Zm.103-3.285.206.513-.103-1.334-.103.821Zm-.722-4.312c.412 0 .825.308.928 1.027v.513-.616l.721-.719 1.03-.102v-.103h.413c.412 0 .721.103.927.103l.103-.308h.825l1.442-.719v.308l.207-.205 1.133.205c.515 0 .928-.103 1.443-.41l-2.473.102-3.092-.103-.515.411h-1.443l-.412-1.437-.103 1.026h-2.576l-.722-.205-.515.103v.821h.618l.721.513.619-.205.412.205c0-.205.206-.205.31-.205Zm1.03-4.415.207.514v.513l.103-1.13-.103-.307s0 .102-.103.205l-.103.205Zm0-1.54.104.103.412-.616v-.616c-.103-.103-.103-.308-.103-.513 0-.206 0-.514.103-.719 0-.103 0-.308-.31-.821l-.102-.206.103-.308c-.103-.102-.31-.205-.515-.308 0 .103-.104.103-.104.206l-.206.718.516.103-.206.719.412.513-.103 1.745Zm43.9 10.267c0 .205-.102.41-.308.513l-.722-.205-.824.616-1.03-.103c-.413.308-.825.411-1.34.411-.412 0-.618.103-.722.205-.412-.205-.72-.205-1.133-.205-.31 0-.515.103-.618.308.103.103.206.308.309.41l-.103.514.103 1.54.618.924.103.821 1.03 1.54-.206.72.722.615 1.133 1.848c.619.616.928 1.13 1.031 1.437l.824.411.31.719.309.205-.619.41-.721-.615h-.412l-.618-.308h-.413l-.412-.822-.412-.205c-.412-.719-.825-1.335-1.237-1.745v-.41l-.412-.412v-.718l-.721-.719-1.03-2.361-.31-.41-.206-1.13c0-.103-.206-.514-.618-1.13v-1.026h-.516l-.618.41-.928-.205-.618.41-.206-.205-.515.308-.103-.308c-.103 0-.206 0-.515.103-.207.103-.516.103-.722.103H48.98l-.824.513-.824-.205-1.134.102v.206l-.412-.206-.619.308-.412-.308h-.721l-.721.308-.928-.718-.31.205-.617-.205c-.516.205-1.237 1.026-2.164 2.361l-.722.205c-1.236 1.951-1.958 2.875-2.06 2.875l-.413.205-1.34 1.746h-.206l-1.133 1.848-1.237.821-.927-.205.206-.41v-.617l.309-.41-.206-.411.824-.103.618-.308c.516-.205.825-.616.928-1.13.618-.205 1.03-.513 1.133-1.129.722-.41 1.237-1.129 1.546-2.156l.619-.205 1.545-2.361v-.616c-.206-.206-.412-.41-.515-.719l.928-.821v-.308l1.133.102.618-.41.103.205.619-.821c-.103 0-.206-.103-.206-.206 0-.102.206-.308.618-.513l.206.308c0-.41.206-.821.515-1.335l-.103-.102h.515l.207-.616c.412 0 .618-.206.618-.514v-.513c.721-.616 1.133-1.232 1.133-1.745v-.103l.619-.103.103-.616.309-.102.515-1.027.31.205-.31-.718c.413 0 .722-.308.722-.924l.309.205v-.924h.309v-.616l.515-.513c.31-.206.516-.616.516-1.027l.515-.513-.31-.719c.413-.616.825-.821 1.237-.821h.103l.31-.41.309.512c.103.103.206.206.412.308l.824.411.103 1.232c.206.205.412.513.619.924l.412.103.103 1.026.412 1.438.618 1.13.413 1.54.103 1.026.618.924-.206.41.515.616v.72l.103.615c0 .103-.103.308-.206.513.515 1.13 1.03 1.643 1.649 1.643l.927-.205h1.134c.31.102.618.102.824.102.413 0 .722-.102.928-.308.206-.205.412-.308.412-.308.103 0 .412.103.824.411l1.03-.308Zm-8.965-1.13c-.206-.513-.412-.82-.721-1.026l.206-.616-.618-.41-.206-1.746-.619-.924-.103-.719-.206-.616v-.205h-.103l-.103-1.027c0-.102-.103-.308-.206-.513l-.31-.513c-.102-.103-.205-.206-.411-.308-.206-.103-.516-.308-.928-.514l-.515.308-.31.514-1.133 1.54-.309.513c-.103.103-.412.513-1.133 1.232l-.207.719-1.03.513c-.206 1.232-.722 1.848-1.443 2.053l-.412 1.438-.825.41v.514l-.103.513c.516.205.928.308 1.134.513h.618l.928.206c.206.102.309.102.412.102.103 0 .412 0 .618-.102h.206s.206 0 .31.102c.206.103.412.103.515.103l.618-.103 1.855-.102 1.546-.206c.927.103 1.546.206 1.855.206.721 0 1.133-.206 1.133-.514 0-.205-.103-.513-.412-.82l.412-.514Z" fill="#000"/><path d="m62.788 69.916-.927-.719h-.412l-.618-.513h-.619l-.515-.924-.515-.205-.103-.206a5.133 5.133 0 0 0-1.134-1.642l-.103-.103v-.41l-.412-.411v-.719l-.618-.719-1.031-2.361-.412-.513-.206-1.335c0-.103-.103-.308-.516-.924l-.103-.103v-.513l-.515.308-.927-.205-.825.513-.206-.205-.721.513-.206-.513c-.31.102-.619.205-.928.205H48.98l-.825.513-1.03-.205h-.619v.616l-.927-.513-.618.308-.516-.411h-.412l-1.03.41-.619-.41-.206.103-.721-.308c-.31.205-.825.718-1.752 2.156l-.103.205-.722.205c-1.648 2.567-1.958 2.875-2.164 2.978l-.206.102-1.442 1.746h-.207l-1.03 1.642-1.546.924-1.752-.513.412-.924v-.719l.206-.308-.309-.718 1.546-.206.515-.308c.31-.102.516-.41.619-.821l.103-.308.309-.103c.515-.102.721-.41.721-.616v-.205l.206-.103c.619-.308 1.03-.924 1.237-1.745l.103-.308.721-.308 1.34-2.053v-.308c-.206-.206-.309-.411-.412-.719l-.103-.308 1.03-.924v-.719l1.546.206.825-.514v-.205c0-.308.309-.616.927-1.027l.103-.102c0-.103.103-.206.103-.308l-1.03-.719 1.752-.103.206-.616h.515v-.718l.206-.206c.618-.513.928-1.026.928-1.334v-.616l.72-.103.104-.616.412-.103.412-.718-.206-.514h.722c.103 0 .206 0 .309-.41l.103-.822.206.103v-.513h.309v-.308l.206-.206s.206-.102.515-.513c.206-.205.31-.41.413-.719v-.205l.412-.41-.722-.617.207-.308c.515-.616.927-.924 1.442-1.026l.619-.924.721 1.13.206.204 1.03.514.104 1.334c.206.206.309.411.515.719l.515.205.103 1.335.31 1.335.618 1.026.412 1.643.103.821.824 1.027-.206.308.413.41v.822l.102.719c0 .205 0 .308-.102.513.309.719.618 1.027 1.03 1.13l.928-.206h1.34c.308.103.514.103.72.103.31 0 .413 0 .619-.103.412-.308.515-.41.824-.41.206 0 .412.102 1.03.41l1.444-.103v.719c0 .41-.207.821-.619 1.027l-.206.102-.721-.205-.825.616-1.03-.103c-.412.308-.928.411-1.443.411h-.31l-.205.41-.412-.205c-.206-.102-.31-.102-.516-.205l-.206.719.103 1.334.619.924.103.822.927 1.54-.103.616.515.513 1.134 1.848c.618.719.824 1.027.927 1.335l.825.41.309.822.824.616-1.546 1.129Zm-1.03-1.848h.31l-.62-.308-.102-.205c0-.103-.206-.411-.928-1.232l-.103-.103-1.03-1.745-.722-.822.206-.718-.927-1.438-.206-.924-.618-.924-.206-1.848.103-.205c-.103-.103-.206-.205-.206-.41l-.104-.206.104-.205c.102-.206.206-.411.618-.616-.618-.206-1.237-.822-1.65-1.951l-.102-.308.206-.205c.103-.103.103-.103.103-.206l-.103-.616v-.513l-.618-.719.206-.41-.516-.719-.102-1.13-.413-1.437-.618-1.129-.412-1.54-.103-.719-.31-.102h-.206c-.206-.514-.412-.616-.412-.719l-.206-.103-.103-1.129-.515-.205a1.42 1.42 0 0 1-.412-.308h-.413c-.103 0-.206 0-.618.41l.31.72-.722.718c-.103.513-.31.821-.721 1.129-.207.103-.31.205-.31.308v.924h-.309v.616l.825-1.13.412-.718.927-.513.206.102c.413.206.722.411.928.514.206.205.412.308.515.513l.31.513c.205.308.308.514.308.822v.513h.206v.719l.31.616.103.718.618.924.206 1.643.825.41-.206.617c.206.205.412.616.618 1.026l.103.411-.412.308c.103.205.206.513.206.719 0 .308-.103.718-.722.924h1.03V57.8c.516.822.62 1.027.62 1.13l.102 1.026.31.308 1.03 2.362.824.821v.719l.413.41v.514c.412.41.72.924 1.03 1.54l.412.205.413.616h.309l.721.616Zm-29.782-.924h.103l.928-.513.618-1.027c-.103.103-.206.103-.412.205l-.619.308h-.309l-.412.514v.513h.103Zm2.37-2.567h.103l.103-.205c0 .103-.103.103-.206.205Zm2.68-3.285c-.104.205-.104.308-.207.513.103-.205.206-.308.413-.616l-.206.103Zm1.957-4.21.104.103.206.206v1.129l-.825 1.335.412-.103c.928-1.437 1.65-2.156 2.268-2.464l.206-.103.618.206.515-.411.722.719.515-.206h1.03l.31.206.515-.308.206.102 1.443-.102.721.102.721-.513h1.65c.205 0 .411 0 .514-.103.31-.102.516-.205.722-.205h.412v.103l.31-.206.205.206.516-.308.927.205.412-.308h-.618c-.206 0-.618 0-1.855-.205l-1.443.205-1.855.308-.618.103h-.103c-.206 0-.515 0-.721-.103h-.31c-.309.103-.618.103-.824.103-.103 0-.31 0-.618-.103l-.619-.205-.721.102-.103-.102c-.103-.103-.412-.206-1.03-.411h-.207v.103l-.103-.103-.206-.205.103-.206-.309-.513-1.133 1.437-.31-.41-.309.308h-.721l-.721.616Zm19.374-.923c.103 0 .31.102.413.102.206-.102.515-.205.824-.205h-.928l-.309.103Zm-11.335-.616c.103 0 .206 0 .515.102.103 0 .206.103.309.103l.618-.103 1.855-.102 1.546-.206h.103c1.134.103 1.546.103 1.752.103h.515c0-.103-.103-.205-.206-.308l-.309-.41.618-.514a1.417 1.417 0 0 0-.309-.41l-.412-.206.206-.616-.412-.205-.206-1.951-.619-.924-.103-.821-.206-.514h-.206l-.103-1.54s0-.102-.103-.205l-.515-.616-.206-.205c-.103-.103-.206-.206-.516-.308l-.103.102-.309.411-1.133 1.54-.31.513c-.103.103-.206.308-.618.719l.206.41-.309-.205-.412.411-.206.821-1.03.514c-.31 1.129-.722 1.848-1.444 2.156l-.412 1.334-.824.308v.411c.309.103.515.205.618.308h.516l1.03.308.206.103s.206 0 .515-.103c.103-.205.31-.205.413-.205Zm-3.813-2.054c-.103.103-.103.308-.207.411l.722-.308.309-.924s-.103 0-.206.103l-.206.616-.412.102Zm1.34-1.95v.616c.412-.103.824-.719.927-1.643v-.205c-.206.308-.515.718-.928 1.232Zm1.03-1.643c0 .103-.103.205-.103.308l1.03-.513.206-.616.103-.103.31-.308-.206-.205-.413.513-.206.103-.103.718-.618.103Zm1.855-2.361.206.41.103-.102.31-.514-.207-.102a1.423 1.423 0 0 1-.412.308Zm49.877-.308-.618 1.026.103.719.206-.103c0 .206-.103.616-.31 1.13l-.308.616v2.361l-.413 1.027.103.718-.412 2.156.206.514-.412 1.745.103.719-.309 1.232.31 1.129-.722 1.13.206.615-.412.822.206.41.206 2.156.309.719a1.052 1.052 0 0 0-.515.616l-.515.103-.207-2.362-.309-.102c0-.308 0-.514-.103-.822v-1.745c0-.308 0-.616-.103-.719l-.309-.616-.927-.102-.516-.719-.206.308-.412-.513-.825.205-.927-.719-.515.103-.928-.205-.515-.616-.31.102-2.885-1.745-.309-.41-1.03-.411-.618-.822-.516-.308-.721-.718-2.164-.924-1.546-1.951h-.618l-.413-.616c-.412-.205-.927-.616-1.545-1.232h.206c-.31-.308-.516-.616-.722-1.13l-.309-.102h-.103c-.309 0-.515.103-.618.308-.103.205-.206.719-.31 1.335L72.58 53.9l.412 1.437-.722 2.567c.206.924.31 1.54.31 1.54v.205c0 .411-.103.719-.31.924-.206.206-.309.411-.309.514 0 .102.206.205.619.308l-.31 1.026v1.13l-.206 1.334.206.514-.206.308c-.103.924-.309 1.642-.618 2.156h-.31c-.411 0-.618-.308-.618-.924v-.206l.619-1.848-.206-.718.309-1.027-.31-.41.413-.72-.515-.718c.103-.41.103-.616.103-.924 0-.205 0-.616-.103-1.027l.206.103.206-.41-.412-.72.412-1.129-.206-1.437.206-1.335-.31-1.026.31-2.259v-1.745l.206-1.643-.206-.513v-2.259l.515-.103c-.412-.41-.618-.718-.618-1.129 0-.205.103-.308.309-.513l.824.205.206-.308c.31.205.413.513.413.719 0 .205-.103.41-.206.616h.618l.103 1.13.618.512.103.719.722.513.206.924c.103.411.206.616.515.822l1.546 1.129v.103c0 .205.206.513.515.821l1.134.719 1.133 1.334 3.71 3.08h.412c.31.308.516.514.619.719.103.205.206.308.206.41l1.546.514 1.236 1.027.722.205 1.34.719 1.236.41c.824.822 1.443 1.13 1.958 1.13l.721-.206h.103l.103-1.334.619-1.438-.31-.308.103-2.156.516-.821-.103-.513c0-.103-.206-.514-.413-.924l.516-1.848-.206-1.746.412-3.388-.412-.513.618-1.95-.206-.206.309-.41-.103-.309.721-.308.103.308.619-.102c-.103.308-.103.616-.103.821 0 .308.103.616.206.821.103.206.206.411.206.514l-.206.821.618 1.027Z" fill="#000"/><path d="m95.043 69.505-1.236-.308-.207-2.361-.309-.103v-.41c0-.308-.103-.616-.103-.924v-1.746c0-.308-.103-.513-.103-.513l-.206-.205-.824-.103-.206-.308-.207.308-.618-.821-.721.205-.928-.719-.412.103-1.236-.205-.413-.514-.309.103-3.194-2.053-.207-.411-1.03-.41-.618-.822-.516-.308-.721-.719-2.164-.924-1.443-1.848h-.721l-.413-.616c-.515-.205-.927-.718-1.545-1.334l-.722-.822c-.103.206-.103.514-.206 1.13l-.412 2.258.412 1.438-.721 2.464c.31 1.334.31 1.437.31 1.54v.205c0 .513-.104.924-.413 1.232l.515.205-.412 1.438v1.232l-.206 1.129.309.616-.31.513c-.102.924-.308 1.746-.72 2.362l-.207.205h-.618c-.31 0-1.134-.103-1.134-1.437v-.514l.516-1.745-.206-.719.309-.821-.31-.513.413-.822-.516-.616v-.205c.104-.308.104-.616.104-.821 0-.206 0-.514-.103-.924l-.207-1.027.207.103-.104-.206.413-1.129-.206-1.335.309-1.437-.31-1.027.31-2.361v-1.745l.206-1.54-.206-.514.103-2.772h.103c-.103-.205-.206-.513-.206-.718 0-.206.103-.616.515-.924l.206-.206.722.206.309-.514.412.411c.412.308.618.719.618 1.13v.102h.412l.103 1.335.516.513.103.616.721.41.31 1.13c.102.205.205.41.308.513l1.752 1.232v.514s.103.205.31.41l1.133.719 1.237 1.437 3.503 2.875h.413l.103.103c.412.308.721.616.824 1.026v.103l1.443.513 1.237 1.027.618.205 1.34.719 1.34.41.102.103c.825.822 1.34 1.027 1.546 1.027l.412-.103.103-1.026.516-1.13-.207-.205.207-2.567.515-.718v-.308s-.103-.206-.412-.719l-.103-.205.515-1.951-.206-1.643.412-3.182-.515-.924.618-1.951-.31-.308.413-.513-.103-.514 1.649-.821.206.513 1.133-.205-.206.924c-.103.308-.103.513-.103.719 0 .205 0 .41.103.513.206.41.31.616.31.719v.102l-.31.719.619 1.13-.516.82.103-.102v.821c0 .308-.103.719-.412 1.335l-.103.513v2.362l-.515 1.026.103.616-.412 2.054.206.513-.412 1.848.103.821-.31 1.13.413 1.232-.722 1.129.207.616-.413.719.103.308.206 2.258.516 1.027-.412.308-.31.308-.309.513ZM71.135 66.94v.41c.206-.41.31-1.026.412-1.642v-.103l-.412 1.335Zm.31-2.67.102.308.206-1.026v-.103l-.309.821Zm22.774-.718v.718l.103-.205-.103-.513Zm-.206-.822c.103.103.103.308.206.514l.721-1.13-.309-1.129.31-1.232-.104-.719-.515 1.027-.103 1.745H93.6l-.309.103h.206l.516.821Zm-22.466.103.206.205v-.616l-.206.411Zm-.206-1.54.515.719.104-.206c-.31-.102-.516-.308-.516-.616 0-.205.103-.513.412-.821a.782.782 0 0 0 .207-.513v-.206c0-.102 0-.308-.31-1.54v-.102l.619-2.362-.412-1.437.412-2.567c.206-1.026.309-1.334.412-1.54.103-.205.412-.616 1.133-.616h.207l.618.206.103.205c.206.41.412.719.618.924l1.03.924h-.308c.103.103.309.205.309.205l.103.103.309.41h.618l1.546 2.054 2.061.924.825.821.618.308.618.719 1.03.41.31.411 2.576 1.643.412-.103.619.719.618.103.412-.103-1.34-.719-.72-.205-1.237-1.027-1.34-.41c-.31-.103-.515-.411-.618-.719 0-.103-.103-.205-.31-.41h-.412l-3.71-3.286-1.03-1.335-1.03-.718c-.413-.411-.62-.719-.62-1.027l-1.339-1.027c-.309-.308-.515-.616-.721-1.129l-.206-.719-.825-.513-.103-.719-.618-.513-.103-.719-1.03.308v1.746l.206.513-.207 1.745v1.746l-.309 2.156.31 1.026-.31 1.54.206 1.438-.309 1.026.412.719-.412.924v.513c0 .103-.103.411-.103.719Zm18.55-.821.618.513.309-.103-.206-.205-.721-.205Zm4.843-2.567.31.308.205-.821-.206-.514.31-1.437-.413.719-.206 1.745Zm.206-4.312c.31.513.412.821.412.924l.103.513.103-.308-.103-.718.516-1.13v-2.361l.309-.719c0-.102.103-.205.103-.205l-.206-1.335.515-.821-.515-1.027.309-.924s-.103-.102-.103-.205c-.206-.308-.31-.719-.31-1.13v-.205l-.308.103-.103.103.102.102-.618 1.951.516.513-.516 3.491.206 1.745-.412 1.643Zm-21.126-2.977h.207v-.103c-.103 0-.207 0-.207.103 0-.103 0-.103 0 0Zm-2.06-6.674c0 .103.102.308.412.514l.103-.206c.103-.102.103-.102.103-.205l-.619-.103ZM107.718 49.485l3.298.103 3.092-.103h2.782c.309 0 .515.103.515.41 0 .309-.206.514-.721.617-.103-.103-.206-.103-.412-.103s-.412.103-.618.206l-.619-.103h-1.236c-.619.308-1.134.513-1.752.513l-.928-.205-.412.41h-.412v-.307l-.825.41h-.412l-.103.41c-.309-.102-.721-.102-1.34-.204 0 .205-.103.308-.206.308s-.103-.103-.309-.206l-.618.103-.412.513-.103 2.259.103 1.335-.103 1.745v1.95l.103.925v.82l.206 1.336v.205c0 .513.309 1.027.927 1.54l.103.41.825.206.618.616 1.752.308 2.267-.513.618.205 1.649-.719.619.103c.206.205.309.41.309.616 0 .205-.206.513-.619.719l-.309-.103-.721.616-1.546.205-.515.308-.515-.308c-.516.308-1.031.41-1.649.41l-.928-.204h-.515l-1.752-1.027-.824-1.13-.516-.615-.824-2.26-.412-2.155.206-.821-.412-.411.206-.513-.103-.822.515-.41-.206-.411.103-.513-.206-.616.103-.924-.103-.411.206-.103V52.36c-.103-.41-.206-.616-.412-.616-.103 0-.206.103-.309.205l-.516-.205-.721.205-.721-.513h-.413c-.412 0-.515-.205-.515-.616V50.1l-.309-.205.206-.41.721.102.516-.103.721.206h1.958l.103-1.13v-1.13l-.309-.82.412-.308c.103-.206.103-.308.103-.308 0-.206-.103-.411-.412-.514l.103-1.848-.412-.616.103-.41c-.309-.103-.412-.206-.412-.411l.309-1.232c.309-.308.412-.513.412-.616.927.41 1.443.719 1.443.821l-.206.41c.206.412.309.822.309 1.028v.102c-.103.206-.103.514-.103.616 0 .103 0 .308.103.41v.925l-.412.616.309 1.13-.206 1.437.206.308-.309.41.412 1.13h.824l.515-.206Z" fill="#000"/><path d="m110.089 67.965-1.031-.205h-.618l-1.958-1.13-.824-1.231-.619-.719-.927-2.464-.412-2.259.206-.718-.412-.514.206-.718-.206-1.027.412-.308-.103-.205.103-.616-.206-.616.103-.924-.103-.719.309-.205v-1.232l-.722-.308-.824.205-.824-.616h-.206c-.722 0-1.134-.41-1.134-1.13v-.41l-.412-.308.515-1.232 1.031.103.618-.103.824.205h1.34v-1.437l-.412-1.13.515-.41h-.103l-.309-.205.103-1.951-.412-.616v-.205a.888.888 0 0 1-.413-.719v-.103l.413-1.437.103-.103c.309-.308.309-.513.309-.513l.206-.616.618.308c1.546.719 1.752.924 1.752 1.335v.102l-.103.308c.206.411.309.719.309 1.027v.308c-.103.205-.103.308-.103.513l.206.206-.103.616.103.616-.412.616.206 1.026-.206 1.335.309.41-.309.514.206.513h.309l.619-.41 3.4.102 3.092-.102h2.782c.619 0 1.031.41 1.031.924 0 .308-.103.924-1.237 1.129h-.206l-.206-.103h-.103c-.103 0-.103 0-.206.103l-.206.205-.825-.205h-1.03c-.619.308-1.237.513-1.855.513h-.103l-.618-.102-.413.41h-1.133l-.206.103h-.103l-.207.513-.515-.102c-.103 0-.412-.103-.927-.103-.206.205-.412.205-.516.205-.206 0-.309-.102-.412-.205h-.206l-.206.205-.103 2.054.103 1.334-.103 1.746v1.95l.103 1.027v.719l.515 1.129v.308c0 .308.206.719.722 1.13l.103.102.103.205.721.206.618.616 1.443.308 2.37-.514.619.206 1.545-.719.928.103.103.102c.309.308.515.616.515 1.027 0 .41-.309.821-.824 1.232l-.206.205-.309-.102-.619.513-1.649.205-.721.411-.618-.308c-.619.719-1.134.821-1.752.821Zm-1.237-1.232h.412l.928.206c.515 0 .927-.103 1.34-.308l.309-.103.515.308.309-.205 1.546-.206.824-.718.31.102.103-.102v-.103h-.31l-1.648.821-.722-.205-2.267.513-2.061-.41-.618-.719-.928-.205.412.513 1.546.821Zm-2.782-2.566.515.616.309.41-.206-.41c-.309-.308-.618-.616-.824-.924l.206.308Zm-.825-2.054.413 1.232c0-.102-.103-.308-.103-.41v-.103l-.413-1.027.103.308Zm-.309-1.95.206 1.129v-.616l-.103-.924-.103.41Zm-.103-1.438.206.206v-1.438l-.206.103.103.616-.103.513Zm.103-3.285.206.513-.103-1.334-.103.821Zm-.721-4.312c.412 0 .824.308.927 1.027v.513-.616l.722-.719 1.03-.102v-.103h.412c.413 0 .722.103.928.103l.103-.308h.721l1.443-.719v.308l.206-.205 1.134.205c.515 0 .927-.103 1.443-.41l-2.474.102-3.091-.103-.516.411h-1.442l-.413-1.437-.103 1.026h-2.576l-.721-.205-.515.103v.821h.618l.721.513.618-.205.413.205c.103-.205.309-.205.412-.205Zm1.03-4.415.207.514v.513l.103-1.13-.103-.307s0 .102-.104.205l-.103.205Zm0-1.54.103.103.413-.616v-.616c-.103-.103-.103-.308-.103-.513 0-.206 0-.514.103-.719 0-.103 0-.308-.309-.821l-.104-.206.104-.308c-.104-.102-.31-.205-.516-.308 0 .103-.103.103-.103.206l-.206.821.515.103-.206.718.412.514-.103 1.642ZM153.681 63.961c.103.308.206.514.206.616 0 .103-.103.308-.412.514-.309.205-.618.513-1.03.821l-.516-.205-.618.924c-.515 0-1.031.205-1.443.41l-1.339-.308-.722.308-.206.411c-.412-.308-.721-.513-.824-.513-.103 0-.103 0-.103.102h-.207l-.412.411-.412-.513-.309.102c-.309-.205-.515-.308-.721-.308h-1.546l-.412-.513-.516.103-.721-.411-.412.205-.309-.513h-.722l-.412-.513h-.515l-.309-.308c-.103-.206-.413-.411-.619-.616l-1.442-.719c-.825-.41-1.443-1.13-1.958-2.053h-.516l-.721-.924-1.34-1.13-1.546-1.745-.412-.103-.721-.718c-.103-.103-.412-.206-.928-.411-.206.103-.412.205-.618.205-.103 0-.309-.102-.412-.205h-.618l-.413-.616c.206-.205.31-.513.31-.924l.618-.205v-.308l.618-.103c.206-.103.412-.205.618-.205.104 0 .207 0 .413.102a.32.32 0 0 0 .206.103s.103 0 .206-.103c.103.616.824.822 1.958.822 1.03 0 1.855-.103 2.37-.308v-.206l3.504-.102a5.604 5.604 0 0 1 2.576-.616l.309.102.825-.308.206-.308h.515l.721-.308h.516c.309 0 .412 0 .515-.102.103-.103.103-.206.103-.308v-.103c.412 0 .618-.103.618-.205 1.134-.308 1.752-.822 1.752-1.54 0-.308-.206-.719-.515-1.027l-1.546-1.54h-.412c-.721-.41-1.134-.616-1.34-.616h-.412l-.927-.41h-.619l-.618-.514h-1.134l-.412-.205-2.576-.206-.412-.205-.309.205-.516-.205-.515.205-1.34-.205-1.442.205-.722-.205-.824.103-.722-.103-.618.205-.412-.205-.824.513-.619-.102c-.206.41-.412.821-.721 1.129l.309.616-.103 2.772.309 2.361c-.309 1.13-.515 1.746-.515 2.054l-.309 6.057.412 3.49-.309 1.849v.41c0 .206-.309.411-.928.411h-.206l.206-1.848-.206-.719-.412-1.95.309-.206c-.412-.513-.618-.821-.618-.924 0-.308.206-.616.515-.924l-.412-.718h-.103c0-.206.206-.616.618-1.335-.206-.205-.309-.513-.309-.924l.103-.719v-.41c.206-.411.309-.719.309-1.027 0-.308-.103-.616-.309-1.13l.309-.82-.103-.72.309-.205c-.103-.102-.103-.308-.103-.513 0-.205.103-.616.309-1.13l-.412.103-.309-1.232.206-.924-.206-1.95.206-.206c-.515-.513-.824-.718-1.133-.718h-.104l-.309.308-1.133-.103-.722.924c-.309-.308-.618-.41-.927-.41-.206-.309-.412-.617-.412-.72 0-.102 0-.307.103-.41.103-.103.206-.308.309-.41l.618-.411 1.443-.206 1.958-.102.412-.308v-.103c0-.513.412-.719 1.134-.719h.618c.206.616.412 1.027.824 1.027.104 0 .413-.103 1.031-.41l1.134.307 1.855-.308 2.473.308 3.504.103 1.751.308h1.34l.515.41c0-.205.103-.307.31-.307.103 0 .309.102.412.308 0 .205.103.41.206.513l.515.103v-.616l1.855.718.618.514.103-.103c.31.205.722.308 1.237.308l.309.41.412.103c.516.822.928 1.335 1.134 1.746.309.41.412.718.412 1.026 0 .616-.206 1.027-.721 1.54a8.03 8.03 0 0 0-1.546 1.643h-.927c-.104 0-.413.103-.825.308l-.206.41h-1.34l-.412.309c-.103.102-.206.102-.412.205l-.721.205c-.825 0-1.546.308-2.165 1.027l-.721-.513-.618.308c-.103-.103-.309-.103-.412-.103-.207 0-.413.103-.722.41l-.618-.307-.618.308-.207-.308-.824.513-1.133-.103c-.207 0-.516 0-.722.103l.412.616 1.134 1.027.309.616 1.855 1.437.412.719.309.308c.103.102.31.513.619 1.232h1.236l1.443 1.437.721.308 1.031.616 1.03.308 1.443.513.515-.102.207.205.103-.103.206.308.618-.102.103.513.515-.308.516.205 1.648-.205.619.205 2.267-.41 1.649-.411.103.308.309-.616h.721l-.309-.719Z" fill="#000"/><path d="m147.703 68.376-.515-.41c-.103-.103-.206-.103-.206-.206l-.412-.103-.618.616-.516-.616-.309.103-.206-.205c-.103-.103-.309-.206-.412-.206h-1.752l-.412-.41-.412.102-.722-.41-.618.308-.412-.72h-.619l-.412-.512h-.309c-.412 0-.618-.308-.721-.616-.103-.103-.206-.308-.413-.411l-1.442-.719c-.825-.41-1.546-1.13-2.061-2.053h-.516l-.927-1.13-1.34-1.026-1.442-1.745-.413-.103-.824-.821s-.206-.103-.515-.206c-.413.206-.722.206-1.031 0h-.927l-.825-1.232.309-.308s.103-.205.206-.616v-.308l.516-.205V53.9l.927-.205c.412-.308.825-.308 1.34-.206l.515-.821.309 1.232c.103.308.619.41 1.443.41.721 0 1.34-.102 1.855-.205V53.9l3.916-.103a6.03 6.03 0 0 1 2.679-.616h.103l.206.103.413-.205.309-.411.721.103.722-.308h.618v-.514l.515-.102h.103l.412-.103c.928-.205 1.34-.616 1.34-1.027 0-.205-.103-.41-.309-.616l-1.443-1.334h-.309l-.103-.103c-.824-.513-1.031-.616-1.134-.616h-.515l-.927-.41h-.619l-.618-.514h-1.03l-.413-.205-2.576-.206-.309-.205-.206.103-.619-.206-.412.103-1.442-.205-1.443.308-.825-.308-.824.102-.618-.102-.619.308-.412-.103-.824.513-.516-.102c-.103.205-.206.41-.412.616l.206.513-.103 2.772.309 2.361v.103c-.412 1.437-.515 1.745-.515 1.848l-.309 5.955.412 3.49-.309 1.848v.41c0 .309-.206.925-1.443.925h-.927l.309-2.361-.206-.616-.515-2.26.103-.102c-.309-.41-.309-.616-.309-.821 0-.308.103-.719.412-1.027l-.103-.205a.564.564 0 0 1-.309-.513c0-.206.103-.514.515-1.232-.103-.308-.206-.616-.206-.924v-.103l.103-.719v-.41l.103-.103c.206-.41.206-.616.206-.719 0-.102 0-.41-.309-.821l-.103-.205.309-.822-.206-.821.206-.205v-.719h-.103l-.412-1.95.206-.925-.206-2.053c-.103-.103-.207-.205-.31-.205l-.309.308-1.03-.103-.928 1.13-.412-.309c-.309-.205-.515-.308-.618-.308h-.206l-.103-.205c-.31-.41-.516-.821-.516-1.13 0-.205.103-.513.206-.718.104-.205.31-.41.516-.616l.721-.513 1.649-.206 1.752-.102.103-.103c0-.41.309-1.13 1.649-1.13h1.03l.103.411c.103.308.206.514.309.514.103 0 .31-.103.825-.308l.206-.103 1.237.308 1.855-.308 2.473.308 3.504.103 1.648.308h1.443l.309.205c.103 0 .206-.103.309-.103.207 0 .413.103.619.206v-.103l2.679 1.13.206.205.103-.103.412.308c.104.103.413.205 1.031.205h.206l.309.41.412.104.103.205c.516.821.928 1.335 1.134 1.745.309.514.515.924.515 1.335 0 .719-.309 1.335-.927 1.95-.515.411-1.031.925-1.546 1.54l-.206.206-1.031.103s-.103 0-.412.205l-.206.513h-1.443l-.206.206c-.103.102-.309.205-.618.308l-.824.205h-.103c-.619 0-1.237.308-1.752.821l-.31.308-.927-.616-.618.308-.309-.205h-.104s-.103.103-.309.205l-.309.206-.721-.308-.825.308-.206-.206-.618.308-.824-.102.927.718.309.514 1.855 1.437.412.821.206.308c.103.103.207.308.516 1.13h1.133l1.546 1.54.721.308.928.616.927.308 1.237.513.618-.103.206-.205.31.616.824-.205.103.205.103-.103.721.206 1.649-.206.619.206 2.164-.411 1.752-.513.206-.308h.721l.721-1.54.516 1.334c.206.514.206.719.206.822 0 .41-.309.718-.619.924-.309.205-.618.513-.927.82l-.206.206-.412-.102-.516.82h-.309a2.75 2.75 0 0 0-1.236.309l-.206.103-1.34-.308-.412.205-.31 1.232Zm-1.03-1.95c.206 0 .309 0 .618.205l.825-.411-.619-.103-1.648.206-.413-.103-.412.308h.103l.412-.205.31.308.206-.206h.206c.206.103.309 0 .412 0Zm2.061-.206 1.134.308a2.75 2.75 0 0 1 1.236-.308l.309-.41-.618.205-2.061.205Zm-5.565.103h1.34l-.103-.206-.515.103-.207-.308-.206-.205-.412.102-1.546-.616-1.03-.308-1.031-.616-.824-.41-1.34-1.335h-1.443l-.103-.308c-.309-.821-.515-1.027-.515-1.13l-.309-.41-.412-.719-1.855-1.437-.309-.616-1.134-.924-.927-1.335.721-.205h-.206c-1.134 0-1.855-.205-2.267-.719-.103 0-.206-.102-.412-.205h-.103s-.104 0-.207.103l-.103.102-.309.103v.205l-.618.206c0 .102 0 .102-.103.205l.618.41.103.103s.103 0 .309-.102l.206-.103.207.103c.824.308 1.03.41 1.236.616l.619.616.412.102 1.649 1.848 1.339 1.13.619.82h.618l.103.309c.412.821.927 1.437 1.649 1.848l1.442.719c.413.205.619.513.825.82 0 0 0 .104.103.104h.618l.412.513h.722l.206.41.309-.102.825.41.618-.102.721.41Zm-19.271-1.438.207.514.103-.616-.207-1.746-.412.308.309 1.54Zm-.618-2.977c0 .103.103.205.412.616l.309.41-.206-1.437v-.308l-.206.206c-.309.205-.309.41-.309.513Zm0-1.95.515 1.026.31-5.647c0-.205.103-.616.515-2.053l-.309-2.053-.206.41c-.31.616-.31.822-.31.924v.206l.31.41-.413.308.103.514-.309.718c.206.41.309.822.309 1.13 0 .308-.103.718-.309 1.129v.308l-.103.719c0 .308.103.41.206.513l.309.308-.206.308c-.206.41-.309.719-.412.821Zm8.966-4.62.618.102.721-.41-.206.102c-.309.103-.618.205-1.133.205Zm2.473-.411.515.205c.206-.103.309-.205.412-.205h-.927Zm-.618 0 .103.205.412-.205h-.515Zm3.194-.206.515.308c.413-.41.928-.616 1.443-.718-.618 0-1.339.102-1.958.41Zm6.596-2.053h.515l.309-.308c-.206.103-.515.205-.824.308Zm-.825-5.133h.412l1.752 1.642c.412.41.722.924.722 1.438 0 .205 0 .41-.103.616l.103-.103c.412-.308.515-.719.515-1.13 0-.205-.103-.41-.309-.718-.206-.308-.619-.821-1.031-1.54l-.412-.103-.309-.41c-.309 0-.515-.103-.722-.206l-.206.206-1.03-.822-1.031-.41v.41l-1.339-.205-.103-.205c0-.103-.103-.103-.103-.206l-.104.308-1.03-.924h-1.134l-1.752-.308-3.503-.102-2.37-.308-1.855.308-1.134-.206c-.721.308-.927.41-1.031.41-.412 0-.927-.204-1.236-1.026h-.206c-.412 0-.516.103-.516.103v.513l-.721.616-2.061.103-1.237.103-.515.308-.206.205v.205s0 .103.103.308c.103 0 .309.103.412.206l.619-.72 1.133.104.309-.308h.31c.412 0 .927.308 1.545.924l.413.41-.413.41.206 1.746-.206.822.103.616.722-.103.103-2.361-.412-.822.206-.308c.206-.308.412-.616.618-1.026l.206-.411.825.103.927-.616.412.205.515-.205.825.102.927-.102.722.205 1.339-.205 1.34.205.515-.205.413.102.309-.205.618.308 2.576.205.413.206h1.133l.618.513h.516l.927.41h.309c.413.309.722.411 1.649.925Z" fill="#000"/><path d="M183.978 55.44c0 .205-.103.41-.309.513l-.721-.205-.824.616-1.031-.103c-.412.308-.824.411-1.34.411-.412 0-.618.103-.721.205-.412-.205-.721-.205-1.134-.205-.309 0-.515.103-.618.308.103.103.206.308.309.41l-.103.514.103 1.54.619.924.103.821 1.03 1.54-.206.72.721.615 1.134 1.848c.618.616.927 1.13 1.03 1.437l.825.411.309.719.412.308-.618.41-.721-.616h-.413l-.618-.513h-.412l-.412-.821-.413-.206c-.412-.718-.824-1.334-1.236-1.745v-.41l-.412-.411v-.719l-.722-.719-1.03-2.36-.309-.412-.207-1.129c0-.103-.206-.513-.618-1.13V56.98h-.515l-.618.41-.928-.205-.618.411-.206-.205-.516.308-.103-.308c-.103 0-.206 0-.515.102-.206.103-.515.103-.721.103h-1.443l-.824.513-.825-.205-1.133.103v.205l-.413-.205-.618.308-.412-.308h-.722l-.721.308-.618-.616-.309.205-.619-.205c-.515.205-1.236 1.026-2.164 2.361l-.721.205c-1.237 1.951-1.958 2.875-2.061 2.875l-.412.205-1.34 1.746h-.206l-1.134 1.848-1.236.718-.928-.205.206-.41v-.617l.309-.41-.206-.308.825-.103.618-.308c.515-.205.824-.616.928-1.13.618-.205 1.03-.513 1.133-1.129.721-.41 1.237-1.129 1.546-2.156l.618-.205 1.546-2.361v-.616c-.206-.206-.412-.41-.515-.719l.927-.821v-.308l1.134.102.618-.41.103.205.618-.821c-.103 0-.206-.103-.206-.206 0-.102.206-.308.619-.513l.206.308c0-.41.206-.821.515-1.335l-.103-.102h.515l.206-.616c.413 0 .619-.206.619-.514v-.513c.721-.616 1.133-1.232 1.133-1.745v-.103l.619-.103.103-.616.309-.102.515-1.027.309.205-.206-.513c.412 0 .721-.308.721-.924l.31.205v-.924h.309v-.616l.515-.513c.309-.205.515-.616.515-1.027l.516-.513-.31-.719c.413-.616.825-.82 1.237-.82h.103l.309-.412.309.514c.103.102.206.205.413.308l.824.41.103 1.232c.206.206.412.514.618.924l.413.103.103 1.027.412 1.437.618 1.13.412 1.54.103 1.026.619.924-.206.41.515.617v.718l.103.616c0 .103-.103.308-.206.514.515 1.13 1.03 1.642 1.649 1.642l.927-.205h1.134c.309.103.618.103.824.103.412 0 .721-.103.928-.308.206-.206.412-.308.412-.308.103 0 .412.102.824.41l.515-.513Zm-8.965-1.13c-.206-.513-.412-.82-.721-1.026l.206-.616-.619-.308-.206-1.745-.618-.924-.103-.719-.309-.616v-.205h-.103l-.103-1.027c0-.103-.103-.308-.206-.513l-.31-.514c-.103-.102-.206-.205-.412-.308-.206-.102-.515-.308-.927-.513l-.516.308-.309.513-1.133 1.643-.309.513c-.104.103-.413.514-1.134 1.232l-.206.72-1.031.512c-.206 1.232-.721 1.848-1.442 2.054l-.413 1.437-.927.41v.514l-.103.616c.515.205.927.308 1.133.513h.619l.927.206a.781.781 0 0 0 .412.102c.103 0 .31 0 .619-.102h.206s.206 0 .309.102c.206.103.412.103.515.103l.619-.103 1.855-.102 1.545-.206c.928.103 1.546.206 1.855.206.722 0 1.134-.206 1.134-.514 0-.205-.103-.513-.412-.82l.618-.822Z" fill="#000"/><path d="m182.948 69.916-.927-.719h-.515l-.619-.513h-.618l-.515-.924-.516-.205-.103-.206a5.123 5.123 0 0 0-1.133-1.642l-.206-.206v-.41l-.413-.41v-.72l-.618-.718-1.03-2.362-.413-.513-.206-1.335c0-.102-.103-.308-.515-.924l-.103-.102v-.514l-.515.308-.928-.205-.824.513-.206-.205-.722.41-.206-.513c-.309.103-.618.206-.927.206h-1.237l-.824.513-1.031-.205h-.618v.616l-.928-.514-.618.308-.515-.41h-.412l-1.031.41-.515-.616-.206.103-.722-.308c-.309.205-.824.719-1.752 2.156l-.103.205-.721.206c-1.649 2.566-1.958 2.874-2.164 2.977l-.206.103-1.443 1.848h-.206l-1.03 1.642-1.546.924-1.752-.513.412-.924v-.719l.206-.308-.309-.718 1.546-.206.515-.308c.309-.102.515-.41.618-.82l.103-.309.31-.103c.515-.102.721-.41.721-.616v-.205l.206-.103c.618-.308 1.031-.924 1.237-1.745l.103-.308.721-.308 1.34-2.053v-.308c-.206-.206-.309-.41-.412-.719l-.104-.308 1.031-.924v-.719l1.546.206.824-.514v-.205c0-.308.309-.616.928-1.027l.103-.102c0-.103.103-.206.103-.308l-1.031-.719 1.752-.103.206-.616h.516v-.718l.206-.206c.618-.513.927-1.026.927-1.334v-.616l.721-.103.104-.616.412-.103.412-.718-.206-.514h.721c.103 0 .206 0 .309-.41l.103-.822.207.103v-.513h.309v-.308l.206-.206.515-.513c.206-.205.309-.41.412-.719v-.205l.412-.41-.309-.72.206-.307c.516-.616.928-.924 1.443-1.027l.618-.924.722 1.13.206.205 1.03.513.103 1.335c.207.205.31.41.516.718l.515.206.103 1.334.309 1.335.619 1.027.412 1.642.103.822.824 1.026-.206.308.412.411v.821l.103.72c0 .204 0 .307-.103.512.309.72.619 1.027 1.031 1.13l.927-.206h1.34c.309.103.515.103.721.103.31 0 .413 0 .619-.103.412-.308.515-.41.824-.41.206 0 .412.102 1.031.41l1.442-.102v1.13c0 .41-.206.82-.618 1.026l-.206.102-.721-.205-.825.616-1.03-.103c-.413.308-.928.411-1.443.411h-.309l-.206.41-.413-.205c-.206-.102-.309-.102-.515-.205l-.206.719.103 1.334.618.924.103.822 1.134 1.642-.103.616.515.514 1.134 1.848c.618.718.824 1.026.927 1.334l.825.411.309.821.824.616-2.061 1.027Zm-1.03-1.848h.309l-.721-.308-.104-.205c0-.103-.206-.41-.927-1.232l-.103-.103-1.031-1.745-.927-.822.206-.718-.927-1.438-.103-.82-.619-.925-.206-1.848.103-.205c-.103-.103-.206-.206-.206-.41l-.103-.206.103-.206c.103-.205.206-.41.618-.616-.618-.205-1.236-.82-1.648-1.95l-.104-.308.207-.206c.103-.102.103-.102.103-.205l-.103-.616v-.513l-.619-.719.206-.41-.515-.72-.103-1.129-.412-1.437-.618-1.13-.413-1.54-.103-.718-.309-.103-.103-.205c-.206-.513-.412-.616-.412-.719l-.206-.102-.103-1.13-.516-.205c-.206-.103-.309-.205-.412-.308h-.412c-.103 0-.206 0-.618.41l.309.72-.721.718c-.104.513-.31.821-.722 1.13-.206.102-.309.205-.309.307V46.2h-.309v.616l.824-1.13.412-.718.928-.513.206.102c.412.206.721.411.927.514.207.205.413.308.516.513l.309.513c.206.308.309.514.309.822v.513h.206v.719l.309.616.103.718.619.924.206 1.643.824.41-.309.72c.206.205.412.615.618 1.026l.103.41-.412.309c.103.205.206.513.206.718 0 .308-.103.72-.721.924h1.03v1.335c.516.821.619 1.027.619 1.13l.103 1.026.309.308 1.031 2.361.824.822v.718l.412.411v.513c.412.411.722.924 1.031 1.54l.412.206.412.616h.309l.928.513Zm-29.885-.924h.103l.927-.513.618-1.027c-.103.103-.206.103-.412.205l-.618.308h-.309l-.412.514v.513h.103Zm2.473-2.567h.103l.103-.205c0 .103-.103.103-.206.205Zm2.679-3.285c-.103.205-.103.308-.206.513.103-.205.206-.308.412-.616l-.206.103Zm1.855-4.21.103.103.206.206v1.13l-.824 1.334.412-.103c.928-1.437 1.649-2.156 2.267-2.464l.206-.103.619.206.515-.41.721.718.516-.206h1.03l.309.206.515-.308.207.102 1.442-.102.722.102.721-.513h1.649c.206 0 .412 0 .515-.103.309-.102.515-.205.721-.205h.413v.103l.309-.206.206.206.515-.308.928.205.412-.308h-.618c-.207 0-.619 0-1.855-.205l-1.443.205-1.752.103-.618.102h-.103c-.206 0-.516 0-.722-.102h-.309c-.309.102-.618.102-.824.102-.103 0-.309 0-.619-.102l-.824-.206-.721.103v.103c-.103-.103-.413-.206-1.031-.41h-.206v.102l-.103-.103-.206-.103.103-.205-.309-.513-1.134 1.437-.309-.41-.309.205-.722-.103-.721.719Zm19.374-.923c.103 0 .309.102.412.102.206-.102.515-.205.825-.205h-.928l-.309.103Zm-11.336-.616c.103 0 .206 0 .515.102.104 0 .207.103.31.103l.618-.103 1.855-.102 1.546-.206h.103c1.133.206 1.649.206 1.752.206h.515c0-.103-.103-.206-.206-.308l-.309-.41.618-.514a1.417 1.417 0 0 0-.309-.41l-.412-.206.206-.616-.413-.206-.206-1.95-.618-.924-.103-.822-.206-.513h-.206l-.103-1.54s0-.103-.103-.205l-.31-.514-.206-.205c-.103-.103-.206-.205-.515-.308l-.103.103-.309.41-1.134 1.54-.309.514c-.103.102-.103.308-.618.718l.206.411-.309-.205-.412.41-.206.822-1.031.513c-.309 1.13-.721 1.848-1.443 2.156l-.412 1.437-.824.308v.411c.309.103.515.205.618.308h.515l1.031.308.206.103s.206 0 .515-.103c0-.513.206-.513.206-.513Zm-3.813-2.054c-.103.103-.103.308-.206.411l.722-.308.309-.924s-.103 0-.206.103l-.207.718h-.412Zm1.34-1.95v.616c.412-.103.824-.719.927-1.643v-.205c-.103.308-.412.718-.927 1.232Zm1.134-1.643c0 .103-.104.205-.104.308l1.031-.513.206-.616.103-.103.309-.308-.206-.205-.309.616-.206.102-.103.72h-.721Zm1.854-2.361.207.41.103-.102.309-.514-.206-.102c-.206.102-.309.205-.413.308ZM88.141 15.502l2.886.103 2.782-.103h2.576c.31 0 .413.103.413.411s-.207.514-.722.514c-.103-.103-.206-.103-.309-.103a.789.789 0 0 0-.515.205l-.722-.102h-1.133c-.515.308-1.03.41-1.546.41l-.824-.102-.413.41h-.412v-.205l-.721.308h-.412l-.103.41c-.103-.205-.516-.205-1.134-.205 0 .206-.103.206-.206.206s-.103-.103-.206-.206l-.618.103-.413.41-.103 2.054.103 1.232-.103 1.54v1.745l.103.822v.718l.516 1.027v.205c0 .514.309.924.824 1.335l.103.308.721.205.516.616 1.545.308 2.061-.513.619.205 1.443-.718.515.102c.206.206.309.41.309.514 0 .205-.206.41-.515.718l-.31-.102-.618.513-1.442.205-.516.308-.309-.205c-.515.205-.927.41-1.443.41l-.824-.205h-.412l-1.546-.924-.721-1.026-.516-.514-.721-2.053-.31-1.848.207-.719-.31-.41.207-.514-.412-.718.412-.308-.206-.411.103-.513-.206-.514.103-.821-.103-.41.206-.104v-1.54c-.103-.41-.206-.513-.31-.513-.102 0-.206.103-.206.206l-.515-.206-.721.103-.722-.514h-.309c-.309 0-.515-.205-.515-.513v-.616l-.309-.205.206-.41.618.102.516-.103.721.205h1.752l.103-.924v-.923l-.31-.72.31-.205c.103-.205.103-.308.103-.308 0-.205-.103-.308-.31-.41l.104-1.643-.31-.513.104-.41c-.31-.103-.412-.206-.412-.309l.309-1.13c.206-.307.412-.512.412-.615.824.41 1.237.616 1.237.719l-.207.41c.207.41.31.719.31.924v.103c-.103.205-.103.41-.103.616 0 .103 0 .205.103.308v.719l-.413.615.207 1.027-.207 1.232.207.206-.207.41.31 1.027h.72l.516-.206Z" fill="#000"/><path d="m92.262 32.032-.515-.308c-.412.205-.927.308-1.442.308H90.2l-.824-.205h-.515L87.11 30.8l-.722-1.027-.515-.616-.824-2.156-.412-2.053.103-.616-.413-.41.207-.617-.207-.924.31-.308v-.102l.103-.514-.103-.513.103-.821-.103-.72.206-.204v-1.027l-.516-.205-.72.205-.722-.513h-.31c-.618 0-1.03-.411-1.03-1.13v-.308l-.412-.308.515-1.13.928.104.515-.103.721.205h1.134v-1.232l-.412-1.026.412-.308-.31-.206.104-1.745-.103-.616V9.65c-.31-.206-.31-.514-.31-.616v-.103l.31-1.232.103-.103c.206-.308.206-.41.309-.41l.206-.616.618.308c1.34.616 1.546.82 1.546 1.232v.102l-.103.308c.206.41.206.719.206.924v.308c-.103.103-.103.308-.103.41l.103.104-.103.513.103.616-.31.513.207.924-.103 1.13.206.41-.31.41.104.412h.206l.515-.411 3.092.103 2.782-.103h2.474c.72 0 1.03.513 1.03.924 0 .308-.103.924-1.134 1.13h-.206l-.206-.103s-.103 0-.206.102l-.206.206-.824-.206h-.928c-.721.41-1.236.616-1.855.616h-.103l-.515-.102-.412.308h-1.03l-.207.102h-.103l-.206.514-.515-.103c-.103 0-.31-.103-.722-.103-.206.206-.412.206-.515.206-.206 0-.31-.103-.412-.103h-.206l-.103.103-.103 1.848.103 1.232-.103 1.54v1.745l.103.924v.616l.515 1.027v.308c0 .308.206.616.618.924l.103.102.103.206.619.102.515.616 1.237.206 2.06-.514.516.206 1.443-.616.927.102.103.103c.31.308.412.616.412.924 0 .616-.618 1.027-.824 1.13l-.206.205v-.206l-.515.41-1.443.206-.722.41ZM89.171 30.8h.309l.825.205c.412 0 .824-.102 1.133-.308l.206-.102-1.03.205-1.855-.308-.516-.616-.721-.103.206.308 1.443.719Zm2.68-.308.411.308.31-.205.824-.103-.618-.205-.928.205Zm2.576-.41-.928.41.515-.103.413-.308Zm.412-.206.206.103.103-.103h-.31Zm-9.79-12.936c.412 0 .721.308.824.821l.618-.718.825-.103v-.103h.412c.31 0 .619 0 .825.103l.103-.308h.618l1.133-.513-2.267-.103-.309.41h-1.34l-.309-1.026-.103.719h-2.37l-.618-.206-.412.103v.616h.515l.618.41.618-.102.31.103c.103-.103.206-.103.309-.103Zm5.977-.821.927.205c.31 0 .722-.103 1.03-.205h-1.957Zm-4.947-3.08.103.308.103-.411-.206.103Zm-.103-1.438.31-.513v-.513c-.104-.103-.104-.308-.104-.514 0-.205 0-.41.103-.718 0 0 0-.206-.206-.72l-.103-.204.103-.308c-.103-.103-.206-.103-.412-.206 0 0 0 .103-.103.103l-.206.616.412.103-.103.718.31.514V11.6Z" fill="#000"/><path d="m101.639 22.69-2.886-.103-2.782.102h-2.576c-.31 0-.413-.102-.413-.41s.207-.514.722-.514c.103.103.206.103.309.103a.789.789 0 0 0 .515-.205l.618.102h1.134a2.917 2.917 0 0 1 1.546-.41l.824.102.412-.41h.413v.205l.721-.308h.412l.103-.41c.206.102.619.102 1.237.205 0-.206.103-.206.206-.206s.103.103.206.206l.618-.103.413-.41.103-2.054-.103-1.232.103-1.54v-1.745l-.103-.822v-.718l-.516-1.027v-.205c0-.514-.309-.924-.824-1.335l-.103-.308-.721-.205-.516-.616-1.648-.411L97 8.521l-.618-.205-1.443.616-.515-.103c-.206-.205-.309-.41-.309-.513 0-.205.206-.41.515-.719l.31.206.72-.616 1.34-.103.516-.308.515.308c.515-.205.928-.41 1.443-.41l.824.205h.412l1.546.924.721 1.026.516.514.721 2.053.309 1.848-.206.719.309.41-.206.514.206.718-.412.308.206.411-.103.513.206.514-.103.821.103.41-.206.103v1.54c.103.411.206.514.309.514.103 0 .206-.103.206-.206l.516.206.618-.206.721.514h.31c.309 0 .515.205.515.513v.616l.309.205-.206.411-.618-.103-.516.103-.721-.205h-1.546l-.103.924v1.129l.309.719-.309.205c-.103.205-.103.308-.103.308 0 .205.103.308.309.41l-.103 1.643.309.514-.103.41c.309.103.412.206.412.308l-.309 1.13c-.206.308-.412.513-.412.616-.824-.411-1.237-.616-1.237-.719l.207-.41c-.207-.411-.31-.72-.31-.925v-.102c.103-.206.103-.411.103-.616 0-.103 0-.206-.103-.308v-.719l.413-.616-.207-1.027.207-1.232-.207-.205.207-.41-.31-1.027h-.721l-.515.102Z" fill="#000"/><path d="m104.627 31.621-.618-.308c-1.34-.616-1.546-.821-1.546-1.232v-.102l.103-.308c-.206-.411-.206-.72-.206-.924v-.308c.103-.103.103-.308.103-.411l-.103-.103.103-.513-.103-.616.309-.513-.206-.924.103-1.13-.206-.41.309-.411-.103-.41h-.206l-.515.41-3.092-.103h-5.256c-.721 0-1.03-.513-1.03-.924 0-.308.103-.924 1.133-1.13h.207l.206.104s.103 0 .206-.103l.206-.205.824.205h.928c.515-.308 1.133-.41 1.752-.41h.103l.515.102.412-.308h1.03l.207-.103h.103l.206-.513.515.103c.103 0 .309.102.721.102.207-.205.413-.205.516-.205.206 0 .309.103.412.103h.206l.103-.103.103-1.848-.103-1.232.103-1.54v-1.745l-.103-.924v-.616l-.515-1.027v-.308c0-.308-.206-.616-.618-.924l-.104-.103-.103-.205-.618-.103-.515-.616-1.443-.308-2.06.514-.516-.206-1.443.616-.927-.102-.103-.103c-.31-.308-.413-.616-.413-.924 0-.616.619-1.027.722-1.13l.206-.205.309.206.515-.411 1.443-.205.721-.411.516.308c.412-.205.927-.308 1.442-.308h.103l.825.205h.515l1.752 1.027.721 1.027.516.616.824 2.156.412 1.95-.103.616.412.41-.206.617.206.924-.309.308.103.103-.103.513.206.513-.103.822.103.718-.206.206v1.026l.515.206.722-.206.721.514h.206c.619 0 1.031.41 1.031 1.129v.308l.412.308-.515 1.13-.928-.103-.515.102-.721-.205h-1.134v1.232l.412 1.027-.412.308.309.205-.103 1.745.412.514v.205c.31.205.31.513.31.616v.103l-.31 1.334-.103.103c-.206.308-.309.41-.309.41l-.515.72Zm-.928-1.745c.104.103.207.103.413.205 0 0 0-.102.103-.102l.206-.616-.412-.103.103-.719-.309-.513.103-1.54-.31.513v.514c.103.102.103.308.103.513 0 .205 0 .41-.103.719 0 0 0 .205.207.718l.103.206-.207.205Zm-.103-4.62.207-.103-.104-.308-.103.41Zm-1.648-3.49h1.339l.309 1.026.103-.719h2.371l.618.206.412-.103v-.616h-.515l-.618-.41-.619.102-.309-.103c-.103.103-.206.103-.309.103-.412 0-.721-.308-.824-.821l-.619.718-.824.103v.103h-.412c-.31 0-.619 0-.825-.103l-.206.308h-.618l-1.134.513 2.267.103.413-.41Zm-4.122.102c-.31 0-.722.103-1.031.205l1.958-.102h.103l-1.03-.103Zm3.709-13.552.619.205-.206-.308-1.34-.718h-.309l-.825-.206c-.412 0-.824.103-1.133.308l-.31.103 1.031-.205 1.855.308.618.513Zm-5.667-.513-.413.41.928-.41h-.515Zm.515-.103.618.205.928-.205-.413-.308-.309.205-.824.103ZM182.122 43.325c-1.34 0-2.37-1.13-2.37-2.361 0-1.335 1.134-2.361 2.37-2.361 1.34 0 2.37 1.129 2.37 2.36 0 1.335-1.03 2.362-2.37 2.362Zm0-4.312c-1.03 0-1.855.822-1.855 1.848 0 1.027.825 1.848 1.855 1.848a1.844 1.844 0 0 0 1.855-1.848c0-.924-.824-1.848-1.855-1.848Z" fill="#000"/><path d="M183.668 42.299h-.824l-.722-1.027h-.309v1.027h-.721v-2.772h1.649c.103 0 .206.102.309.102.103.103.206.103.206.206.103.102.103.205.103.41 0 .206 0 .41-.103.514a1.421 1.421 0 0 1-.412.308l.824 1.232Zm-1.133-1.951v-.205l-.104-.103h-.618v.719h.515c.103 0 .103 0 .207-.103l.103-.103c-.103 0-.103-.102-.103-.205Z" fill="#000"/></svg>