<svg width="212" height="37" fill="none" xmlns="http://www.w3.org/2000/svg"><path d="M110.468.85c-2.12.745-3.678 2.064-4.548 3.832l-.533 1.067-.042 10.99-.042 10.989h7.452v-8.533c0-8.169.014-8.534.267-8.969.393-.631.758-.702 1.432-.266.294.21.547.435.547.505 0 .084 1.951 3.607 4.323 7.831 2.386 4.225 4.547 8.07 4.814 8.548l.477.884h7.34l1.011-1.867c.561-1.01 2.667-4.856 4.674-8.519 2.007-3.663 3.789-6.807 3.986-6.99.463-.42.968-.392 1.459.099l.407.407v16.87H151.071V6.324l-.337-.926C149.668 2.381 147.001.5 143.773.5a7.57 7.57 0 0 0-3.411.786c-.856.449-2.343 1.895-3.143 3.074-.478.715-3.621 6.189-7.972 13.866-.871 1.544-1.137 1.895-1.264 1.755-.098-.099-1.866-3.243-3.929-6.99-2.078-3.747-4.127-7.34-4.548-8-.996-1.516-2.666-3.214-3.621-3.705C114.173.43 112.124.26 110.468.85ZM.475 4.149v3.228h5.179c5.136 0 5.165 0 5.642.323.252.168.617.533.786.786l.322.477v18.765h7.44v-9.404c-.015-10.371-.043-9.894.87-10.554.462-.323.476-.323 5.698-.365l5.22-.042V.921H.475v3.228ZM207.226 1.075c-2.723.534-3.691 4.113-1.628 6.008 2.625 2.428 6.765-.127 5.754-3.565-.505-1.769-2.259-2.807-4.126-2.442Zm2.021.604c.856.393 1.221.786 1.628 1.684.604 1.362.113 2.835-1.249 3.79-.73.519-1.923.645-2.723.308-1.291-.547-2.175-1.936-2.035-3.185.155-1.264.786-2.12 1.923-2.64.828-.378 1.6-.364 2.456.043Z" fill="#000"/><path d="M206.51 4.5c0 1.937.014 2.035.28 2.035.253 0 .281-.098.281-.842V4.85h.912c.997 0 .927-.085 1.123 1.15.056.394.155.534.337.534.211 0 .239-.098.183-.814-.029-.45-.155-.912-.281-1.053-.211-.238-.211-.266.014-.393.154-.098.238-.309.238-.66 0-.926-.378-1.15-1.95-1.15h-1.137V4.5Zm2.498-.997c.07.604-.182.786-1.109.786h-.828V3.04l.674-.042c.926-.056 1.207.056 1.263.505ZM40.265 1.258c-2.47.786-5.263 3.256-6.162 5.473-.28.674-.294 1.025-.337 6.61-.028 3.608.015 6.317.099 7.019.379 2.877 2.765 5.824 5.614 6.933l.926.365 11.902.042 11.888.042V21.552l-10.485-.028-10.498-.042-.66-.379c-1.094-.66-1.235-.926-1.235-2.442v-1.32h22.035v-6.034H41.178v-1.095c0-1.32.323-1.993 1.263-2.624l.632-.422 10.217-.042 10.204-.028V1.061l-11.327.014c-8.757 0-11.466.042-11.901.183ZM66.299 4.065v3.017l12.393.043c11.874.042 12.407.056 12.926.308 1.446.716 1.418 2.695-.042 3.453-.561.28-.758.28-12.926.28H66.299v16.562h7.72V17.482h4.996c4.687 0 5.024.015 5.235.253.126.14 3.607 3.888 7.733 8.323 4.126 4.435 7.986 8.575 8.562 9.193l1.052 1.137 4.997.056 5.01.056-.238-.295a269.833 269.833 0 0 0-3.383-3.705c-1.74-1.88-4.73-5.137-6.653-7.214-1.922-2.091-4.112-4.463-4.856-5.277-1.656-1.783-2.161-2.386-2.077-2.456.028-.029.716-.155 1.516-.295.814-.127 1.796-.351 2.175-.491.857-.323 1.628-1.067 2.064-2.021.322-.688.322-.8.322-5.264 0-4.463-.014-4.575-.322-5.375-.407-.983-1.488-2.147-2.485-2.625l-.701-.35-15.327-.043-15.34-.028v3.004ZM154.439 14.395v13.333H162.018V1.061H154.439v13.334ZM165.682 1.328c.113.154 1.657 1.923 3.425 3.958 6.133 7.003 7.93 9.095 7.93 9.207 0 .056-2.947 3.06-6.555 6.667l-6.568 6.568h10.821l4.772-4.968c2.611-2.737 4.8-4.983 4.842-4.983.056-.014 2.26 2.218 4.912 4.954l4.829 4.969 5.333.014 5.333.014-6.568-6.568-6.569-6.569 5.783-6.456c3.172-3.537 5.909-6.582 6.063-6.765l.281-.309-4.969.014-4.968.014-4.772 5.025c-2.625 2.765-4.8 5.039-4.842 5.039-.042-.014-2.176-2.274-4.758-5.053l-4.674-5.039h-4.631c-4.534 0-4.632 0-4.45.267Z" fill="#000"/></svg>