<svg width="289" height="56" fill="none" xmlns="http://www.w3.org/2000/svg"><path d="M27.73 18.916h-5.027a.88.88 0 0 0-.868.868v19.517c0 3.932-1.682 5.763-5.269 5.763-3.586 0-5.268-1.831-5.268-5.764V19.785a.88.88 0 0 0-.869-.868H5.402c-.417 0-.826.43-.826.868v20.742c0 3.205 1.067 5.85 3.085 7.652 2.086 1.861 5.09 2.805 8.905 2.805 3.816 0 6.82-.944 8.906-2.805 2.018-1.802 3.084-4.448 3.084-7.652V19.784c0-.438-.409-.868-.826-.868ZM93.579 18.916h-6.456c-.266 0-.626.158-.804.381l-7.89 9.404a.338.338 0 0 1-.237.099h-.061a.338.338 0 0 1-.238-.099l-7.889-9.404c-.179-.223-.539-.381-.804-.381h-6.456c-.417 0-.826.43-.826.868v29.405c0 .438.41.868.826.868h5.027a.88.88 0 0 0 .868-.868V28.304l8.982 10.476a.67.67 0 0 0 .066.069l.003.004v-.001c.124.11.29.178.471.178a.707.707 0 0 0 .471-.178l.004-.003a.675.675 0 0 0 .065-.069l8.982-10.476v20.885c0 .47.398.868.869.868h5.026c.417 0 .827-.43.827-.868V19.784c0-.438-.41-.868-.826-.868ZM59.298 50.123H44.373v-1.174h6.533L49.75 45.35l-1.975-5.992h-9.482l-2.112 5.998-1.14 3.592h4.266v1.174h-9.84v-1.174h3.87l1.42-3.769 9.335-26.433h.387l.038.109 9.16 26.242 1.427 3.85h4.194v1.175ZM38.701 38.007h8.662L43.078 25.18 38.7 38.007ZM51.522 3.219l-2.684 15.626 13.08-5.52V3.22H51.522ZM113.008 18.68v.4h-1.644l-.016 1.41v6.341c.016 1.644.049 3.204 3.137 3.204 3.121 0 3.32-1.361 3.37-2.838V20.49l-.017-1.41h-1.676v-.4h3.668v.4h-1.444l-.017 1.41v6.043c-.016 2.174-.033 4.034-4.332 4.034-.615 0-2.075-.067-3.005-.449-1.477-.63-1.511-1.925-1.527-3.519V20.49l-.017-1.41h-1.427v-.4h4.947ZM128.911 30.002h1.295v.399h-4.283v-.399h1.312l.017-1.311v-3.022c-.017-1.693-.017-2.191-.433-2.59-.265-.248-.613-.265-.763-.265-.597 0-1.046.299-1.361.598-.88.88-.913 2.058-.946 3.104v2.175l.016 1.311h1.362v.399h-4.449v-.399h1.461l.016-1.311v-4.466l-.016-1.444h-1.461v-.399h1.577c.73 0 .979-.016 1.577-.066l-.017 1.56c.432-.647 1.063-1.627 2.855-1.627 2.241 0 2.241 1.727 2.241 2.64 0 .398 0 .814-.016 1.212v2.59l.016 1.311ZM132.53 22.382c.664-.016.897-.016 1.544-.066l-.017 1.743v4.532l.017 1.411h1.328v.399h-4.416v-.399h1.428l.017-1.411v-4.532l-.017-1.278h-1.428v-.399h1.544Zm-.315-2.623c0-.53.432-.979.979-.979.515 0 .963.448.963.98a.974.974 0 0 1-1.66.68.968.968 0 0 1-.282-.68ZM144.681 22.382v.399h-1.212l-.647 1.51-2.424 6.259h-.432l-2.473-6.259-.614-1.51h-1.195v-.399h4.614v.399h-1.494l.399 1.145 1.627 4.3 1.66-4.316.415-1.13h-1.544v-.398h3.32ZM152.437 28.093c-.482 1.145-1.179 2.473-3.52 2.473-.713 0-1.759-.083-2.705-1.03-.946-.962-1.112-2.19-1.112-3.17 0-.431.033-.813.115-1.162.167-.763.582-1.544 1.13-2.042.614-.597 1.56-.996 2.573-.996 1.079 0 1.942.432 2.523 1.013.896.913.979 1.942 1.029 2.69h-5.528c0 .929 0 1.941.348 2.788.499 1.278 1.594 1.411 2.093 1.411a2.74 2.74 0 0 0 1.112-.25c.962-.497 1.328-1.41 1.511-1.875l.431.15Zm-1.942-2.69c-.017-.63-.034-1.277-.283-1.842-.349-.764-.963-.93-1.444-.93-1.594 0-1.726 1.777-1.81 2.773h3.537ZM156.206 30.002h1.41v.399h-4.432v-.399h1.394l.017-1.411v-4.432l-.017-1.395h-1.394v-.382h1.527c.647-.016.88-.016 1.527-.083l-.017 1.926c.416-.88.964-2.009 2.291-2.009 1.096 0 1.494.847 1.494 1.56 0 .615-.249 1.113-.846 1.113-.25 0-.83-.183-.83-.863 0-.116.083-.631.083-.747 0-.482-.332-.498-.432-.498-.116 0-.299.05-.581.315-1.129 1.112-1.179 2.839-1.212 4.25v1.245l.018 1.411ZM161.418 27.396c.05.73.117 1.51.78 2.14.515.482 1.047.565 1.511.565 1.195 0 1.86-.597 1.86-1.427 0-.947-.83-1.262-1.943-1.644-.98-.332-2.457-.847-2.457-2.473 0-1.444 1.079-2.374 2.673-2.374.863 0 1.627.266 2.324.481l.033 2.125h-.482c-.115-.664-.381-2.141-1.941-2.141-.93 0-1.461.564-1.461 1.178 0 .3.115.565.298.748.233.232.365.282 1.66.746 1.295.482 2.557.997 2.557 2.657 0 1.51-1.229 2.59-3.121 2.59-1.029 0-1.892-.267-2.756-.532v-2.639h.465ZM169.469 22.382c.664-.016.897-.016 1.544-.066l-.016 1.743v4.532l.016 1.411h1.328v.399h-4.415v-.399h1.427l.017-1.411v-4.532l-.017-1.278h-1.427v-.399h1.543Zm-.315-2.623c0-.53.432-.979.979-.979.515 0 .963.448.963.98a.974.974 0 0 1-1.66.68.972.972 0 0 1-.282-.68ZM179.129 18.68c.698 0 .93-.016 1.494-.066l-.016 1.76v8.184l.016 1.444h1.328v.399h-2.988v-1.279c-.216.415-.747 1.41-2.291 1.41-1.743 0-3.17-1.476-3.17-4.132 0-2.274 1.128-4.184 3.27-4.184 1.478 0 1.876.797 2.191 1.412v-3.254l-.016-1.295h-1.627v-.399h1.809Zm-3.801 7.438c0 1.526 0 3.817 1.826 3.817 1.809 0 1.809-2.473 1.809-3.452 0-.665-.016-1.96-.365-2.723-.299-.614-.83-.996-1.511-.996-1.759.017-1.759 2.39-1.759 3.354ZM190.817 30.002v.399h-1.212c-.216 0-.399 0-.597-.034-.98-.116-1.146-.73-1.246-1.112-.315.448-.913 1.311-2.623 1.311-.282 0-1.045-.016-1.56-.53-.249-.25-.614-.814-.614-1.877 0-.63.132-1.162.548-1.593.464-.465.929-.565 2.374-.863.962-.2 1.41-.366 1.975-.565v-.598c-.017-1.128-.034-1.959-1.345-1.959-1.294 0-1.311.814-1.328 1.329-.017.348-.033.846-.797.846-.348 0-.813 0-.813-.697 0-.216.049-.415.133-.614.398-.98 1.626-1.245 2.855-1.245.664 0 1.378.1 1.893.348 1.028.515 1.028 1.445 1.028 2.208v3.636c-.016 1.245.134 1.61.914 1.61h.415Zm-2.955-4.432-1.494.448c-.863.266-1.594.581-1.594 2.225 0 .481 0 1.76 1.129 1.76.581 0 .947-.3 1.179-.532.714-.714.747-1.61.781-2.473l-.001-1.428ZM197.639 18.68c.698 0 .93-.016 1.494-.066l-.016 1.76v8.184l.016 1.444h1.328v.399h-2.988v-1.279c-.216.415-.747 1.41-2.291 1.41-1.743 0-3.17-1.476-3.17-4.132 0-2.274 1.128-4.184 3.27-4.184 1.477 0 1.876.797 2.191 1.412v-3.254l-.016-1.295h-1.627v-.399h1.809Zm-3.801 7.438c0 1.526 0 3.817 1.825 3.817 1.81 0 1.81-2.473 1.81-3.452 0-.665-.016-1.96-.365-2.723-.299-.614-.83-.996-1.51-.996-1.76.017-1.76 2.39-1.76 3.354ZM210.819 18.548h.332l3.287 9.977.515 1.477h1.494v.399h-5.296v-.399h1.71l-.382-1.394-.714-2.291h-3.021l-.763 2.29-.416 1.395h1.727v.399h-3.702v-.399h1.378l.515-1.444 3.336-10.01Zm-.498 3.104-1.41 4.2h2.722l-1.312-4.2ZM223.141 22.382c.78 0 .963-.016 1.577-.066l-.017 1.726v4.599l.017 1.361h1.378v.398h-1.395c-.713.017-.996.034-1.593.067l-.083-1.478c-.299.449-1.046 1.577-2.839 1.577-.797 0-1.494-.248-1.859-.647-.532-.531-.532-1.344-.532-1.727l.017-2.009-.05-3.402h-1.244v-.399h1.294c.764-.016 1.03-.016 1.627-.066l-.017 1.726v2.806c.017 1.593.033 2.39.482 2.838.182.183.515.332.929.332.465 0 .996-.199 1.411-.614.781-.764.797-1.677.814-2.456v-2.906l-.017-1.261h-1.493v-.399h1.593ZM229.632 20.191l-.033 2.192h1.776v.464h-1.759l-.034 5.529c.017.564.017 1.543.913 1.543.581 0 .93-.415 1.179-.979l.349.166c-.366.764-.764 1.378-2.142 1.378-1.909 0-1.909-1.195-1.909-1.992l.05-5.644h-1.295v-.465h1.279l.033-2.191h1.593ZM240.006 26.366c0 2.49-1.643 4.184-3.818 4.184-2.108 0-3.801-1.643-3.801-4.134 0-2.838 1.892-4.25 3.868-4.266 2.157-.017 3.751 1.71 3.751 4.216Zm-5.743.1c0 2.29.298 3.652 1.925 3.652 1.892 0 1.959-1.627 1.959-3.735 0-.996-.067-1.627-.083-1.843-.083-.614-.232-1.992-1.859-1.958-1.727.033-1.942 1.643-1.942 3.884Zm1.626-4.78h-.481l.847-2.408c.166-.448.299-.58.73-.597h.747c.216 0 .515.033.515.381 0 .216-.183.415-.382.615l-1.976 2.008ZM249.42 30.002h1.294v.399h-4.282v-.399h1.311l.016-1.311v-3.022c-.016-1.693-.016-2.191-.431-2.59-.266-.248-.614-.265-.764-.265-.597 0-1.045.299-1.361.598-.88.88-.913 2.058-.947 3.104v2.175l.017 1.311h1.362v.399h-4.449v-.399h1.461l.016-1.311v-4.466l-.016-1.444h-1.461v-.399h1.576c.731 0 .98-.016 1.578-.066l-.017 1.56c.432-.647 1.063-1.627 2.856-1.627 2.241 0 2.241 1.727 2.241 2.64 0 .398 0 .814-.017 1.212v2.59l.017 1.311ZM259.545 26.366c0 2.49-1.643 4.183-3.818 4.183-2.108 0-3.801-1.642-3.801-4.133 0-2.838 1.892-4.25 3.868-4.266 2.157-.017 3.751 1.71 3.751 4.216Zm-5.743.1c0 2.29.298 3.652 1.925 3.652 1.892 0 1.959-1.627 1.959-3.735 0-.996-.067-1.627-.083-1.843-.083-.614-.232-1.992-1.859-1.959-1.726.034-1.942 1.644-1.942 3.885ZM263.844 23.727c.232-.365.431-.68.862-.996.466-.315 1.163-.565 1.959-.565.332 0 .78.05 1.179.233.863.398 1.029 1.079 1.145 1.594.332-.614.996-1.793 2.855-1.793.449 0 1.13.05 1.661.531.647.598.647 1.395.647 2.042l-.05 3.818.017 1.411h1.361v.399h-4.332v-.399h1.311l.017-1.411c.016-1.063.033-2.125.033-3.204 0-1.36 0-2.54-1.229-2.54-.647 0-1.095.283-1.411.581-.829.814-.862 2.092-.896 3.188v1.975l.016 1.411h1.328v.399h-4.299v-.399h1.312l.016-1.411v-3.204c0-.946-.016-1.328-.1-1.676-.066-.2-.249-.914-1.195-.914-.597 0-1.112.233-1.444.565-.73.747-.764 1.992-.797 3.204v2.025l.017 1.411h1.278v.399h-4.382v-.399h1.427l.017-1.411v-4.233l-.017-1.577h-1.427v-.398h1.609c.747 0 .914-.017 1.545-.067l-.033 1.411ZM284.413 30.002v.399H283.2c-.215 0-.398 0-.597-.034-.98-.116-1.146-.73-1.245-1.112-.316.448-.913 1.311-2.623 1.311-.282 0-1.046-.016-1.561-.53-.249-.25-.613-.814-.613-1.877 0-.63.132-1.162.547-1.593.465-.465.93-.565 2.374-.863.963-.2 1.411-.366 1.975-.565v-.598c-.016-1.128-.033-1.959-1.344-1.959-1.295 0-1.312.814-1.328 1.329-.017.348-.033.846-.797.846-.348 0-.814 0-.814-.697 0-.216.05-.415.134-.614.398-.98 1.626-1.245 2.855-1.245.664 0 1.377.1 1.892.348 1.029.515 1.029 1.445 1.029 2.208v3.636c-.016 1.245.133 1.61.914 1.61h.415Zm-2.956-4.432-1.493.448c-.863.266-1.594.581-1.594 2.225 0 .481 0 1.76 1.129 1.76.581 0 .946-.3 1.178-.532.714-.714.747-1.61.781-2.473l-.001-1.428ZM114.071 38.047c.697 0 .929-.016 1.494-.066l-.017 1.76v8.184l.017 1.444h1.328v.398h-2.989V48.49c-.215.415-.746 1.41-2.29 1.41-1.743 0-3.171-1.477-3.171-4.133 0-2.274 1.129-4.183 3.27-4.183 1.478 0 1.876.797 2.191 1.411V39.74l-.016-1.294h-1.627v-.399h1.81Zm-3.802 7.437c0 1.527 0 3.819 1.826 3.819 1.81 0 1.81-2.474 1.81-3.453 0-.664-.017-1.96-.365-2.723-.299-.614-.83-.996-1.511-.996-1.76.017-1.76 2.39-1.76 3.353ZM125.343 47.46c-.481 1.145-1.178 2.473-3.519 2.473-.714 0-1.76-.083-2.706-1.029-.946-.963-1.112-2.191-1.112-3.17 0-.433.033-.814.116-1.163.166-.763.581-1.543 1.129-2.042.614-.597 1.56-.996 2.573-.996 1.079 0 1.942.432 2.523 1.013.896.913.979 1.942 1.029 2.69h-5.528c0 .929 0 1.942.349 2.788.498 1.279 1.593 1.411 2.092 1.411.431 0 .813-.116 1.112-.25.963-.497 1.328-1.41 1.511-1.875l.431.15Zm-1.942-2.69c-.017-.63-.034-1.278-.282-1.842-.349-.764-.963-.93-1.445-.93-1.593 0-1.726 1.777-1.809 2.772h3.536ZM141.545 38.047h3.635v.399h-1.526l-.017 1.294v7.935l.017 1.694h1.526v.398h-5.196v-.398h1.794l.016-1.694v-8.88l-4.465 11.188h-.266l-4.383-11.189-.016.947v7.934l.016 1.694h1.81v.398h-3.851v-.398h1.527l.017-1.694v-7.934l-.017-1.295h-1.527v-.399h3.735l3.552 9.081 3.619-9.08ZM154.227 49.37v.398h-1.212c-.216 0-.399 0-.597-.034-.98-.116-1.146-.73-1.245-1.112-.316.448-.913 1.312-2.623 1.312-.283 0-1.046-.017-1.561-.532-.249-.249-.614-.813-.614-1.876 0-.63.133-1.162.548-1.593.465-.465.929-.565 2.374-.863.963-.2 1.411-.366 1.975-.565v-.597c-.016-1.13-.033-1.96-1.344-1.96-1.296 0-1.312.814-1.328 1.329-.017.348-.034.847-.798.847-.348 0-.813 0-.813-.698 0-.216.05-.415.133-.614.399-.98 1.627-1.245 2.855-1.245.665 0 1.378.1 1.893.348 1.029.515 1.029 1.444 1.029 2.208v3.636c-.016 1.245.133 1.61.913 1.61h.415Zm-2.955-4.433-1.494.448c-.863.266-1.594.581-1.594 2.224 0 .482 0 1.76 1.129 1.76.582 0 .947-.299 1.179-.531.714-.714.747-1.61.78-2.474v-1.427ZM161.049 38.047c.698 0 .93-.016 1.494-.066l-.016 1.76v8.184l.016 1.444h1.328v.398h-2.988V48.49c-.216.415-.747 1.41-2.291 1.41-1.743 0-3.17-1.477-3.17-4.133 0-2.274 1.128-4.183 3.27-4.183 1.478 0 1.876.797 2.191 1.411V39.74l-.016-1.294h-1.627v-.399h1.809Zm-3.801 7.437c0 1.527 0 3.819 1.826 3.819 1.809 0 1.809-2.474 1.809-3.453 0-.664-.016-1.96-.365-2.723-.299-.614-.83-.996-1.511-.996-1.759.017-1.759 2.39-1.759 3.353ZM167.524 49.369h1.41v.398h-4.432v-.398h1.395l.016-1.411v-4.432l-.016-1.395h-1.395v-.382h1.527c.648-.016.88-.016 1.528-.083l-.017 1.926c.415-.88.963-2.008 2.29-2.008 1.097 0 1.495.846 1.495 1.56 0 .614-.249 1.112-.847 1.112-.249 0-.83-.183-.83-.863 0-.116.083-.63.083-.747 0-.481-.332-.498-.432-.498-.116 0-.298.05-.581.316-1.128 1.112-1.178 2.838-1.212 4.25v1.245l.018 1.41ZM173.267 41.75c.663-.017.896-.017 1.543-.067l-.016 1.743v4.532l.016 1.41h1.328v.4h-4.415v-.4h1.427l.017-1.41v-4.532l-.017-1.279h-1.427v-.398h1.544Zm-.316-2.624c0-.531.432-.98.979-.98.515 0 .963.449.963.98a.974.974 0 0 1-1.66.68.967.967 0 0 1-.282-.68ZM182.929 38.047c.697 0 .929-.016 1.494-.066l-.017 1.76v8.184l.017 1.444h1.327v.398h-2.988V48.49c-.215.415-.747 1.41-2.291 1.41-1.742 0-3.17-1.477-3.17-4.133 0-2.274 1.129-4.183 3.27-4.183 1.477 0 1.876.797 2.191 1.411V39.74l-.016-1.294h-1.627v-.399h1.81Zm-3.802 7.437c0 1.527 0 3.819 1.826 3.819 1.809 0 1.809-2.474 1.809-3.453 0-.664-.016-1.96-.365-2.723-.299-.614-.83-.996-1.511-.996-1.759.017-1.759 2.39-1.759 3.353Z" fill="#000"/></svg>