<svg width="230" height="46" viewBox="0 0 230 46" fill="none" xmlns="http://www.w3.org/2000/svg">
<g clip-path="url(#clip0_951_190)">
<path d="M29.9784 15.0601C29.9784 6.76023 23.259 0.00927734 14.998 0.00927734C6.73694 0.00927734 0.0175781 6.76023 0.0175781 15.0601C0.0175781 23.36 6.73694 30.1109 14.998 30.1109C23.259 30.0817 29.9784 23.36 29.9784 15.0601ZM18.3722 14.7094V14.7386C20.2338 15.1186 21.4846 16.5506 21.4846 18.4794C21.4846 19.7945 20.6993 20.9635 19.6521 21.7234C18.5758 22.5709 17.0923 22.5709 15.8124 22.5709H9.12217V7.52008H15.8124C17.0051 7.52008 18.2268 7.52008 19.2448 8.16302C20.4375 8.92287 21.0774 10.0334 21.0774 11.4654C21.0774 13.1605 19.943 14.3003 18.3722 14.7094ZM17.0051 19.4438C17.4996 19.1224 17.7904 18.5086 17.7904 17.8949C17.7904 17.3104 17.4414 16.7259 16.9469 16.4337C16.4524 16.1414 15.7543 16.1414 15.1725 16.1414H12.5837V19.7653H14.998C15.667 19.7653 16.4815 19.8238 17.0051 19.4438ZM16.8305 13.1313C17.2378 12.839 17.4705 12.2837 17.4705 11.7869C17.4705 11.2316 17.2087 10.7056 16.7142 10.4133C16.2197 10.1211 15.2889 10.1795 14.7071 10.1795H12.5837V13.482H14.9689C15.6088 13.482 16.3069 13.5112 16.8305 13.1313Z" fill="#006DFF"/>
<path d="M62.3251 15.8491C60.0272 9.27354 54.6168 6.93555 48.0137 6.93555C44.5523 6.93555 41.2944 7.72462 38.5601 10.0334C35.8549 12.3129 34.4878 15.4108 34.4878 18.947C34.4878 27.2469 41.0908 29.2341 47.8101 30.6077C50.1081 31.1045 54.4131 31.7183 54.4131 34.8746C54.4131 38.0308 51.068 38.966 48.5373 38.966C44.6395 38.966 41.7598 37.5925 40.6544 33.5887L32.5098 35.4591C34.226 42.853 40.6544 45.9508 47.752 45.9508C51.5625 45.9508 55.6639 45.2202 58.7182 42.853C61.627 40.5734 63.4014 37.0372 63.4014 33.3549C63.4014 29.5848 61.5397 26.4578 58.4564 24.3828C55.8094 22.6001 51.6789 21.8403 48.5955 21.1681C46.443 20.7882 43.156 20.116 43.156 17.3396C43.156 14.4171 46.0067 13.8034 48.3919 13.8034C51.737 13.8034 53.7732 15.0601 54.8786 18.2748L62.3251 15.8491ZM91.5005 45.454C91.0642 44.0804 90.9479 42.6776 90.9479 41.2456V28.1528C90.9479 24.792 91.2096 21.6941 88.359 19.3561C86.0901 17.4857 82.3669 16.8136 79.4871 16.8136C73.6113 16.8136 67.0083 18.8009 66.1648 25.6103L73.8149 26.3409C73.8149 23.5645 76.0838 22.2494 78.6727 22.2494C79.8944 22.2494 81.2615 22.6293 81.9887 23.5645C82.8032 24.6166 82.7159 26.0486 82.7159 27.2761V27.9483C79.3126 28.2697 74.833 28.5035 71.6624 29.7017C67.9682 31.0753 65.3794 33.9101 65.3794 38.0601C65.3794 43.379 69.219 46.0092 74.1931 46.0092C78.3818 46.0092 80.7961 44.4019 83.1231 41.0995C83.065 42.5315 83.1813 44.0219 83.5013 45.454H91.5005ZM82.6868 33.1211C82.6868 35.1084 82.745 36.7742 81.5815 38.5277C80.6507 39.9597 79.1672 40.8364 77.5091 40.8364C75.2403 40.8364 73.9313 39.346 73.9313 37.1249C73.9313 33.0334 79.6035 32.3028 82.6868 31.9813V33.1211ZM103.601 29.6433C103.601 26.6624 104.154 22.3955 108.052 22.3955C112.502 22.3955 112.502 28.2697 112.502 31.3968C112.502 34.4362 112.502 40.3104 107.935 40.3104C106.452 40.3104 105.288 39.5798 104.532 38.3815C103.659 37.008 103.601 35.2253 103.601 33.6763V29.6433ZM95.3983 45.454H99.7906C100.285 43.9635 100.605 42.3561 101.594 41.1287C103.63 44.4896 105.55 45.98 109.564 45.98C117.971 45.98 120.909 38.7322 120.909 31.3676C120.909 24.7335 118.494 16.7551 110.495 16.7551C107.354 16.7551 105.056 18.0702 103.659 20.8466H103.485V7.4616H95.3983V45.454ZM148.746 45.454C148.31 44.0804 148.193 42.6776 148.193 41.2456V28.1528C148.193 24.792 148.455 21.6941 145.604 19.3561C143.336 17.4857 139.612 16.8136 136.733 16.8136C130.857 16.8136 124.254 18.8009 123.41 25.6103L131.06 26.3409C131.06 23.5645 133.329 22.2494 135.889 22.2494C137.111 22.2494 138.478 22.6293 139.205 23.5645C140.02 24.6166 139.932 26.0486 139.932 27.2761V27.9483C136.529 28.2697 132.049 28.5035 128.879 29.7017C125.185 31.0753 122.596 33.9101 122.596 38.0601C122.596 43.379 126.435 46.0092 131.409 46.0092C135.598 46.0092 138.012 44.4019 140.34 41.0995C140.281 42.5315 140.398 44.0219 140.718 45.454H148.746ZM139.932 33.1211C139.932 35.1084 139.99 36.7742 138.827 38.5277C137.896 39.9597 136.413 40.8364 134.755 40.8364C132.486 40.8364 131.177 39.346 131.177 37.1249C131.177 33.0334 136.849 32.3028 139.932 31.9813V33.1211ZM176.525 45.454V7.52004H168.439V20.3498C166.664 17.7488 164.599 16.8136 161.458 16.8136C153.313 16.8136 151.218 25.055 151.218 31.7475C151.218 38.2646 153.429 46.0092 161.283 46.0092C164.861 46.0092 167.159 44.0804 168.7 41.0995H168.817V45.454H176.525ZM168.439 33.7348C168.439 35.1084 168.381 36.5988 167.711 37.8847C167.042 39.1706 165.675 40.1643 164.192 40.1643C160.178 40.1643 159.741 35.0207 159.741 31.9813C159.741 28.6204 159.916 22.5124 164.541 22.5124C168.235 22.5124 168.439 27.1592 168.439 29.8771V33.7348ZM206.253 32.7704C206.311 28.9419 205.701 24.9673 203.403 21.7526C201.105 18.5378 197.061 16.7843 193.164 16.7843C184.466 16.7843 179.579 23.4768 179.579 31.7767C179.579 40.135 185.019 45.98 193.396 45.98C202.85 45.98 206.108 37.6801 206.108 36.3066L198.632 35.7513C198.632 38.3523 196.16 40.1643 193.687 40.1643C190.168 40.1643 188.306 37.4463 188.306 34.1439L188.364 32.7704H206.253ZM188.248 27.9775C188.51 24.7627 189.906 22.1033 193.484 22.1033C197.003 22.1033 197.992 24.9089 198.167 27.9775H188.248ZM209.831 45.454H217.918V7.52004H209.831V45.454ZM221.932 45.454H230.018V7.52004H221.932V45.454Z" fill="black"/>
</g>
<defs>
<clipPath id="clip0_951_190">
<rect width="230" height="46" fill="white"/>
</clipPath>
</defs>
</svg>
