<svg width="207" height="56" viewBox="0 0 207 56" fill="none" xmlns="http://www.w3.org/2000/svg">
<path d="M100.662 25.0313C100.02 25.6119 99.12 26.0648 98.2711 26.2289C95.7419 26.7175 94.1749 25.11 94.198 21.6199C94.2512 19.7243 95.1096 17.6009 97.2243 16.1707C97.8667 15.7362 98.6885 15.4297 99.4581 15.3489C101.136 15.1724 102.469 16.1275 102.819 17.7703C103.412 20.5526 102.822 23.079 100.662 25.0313ZM109.772 14.3883C108.467 10.5529 105.289 8.54349 101.26 8.89688C99.0055 9.09481 97.1756 10.1147 95.622 11.705C95.5766 11.7368 95.5313 11.7686 95.4859 11.8005C95.497 11.7353 95.5081 11.6701 95.5188 11.605C95.6581 10.8931 95.7976 10.1814 95.9458 9.42587H89.3252C87.3788 19.9355 85.4389 30.4111 83.4824 40.9758C85.8777 40.9758 88.1277 40.9868 90.3771 40.9537C90.5452 40.9512 90.8188 40.6545 90.8574 40.4581C91.291 38.2501 91.6885 36.0352 92.0944 33.8219C92.3052 32.6729 92.5133 31.5234 92.7173 30.4033C93.4892 30.9217 94.1495 31.4972 94.9124 31.8533C97.7115 33.1596 100.491 32.8363 103.17 31.4833C109.677 28.1963 111.707 20.0804 109.772 14.3883Z" fill="#0095FF"/>
<path d="M72.0481 25.5194H84.6746C84.3849 27.1066 84.1145 28.6411 83.8214 30.1709C83.6987 30.8107 83.7246 31.6847 83.3243 32.0082C82.9191 32.3356 82.0705 32.1302 81.4162 32.1307C75.4115 32.1349 69.407 32.1331 63.4024 32.1331H62.5262C62.5028 29.4627 63.0098 26.994 64.1732 24.6707C65.7653 21.4915 68.315 19.2094 71.1972 17.2536C72.9349 16.0744 74.7369 14.9865 76.4391 13.7591C77.2884 13.1467 78.0668 12.3829 78.7167 11.5607C79.4497 10.6333 79.6369 9.49842 78.968 8.43749C78.289 7.3605 77.1786 7.20734 76.0126 7.354C74.5522 7.53764 73.4446 8.36353 72.4615 9.38377C72.0981 9.76113 71.7828 10.1849 71.4146 10.6246C69.6881 9.22193 67.9823 7.83606 66.2216 6.40556C68.525 3.27992 71.407 1.07824 75.239 0.267788C77.6099 -0.23366 79.9289 -0.0450435 82.1472 0.952114C86.9377 3.10546 88.711 8.27515 86.3545 13.1403C85.2036 15.5163 83.3528 17.2738 81.236 18.7445C79.3262 20.0714 77.3089 21.2427 75.3638 22.5203C74.542 23.0601 73.7612 23.6698 73.0068 24.3016C72.6742 24.5801 72.454 24.9929 72.0481 25.5194Z" fill="#E16367"/>
<path d="M121.054 11.9716C121.03 12.0365 121.001 12.0951 120.993 12.1567C120.99 12.1733 121.05 12.1986 121.082 12.2197C121.113 12.1602 121.147 12.1016 121.17 12.039C121.173 12.0328 121.105 12.0009 121.054 11.9716ZM131.733 32.0987H124.436C124.738 30.4861 125.036 28.9277 125.322 27.3672C125.873 24.3573 126.473 21.3546 126.946 18.3321C127.266 16.2854 126.252 15.4294 124.218 15.8907C121.855 16.4268 120.482 18.1163 119.704 20.2215C119.122 21.7943 118.892 23.5022 118.558 25.1605C118.129 27.2928 117.762 29.4376 117.339 31.5713C117.298 31.7795 117.058 32.1084 116.906 32.1107C114.606 32.1453 112.306 32.1347 109.918 32.1347C111.889 21.5673 113.844 11.0843 115.802 0.587332H123.144C122.439 4.37561 121.742 8.1153 121.046 11.855C121.099 11.8926 121.151 11.9302 121.203 11.9679C121.387 11.7954 121.572 11.6244 121.753 11.4503C124.249 9.0612 127.189 8.30966 130.504 9.20186C133.414 9.98502 135.012 12.3899 134.688 15.6579C134.472 17.8416 134.001 20.0016 133.613 22.1666C133.056 25.2787 132.471 28.386 131.894 31.4945C131.857 31.6918 131.791 31.8835 131.733 32.0987Z" fill="#0095FF"/>
<path d="M147.654 26.1849C147.31 26.2584 146.952 26.2685 146.601 26.3082C144.443 26.2516 143.005 24.9833 142.677 22.8192C142.193 19.6201 144.333 16.2626 147.409 15.3975C150.059 14.6519 152.26 16.0809 152.654 18.8038C153.145 22.1879 150.914 25.4874 147.654 26.1849ZM157.784 12.5102C155.479 9.8642 152.406 8.95223 149.018 8.84268C142.708 8.66222 136.586 13.6052 135.449 19.8282C134.943 22.5927 135.097 25.2925 136.625 27.7494C138.681 31.0571 141.876 32.412 145.588 32.6149C152.395 32.9867 158.28 28.5697 159.808 21.9348C160.593 18.5253 160.178 15.26 157.784 12.5102Z" fill="#0095FF"/>
<path d="M11.4803 12.499L11.4389 12.4485C11.4236 12.464 11.4083 12.4794 11.3929 12.4948C11.4139 12.5119 11.4351 12.5291 11.4562 12.5462C11.4642 12.5305 11.4722 12.5148 11.4803 12.499ZM0.707031 32.1369C2.13141 24.4917 3.53412 16.9623 4.94052 9.4133H12.0196C11.8329 10.3915 11.6527 11.3356 11.4484 12.4062C12.0978 11.8151 12.6155 11.2677 13.2077 10.8183C15.5883 9.01107 18.2447 8.40683 21.1604 9.146C23.7911 9.81298 25.4803 11.8461 25.461 14.6068C25.4493 16.287 25.1644 17.9777 24.8724 19.641C24.1467 23.7761 23.3464 27.8983 22.5662 32.079H15.2776C15.3027 31.8323 15.3099 31.5909 15.354 31.3563C16.1247 27.2537 16.9042 23.1528 17.668 19.049C17.7508 18.6038 17.7809 18.1422 17.7777 17.6887C17.7686 16.349 17.1446 15.7529 15.7899 15.7859C14.6305 15.8142 13.6233 16.2576 12.7479 17.0008C11.0867 18.4113 10.238 20.266 9.8503 22.3662C9.28547 25.4265 8.73097 28.4887 8.1428 31.5445C8.1002 31.7655 7.82155 32.1084 7.64798 32.1115C5.37055 32.1496 3.09235 32.1369 0.707031 32.1369Z" fill="#0095FF"/>
<path d="M163.395 9.41108H170.478C170.279 10.4321 170.09 11.4064 169.858 12.6023C170.956 11.2484 172.134 10.3283 173.525 9.6859C175.723 8.67102 177.972 8.55612 180.245 9.35866C182.622 10.1978 183.847 12.0099 183.889 14.4379C183.92 16.1876 183.609 17.9583 183.31 19.6955C182.633 23.6334 181.87 27.5566 181.139 31.4851C181.102 31.6822 181.041 31.8747 180.983 32.0993H173.686C173.937 30.7347 174.174 29.4227 174.421 28.1127C174.992 25.0807 175.571 22.0499 176.138 19.0172C176.199 18.6949 176.213 18.3629 176.232 18.0344C176.332 16.3084 175.48 15.5392 173.757 15.8177C172.015 16.0994 170.785 17.1422 169.808 18.5385C168.809 19.966 168.427 21.6097 168.128 23.2899C167.636 26.0538 167.12 28.8135 166.589 31.5699C166.549 31.7787 166.305 32.1089 166.151 32.1113C163.851 32.1461 161.549 32.1354 159.162 32.1354C160.582 24.5108 161.988 16.9647 163.395 9.41108Z" fill="#0095FF"/>
<path d="M199.303 17.8413H193.011C193.467 15.9575 195.23 14.5562 197.08 14.5803C198.716 14.6015 199.672 15.964 199.303 17.8413ZM206.434 16.2932C205.993 13.0418 204.395 10.6718 201.246 9.50614C196.673 7.81356 191.054 9.35936 187.936 13.1151C185.596 15.9326 184.569 19.216 184.609 22.8143C184.649 26.5351 186.2 29.5069 189.58 31.2567C194.166 33.6313 199.826 32.9256 204.269 29.895C204.398 29.8068 204.493 29.5002 204.444 29.3455C203.894 27.5913 203.312 25.8468 202.758 24.1567C201.389 24.7425 200.095 25.3757 198.746 25.8526C197.16 26.4131 195.525 26.5411 193.937 25.8021C192.581 25.1713 191.745 23.543 192.099 22.2361H192.92C196.948 22.2361 200.976 22.2248 205.004 22.2492C205.557 22.2525 205.811 22.0965 205.944 21.5505C206.366 19.8189 206.677 18.0865 206.434 16.2932Z" fill="#0095FF"/>
<path d="M40.813 17.8428H34.4701C35.193 16.0749 36.2605 14.8672 38.149 14.6152C40.084 14.357 41.3727 15.9038 40.813 17.8428ZM47.9978 16.4848C47.6218 13.1692 46.0727 10.6252 42.8251 9.54527C38.2679 8.0297 34.0425 8.82472 30.4787 12.1118C27.2171 15.1202 25.977 19.032 26.1841 23.3689C26.3916 27.7177 28.9268 30.8166 33.1058 32.0602C37.0735 33.2409 40.8598 32.6581 44.4702 30.7168C46.1559 29.8104 46.1546 29.8041 45.5692 28.0102C45.1426 26.7029 44.7103 25.3975 44.2634 24.0392C43.7091 24.3469 43.2573 24.6209 42.786 24.8556C41.0257 25.732 39.2144 26.4033 37.1933 26.2629C34.9268 26.1054 33.4308 24.5086 33.5677 22.236H34.5098C38.5361 22.236 42.5626 22.2253 46.5889 22.2492C47.1167 22.2522 47.3384 22.0989 47.4736 21.5865C47.9155 19.9094 48.1947 18.2214 47.9978 16.4848Z" fill="#0095FF"/>
<path d="M51.4253 15.7512H48.7188C48.9 14.7182 49.0651 13.7594 49.237 12.802C49.3846 11.9805 49.5565 11.163 49.685 10.3387C49.7509 9.91668 49.9137 9.73036 50.3726 9.75204C51.1547 9.78915 51.94 9.76237 52.808 9.76237C53.0819 8.33288 53.3452 6.92521 53.6232 5.52046C53.7696 4.78104 53.7105 3.77152 54.1673 3.38765C54.6224 3.00544 55.6068 3.23461 56.3592 3.22926C57.8537 3.21867 59.3484 3.23091 60.843 3.23614C60.8912 3.23627 60.9393 3.26305 61.0683 3.30144C60.6789 5.41321 60.2878 7.53455 59.8803 9.74401H64.4709C64.2775 10.8446 64.1037 11.8531 63.9222 12.8603C63.7877 13.6069 63.6107 14.3476 63.5148 15.0989C63.451 15.5976 63.2653 15.7815 62.7458 15.7639C61.6069 15.7253 60.4655 15.7725 59.3263 15.7419C58.8752 15.7299 58.713 15.8899 58.6392 16.3229C58.2778 18.4422 57.8736 20.5541 57.5095 22.6727C57.217 24.3762 57.8882 25.3052 59.5825 25.5347C60.2794 25.629 60.9882 25.6335 61.7884 25.6853C61.3913 27.8376 60.9954 29.984 60.5829 32.2205C57.5864 32.521 54.6803 32.4019 52.1959 30.4697C50.0888 28.831 49.5408 26.5117 49.9193 23.9914C50.2872 21.5423 50.8244 19.1187 51.2843 16.6833C51.3357 16.4114 51.3677 16.1359 51.4253 15.7512Z" fill="#0095FF"/>
<path d="M95.6223 11.705C95.577 11.7369 95.5316 11.7688 95.4863 11.8005C95.4974 11.7354 95.5084 11.6703 95.5192 11.605C95.5543 11.6373 95.5887 11.6707 95.6223 11.705Z" fill="#FEFEFE"/>
<path d="M121.053 11.9716C121.105 12.0009 121.172 12.0328 121.17 12.039C121.147 12.1016 121.113 12.1602 121.081 12.2197C121.05 12.1986 120.99 12.1733 120.992 12.1567C121.001 12.0951 121.03 12.0365 121.053 11.9716Z" fill="#0095FF"/>
<path d="M11.4799 12.4992C11.4719 12.515 11.4639 12.5307 11.4558 12.5464C11.4348 12.5293 11.4136 12.5121 11.3926 12.495C11.408 12.4796 11.4233 12.4641 11.4386 12.4487L11.4799 12.4992Z" fill="#FEFEFE"/>
<path d="M101.277 48.3207L100.101 45.1867C99.9487 44.7901 99.7918 44.3035 99.6305 43.727C99.529 44.1698 99.3837 44.6564 99.1946 45.1867L98.0046 48.3207H101.277ZM102.903 52.5962L101.644 49.3792H97.5895L96.3443 52.5962H95.1543L99.1531 42.4402H100.143L104.12 52.5962H102.903Z" fill="black"/>
<path d="M110.527 52.5962V47.6911C110.527 47.0731 110.386 46.6118 110.105 46.3073C109.823 46.003 109.383 45.8507 108.783 45.8507C107.99 45.8507 107.409 46.0652 107.04 46.4941C106.671 46.9233 106.486 47.6311 106.486 48.6181V52.5962H105.338V45.0136H106.272L106.459 46.0515H106.514C106.749 45.6778 107.079 45.3884 107.503 45.1833C107.928 44.9781 108.4 44.8753 108.922 44.8753C109.835 44.8753 110.522 45.0958 110.983 45.5361C111.444 45.9766 111.675 46.681 111.675 47.6496V52.5962H110.527Z" fill="black"/>
<path d="M117.77 42.4815H119.914V52.5962H117.77V42.4815Z" fill="black"/>
<path d="M128.625 47.4974C128.625 45.3252 127.666 44.2389 125.747 44.2389H124.605V50.8252H125.526C127.592 50.8252 128.625 49.7159 128.625 47.4974ZM130.853 47.4419C130.853 49.1071 130.379 50.3823 129.431 51.2678C128.483 52.1535 127.115 52.5962 125.325 52.5962H122.461V42.4817H125.636C127.288 42.4817 128.57 42.9176 129.483 43.7892C130.396 44.661 130.853 45.8785 130.853 47.4419Z" fill="black"/>
<path d="M136.85 52.5962H134.706V44.2666H131.959V42.4815H139.597V44.2666H136.85V52.5962Z" fill="black"/>
<path d="M149.283 43.3879C148.171 43.3879 147.293 43.7582 146.65 44.4983C146.007 45.2388 145.685 46.2521 145.685 47.539C145.685 48.8628 145.995 49.8855 146.616 50.6073C147.236 51.3291 148.12 51.6899 149.269 51.6899C149.974 51.6899 150.779 51.5631 151.683 51.3095V52.3402C150.982 52.6033 150.117 52.7346 149.089 52.7346C147.599 52.7346 146.45 52.2827 145.64 51.3786C144.831 50.4747 144.426 49.1902 144.426 47.525C144.426 46.483 144.621 45.5696 145.01 44.7855C145.4 44.0015 145.963 43.3974 146.698 42.9728C147.434 42.5487 148.3 42.3365 149.296 42.3365C150.357 42.3365 151.284 42.53 152.077 42.9176L151.579 43.9275C150.814 43.5678 150.048 43.3879 149.283 43.3879Z" fill="black"/>
<path d="M154.485 48.7981C154.485 49.7667 154.679 50.5048 155.066 51.0119C155.453 51.5195 156.023 51.7729 156.775 51.7729C157.527 51.7729 158.097 51.5205 158.487 51.0155C158.877 50.5104 159.072 49.7713 159.072 48.7981C159.072 47.8341 158.877 47.102 158.487 46.6014C158.097 46.1011 157.522 45.8509 156.761 45.8509C156.009 45.8509 155.442 46.0977 155.059 46.5911C154.676 47.0848 154.485 47.8204 154.485 48.7981ZM160.262 48.7981C160.262 50.0342 159.95 50.9993 159.328 51.6935C158.705 52.3876 157.845 52.7346 156.747 52.7346C156.069 52.7346 155.467 52.5755 154.941 52.2573C154.416 51.9391 154.01 51.4825 153.724 50.8875C153.438 50.2925 153.295 49.5961 153.295 48.7981C153.295 47.5621 153.604 46.5993 154.222 45.9097C154.84 45.2203 155.698 44.8753 156.795 44.8753C157.856 44.8753 158.699 45.2283 159.324 45.9339C159.949 46.6397 160.262 47.5944 160.262 48.7981Z" fill="black"/>
<path d="M171.94 52.5962V47.6633C171.94 47.0592 171.811 46.6061 171.553 46.304C171.294 46.002 170.893 45.8507 170.349 45.8507C169.634 45.8507 169.106 46.0561 168.765 46.4667C168.423 46.8771 168.253 47.5089 168.253 48.3622V52.5962H167.104V47.6633C167.104 47.0592 166.975 46.6061 166.717 46.304C166.459 46.002 166.055 45.8507 165.506 45.8507C164.787 45.8507 164.26 46.0664 163.925 46.4977C163.591 46.929 163.424 47.6358 163.424 48.6181V52.5962H162.275V45.0136H163.209L163.396 46.0515H163.451C163.668 45.6824 163.974 45.3942 164.368 45.1866C164.762 44.9791 165.204 44.8753 165.693 44.8753C166.878 44.8753 167.653 45.3043 168.017 46.1622H168.073C168.299 45.7656 168.627 45.452 169.055 45.2213C169.484 44.9907 169.973 44.8753 170.522 44.8753C171.38 44.8753 172.022 45.0958 172.449 45.5361C172.875 45.9766 173.089 46.681 173.089 47.6496V52.5962H171.94Z" fill="black"/>
<path d="M178.817 45.8508C178.043 45.8508 177.482 46.0653 177.136 46.4942C176.79 46.9232 176.613 47.6058 176.604 48.5422V48.798C176.604 49.8635 176.781 50.6255 177.136 51.0845C177.491 51.5436 178.061 51.7729 178.845 51.7729C179.5 51.7729 180.013 51.5078 180.384 50.9772C180.756 50.447 180.941 49.716 180.941 48.7841C180.941 47.8387 180.756 47.1133 180.384 46.6083C180.013 46.1033 179.491 45.8508 178.817 45.8508ZM178.983 52.7346C178.49 52.7346 178.039 52.6434 177.631 52.4612C177.223 52.2791 176.88 51.999 176.604 51.6206H176.52C176.576 52.0634 176.604 52.4832 176.604 52.8797V56H175.455V45.0137H176.389L176.548 46.0514H176.604C176.899 45.6364 177.242 45.3367 177.634 45.152C178.026 44.9676 178.476 44.8753 178.983 44.8753C179.989 44.8753 180.765 45.219 181.311 45.9062C181.858 46.5934 182.131 47.5574 182.131 48.798C182.131 50.0432 181.853 51.0108 181.297 51.7002C180.742 52.3898 179.97 52.7346 178.983 52.7346Z" fill="black"/>
<path d="M186.206 51.7868C186.921 51.7868 187.483 51.5908 187.891 51.1986C188.299 50.8066 188.503 50.2579 188.503 49.5522V48.8671L187.355 48.9157C186.441 48.9479 185.783 49.0898 185.379 49.341C184.976 49.5925 184.774 49.9834 184.774 50.5139C184.774 50.9288 184.9 51.2448 185.151 51.4616C185.402 51.6784 185.754 51.7868 186.206 51.7868ZM188.801 52.5962L188.572 51.5171H188.517C188.139 51.992 187.761 52.3138 187.386 52.482C187.01 52.6503 186.54 52.7346 185.978 52.7346C185.226 52.7346 184.637 52.5408 184.21 52.1535C183.784 51.766 183.57 51.2148 183.57 50.4999C183.57 48.9687 184.795 48.1661 187.244 48.0924L188.531 48.0509V47.5805C188.531 46.9854 188.403 46.5462 188.147 46.2625C187.891 45.9788 187.481 45.837 186.919 45.837C186.287 45.837 185.572 46.0306 184.774 46.4182L184.421 45.5395C184.795 45.3367 185.204 45.1774 185.649 45.0622C186.094 44.9469 186.54 44.8892 186.988 44.8892C187.892 44.8892 188.562 45.0898 188.998 45.491C189.434 45.8924 189.651 46.5358 189.651 47.4215V52.5962H188.801Z" fill="black"/>
<path d="M197.206 52.5962V47.6911C197.206 47.0731 197.066 46.6118 196.784 46.3073C196.503 46.003 196.062 45.8507 195.463 45.8507C194.67 45.8507 194.089 46.0652 193.719 46.4941C193.351 46.9233 193.166 47.6311 193.166 48.6181V52.5962H192.018V45.0136H192.952L193.138 46.0515H193.194C193.429 45.6778 193.759 45.3884 194.183 45.1833C194.607 44.9781 195.08 44.8753 195.601 44.8753C196.515 44.8753 197.202 45.0958 197.663 45.5361C198.124 45.9766 198.355 46.681 198.355 47.6496V52.5962H197.206Z" fill="black"/>
<path d="M199.51 45.0137H200.741L202.402 49.3377C202.766 50.3248 202.992 51.0372 203.08 51.4755H203.135C203.195 51.2402 203.321 50.8378 203.512 50.2683C203.703 49.6986 204.329 47.9471 205.39 45.0137H206.622L203.363 53.6477C203.04 54.501 202.663 55.1064 202.232 55.4639C201.801 55.8212 201.271 56 200.644 56C200.294 56 199.948 55.9607 199.607 55.8825V54.9623C199.86 55.0175 200.144 55.0453 200.458 55.0453C201.246 55.0453 201.809 54.6025 202.146 53.717L202.568 52.6378L199.51 45.0137Z" fill="black"/>
</svg>
