<svg width="200" height="77" viewBox="0 0 200 77" fill="none" xmlns="http://www.w3.org/2000/svg">
<path d="M22.8801 49.4854L26.1778 49.588L29.2694 49.4854H32.0518C32.3609 49.4854 32.567 49.588 32.567 49.896C32.567 50.204 32.3609 50.4094 31.8457 50.512C31.7426 50.4094 31.6396 50.4094 31.4335 50.4094C31.2274 50.4094 31.0213 50.512 30.8151 50.6147L30.1968 50.512H28.9602C28.3419 50.82 27.8266 51.0254 27.2083 51.0254L26.2809 50.82L25.6625 51.3334H25.2503V51.0254L24.4259 51.436H24.0137L23.9107 51.8467C23.6015 51.744 23.1893 51.744 22.571 51.6414C22.571 51.8467 22.4679 51.9494 22.3649 51.9494C22.2618 51.9494 22.2618 51.8467 22.0557 51.744L21.4374 51.8467L21.0252 52.36L20.9221 54.6187L21.0252 55.9534L20.9221 57.6987V59.6494L21.0252 60.5734V61.3947L21.5405 62.524V62.7294C21.5405 63.2427 21.8496 63.756 22.4679 64.2694L22.571 64.68L23.3954 64.8854L24.0137 65.5014L25.7656 65.8094L28.0327 65.296L28.6511 65.5014L30.2999 64.7827L30.9182 64.8854C31.1243 65.0907 31.2274 65.296 31.2274 65.5014C31.2274 65.7067 31.0213 66.0147 30.609 66.22L30.2999 66.1174L29.5785 66.7334L28.0327 66.9387L27.5175 67.2467L27.0022 66.9387C26.487 67.2467 25.9717 67.3494 25.3534 67.3494L24.3229 67.2467H23.8076L22.0557 66.22L21.2313 65.0907L20.716 64.4747L19.8916 62.216L19.4794 60.06L19.6855 59.2387L19.2733 58.828L19.4794 58.3147L19.3764 57.4934L19.8916 57.0827L19.6855 56.672L19.7886 56.1587L19.4794 55.44L19.5825 54.516L19.4794 54.1054L19.6855 54.0027V52.2574C19.5825 51.8467 19.4794 51.6414 19.2733 51.6414C19.1703 51.6414 19.0672 51.744 18.9641 51.8467L18.4489 51.6414L17.7275 51.8467L17.0062 51.3334H16.5939C16.1817 51.3334 16.0787 51.128 16.0787 50.7174V49.9987L15.7695 49.7934L15.9756 49.3827L16.697 49.4854L17.2123 49.3827L17.9336 49.588H19.8916L19.9947 48.4587V47.3294L19.6855 46.508L20.0977 46.2C20.2008 45.9947 20.2008 45.892 20.2008 45.892C20.2008 45.6867 20.0977 45.4814 19.7886 45.3787L19.8916 43.5307L19.4794 42.9147L19.5825 42.504C19.2733 42.4014 19.1703 42.2987 19.1703 42.0934L19.4794 40.8614C19.7886 40.5534 19.8916 40.348 19.8916 40.2454C20.8191 40.656 21.3343 40.964 21.3343 41.0667L21.1282 41.4774C21.3343 41.888 21.4374 42.2987 21.4374 42.504V42.6067C21.3344 42.812 21.3343 43.12 21.3343 43.2227C21.3343 43.3254 21.3344 43.5307 21.4374 43.6334V44.5574L21.0252 45.1734L21.3343 46.3027L21.1282 47.74L21.3343 48.048L21.0252 48.4587L21.4374 49.588H22.2618L22.8801 49.4854Z" fill="#231F20"/>
<path d="M25.2515 67.9654L24.324 67.7601H23.7057L21.7477 66.6307L20.9233 65.3987L20.305 64.6801L19.3775 62.2161L18.9653 59.9574L19.1714 59.2387L18.7592 58.7254L18.9653 58.0067L18.7592 56.9801L19.1714 56.6721L19.0683 56.4667L19.1714 55.8507L18.9653 55.2347L19.0683 54.3107L18.9653 53.5921L19.2744 53.3867V52.1547L18.5531 51.8467L17.7286 52.0521L16.9042 51.4361H16.6981C15.9768 51.4361 15.5646 51.0254 15.5646 50.3067V49.8961L15.1523 49.5881L15.6676 48.3561L16.6981 48.4587L17.3164 48.3561L18.1409 48.5614H19.4805V47.1241L19.0683 45.9947L19.5836 45.5841H19.4805L19.1714 45.3787L19.2744 43.4281L18.9653 43.1201V42.9147C18.6561 42.7094 18.5531 42.4014 18.5531 42.1961V42.0934L18.9653 40.6561L19.0683 40.5534C19.3775 40.2454 19.3775 40.0401 19.3775 40.0401L19.5836 39.4241L20.2019 39.7321C21.7477 40.4507 21.9538 40.6561 21.9538 41.0667V41.1694L21.8507 41.4774C22.0568 41.8881 22.1599 42.1961 22.1599 42.5041V42.8121C22.0568 43.0174 22.0568 43.1201 22.0568 43.3254L22.2629 43.5307L22.1599 44.1467L22.2629 44.7627L21.8507 45.3787L22.0568 46.4054L21.8507 47.7401L22.1599 48.1507L21.8507 48.6641L22.0568 49.1774H22.366L22.9843 48.7667L26.385 48.8694L29.4766 48.7667H32.259C32.8773 48.7667 33.2895 49.1774 33.2895 49.6907C33.2895 49.9987 33.1865 50.6147 32.0529 50.8201H31.8468L31.6407 50.7174H31.5376C31.4346 50.7174 31.4346 50.7174 31.3315 50.8201L31.1254 51.0254L30.301 50.8201H29.2705C28.6522 51.1281 28.0339 51.3334 27.4156 51.3334H27.3125L26.6942 51.2307L26.282 51.6414H25.1484L24.9423 51.7441H24.8392L24.6331 52.2574L23.7057 52.3601C23.6026 52.3601 23.2935 52.2574 22.7782 52.2574C22.5721 52.4627 22.366 52.4627 22.2629 52.4627C22.0568 52.4627 21.9538 52.3601 21.8507 52.2574H21.6446L21.4385 52.4627L21.3355 54.5161L21.4385 55.8507L21.2324 57.8014V59.7521L21.3355 60.7787V61.4974L21.8507 62.6267V62.9347C21.8507 63.2427 22.0568 63.6534 22.5721 64.0641L22.6752 64.1667L22.7782 64.3721L23.4996 64.5774L24.1179 65.1934L25.5606 65.5014L27.9308 64.9881L28.5491 65.1934L30.0949 64.4747L31.0224 64.5774L31.1254 64.6801C31.4346 64.9881 31.6407 65.2961 31.6407 65.7067C31.6407 66.1174 31.3315 66.5281 30.8163 66.9387L30.6102 67.1441L30.301 67.0414L29.6827 67.5547L28.0339 67.7601L27.3125 68.1707L26.6942 67.8627C26.385 67.8627 25.8698 67.9654 25.2515 67.9654ZM24.0148 66.7334H24.427L25.3545 66.9387C25.8698 66.9387 26.282 66.8361 26.6942 66.6307L27.0033 66.5281L27.5186 66.8361L27.8278 66.6307L29.3735 66.4254L30.198 65.7067L30.5071 65.8094L30.6102 65.7067V65.6041H30.301L28.6522 66.4254L27.9308 66.2201L25.6637 66.7334L23.6026 66.3227L22.9843 65.6041L22.0568 65.3987L22.469 65.9121L24.0148 66.7334ZM21.2324 64.1667L21.7477 64.7827L22.0568 65.1934L21.8507 64.7827C21.5416 64.4747 21.2324 64.1667 21.0263 63.8587L21.2324 64.1667ZM20.408 62.1134L20.8202 63.3454C20.8202 63.2427 20.7172 63.0374 20.7172 62.9347V62.8321L20.305 61.8054L20.408 62.1134ZM20.0988 60.1627L20.305 61.2921V60.6761L20.2019 59.8547L20.0988 60.1627ZM19.9958 58.7254L20.2019 58.9307V57.4934L19.9958 57.5961L20.0988 58.2121L19.9958 58.7254ZM20.0988 55.4401L20.305 55.9534L20.2019 54.6187L20.0988 55.4401ZM19.3775 51.1281C19.7897 51.1281 20.2019 51.4361 20.305 52.1547V52.6681V52.0521L21.0263 51.3334L22.0568 51.2307V51.1281H22.469C22.8813 51.1281 23.1904 51.2307 23.3965 51.2307L23.4996 50.9227H24.324L25.7667 50.2041V50.5121L25.9728 50.3067L27.1064 50.5121C27.6217 50.5121 28.0339 50.4094 28.5491 50.1014L26.0759 50.2041L22.9843 50.1014L22.469 50.5121H21.0263L20.6141 49.0747L20.5111 50.1014H17.9348L17.2134 49.8961L16.6981 49.9987V50.8201H17.3164L18.0378 51.3334L18.6561 51.1281L19.0683 51.3334C19.0683 51.1281 19.2744 51.1281 19.3775 51.1281ZM20.408 46.7134L20.6141 47.2267V47.7401L20.7172 46.6107L20.6141 46.3027C20.6141 46.3027 20.6141 46.4054 20.5111 46.5081L20.408 46.7134ZM20.408 45.1734L20.5111 45.2761L20.9233 44.6601V44.0441C20.8202 43.9414 20.8202 43.7361 20.8202 43.5307C20.8202 43.3254 20.8202 43.0174 20.9233 42.8121C20.9233 42.7094 20.9233 42.5041 20.6141 41.9907L20.5111 41.7854L20.6141 41.4774C20.5111 41.3747 20.305 41.2721 20.0988 41.1694C20.0988 41.2721 19.9958 41.2721 19.9958 41.3747L19.7897 42.0934L20.305 42.1961L20.0988 42.9147L20.5111 43.4281L20.408 45.1734ZM64.3082 55.4401C64.3082 55.6454 64.2052 55.8507 63.9991 55.9534L63.2777 55.7481L62.4533 56.3641L61.4228 56.2614C61.0106 56.5694 60.5983 56.6721 60.0831 56.6721C59.6709 56.6721 59.4648 56.7747 59.3617 56.8774C58.9495 56.6721 58.6404 56.6721 58.2282 56.6721C57.919 56.6721 57.7129 56.7747 57.6098 56.9801C57.7129 57.0827 57.8159 57.2881 57.919 57.3907L57.8159 57.9041L57.919 59.4441L58.5373 60.3681L58.6404 61.1894L59.6709 62.7294L59.4648 63.4481L60.1861 64.0641L61.3197 65.9121C61.938 66.5281 62.2472 67.0414 62.3502 67.3494L63.1747 67.7601L63.4838 68.4787L63.793 68.6841L63.1747 69.0947L62.4533 68.4787H62.0411L61.4228 68.1707H61.0106L60.5983 67.3494L60.1861 67.1441C59.7739 66.4254 59.3617 65.8094 58.9495 65.3987V64.9881L58.5373 64.5774V63.8587L57.8159 63.1401L56.7854 60.7787L56.4763 60.3681L56.2702 59.2387C56.2702 59.1361 56.0641 58.7254 55.6518 58.1094V57.0827H55.1366L54.5183 57.4934L53.5908 57.2881L52.9725 57.6987L52.7664 57.4934L52.2511 57.8014L52.1481 57.4934C52.045 57.4934 51.942 57.4934 51.6328 57.5961C51.4267 57.6987 51.1175 57.6987 50.9114 57.6987H49.4687L48.6443 58.2121L47.8199 58.0067L46.6863 58.1094V58.3147L46.2741 58.1094L45.6558 58.4174L45.2436 58.1094H44.5222L43.8008 58.4174L42.8734 57.6987L42.5642 57.9041L41.9459 57.6987C41.4306 57.9041 40.7093 58.7254 39.7818 60.0601L39.0604 60.2654C37.8238 62.2161 37.1025 63.1401 36.9994 63.1401L36.5872 63.3454L35.2475 65.0907H35.0414L33.9078 66.9387L32.6712 67.7601L31.7437 67.5547L31.9498 67.1441V66.5281L32.259 66.1174L32.0529 65.7067L32.8773 65.6041L33.4956 65.2961C34.0109 65.0907 34.32 64.6801 34.4231 64.1667C35.0414 63.9614 35.4536 63.6534 35.5567 63.0374C36.278 62.6267 36.7933 61.9081 37.1025 60.8814L37.7208 60.6761L39.2665 58.3147V57.6987C39.0604 57.4934 38.8543 57.2881 38.7513 56.9801L39.6788 56.1587V55.8507L40.8123 55.9534L41.4306 55.5427L41.5337 55.7481L42.152 54.9267C42.049 54.9267 41.9459 54.8241 41.9459 54.7214C41.9459 54.6187 42.152 54.4134 42.5642 54.2081L42.7703 54.5161C42.7703 54.1054 42.9764 53.6947 43.2856 53.1814L43.1825 53.0787H43.6978L43.9039 52.4627C44.3161 52.4627 44.5222 52.2574 44.5222 51.9494V51.4361C45.2436 50.8201 45.6558 50.2041 45.6558 49.6907V49.5881L46.2741 49.4854L46.3772 48.8694L46.6863 48.7667L47.2016 47.7401L47.5107 47.9454L47.2016 47.2267C47.6138 47.2267 47.9229 46.9187 47.9229 46.3027L48.2321 46.5081V45.5841H48.5412V44.9681L49.0565 44.4547C49.3657 44.2494 49.5718 43.8387 49.5718 43.4281L50.087 42.9147L49.7779 42.1961C50.1901 41.5801 50.6023 41.3747 51.0145 41.3747H51.1176L51.4267 40.9641L51.7359 41.4774C51.8389 41.5801 51.942 41.6827 52.1481 41.7854L52.9725 42.1961L53.0755 43.4281C53.2816 43.6334 53.4878 43.9414 53.6939 44.3521L54.1061 44.4547L54.2091 45.4814L54.6213 46.9187L55.2396 48.0481L55.6518 49.5881L55.7549 50.6147L56.3732 51.5387L56.1671 51.9494L56.6824 52.5654V53.2841L56.7854 53.9001C56.7854 54.0027 56.6824 54.2081 56.5793 54.4134C57.0946 55.5427 57.6098 56.0561 58.2282 56.0561L59.1556 55.8507H60.2892C60.5984 55.9534 60.9075 55.9534 61.1136 55.9534C61.5258 55.9534 61.835 55.8507 62.0411 55.6454C62.2472 55.4401 62.4533 55.3374 62.4533 55.3374C62.5563 55.3374 62.8655 55.4401 63.2777 55.7481L64.3082 55.4401ZM55.3427 54.3107C55.1366 53.7974 54.9305 53.4894 54.6213 53.2841L54.8274 52.6681L54.2091 52.2574L54.003 50.5121L53.3847 49.5881L53.2816 48.8694L53.0755 48.2534V48.0481H52.9725L52.8694 47.0214C52.8694 46.9187 52.7664 46.7134 52.6633 46.5081L52.3542 45.9947C52.2511 45.8921 52.1481 45.7894 51.942 45.6867C51.7359 45.5841 51.4267 45.3787 51.0145 45.1734L50.4992 45.4814L50.1901 45.9947L49.0565 47.5347L48.7473 48.0481C48.6443 48.1507 48.3351 48.5614 47.6138 49.2801L47.4077 49.9987L46.3772 50.5121C46.171 51.7441 45.6558 52.3601 44.9344 52.5654L44.5222 54.0027L43.6978 54.4134V54.9267L43.5947 55.4401C44.11 55.6454 44.5222 55.7481 44.7283 55.9534H45.3466L46.2741 56.1587C46.4802 56.2614 46.5833 56.2614 46.6863 56.2614C46.7894 56.2614 47.0985 56.2614 47.3046 56.1587H47.5107C47.5107 56.1587 47.7168 56.1587 47.8199 56.2614C48.026 56.3641 48.2321 56.3641 48.3351 56.3641L48.9535 56.2614L50.8084 56.1587L52.3542 55.9534C53.2816 56.0561 53.9 56.1587 54.2091 56.1587C54.9305 56.1587 55.3427 55.9534 55.3427 55.6454C55.3427 55.4401 55.2396 55.1321 54.9305 54.8241L55.3427 54.3107Z" fill="#231F20"/>
<path d="M63.2768 69.916L62.3494 69.1974H61.9371L61.3188 68.684H60.7005L60.1853 67.76L59.67 67.5547L59.5669 67.3494C59.3005 66.7333 58.9153 66.1752 58.4334 65.7067L58.3303 65.604V65.1934L57.9181 64.7827V64.064L57.2998 63.3454L56.2693 60.984L55.8571 60.4707L55.651 59.136C55.651 59.0334 55.5479 58.828 55.1357 58.212L55.0326 58.1094V57.596L54.5174 57.904L53.5899 57.6987L52.7655 58.212L52.5594 58.0067L51.838 58.52L51.6319 58.0067C51.3228 58.1094 51.0136 58.212 50.7045 58.212H49.4678L48.6434 58.7254L47.6129 58.52H46.9946V59.136L46.0671 58.6227L45.4488 58.9307L44.9335 58.52H44.5213L43.4908 58.9307L42.8725 58.52L42.6664 58.6227L41.945 58.3147C41.6359 58.52 41.1206 59.0334 40.1931 60.4707L40.0901 60.676L39.3687 60.8814C37.7199 63.448 37.4107 63.756 37.2046 63.8587L36.9985 63.9614L35.5558 65.7067H35.3497L34.3192 67.3494L32.7734 68.2734L31.0215 67.76L31.4337 66.836V66.1174L31.6398 65.8094L31.3306 65.0907L32.8764 64.8854L33.3917 64.5774C33.7008 64.4747 33.9069 64.1667 34.01 63.756L34.1131 63.448L34.4222 63.3454C34.9375 63.2427 35.1436 62.9347 35.1436 62.7294V62.524L35.3497 62.4214C35.968 62.1134 36.3802 61.4974 36.5863 60.676L36.6894 60.368L37.4107 60.06L38.7504 58.0067V57.6987C38.5443 57.4934 38.4412 57.288 38.3382 56.98L38.2351 56.672L39.2657 55.748V55.0294L40.8114 55.2347L41.6359 54.7214V54.516C41.6359 54.208 41.945 53.9 42.5633 53.4894L42.6664 53.3867C42.6664 53.284 42.7694 53.1814 42.7694 53.0787L41.7389 52.36L43.4908 52.2574L43.6969 51.6414H44.2122V50.9227L44.4183 50.7174C45.0366 50.204 45.3457 49.6907 45.3457 49.3827V48.7667L46.0671 48.6641L46.1702 48.048L46.5824 47.9454L46.9946 47.2267L46.7885 46.7134H47.5098C47.6129 46.7134 47.7159 46.7134 47.819 46.3027L47.922 45.4814L48.1281 45.5841V45.0707H48.4373V44.7627L48.6434 44.5574C48.6434 44.5574 48.8495 44.4547 49.1587 44.0441C49.3648 43.8387 49.4678 43.6334 49.5709 43.3254V43.1201L49.9831 42.7094L49.2617 42.0934L49.4678 41.7854C49.9831 41.1694 50.3953 40.8614 50.9106 40.7587L51.5289 39.8347L52.2502 40.9641L52.4563 41.1694L53.4869 41.6827L53.5899 43.0174C53.796 43.2227 53.8991 43.428 54.1052 43.736L54.6204 43.9414L54.7235 45.276L55.0326 46.6107L55.651 47.6374L56.0632 49.28L56.1662 50.1014L56.9906 51.128L56.7845 51.436L57.1967 51.8467V52.668L57.2998 53.3867C57.2998 53.592 57.2998 53.6947 57.1967 53.9C57.5059 54.6187 57.8151 54.9267 58.2273 55.0294L59.1547 54.824H60.4944C60.8036 54.9267 61.0097 54.9267 61.2158 54.9267C61.5249 54.9267 61.628 54.9267 61.8341 54.824C62.2463 54.516 62.3494 54.4134 62.6585 54.4134C62.8646 54.4134 63.0707 54.516 63.689 54.824L65.1318 54.7214V55.44C65.1318 55.8507 64.9257 56.2614 64.5135 56.4667L64.3073 56.5694L63.586 56.364L62.7616 56.98L61.731 56.8774C61.3188 57.1854 60.8036 57.288 60.2883 57.288H59.9792L59.7731 57.6987L59.3608 57.4934C59.1547 57.3907 59.0517 57.3907 58.8456 57.288L58.6395 58.0067L58.7425 59.3414L59.3608 60.2654L59.4639 61.0867L60.3914 62.6267L60.2883 63.2427L60.8036 63.756L61.9371 65.604C62.5555 66.3227 62.7616 66.6307 62.8646 66.9387L63.689 67.3494L63.9982 68.1707L64.8226 68.7867L63.2768 69.916ZM62.2463 68.068H62.5555L61.9371 67.76L61.8341 67.5547C61.8341 67.452 61.628 67.144 60.9066 66.3227L60.8036 66.22L59.7731 64.4747L59.0517 63.6534L59.2578 62.9347L58.3303 61.4974L58.1242 60.5734L57.5059 59.6494L57.2998 57.8014L57.4028 57.596C57.2998 57.4934 57.1967 57.3907 57.1967 57.1854L57.0937 56.98L57.1967 56.7747C57.2998 56.5694 57.4029 56.364 57.8151 56.1587C57.1967 55.9534 56.5784 55.3374 56.1662 54.208L56.0632 53.9L56.2693 53.6947C56.3723 53.592 56.3723 53.592 56.3723 53.4894L56.2693 52.8734V52.36L55.651 51.6414L55.8571 51.2307L55.3418 50.512L55.2388 49.3827L54.8265 47.9454L54.2082 46.816L53.796 45.276L53.693 44.5574L53.3838 44.4547H53.1777C52.9716 43.9414 52.7655 43.8387 52.7655 43.736L52.5594 43.6334L52.4563 42.5041L51.9411 42.2987C51.735 42.1961 51.6319 42.0934 51.5289 41.9907H51.1167C51.0136 41.9907 50.9106 41.9907 50.4984 42.4014L50.8075 43.1201L50.0861 43.8387C49.9831 44.3521 49.777 44.66 49.3648 44.968C49.1587 45.0707 49.0556 45.1734 49.0556 45.276V46.2H48.7465V46.816L49.5709 45.6867L49.9831 44.968L50.9106 44.4547L51.1167 44.5574C51.5289 44.7627 51.838 44.9681 52.0441 45.0707C52.2502 45.2761 52.4563 45.3787 52.5594 45.5841L52.8686 46.0974C53.0747 46.4054 53.1777 46.6107 53.1777 46.9187V47.432H53.3838V48.1507L53.693 48.7667L53.796 49.4854L54.4143 50.4094L54.6204 52.052L55.4449 52.4627L55.2388 53.0787C55.4449 53.284 55.651 53.6947 55.8571 54.1054L55.9601 54.516L55.5479 54.824C55.651 55.0294 55.754 55.3374 55.754 55.5427C55.754 55.8507 55.651 56.2614 55.0326 56.4667H56.0632V57.8014C56.5784 58.6227 56.6815 58.828 56.6815 58.9307L56.7845 59.9574L57.0937 60.2654L58.1242 62.6267L58.9486 63.448V64.1667L59.3608 64.5774V65.0907C59.7731 65.5014 60.0822 66.0147 60.3914 66.6307L60.8036 66.836L61.2158 67.452H61.5249L62.2463 68.068ZM32.4642 67.144H32.5673L33.4947 66.6307L34.1131 65.604C34.01 65.7067 33.9069 65.7067 33.7008 65.8094L33.0825 66.1174H32.7734L32.3612 66.6307V67.144H32.4642ZM34.8344 64.5774H34.9375L35.0405 64.372C35.0405 64.4747 34.9375 64.4747 34.8344 64.5774ZM37.5138 61.292C37.4107 61.4974 37.4107 61.6 37.3077 61.8054C37.4107 61.6 37.5138 61.4974 37.7199 61.1894L37.5138 61.292ZM39.4718 57.0827L39.5748 57.1854L39.7809 57.3907V58.52L38.9565 59.8547L39.3687 59.752C40.2962 58.3147 41.0175 57.596 41.6359 57.288L41.842 57.1854L42.4603 57.3907L42.9755 56.98L43.6969 57.6987L44.2122 57.4934H45.2427L45.5518 57.6987L46.0671 57.3907L46.2732 57.4934L47.7159 57.3907L48.4373 57.4934L49.1587 56.98H50.8075C51.0136 56.98 51.2197 56.98 51.3228 56.8774C51.6319 56.7747 51.838 56.672 52.0441 56.672H52.4563V56.7747L52.7655 56.5694L52.9716 56.7747L53.4869 56.4667L54.4143 56.672L54.8265 56.364H54.2082C54.0021 56.364 53.5899 56.364 52.3533 56.1587L50.9106 56.364L49.0556 56.672L48.4373 56.7747H48.3343C48.1282 56.7747 47.819 56.7747 47.6129 56.672H47.3037C46.9946 56.7747 46.6854 56.7747 46.4793 56.7747C46.3763 56.7747 46.1702 56.7747 45.861 56.672L45.2427 56.4667L44.5213 56.5694L44.4183 56.4667C44.3152 56.364 44.0061 56.2614 43.3877 56.056H43.1816V56.1587L43.0786 56.056L42.8725 55.8507L42.9755 55.6454L42.6664 55.132L41.5328 56.5694L41.2237 56.1587L40.9145 56.4667H40.1931L39.4718 57.0827ZM58.8456 56.1587C58.9486 56.1587 59.1547 56.2614 59.2578 56.2614C59.4639 56.1587 59.7731 56.056 60.0822 56.056H59.1547L58.8456 56.1587ZM47.5098 55.5427C47.6129 55.5427 47.7159 55.5427 48.0251 55.6454C48.1282 55.6454 48.2312 55.748 48.3343 55.748L48.9526 55.6454L50.8075 55.5427L52.3533 55.3374H52.4563C53.5899 55.44 54.0021 55.44 54.2082 55.44H54.7235C54.7235 55.3374 54.6204 55.2347 54.5174 55.132L54.2082 54.7214L54.8265 54.208C54.7235 54.0027 54.6204 53.9 54.5174 53.7974L54.1052 53.592L54.3113 52.976L53.8991 52.7707L53.693 50.82L53.0747 49.896L52.9716 49.0747L52.7655 48.5614H52.5594L52.4563 47.0214C52.4563 47.0214 52.4563 46.9187 52.3533 46.816L51.838 46.2L51.6319 45.9947C51.5289 45.892 51.4258 45.7894 51.1167 45.6867L51.0136 45.7894L50.7045 46.2L49.5709 47.74L49.2617 48.2534C49.1587 48.356 49.0556 48.5614 48.6434 48.972L48.8495 49.3827L48.5404 49.1774L48.1281 49.588L47.922 50.4094L46.8915 50.9227C46.5824 52.052 46.1702 52.7707 45.4488 53.0787L45.0366 54.4134L44.2122 54.7214V55.132C44.5213 55.2347 44.7274 55.3374 44.8305 55.44H45.3457L46.3763 55.748L46.5824 55.8507C46.5824 55.8507 46.7885 55.8507 47.0976 55.748C47.2007 55.5427 47.4068 55.5427 47.5098 55.5427ZM43.6969 53.4894C43.5939 53.592 43.5939 53.7974 43.4908 53.9L44.2122 53.592L44.5213 52.668C44.5213 52.668 44.4183 52.668 44.3152 52.7707L44.1091 53.3867L43.6969 53.4894ZM45.0366 51.5387V52.1547C45.4488 52.052 45.861 51.436 45.9641 50.512V50.3067C45.758 50.6147 45.4488 51.0254 45.0366 51.5387ZM46.0671 49.896C46.0671 49.9987 45.9641 50.1014 45.9641 50.204L46.9946 49.6907L47.2007 49.0747L47.3037 48.972L47.6129 48.6641L47.4068 48.4587L46.9946 48.972L46.7885 49.0747L46.6854 49.7934L46.0671 49.896ZM47.922 47.5347L48.1281 47.9454L48.2312 47.8427L48.5404 47.3294L48.3343 47.2267C48.2312 47.3294 48.1282 47.432 47.922 47.5347ZM97.7993 47.2267L97.181 48.2534L97.2841 48.972L97.4902 48.8694C97.4902 49.0747 97.3871 49.4854 97.181 49.9987L96.8718 50.6147V52.976L96.4596 54.0027L96.5627 54.7214L96.1505 56.8774L96.3566 57.3907L95.9444 59.136L96.0474 59.8547L95.7383 61.0867L96.0474 62.216L95.3261 63.3454L95.5322 63.9614L95.12 64.7827L95.3261 65.1934L95.5322 67.3494L95.8413 68.068C95.6352 68.1707 95.4291 68.376 95.3261 68.684L94.8108 68.7867L94.6047 66.4254L94.2955 66.3227C94.2955 66.0147 94.2955 65.8094 94.1925 65.5014V63.756C94.1925 63.448 94.1925 63.14 94.0894 63.0374L93.7803 62.4214L92.8528 62.3187L92.3375 61.6L92.1314 61.908L91.7192 61.3947L90.8948 61.6L89.9673 60.8814L89.4521 60.984L88.5246 60.7787L88.0094 60.1627L87.7002 60.2654L84.8147 58.52L84.5056 58.1094L83.4751 57.6987L82.8567 56.8774L82.3415 56.5694L81.6201 55.8507L79.456 54.9267L77.9102 52.976H77.2919L76.8797 52.36C76.4675 52.1547 75.9522 51.744 75.3339 51.128H75.54C75.2309 50.82 75.0248 50.512 74.8187 49.9987L74.5095 49.896H74.4065C74.0973 49.896 73.8912 49.9987 73.7882 50.204C73.6851 50.4094 73.582 50.9227 73.479 51.5387L73.0668 53.9L73.479 55.3374L72.7576 57.904C72.9637 58.828 73.0668 59.444 73.0668 59.444V59.6494C73.0668 60.06 72.9637 60.368 72.7576 60.5734C72.5515 60.7787 72.4485 60.984 72.4485 61.0867C72.4485 61.1894 72.6546 61.292 73.0668 61.3947L72.7576 62.4214V63.5507L72.5515 64.8854L72.7576 65.3987L72.5515 65.7067C72.4485 66.6307 72.2424 67.3494 71.9332 67.8627H71.6241C71.2118 67.8627 71.0057 67.5547 71.0057 66.9387V66.7334L71.6241 64.8854L71.4179 64.1667L71.7271 63.14L71.4179 62.7294L71.8302 62.0107L71.3149 61.292C71.4179 60.8814 71.4179 60.676 71.4179 60.368C71.4179 60.1627 71.4179 59.752 71.3149 59.3414L71.521 59.444L71.7271 59.0334L71.3149 58.3147L71.7271 57.1854L71.521 55.748L71.7271 54.4134L71.4179 53.3867L71.7271 51.128V49.3827L71.9332 47.74L71.7271 47.2267V44.968L72.2424 44.8654C71.8302 44.4547 71.6241 44.1467 71.6241 43.736C71.6241 43.5307 71.7271 43.428 71.9332 43.2227L72.7576 43.428L72.9637 43.1201C73.2729 43.3254 73.3759 43.6334 73.3759 43.8387C73.3759 44.0441 73.2729 44.2494 73.1698 44.4547H73.7882L73.8912 45.5841L74.5095 46.0974L74.6126 46.816L75.3339 47.3294L75.54 48.2534C75.6431 48.664 75.7461 48.8694 76.0553 49.0747L77.6011 50.204V50.3067C77.6011 50.512 77.8072 50.82 78.1163 51.128L79.2499 51.8467L80.3835 53.1814L84.0934 56.2614H84.5056C84.8147 56.5694 85.0208 56.7747 85.1239 56.98C85.2269 57.1854 85.33 57.288 85.33 57.3907L86.8758 57.904L88.1124 58.9307L88.8338 59.136L90.1735 59.8547L91.4101 60.2654C92.2345 61.0867 92.8528 61.3947 93.3681 61.3947L94.0894 61.1894H94.1925L94.2955 59.8547L94.9139 58.4174L94.6047 58.1094L94.7078 55.9534L95.223 55.132L95.12 54.6187C95.12 54.516 94.9139 54.1054 94.7078 53.6947L95.223 51.8467L95.0169 50.1014L95.4291 46.7134L95.0169 46.2L95.6352 44.2494L95.4291 44.0441L95.7383 43.6334L95.6352 43.3254L96.3566 43.0174L96.4596 43.3254L97.0779 43.2227C96.9749 43.5307 96.9749 43.8387 96.9749 44.0441C96.9749 44.3521 97.0779 44.6601 97.181 44.8654C97.2841 45.0707 97.3871 45.2761 97.3871 45.3787L97.181 46.2L97.7993 47.2267Z" fill="#231F20"/>
<path d="M95.5315 69.5054L94.2948 69.1974L94.0887 66.836L93.7796 66.7334V66.3227C93.7796 66.0147 93.6765 65.7067 93.6765 65.3987V63.6534C93.6765 63.3454 93.5735 63.14 93.5735 63.14L93.3674 62.9347L92.5429 62.832L92.3368 62.524L92.1307 62.832L91.5124 62.0107L90.7911 62.216L89.8636 61.4974L89.4514 61.6L88.2148 61.3947L87.8025 60.8814L87.4934 60.984L84.2988 58.9307L84.0927 58.52L83.0621 58.1094L82.4438 57.288L81.9286 56.98L81.2072 56.2614L79.0431 55.3374L77.6004 53.4894H76.879L76.4668 52.8734C75.9515 52.668 75.5393 52.1547 74.921 51.5387L74.1997 50.7174C74.0966 50.9227 74.0966 51.2307 73.9935 51.8467L73.5813 54.1054L73.9935 55.5427L73.2722 58.0067C73.5813 59.3414 73.5813 59.444 73.5813 59.5467V59.752C73.5813 60.2654 73.4783 60.676 73.1691 60.984L73.6844 61.1894L73.2722 62.6267V63.8587L73.0661 64.988L73.3752 65.604L73.0661 66.1174C72.963 67.0414 72.7569 67.8627 72.3447 68.4787L72.1386 68.684H71.5203C71.2111 68.684 70.3867 68.5814 70.3867 67.2467V66.7334L70.902 64.988L70.6959 64.2694L71.005 63.448L70.6959 62.9347L71.1081 62.1134L70.5928 61.4974V61.292C70.6959 60.984 70.6959 60.676 70.6959 60.4707C70.6959 60.2654 70.6959 59.9574 70.5928 59.5467L70.3867 58.52L70.5928 58.6227L70.4898 58.4174L70.902 57.288L70.6959 55.9534L71.005 54.516L70.6959 53.4894L71.005 51.128V49.3827L71.2111 47.8427L71.005 47.3294L71.1081 44.5574H71.2111C71.1081 44.352 71.005 44.044 71.005 43.8387C71.005 43.6334 71.1081 43.2227 71.5203 42.9147L71.7264 42.7094L72.4478 42.9147L72.7569 42.4014L73.1691 42.812C73.5813 43.12 73.7874 43.5307 73.7874 43.9414V44.044H74.1997L74.3027 45.3787L74.818 45.892L74.921 46.508L75.6424 46.9187L75.9515 48.048C76.0546 48.2534 76.1576 48.4587 76.2607 48.5614L78.0126 49.7934V50.3067C78.0126 50.3067 78.1156 50.512 78.3217 50.7174L79.4553 51.436L80.6919 52.8734L84.1957 55.748H84.6079L84.711 55.8507C85.1232 56.1587 85.4323 56.4667 85.5354 56.8774V56.98L86.9781 57.4934L88.2148 58.52L88.8331 58.7254L90.1727 59.444L91.5124 59.8547L91.6155 59.9574C92.4399 60.7787 92.9552 60.984 93.1613 60.984L93.5735 60.8814L93.6765 59.8547L94.1918 58.7254L93.9857 58.52L94.1918 55.9534L94.707 55.2347V54.9267C94.707 54.9267 94.604 54.7214 94.2948 54.208L94.1918 54.0027L94.707 52.052L94.5009 50.4094L94.9131 47.2267L94.3979 46.3027L95.0162 44.352L94.707 44.044L95.1192 43.5307L95.0162 43.0174L96.665 42.196L96.8711 42.7094L98.0047 42.504L97.7986 43.428C97.6956 43.736 97.6956 43.9414 97.6956 44.1467C97.6956 44.352 97.6956 44.5574 97.7986 44.66C98.0047 45.0707 98.1078 45.276 98.1078 45.3787V45.4814L97.7986 46.2L98.4169 47.3294L97.9017 48.1507L98.0047 48.048V48.8694C98.0047 49.1774 97.9017 49.588 97.5925 50.204L97.4895 50.7174V53.0787L96.9742 54.1054L97.0772 54.7214L96.665 56.7747L96.8711 57.288L96.4589 59.136L96.562 59.9574L96.2528 61.0867L96.665 62.3187L95.9437 63.448L96.1498 64.064L95.7376 64.7827L95.8406 65.0907L96.0467 67.3494L96.562 68.376L96.1498 68.684L95.8406 68.992L95.5315 69.5054ZM71.6233 66.9387V67.3494C71.8295 66.9387 71.9325 66.3227 72.0356 65.7067V65.604L71.6233 66.9387ZM71.9325 64.2694L72.0356 64.5774L72.2417 63.5507V63.448L71.9325 64.2694ZM94.707 63.5507V64.2694L94.8101 64.064L94.707 63.5507ZM94.5009 62.7294C94.604 62.832 94.604 63.0374 94.707 63.2427L95.4284 62.1134L95.1192 60.984L95.4284 59.752L95.3254 59.0334L94.8101 60.06L94.707 61.8054H94.0887L93.7796 61.908H93.9857L94.5009 62.7294ZM72.0356 62.832L72.2417 63.0374V62.4214L72.0356 62.832ZM71.8295 61.292L72.3447 62.0107L72.4478 61.8054C72.1386 61.7027 71.9325 61.4974 71.9325 61.1894C71.9325 60.984 72.0356 60.676 72.3447 60.368C72.4478 60.2654 72.5508 60.06 72.5508 59.8547V59.6494C72.5508 59.5467 72.5508 59.3414 72.2417 58.1094V58.0067L72.86 55.6454L72.4478 54.208L72.86 51.6414C73.0661 50.6147 73.1691 50.3067 73.2722 50.1014C73.3752 49.896 73.6844 49.4854 74.4058 49.4854H74.6119L75.2302 49.6907L75.3332 49.896C75.5393 50.3067 75.7454 50.6147 75.9515 50.82L76.9821 51.744H76.6729C76.776 51.8467 76.9821 51.9494 76.9821 51.9494L77.0851 52.052L77.3943 52.4627H78.0126L79.5584 54.516L81.6194 55.44L82.4438 56.2614L83.0621 56.5694L83.6805 57.288L84.711 57.6987L85.0201 58.1094L87.5964 59.752L88.0087 59.6494L88.627 60.368L89.2453 60.4707L89.6575 60.368L88.3178 59.6494L87.5964 59.444L86.3598 58.4174L85.0201 58.0067C84.711 57.904 84.5049 57.596 84.4018 57.288C84.4018 57.1854 84.2988 57.0827 84.0927 56.8774H83.6805L79.9706 53.592L78.9401 52.2574L77.9095 51.5387C77.4973 51.128 77.2912 50.82 77.2912 50.512L75.9515 49.4854C75.6424 49.1774 75.4363 48.8694 75.2302 48.356L75.0241 47.6374L74.1997 47.124L74.0966 46.4054L73.4783 45.892L73.3752 45.1734L72.3447 45.4814V47.2267L72.5508 47.74L72.3447 49.4854V51.2307L72.0356 53.3867L72.3447 54.4134L72.0356 55.9534L72.2417 57.3907L71.9325 58.4174L72.3447 59.136L71.9325 60.06V60.5734C71.9325 60.676 71.8295 60.984 71.8295 61.292ZM90.3788 60.4707L90.9972 60.984L91.3063 60.8814L91.1002 60.676L90.3788 60.4707ZM95.2223 57.904L95.5315 58.212L95.7376 57.3907L95.5315 56.8774L95.8406 55.44L95.4284 56.1587L95.2223 57.904ZM95.4284 53.592C95.7376 54.1054 95.8406 54.4134 95.8406 54.516L95.9437 55.0294L96.0467 54.7214L95.9437 54.0027L96.4589 52.8734V50.512L96.7681 49.7934C96.7681 49.6907 96.8711 49.588 96.8711 49.588L96.665 48.2534L97.1803 47.432L96.665 46.4054L96.9742 45.4814C96.9742 45.4814 96.8711 45.3787 96.8711 45.276C96.665 44.968 96.562 44.5574 96.562 44.1467V43.9414L96.2528 44.044L96.1498 44.1467L96.2528 44.2494L95.6345 46.2L96.1498 46.7134L95.6345 50.204L95.8406 51.9494L95.4284 53.592ZM74.3027 50.6147H74.5088V50.512C74.4058 50.512 74.3027 50.512 74.3027 50.6147C74.3027 50.512 74.3027 50.512 74.3027 50.6147ZM72.2417 43.9414C72.2417 44.044 72.3447 44.2494 72.6539 44.4547L72.7569 44.2494C72.86 44.1467 72.86 44.1467 72.86 44.044L72.2417 43.9414Z" fill="#231F20"/>
<path d="M108.207 49.4852L111.504 49.5879L114.596 49.4852H117.378C117.688 49.4852 117.894 49.5879 117.894 49.8959C117.894 50.2039 117.688 50.4092 117.172 50.5119C117.069 50.4092 116.966 50.4092 116.76 50.4092C116.554 50.4092 116.348 50.5119 116.142 50.6146L115.523 50.5119H114.287C113.669 50.8199 113.153 51.0252 112.535 51.0252L111.607 50.8199L111.195 51.2306H110.783V50.9226L109.959 51.3332H109.546L109.443 51.7439C109.134 51.6412 108.722 51.6412 108.104 51.5386C108.104 51.7439 108.001 51.8466 107.898 51.8466C107.795 51.8466 107.795 51.7439 107.588 51.6412L106.97 51.7439L106.558 52.2572L106.455 54.5159L106.558 55.8506L106.455 57.5959V59.5466L106.558 60.4706V61.2919L106.764 62.6266V62.8319C106.764 63.3452 107.073 63.8586 107.692 64.3719L107.795 64.7826L108.619 64.9879L109.237 65.6039L110.989 65.9119L113.256 65.3986L113.875 65.6039L115.523 64.8852L116.142 64.9879C116.348 65.1932 116.451 65.3986 116.451 65.6039C116.451 65.8092 116.245 66.1172 115.833 66.3226L115.523 66.2199L114.802 66.8359L113.256 67.0412L112.741 67.3492L112.226 67.0412C111.711 67.3492 111.195 67.4519 110.577 67.4519L109.65 67.2466H109.134L107.382 66.2199L106.558 65.0906L106.043 64.4746L105.218 62.2159L104.806 60.0599L105.012 59.2386L104.6 58.8279L104.806 58.3146L104.703 57.4932L105.218 57.0826L105.012 56.6719L105.115 56.1586L104.909 55.5426L105.012 54.6186L104.909 54.2079L105.115 54.1052V52.3599C105.012 51.9492 104.909 51.7439 104.703 51.7439C104.6 51.7439 104.497 51.8466 104.394 51.9492L103.879 51.7439L103.157 51.9492L102.436 51.4359H102.024C101.611 51.4359 101.508 51.2306 101.508 50.8199V50.1012L101.199 49.8959L101.405 49.4852L102.127 49.5879L102.642 49.4852L103.363 49.6906H105.321L105.424 48.5612V47.4319L105.115 46.6106L105.527 46.3026C105.63 46.0972 105.63 45.9946 105.63 45.9946C105.63 45.7892 105.527 45.5839 105.218 45.4812L105.321 43.6332L104.909 43.0172L105.012 42.6066C104.703 42.5039 104.6 42.4012 104.6 42.1959L104.909 40.9639C105.218 40.6559 105.321 40.4506 105.321 40.3479C106.249 40.7586 106.764 41.0666 106.764 41.1692L106.558 41.5799C106.764 41.9906 106.867 42.4012 106.867 42.6066V42.7092C106.764 42.9146 106.764 43.2226 106.764 43.3252C106.764 43.4279 106.764 43.6332 106.867 43.7359V44.6599L106.455 45.2759L106.764 46.4052L106.558 47.8426L106.764 48.1506L106.455 48.5612L106.867 49.6906H107.692L108.207 49.4852Z" fill="#231F20"/>
<path d="M110.577 67.9653L109.547 67.76H108.928L106.97 66.6306L106.146 65.3986L105.528 64.68L104.6 62.216L104.188 59.9573L104.394 59.2386L103.982 58.7253L104.188 58.0066L103.982 56.98L104.394 56.672L104.291 56.4666L104.394 55.8506L104.188 55.2346L104.291 54.3106L104.188 53.592L104.497 53.3866V52.1546L103.776 51.8466L102.951 52.052L102.127 51.436H101.921C101.199 51.436 100.787 51.0253 100.787 50.3066V49.896L100.375 49.588L100.89 48.356L101.921 48.4586L102.539 48.356L103.364 48.5613H104.703V47.124L104.291 45.9946L104.806 45.584H104.703L104.394 45.3786L104.497 43.428L104.085 42.812V42.6066C103.776 42.4013 103.673 42.0933 103.673 41.888V41.7853L104.085 40.348L104.188 40.2453C104.497 39.9373 104.497 39.732 104.497 39.732L104.703 39.116L105.321 39.424C106.867 40.1426 107.073 40.348 107.073 40.7586V40.8613L106.97 41.1693C107.176 41.58 107.279 41.888 107.279 42.196V42.504C107.176 42.7093 107.176 42.812 107.176 43.0173L107.383 43.2226L107.279 43.8386L107.383 44.4546L106.97 45.0706L107.176 46.0973L106.97 47.432L107.279 47.8426L106.97 48.356L107.176 48.8693H107.486L108.104 48.4586L111.505 48.5613L114.596 48.4586H117.379C117.997 48.4586 118.409 48.8693 118.409 49.3826C118.409 49.6906 118.306 50.3066 117.172 50.512H116.966L116.76 50.4093H116.657C116.554 50.4093 116.554 50.4093 116.451 50.512L116.245 50.7173L115.421 50.512H114.39C113.772 50.82 113.153 51.0253 112.535 51.0253H112.432L111.814 50.9226L111.402 51.3333H110.268L110.062 51.436H109.959L109.753 51.9493L109.237 51.8466C109.134 51.8466 108.825 51.744 108.31 51.744C108.104 51.9493 107.898 51.9493 107.795 51.9493C107.589 51.9493 107.486 51.8466 107.383 51.744H107.176L106.97 51.9493L106.867 54.0026L106.97 55.3373L106.867 57.0826V59.0333L106.97 60.06V60.7786L107.486 61.908V62.216C107.486 62.524 107.692 62.9346 108.207 63.3453L108.31 63.448L108.413 63.6533L109.134 63.8586L109.753 64.4746L111.195 64.7826L113.566 64.2693L114.184 64.4746L115.73 63.756L116.657 63.8586L116.76 63.9613C117.069 64.2693 117.276 64.5773 117.276 64.988C117.276 65.3986 116.966 65.8093 116.451 66.22L116.245 66.4253L115.936 66.3226L115.318 66.836L113.669 67.0413L112.947 67.452L112.329 67.144C111.711 67.8626 111.195 67.9653 110.577 67.9653ZM109.341 66.7333H109.753L110.68 66.9386C111.195 66.9386 111.608 66.836 112.02 66.6306L112.329 66.528L112.844 66.836L113.153 66.6306L114.699 66.4253L115.524 65.7066L115.833 65.8093L115.936 65.7066V65.604H115.627L113.978 66.4253L113.257 66.22L110.989 66.7333L108.928 66.3226L108.31 65.604L107.383 65.3986L107.795 65.912L109.341 66.7333ZM106.558 64.1666L107.073 64.7826L107.383 65.1933L107.176 64.7826C106.867 64.4746 106.558 64.1666 106.352 63.8586L106.558 64.1666ZM105.734 62.1133L106.146 63.3453C106.146 63.2426 106.043 63.0373 106.043 62.9346V62.832L105.631 61.8053L105.734 62.1133ZM105.425 60.1626L105.631 61.292V60.676L105.528 59.752L105.425 60.1626ZM105.321 58.7253L105.528 58.9306V57.4933L105.321 57.596L105.425 58.212L105.321 58.7253ZM105.425 55.44L105.631 55.9533L105.528 54.6186L105.425 55.44ZM104.703 51.128C105.115 51.128 105.528 51.436 105.631 52.1546V52.668V52.052L106.352 51.3333L107.383 51.2306V51.128H107.795C108.207 51.128 108.516 51.2306 108.722 51.2306L108.825 50.9226H109.547L110.989 50.204V50.512L111.195 50.3066L112.329 50.512C112.844 50.512 113.257 50.4093 113.772 50.1013L111.299 50.204L108.207 50.1013L107.692 50.512H106.249L105.837 49.0746L105.734 50.1013H103.157L102.436 49.896L101.921 49.9986V50.82H102.539L103.26 51.3333L103.879 51.128L104.291 51.3333C104.394 51.128 104.6 51.128 104.703 51.128ZM105.734 46.7133L105.94 47.2266V47.74L106.043 46.6106L105.94 46.3026C105.94 46.3026 105.94 46.4053 105.837 46.508L105.734 46.7133ZM105.734 45.1733L105.837 45.276L106.249 44.66V44.044C106.146 43.9413 106.146 43.736 106.146 43.5306C106.146 43.3253 106.146 43.0173 106.249 42.812C106.249 42.7093 106.249 42.504 105.94 41.9906L105.837 41.7853L105.94 41.4773C105.837 41.3746 105.631 41.272 105.425 41.1693C105.425 41.272 105.321 41.272 105.321 41.3746L105.115 42.196L105.631 42.2986L105.425 43.0173L105.837 43.5306L105.734 45.1733Z" fill="#231F20"/>
<path d="M154.169 63.9613C154.272 64.2693 154.376 64.4746 154.376 64.5773C154.376 64.68 154.272 64.8853 153.963 65.0906C153.654 65.296 153.345 65.604 152.933 65.912L152.418 65.7066L151.799 66.6306C151.284 66.6306 150.769 66.836 150.356 67.0413L149.017 66.7333L148.295 67.0413L148.089 67.452C147.677 67.144 147.368 66.9386 147.265 66.9386C147.162 66.9386 147.162 66.9386 147.162 67.0413H146.956L146.544 67.452L146.131 66.9386L145.822 67.0413C145.513 66.836 145.307 66.7333 145.101 66.7333H143.555L143.143 66.22L142.628 66.3226L141.906 65.912L141.494 66.1173L141.185 65.604H140.463L140.051 65.0906H139.536L139.227 64.7826C139.124 64.5773 138.815 64.372 138.609 64.1666L137.166 63.448C136.341 63.0373 135.723 62.3186 135.208 61.3946H134.693L133.971 60.4706L132.632 59.3413L131.086 57.596L130.674 57.4933L129.952 56.7746C129.849 56.672 129.54 56.5693 129.025 56.364C128.819 56.4666 128.612 56.5693 128.406 56.5693C128.303 56.5693 128.097 56.4666 127.994 56.364H127.376L126.964 55.748C127.17 55.5426 127.273 55.2346 127.273 54.824L127.891 54.6186V54.3106L128.509 54.208C128.716 54.1053 128.922 54.0026 129.128 54.0026C129.231 54.0026 129.334 54.0026 129.54 54.1053C129.643 54.208 129.746 54.208 129.746 54.208C129.746 54.208 129.849 54.208 129.952 54.1053C130.055 54.7213 130.777 54.9266 131.91 54.9266C132.941 54.9266 133.765 54.824 134.28 54.6186V54.4133L137.784 54.3106C138.609 53.9 139.433 53.6946 140.36 53.6946L140.67 53.7973L141.494 53.4893L141.7 53.1813H142.215L142.937 52.8733H143.452C143.761 52.8733 143.864 52.8733 143.967 52.7706C144.07 52.668 144.07 52.5653 144.07 52.4626V52.36C144.483 52.36 144.689 52.2573 144.689 52.1546C145.822 51.8466 146.441 51.3333 146.441 50.6146C146.441 50.3066 146.234 49.896 145.925 49.588L144.379 48.048H143.967C143.246 47.6373 142.834 47.432 142.628 47.432H142.215L141.288 47.0213H140.67L140.051 46.508H138.918L138.505 46.3026L135.929 46.0973L135.517 45.892L135.208 46.0973L134.693 45.892L134.177 46.0973L132.838 45.892L131.395 46.0973L130.674 45.892L129.849 45.9946L129.128 45.892L128.509 46.0973L128.097 45.892L127.273 46.4053L126.654 46.3026C126.448 46.7133 126.242 47.124 125.933 47.432L126.242 48.048L126.139 50.82L126.448 53.1813C126.139 54.3106 125.933 54.9266 125.933 55.2346L125.624 61.292L126.036 64.7826L125.727 66.6306V67.0413C125.727 67.2466 125.418 67.452 124.8 67.452H124.593L124.8 65.604L124.593 64.8853L124.181 62.9346L124.49 62.7293C124.078 62.216 123.872 61.908 123.872 61.8053C123.872 61.4973 124.078 61.1893 124.387 60.8813L123.975 60.1626H123.872C123.872 59.9573 124.078 59.5466 124.49 58.828C124.284 58.6226 124.181 58.3146 124.181 57.904L124.284 57.1853V56.7746C124.49 56.364 124.593 56.056 124.593 55.748C124.593 55.44 124.49 55.132 124.284 54.6186L124.593 53.7973L124.49 53.0786L124.8 52.8733C124.697 52.7706 124.697 52.5653 124.697 52.36C124.697 52.1546 124.8 51.744 125.006 51.2306L124.593 51.3333L124.284 50.1013L124.49 49.1773L124.284 47.2266L124.49 47.0213C123.975 46.508 123.666 46.3026 123.357 46.3026H123.254L122.945 46.6106L121.811 46.508L121.09 47.432C120.781 47.124 120.471 47.0213 120.162 47.0213C119.956 46.7133 119.75 46.4053 119.75 46.3026C119.75 46.2 119.75 45.9946 119.853 45.892C119.956 45.7893 120.059 45.584 120.162 45.4813L120.781 45.0706L122.223 44.8653L124.181 44.7626L124.593 44.4546V44.352C124.593 43.8386 125.006 43.6333 125.727 43.6333H126.345C126.551 44.2493 126.758 44.66 127.17 44.66C127.273 44.66 127.582 44.5573 128.2 44.2493L129.334 44.5573L131.189 44.2493L133.662 44.5573L137.166 44.66L138.918 44.968H140.257L140.773 45.3786C140.773 45.1733 140.876 45.0706 141.082 45.0706C141.185 45.0706 141.391 45.1733 141.494 45.3786C141.494 45.584 141.597 45.7893 141.7 45.892L142.215 45.9946V45.3786L144.07 46.0973L144.689 46.6106L144.792 46.508C145.101 46.7133 145.513 46.816 146.028 46.816L146.337 47.2266L146.75 47.3293C147.265 48.1506 147.677 48.664 147.883 49.0746C148.192 49.4853 148.295 49.7933 148.295 50.1013C148.295 50.7173 148.089 51.128 147.574 51.6413C147.059 52.052 146.544 52.5653 146.028 53.284H145.101C144.998 53.284 144.689 53.3866 144.276 53.592L144.07 54.0026H142.731L142.318 54.3106C142.215 54.4133 142.112 54.4133 141.906 54.516L141.185 54.7213C140.36 54.7213 139.639 55.0293 139.021 55.748L138.299 55.2346L137.681 55.5426C137.578 55.44 137.372 55.44 137.269 55.44C137.063 55.44 136.857 55.5426 136.547 55.8506L135.929 55.5426L135.311 55.8506L135.105 55.5426L134.28 56.056L133.147 55.9533C132.941 55.9533 132.632 55.9533 132.425 56.056L132.838 56.672L133.971 57.6986L134.28 58.3146L136.135 59.752L136.547 60.4706L136.857 60.7786C136.96 60.8813 137.166 61.292 137.475 62.0106H138.712L140.154 63.448L140.876 63.756L141.906 64.372L142.937 64.68L144.379 65.1933L144.895 65.0906L145.101 65.296L145.204 65.1933L145.41 65.5013L146.028 65.3986L146.131 65.912L146.647 65.604L147.162 65.8093L148.811 65.604L149.429 65.8093L151.696 65.3986L153.345 64.988L153.448 65.296L153.757 64.68H154.479L154.169 63.9613Z" fill="#231F20"/>
<path d="M148.192 68.3759L147.677 67.9652C147.573 67.8626 147.47 67.8626 147.47 67.7599L147.058 67.6572L146.44 68.2732L145.925 67.6572L145.615 67.7599L145.409 67.5546C145.306 67.4519 145.1 67.3492 144.997 67.3492H143.245L142.833 66.9386L142.421 67.0412L141.699 66.6306L141.081 66.9386L140.669 66.2199H140.051L139.638 65.7066H139.329C138.917 65.7066 138.711 65.3986 138.608 65.0906C138.505 64.9879 138.402 64.7826 138.196 64.6799L136.753 63.9612C135.929 63.5506 135.207 62.8319 134.692 61.9079H134.177L133.249 60.7786L131.91 59.7519L130.467 58.0066L130.055 57.9039L129.23 57.0826C129.23 57.0826 129.024 56.9799 128.715 56.8772C128.303 57.0826 127.994 57.0826 127.684 56.8772H126.757L125.933 55.6452L126.242 55.3372C126.242 55.3372 126.345 55.1319 126.448 54.7212V54.4132L126.963 54.2079V53.8999L127.89 53.6946C128.303 53.3866 128.715 53.3866 129.23 53.4892L129.745 52.6679L130.055 53.8999C130.158 54.2079 130.673 54.3106 131.497 54.3106C132.219 54.3106 132.837 54.2079 133.352 54.1052V53.8999L137.268 53.7972C138.093 53.3866 139.02 53.1812 139.948 53.1812H140.051L140.257 53.2839L140.669 53.0786L140.978 52.6679L141.699 52.7706L142.421 52.4626H143.039V51.9492L143.554 51.8466H143.657L144.07 51.7439C144.997 51.5386 145.409 51.1279 145.409 50.7172C145.409 50.5119 145.306 50.3066 145.1 50.1012L143.657 48.7666H143.348L143.245 48.6639C142.421 48.1506 142.215 48.0479 142.112 48.0479H141.596L140.669 47.6372H140.051L139.432 47.1239H138.402L137.99 46.9186L135.413 46.7132L135.104 46.5079L134.898 46.6106L134.28 46.4052L133.868 46.5079L132.425 46.3026L130.982 46.6106L130.158 46.3026L129.333 46.4052L128.715 46.3026L128.097 46.6106L127.684 46.5079L126.86 47.0212L126.345 46.9186C126.242 47.1239 126.139 47.3292 125.933 47.5346L126.139 48.0479L126.036 50.8199L126.345 53.1812V53.2839C125.933 54.7212 125.829 55.0292 125.829 55.1319L125.52 61.0866L125.933 64.5772L125.623 66.4252V66.8359C125.623 67.1439 125.417 67.7599 124.181 67.7599H123.253L123.562 65.3986L123.356 64.7826L122.841 62.5239L122.944 62.4212C122.635 62.0106 122.635 61.8052 122.635 61.5999C122.635 61.2919 122.738 60.8812 123.047 60.5732L122.944 60.3679C122.738 60.2652 122.635 60.0599 122.635 59.8546C122.635 59.6492 122.738 59.3412 123.15 58.6226C123.047 58.3146 122.944 58.0066 122.944 57.6986V57.5959L123.047 56.8772V56.4666L123.15 56.3639C123.356 55.9532 123.356 55.7479 123.356 55.6452C123.356 55.5426 123.356 55.2346 123.047 54.8239L122.944 54.6186L123.253 53.7972L123.047 52.9759L123.253 52.7706V52.4626V52.0519H123.15L122.738 50.1012L122.944 49.1772L122.738 47.1239C122.635 47.0212 122.532 46.9186 122.429 46.9186L122.12 47.2266L121.089 47.1239L120.162 48.2532L119.749 47.9452C119.44 47.7399 119.234 47.6372 119.131 47.6372H118.925L118.822 47.4319C118.513 47.0212 118.307 46.6106 118.307 46.3026C118.307 46.0972 118.41 45.7892 118.513 45.5839C118.616 45.3786 118.822 45.1732 119.028 44.9679L119.749 44.4546L121.398 44.2492L123.15 44.1466L123.253 44.0439C123.253 43.6332 123.562 42.9146 124.902 42.9146H125.933L126.036 43.3252C126.139 43.6332 126.242 43.8386 126.345 43.8386C126.448 43.8386 126.654 43.7359 127.169 43.5306L127.375 43.4279L128.612 43.7359L130.467 43.4279L132.94 43.7359L136.444 43.8386L138.093 44.1466H139.535L139.845 44.3519C139.948 44.3519 140.051 44.2492 140.154 44.2492C140.36 44.2492 140.566 44.3519 140.772 44.4546V44.3519L143.451 45.4812L143.657 45.6866L143.761 45.5839L144.173 45.8919C144.276 45.9946 144.585 46.0972 145.203 46.0972H145.409L145.719 46.5079L146.131 46.6106L146.234 46.8159C146.749 47.6372 147.161 48.1506 147.367 48.5612C147.677 49.0746 147.883 49.4852 147.883 49.8959C147.883 50.6146 147.573 51.2306 146.955 51.8466C146.44 52.2572 145.925 52.7706 145.409 53.3866L145.203 53.5919L144.173 53.6946C144.173 53.6946 144.07 53.6946 143.761 53.8999L143.554 54.4132H142.112L141.906 54.6186C141.803 54.7212 141.596 54.8239 141.287 54.9266L140.463 55.1319H140.36C139.741 55.1319 139.123 55.4399 138.608 55.9532L138.299 56.2612L137.371 55.6452L136.753 55.9532L136.444 55.7479H136.341C136.341 55.7479 136.238 55.8506 136.032 55.9532L135.722 56.1586L135.001 55.8506L134.177 56.1586L133.971 55.9532L133.352 56.2612L132.528 56.1586L133.455 56.8772L133.764 57.3906L135.619 58.8279L136.032 59.6492L136.238 59.9572C136.341 60.0599 136.444 60.2652 136.753 61.0866H137.887L139.432 62.6266L140.154 62.9346L141.081 63.5506L142.009 63.8586L143.245 64.3719L143.864 64.2692L144.07 64.0639L144.379 64.6799L145.203 64.4746L145.306 64.6799L145.409 64.5772L146.131 64.7826L147.78 64.5772L148.398 64.7826L150.562 64.3719L152.314 63.8586L152.52 63.5506H153.241L153.963 62.0106L154.478 63.3452C154.684 63.8586 154.684 64.0639 154.684 64.1666C154.684 64.5772 154.375 64.8852 154.066 65.0906C153.757 65.2959 153.447 65.6039 153.138 65.9119L152.932 66.1172L152.52 66.0146L152.005 66.8359H151.696C151.283 66.8359 150.871 66.9386 150.459 67.1439L150.253 67.2466L148.913 66.9386L148.501 67.1439L148.192 68.3759ZM147.161 66.4252C147.367 66.4252 147.47 66.4252 147.78 66.6306L148.604 66.2199L147.986 66.1172L146.337 66.3226L145.925 66.2199L145.512 66.5279H145.615L146.028 66.3226L146.337 66.6306L146.543 66.4252H146.749C146.955 66.5279 147.058 66.4252 147.161 66.4252ZM149.222 66.2199L150.356 66.5279C150.768 66.3226 151.18 66.2199 151.592 66.2199L151.902 65.8092L151.283 66.0146L149.222 66.2199ZM143.657 66.3226H144.997L144.894 66.1172L144.379 66.2199L144.173 65.9119L143.967 65.7066L143.554 65.8092L142.009 65.1932L140.978 64.8852L139.948 64.2692L139.123 63.8586L137.784 62.5239H136.341L136.238 62.2159C135.929 61.3946 135.722 61.1892 135.722 61.0866L135.413 60.6759L135.001 59.9572L133.146 58.5199L132.837 57.9039L131.703 56.9799L130.776 55.6452L131.497 55.4399H131.291C130.158 55.4399 129.436 55.2346 129.024 54.7212C128.921 54.7212 128.818 54.6186 128.612 54.5159H128.509C128.509 54.5159 128.406 54.5159 128.303 54.6186L128.2 54.7212L127.89 54.8239V55.0292L127.272 55.2346C127.272 55.3372 127.272 55.3372 127.169 55.4399L127.787 55.8506L127.89 55.9532C127.89 55.9532 127.994 55.9532 128.2 55.8506L128.406 55.7479L128.612 55.8506C129.436 56.1586 129.642 56.2612 129.848 56.4666L130.467 57.0826L130.879 57.1852L132.528 59.0332L133.868 60.1626L134.486 60.9839H135.104L135.207 61.2919C135.619 62.1132 136.135 62.7292 136.856 63.1399L138.299 63.8586C138.711 64.0639 138.917 64.3719 139.123 64.6799C139.123 64.6799 139.123 64.7826 139.226 64.7826H139.845L140.257 65.2959H140.978L141.184 65.7066L141.493 65.6039L142.318 66.0146L142.936 65.9119L143.657 66.3226ZM124.387 64.8852L124.593 65.3986L124.696 64.7826L124.49 63.0372L124.078 63.3452L124.387 64.8852ZM123.768 61.9079C123.768 62.0106 123.871 62.1132 124.181 62.5239L124.49 62.9346L124.284 61.4972V61.1892L124.078 61.3946C123.768 61.5999 123.768 61.8052 123.768 61.9079ZM123.768 59.9572L124.284 60.9839L124.593 55.3372C124.593 55.1319 124.696 54.7212 125.108 53.2839L124.799 51.2306L124.593 51.6412C124.284 52.2572 124.284 52.4626 124.284 52.5652V52.7706L124.593 53.1812L124.181 53.4892L124.284 54.0026L123.975 54.7212C124.181 55.1319 124.284 55.5426 124.284 55.8506C124.284 56.1586 124.181 56.5692 123.975 56.9799V57.2879L123.871 58.0066C123.871 58.3146 123.975 58.4172 124.078 58.5199L124.387 58.8279L124.181 59.1359C123.975 59.5466 123.871 59.8546 123.768 59.9572ZM132.734 55.3372L133.352 55.4399L134.074 55.0292L133.868 55.1319C133.558 55.2346 133.249 55.3372 132.734 55.3372ZM135.207 54.9266L135.722 55.1319C135.929 55.0292 136.032 54.9266 136.135 54.9266H135.207ZM134.589 54.9266L134.692 55.1319L135.104 54.9266H134.589ZM137.784 54.7212L138.299 55.0292C138.711 54.6186 139.226 54.4132 139.741 54.3106C139.123 54.3106 138.402 54.4132 137.784 54.7212ZM144.379 52.6679H144.894L145.203 52.3599C144.997 52.4626 144.688 52.5652 144.379 52.6679ZM143.554 47.5346H143.967L145.719 49.1772C146.131 49.5879 146.44 50.1012 146.44 50.6146C146.44 50.8199 146.44 51.0252 146.337 51.2306L146.44 51.1279C146.852 50.8199 146.955 50.4092 146.955 49.9986C146.955 49.7932 146.852 49.5879 146.646 49.2799C146.44 48.9719 146.028 48.4586 145.615 47.7399L145.203 47.6372L144.894 47.2266C144.585 47.2266 144.379 47.1239 144.173 47.0212L143.967 47.2266L142.936 46.4052L141.906 45.9946V46.4052L140.566 46.1999L140.463 45.9946C140.463 45.8919 140.36 45.8919 140.36 45.7892L140.257 46.0972L139.226 45.1732H138.093L136.341 44.8652L132.837 44.7626L130.467 44.4546L128.612 44.7626L127.478 44.5572C126.757 44.8652 126.551 44.9679 126.448 44.9679C126.036 44.9679 125.52 44.7626 125.211 43.9412H125.005C124.593 43.9412 124.49 44.0439 124.49 44.0439V44.5572L123.768 45.1732L121.707 45.2759L120.471 45.3786L119.955 45.6866L119.749 45.8919V46.0972C119.749 46.0972 119.749 46.1999 119.852 46.4052C119.955 46.4052 120.162 46.5079 120.265 46.6106L120.883 45.8919L122.017 45.9946L122.326 45.6866H122.635C123.047 45.6866 123.562 45.9946 124.181 46.6106L124.593 47.0212L124.181 47.4319L124.387 49.1772L124.181 49.9986L124.284 50.6146L125.005 50.5119L125.108 48.1506L124.696 47.3292L124.902 47.0212C125.108 46.7132 125.314 46.4052 125.52 45.9946L125.726 45.5839L126.551 45.6866L127.478 45.0706L127.89 45.2759L128.406 45.0706L129.23 45.1732L130.158 45.0706L130.879 45.2759L132.219 45.0706L133.558 45.2759L134.074 45.0706L134.486 45.1732L134.795 44.9679L135.413 45.2759L137.99 45.4812L138.402 45.6866H139.535L140.154 46.1999H140.669L141.596 46.6106H141.906C142.318 46.9186 142.627 47.0212 143.554 47.5346Z" fill="#231F20"/>
<path d="M184.467 55.4401C184.467 55.6454 184.364 55.8508 184.158 55.9534L183.436 55.7481L182.612 56.3641L181.581 56.2614C181.169 56.5694 180.757 56.6721 180.242 56.6721C179.829 56.6721 179.623 56.7748 179.52 56.8774C179.108 56.6721 178.799 56.6721 178.387 56.6721C178.078 56.6721 177.871 56.7748 177.768 56.9801C177.871 57.0828 177.974 57.2881 178.077 57.3908L177.974 57.9041L178.077 59.4441L178.696 60.3681L178.799 61.1894L179.829 62.7294L179.623 63.4481L180.345 64.0641L181.478 65.9121C182.097 66.5281 182.406 67.0414 182.509 67.3494L183.333 67.7601L183.642 68.4788L184.055 68.7868L183.436 69.1974L182.715 68.5814H182.303L181.684 68.0681H181.272L180.86 67.2468L180.448 67.0414C180.035 66.3228 179.623 65.7068 179.211 65.2961V64.8854L178.799 64.4748V63.7561L178.077 63.0374L177.047 60.6761L176.738 60.2654L176.532 59.1361C176.532 59.0334 176.326 58.6228 175.913 58.0068V56.9801H175.398L174.78 57.3908L173.852 57.1854L173.234 57.5961L173.028 57.3908L172.513 57.6988L172.41 57.3908C172.307 57.3908 172.204 57.3908 171.894 57.4934C171.688 57.5961 171.379 57.5961 171.173 57.5961H169.73L168.906 58.1094L168.081 57.9041L166.948 58.0068V58.2121L166.536 58.0068L165.917 58.3148L165.505 58.0068H164.784L164.062 58.3148L163.444 57.6988L163.135 57.9041L162.517 57.6988C162.001 57.9041 161.28 58.7254 160.353 60.0601L159.631 60.2654C158.395 62.2161 157.673 63.1401 157.57 63.1401L157.158 63.3454L155.818 65.0908H155.612L154.479 66.9388L153.242 67.6574L152.314 67.4521L152.521 67.0414V66.4254L152.83 66.0148L152.624 65.7068L153.448 65.6041L154.066 65.2961C154.582 65.0908 154.891 64.6801 154.994 64.1668C155.612 63.9614 156.024 63.6534 156.127 63.0374C156.849 62.6268 157.364 61.9081 157.673 60.8814L158.291 60.6761L159.837 58.3148V57.6988C159.631 57.4934 159.425 57.2881 159.322 56.9801L160.249 56.1588V55.8508L161.383 55.9534L162.001 55.5428L162.104 55.7481L162.723 54.9268C162.62 54.9268 162.517 54.8241 162.517 54.7214C162.517 54.6188 162.723 54.4134 163.135 54.2081L163.341 54.5161C163.341 54.1054 163.547 53.6948 163.856 53.1814L163.753 53.0788H164.269L164.475 52.4628C164.887 52.4628 165.093 52.2574 165.093 51.9494V51.4361C165.814 50.8201 166.226 50.2041 166.226 49.6908V49.5881L166.845 49.4854L166.948 48.8694L167.257 48.7668L167.772 47.7401L168.081 47.9454L167.875 47.4321C168.288 47.4321 168.597 47.1241 168.597 46.5081L168.906 46.7134V45.7894H169.215V45.1734L169.73 44.6601C170.039 44.4548 170.246 44.0441 170.246 43.6334L170.761 43.1201L170.452 42.4014C170.864 41.7854 171.276 41.5801 171.688 41.5801H171.791L172.1 41.1694L172.41 41.6828C172.513 41.7854 172.616 41.8881 172.822 41.9908L173.646 42.4014L173.749 43.6334C173.955 43.8388 174.162 44.1468 174.368 44.5574L174.78 44.6601L174.883 45.6868L175.295 47.1241L175.913 48.2534L176.326 49.7934L176.429 50.8201L177.047 51.7441L176.841 52.1548L177.356 52.7708V53.4894L177.459 54.1054C177.459 54.2081 177.356 54.4134 177.253 54.6188C177.768 55.7481 178.284 56.2614 178.902 56.2614L179.829 56.0561H180.963C181.272 56.1588 181.581 56.1588 181.787 56.1588C182.2 56.1588 182.509 56.0561 182.715 55.8508C182.921 55.6454 183.127 55.5428 183.127 55.5428C183.23 55.5428 183.539 55.6454 183.951 55.9534L184.467 55.4401ZM175.501 54.3108C175.295 53.7974 175.089 53.4894 174.78 53.2841L174.986 52.6681L174.368 52.3601L174.162 50.6148L173.543 49.6908L173.44 48.9721L173.131 48.3561V48.1508H173.028L172.925 47.1241C172.925 47.0214 172.822 46.8161 172.719 46.6108L172.41 46.0974C172.307 45.9948 172.204 45.8921 171.997 45.7894C171.791 45.6868 171.482 45.4814 171.07 45.2761L170.555 45.5841L170.246 46.0974L169.112 47.7401L168.803 48.2534C168.7 48.3561 168.391 48.7668 167.669 49.4854L167.463 50.2041L166.433 50.7174C166.226 51.9494 165.711 52.5654 164.99 52.7708L164.578 54.2081L163.65 54.6188V55.1321L163.547 55.7481C164.062 55.9534 164.475 56.0561 164.681 56.2614H165.299L166.226 56.4668C166.433 56.5694 166.536 56.5694 166.639 56.5694C166.742 56.5694 166.948 56.5694 167.257 56.4668H167.463C167.463 56.4668 167.669 56.4668 167.772 56.5694C167.978 56.6721 168.184 56.6721 168.288 56.6721L168.906 56.5694L170.761 56.4668L172.307 56.2614C173.234 56.3641 173.852 56.4668 174.162 56.4668C174.883 56.4668 175.295 56.2614 175.295 55.9534C175.295 55.7481 175.192 55.4401 174.883 55.1321L175.501 54.3108Z" fill="#231F20"/>
<path d="M183.437 69.9161L182.509 69.1974H181.994L181.375 68.6841H180.757L180.242 67.7601L179.727 67.5547L179.624 67.3494C179.357 66.7333 178.972 66.1752 178.49 65.7067L178.284 65.5014V65.0907L177.872 64.6801V63.9614L177.253 63.2427L176.223 60.8814L175.811 60.3681L175.605 59.0334C175.605 58.9307 175.501 58.7254 175.089 58.1094L174.986 58.0067V57.4934L174.471 57.8014L173.544 57.5961L172.719 58.1094L172.513 57.9041L171.792 58.3147L171.586 57.8014C171.276 57.9041 170.967 58.0067 170.658 58.0067H169.421L168.597 58.5201L167.566 58.3147H166.948V58.9307L166.021 58.4174L165.402 58.7254L164.887 58.3147H164.475L163.444 58.7254L162.929 58.1094L162.723 58.2121L162.002 57.9041C161.693 58.1094 161.177 58.6227 160.25 60.0601L160.147 60.2654L159.425 60.4707C157.777 63.0374 157.467 63.3454 157.261 63.4481L157.055 63.5507L155.612 65.3987H155.406L154.376 67.0414L152.83 67.9654L151.078 67.4521L151.49 66.5281V65.8094L151.696 65.5014L151.387 64.7827L152.933 64.5774L153.448 64.2694C153.757 64.1667 153.964 63.8587 154.067 63.4481L154.17 63.1401L154.479 63.0374C154.994 62.9347 155.2 62.6267 155.2 62.4214V62.2161L155.406 62.1134C156.025 61.8054 156.437 61.1894 156.643 60.3681L156.746 60.0601L157.467 59.7521L158.807 57.6987V57.3907C158.601 57.1854 158.498 56.9801 158.395 56.6721L158.292 56.3641L159.322 55.4401V54.7214L160.868 54.9267L161.693 54.4134V54.2081C161.693 53.9001 162.002 53.5921 162.62 53.1814L162.723 53.0787C162.723 52.9761 162.826 52.8734 162.826 52.7707L161.796 52.0521L163.547 51.9494L163.754 51.3334H164.269V50.6147L164.475 50.4094C165.093 49.8961 165.402 49.3827 165.402 49.0747V48.4587L166.124 48.3561L166.227 47.7401L166.639 47.6374L167.051 46.9187L166.845 46.4054H167.566C167.67 46.4054 167.773 46.4054 167.876 45.9947L167.979 45.1734L168.185 45.2761V44.7627H168.494V44.4547L168.7 44.2494L169.215 43.7361C169.421 43.5307 169.524 43.3254 169.628 43.0174V42.8121L170.04 42.4014L169.731 41.6827L169.937 41.3747C170.452 40.7587 170.864 40.4507 171.379 40.3481L171.998 39.4241L172.719 40.5534L172.925 40.7587L173.956 41.2721L174.059 42.6067C174.265 42.8121 174.368 43.0174 174.574 43.3254L175.089 43.5307L175.192 44.8654L175.501 46.2001L176.12 47.2267L176.532 48.8694L176.635 49.6907L177.459 50.7174L177.253 51.0254L177.666 51.4361V52.2574L177.769 52.9761C177.769 53.1814 177.769 53.2841 177.666 53.4894C177.975 54.2081 178.284 54.5161 178.696 54.6187L179.624 54.4134H180.963C181.272 54.5161 181.479 54.5161 181.685 54.5161C181.994 54.5161 182.097 54.5161 182.303 54.4134C182.715 54.1054 182.818 54.0027 183.127 54.0027C183.333 54.0027 183.54 54.1054 184.158 54.4134L185.601 54.3107V55.4401C185.601 55.8507 185.395 56.2614 184.982 56.4667L184.776 56.5694L184.055 56.3641L183.23 56.9801L182.2 56.8774C181.788 57.1854 181.272 57.2881 180.757 57.2881H180.448L180.242 57.6987L179.83 57.4934C179.624 57.3907 179.521 57.3907 179.314 57.2881L179.108 58.0067L179.211 59.3414L179.83 60.2654L179.933 61.0867L181.066 62.7294L180.963 63.3454L181.479 63.8587L182.612 65.7067C183.23 66.4254 183.437 66.7334 183.54 67.0414L184.364 67.4521L184.673 68.2734L185.498 68.8894L183.437 69.9161ZM182.406 68.0681H182.715L181.994 67.7601L181.891 67.5547C181.891 67.4521 181.685 67.1441 180.963 66.3227L180.86 66.2201L179.83 64.4747L178.902 63.6534L179.108 62.9347L178.181 61.4974L178.078 60.6761L177.459 59.7521L177.253 57.9041L177.356 57.6987C177.253 57.5961 177.15 57.4934 177.15 57.2881L177.047 57.0827L177.15 56.8774C177.253 56.6721 177.356 56.4667 177.769 56.2614C177.15 56.0561 176.532 55.4401 176.12 54.3107L176.017 54.0027L176.223 53.7974C176.326 53.6947 176.326 53.6947 176.326 53.5921L176.223 52.9761V52.4627L175.605 51.7441L175.811 51.3334L175.295 50.6147L175.192 49.4854L174.78 48.0481L174.162 46.9187L173.75 45.3787L173.647 44.6601L173.337 44.5574L173.234 44.3521C173.028 43.8387 172.822 43.7361 172.822 43.6334L172.616 43.5307L172.513 42.4014L171.998 42.1961C171.792 42.0934 171.689 41.9907 171.586 41.8881H171.173C171.07 41.8881 170.967 41.8881 170.555 42.2987L170.864 43.0174L170.143 43.7361C170.04 44.2494 169.834 44.5574 169.421 44.8654C169.215 44.9681 169.112 45.0707 169.112 45.1734V46.2001H168.803V46.8161L169.628 45.6867L170.04 44.9681L170.967 44.4547L171.173 44.5574C171.586 44.7627 171.895 44.9681 172.101 45.0707C172.307 45.2761 172.513 45.3787 172.616 45.5841L172.925 46.0974C173.131 46.4054 173.234 46.6107 173.234 46.9187V47.4321H173.44V48.1507L173.75 48.7667L173.853 49.4854L174.471 50.4094L174.677 52.0521L175.501 52.4627L175.192 53.1814C175.398 53.3867 175.605 53.7974 175.811 54.2081L175.914 54.6187L175.501 54.9267C175.605 55.1321 175.708 55.4401 175.708 55.6454C175.708 55.9534 175.605 56.3641 174.986 56.5694H176.017V57.9041C176.532 58.7254 176.635 58.9307 176.635 59.0334L176.738 60.0601L177.047 60.3681L178.078 62.7294L178.902 63.5507V64.2694L179.314 64.6801V65.1934C179.727 65.6041 180.036 66.1174 180.345 66.7334L180.757 66.9387L181.169 67.5547H181.479L182.406 68.0681ZM152.521 67.1441H152.624L153.551 66.6307L154.17 65.6041C154.067 65.7067 153.964 65.7067 153.757 65.8094L153.139 66.1174H152.83L152.418 66.6307V67.1441H152.521ZM154.994 64.5774H155.097L155.2 64.3721C155.2 64.4747 155.097 64.4747 154.994 64.5774ZM157.673 61.2921C157.57 61.4974 157.57 61.6001 157.467 61.8054C157.57 61.6001 157.673 61.4974 157.88 61.1894L157.673 61.2921ZM159.528 57.0827L159.631 57.1854L159.838 57.3907V58.5201L159.013 59.8547L159.425 59.7521C160.353 58.3147 161.074 57.5961 161.693 57.2881L161.899 57.1854L162.517 57.3907L163.032 56.9801L163.754 57.6987L164.269 57.4934H165.299L165.608 57.6987L166.124 57.3907L166.33 57.4934L167.773 57.3907L168.494 57.4934L169.215 56.9801H170.864C171.07 56.9801 171.276 56.9801 171.379 56.8774C171.689 56.7747 171.895 56.6721 172.101 56.6721H172.513V56.7747L172.822 56.5694L173.028 56.7747L173.544 56.4667L174.471 56.6721L174.883 56.3641H174.265C174.059 56.3641 173.647 56.3641 172.41 56.1587L170.967 56.3641L169.215 56.4667L168.597 56.5694H168.494C168.288 56.5694 167.979 56.5694 167.773 56.4667H167.463C167.154 56.5694 166.845 56.5694 166.639 56.5694C166.536 56.5694 166.33 56.5694 166.021 56.4667L165.196 56.2614L164.475 56.3641V56.4667C164.372 56.3641 164.063 56.2614 163.444 56.0561H163.238V56.1587L163.135 56.0561L162.929 55.9534L163.032 55.7481L162.723 55.2347L161.589 56.6721L161.28 56.2614L160.971 56.4667L160.25 56.3641L159.528 57.0827ZM178.902 56.1587C179.005 56.1587 179.211 56.2614 179.314 56.2614C179.521 56.1587 179.83 56.0561 180.139 56.0561H179.211L178.902 56.1587ZM167.566 55.5427C167.67 55.5427 167.773 55.5427 168.082 55.6454C168.185 55.6454 168.288 55.7481 168.391 55.7481L169.009 55.6454L170.864 55.5427L172.41 55.3374H172.513C173.647 55.5427 174.162 55.5427 174.265 55.5427H174.78C174.78 55.4401 174.677 55.3374 174.574 55.2347L174.265 54.8241L174.883 54.3107C174.78 54.1054 174.677 54.0027 174.574 53.9001L174.162 53.6947L174.368 53.0787L173.956 52.8734L173.75 50.9227L173.131 49.9987L173.028 49.1774L172.822 48.6641H172.616L172.513 47.1241C172.513 47.1241 172.513 47.0214 172.41 46.9187L172.101 46.4054L171.895 46.2001C171.792 46.0974 171.689 45.9947 171.379 45.8921L171.276 45.9947L170.967 46.4054L169.834 47.9454L169.524 48.4587C169.421 48.5614 169.421 48.7667 168.906 49.1774L169.112 49.5881L168.803 49.3827L168.391 49.7934L168.185 50.6147L167.154 51.1281C166.845 52.2574 166.433 52.9761 165.712 53.2841L165.299 54.7214L164.475 55.0294V55.4401C164.784 55.5427 164.99 55.6454 165.093 55.7481H165.608L166.639 56.0561L166.845 56.1587C166.845 56.1587 167.051 56.1587 167.36 56.0561C167.36 55.5427 167.566 55.5427 167.566 55.5427ZM163.754 53.4894C163.65 53.5921 163.65 53.7974 163.547 53.9001L164.269 53.5921L164.578 52.6681C164.578 52.6681 164.475 52.6681 164.372 52.7707L164.166 53.4894H163.754ZM165.093 51.5387V52.1547C165.505 52.0521 165.918 51.4361 166.021 50.5121V50.3067C165.918 50.6147 165.608 51.0254 165.093 51.5387ZM166.227 49.8961C166.227 49.9987 166.124 50.1014 166.124 50.2041L167.154 49.6907L167.36 49.0747L167.463 48.9721L167.773 48.6641L167.566 48.4587L167.257 49.0747L167.051 49.1774L166.948 49.8961H166.227ZM168.082 47.5347L168.288 47.9454L168.391 47.8427L168.7 47.3294L168.494 47.2267C168.288 47.3294 168.185 47.4321 168.082 47.5347Z" fill="#231F20"/>
<path d="M88.6295 15.5025L91.5149 15.6052L94.2973 15.5025H96.8737C97.1828 15.5025 97.2859 15.6052 97.2859 15.9132C97.2859 16.2212 97.0798 16.4265 96.5645 16.4265C96.4614 16.3238 96.3584 16.3238 96.2553 16.3238C96.0492 16.3238 95.8431 16.4265 95.7401 16.5292L95.0187 16.4265H93.8851C93.3699 16.7345 92.8546 16.8372 92.3394 16.8372L91.5149 16.7345L91.1027 17.1452H90.6905V16.9398L89.9692 17.2478H89.5569L89.4539 17.6585C89.3508 17.4532 88.9386 17.4532 88.3203 17.4532C88.3203 17.6585 88.2173 17.6585 88.1142 17.6585C88.0112 17.6585 88.0112 17.5558 87.9081 17.4532L87.2898 17.5558L86.8776 17.9665L86.7745 20.0198L86.8776 21.2518L86.7745 22.7918V24.5372L86.8776 25.3585V26.0772L87.3928 27.1038V27.3092C87.3928 27.8225 87.702 28.2332 88.2173 28.6438L88.3203 28.9518L89.0417 29.1572L89.5569 29.7732L91.1027 30.0812L93.1638 29.5678L93.7821 29.7732L95.2248 29.0545L95.7401 29.1572C95.9462 29.3625 96.0492 29.5678 96.0492 29.6705C96.0492 29.8758 95.8431 30.0812 95.534 30.3892L95.2248 30.2865L94.6065 30.7998L93.1638 31.0052L92.6485 31.3132L92.3394 31.1078C91.8241 31.3132 91.4119 31.5185 90.8966 31.5185L90.0722 31.3132H89.66L88.1142 30.3892L87.3928 29.3625L86.8776 28.8492L86.1562 26.7958L85.8471 24.9478L86.0532 24.2292L85.744 23.8185L85.9501 23.3052L85.5379 22.5865L85.9501 22.2785L85.744 21.8678L85.8471 21.3545L85.641 20.8412L85.744 20.0198L85.641 19.6092L85.8471 19.5065V17.9665C85.744 17.5558 85.641 17.4532 85.5379 17.4532C85.4349 17.4532 85.3318 17.5558 85.3318 17.6585L84.8165 17.4532L84.0952 17.5558L83.3738 17.0425H83.0647C82.7555 17.0425 82.5494 16.8372 82.5494 16.5292V15.9132L82.2402 15.7078L82.4463 15.2972L83.0647 15.3998L83.5799 15.2972L84.3013 15.5025H86.0532L86.1562 14.5785V13.6545L85.8471 12.9358L86.1562 12.7305C86.2593 12.5252 86.2593 12.4225 86.2593 12.4225C86.2593 12.2172 86.1562 12.1145 85.9501 12.0118L86.0532 10.3692L85.744 9.85585L85.8471 9.44518C85.5379 9.34251 85.4349 9.23985 85.4349 9.13718L85.744 8.00785C85.9501 7.69985 86.1562 7.49451 86.1562 7.39185C86.9806 7.80251 87.3928 8.00785 87.3928 8.11051L87.1867 8.52118C87.3928 8.93185 87.4959 9.23985 87.4959 9.44518V9.54785C87.3929 9.75318 87.3928 9.95851 87.3928 10.1638C87.3928 10.2665 87.3929 10.3692 87.4959 10.4718V11.1905L87.0837 11.8065L87.2898 12.8332L87.0837 14.0652L87.2898 14.2705L87.0837 14.6812L87.3928 15.7078H88.1142L88.6295 15.5025Z" fill="#231F20"/>
<path d="M92.7507 32.0319L92.2355 31.7239C91.8233 31.9292 91.308 32.0319 90.7927 32.0319H90.6897L89.8653 31.8266H89.35L87.5981 30.7999L86.8768 29.7732L86.3615 29.1572L85.5371 27.0012L85.1249 24.9479L85.2279 24.3319L84.8157 23.9212L85.0218 23.3052L84.8157 22.3812L85.1249 22.0732V21.9706L85.2279 21.4572L85.1249 20.9439L85.2279 20.1226L85.1249 19.4039L85.331 19.1986V18.1719L84.8157 17.9666L84.0943 18.1719L83.373 17.6586H83.0638C82.4455 17.6586 82.0333 17.2479 82.0333 16.5292V16.2212L81.6211 15.9132L82.1364 14.7839L83.0638 14.8866L83.5791 14.7839L84.3004 14.9892H85.434V13.7572L85.0218 12.7306L85.434 12.4226L85.1249 12.2172L85.2279 10.4719L85.1249 9.85589V9.65056C84.8157 9.44522 84.8157 9.13722 84.8157 9.03456V8.93189L85.1249 7.69989L85.2279 7.59722C85.434 7.28922 85.434 7.18656 85.5371 7.18656L85.7432 6.57056L86.3615 6.87856C87.7012 7.49456 87.9073 7.69989 87.9073 8.11056V8.21322L87.8042 8.52122C88.0103 8.93189 88.0103 9.23989 88.0103 9.44522V9.75322C87.9073 9.85589 87.9073 10.0612 87.9073 10.1639L88.0103 10.2666L87.9073 10.7799L88.0103 11.3959L87.7012 11.9092L87.9073 12.8332L87.8042 13.9626L88.0103 14.3732L87.7012 14.7839L87.8042 15.1946H88.0103L88.5256 14.7839L91.6172 14.8866L94.3996 14.7839H96.8728C97.5942 14.7839 97.9033 15.2972 97.9033 15.7079C97.9033 16.0159 97.8003 16.6319 96.7698 16.8372H96.5637L96.3576 16.7346C96.3576 16.7346 96.2545 16.7346 96.1514 16.8372L95.9453 17.0426L95.1209 16.8372H94.1935C93.4721 17.2479 92.9568 17.4532 92.3385 17.4532H92.2355L91.7202 17.3506L91.308 17.6586H90.2775L90.0714 17.7612H89.9683L89.7622 18.2746L89.247 18.1719C89.1439 18.1719 88.9378 18.0692 88.5256 18.0692C88.3195 18.2746 88.1134 18.2746 88.0103 18.2746C87.8042 18.2746 87.7012 18.1719 87.5981 18.1719H87.392L87.289 18.2746L87.1859 20.1226L87.289 21.3546L87.1859 22.8946V24.6399L87.289 25.5639V26.1799L87.8042 27.2066V27.5146C87.8042 27.8226 88.0103 28.1306 88.4225 28.4386L88.5256 28.5412L88.6286 28.7466L89.247 28.8492L89.7622 29.4652L90.9988 29.6706L93.0599 29.1572L93.5751 29.3626L95.0179 28.7466L95.9453 28.8492L96.0484 28.9519C96.3575 29.2599 96.4606 29.5679 96.4606 29.8759C96.4606 30.4919 95.8423 30.9026 95.6362 31.0052L95.4301 31.2106V31.0052L94.9148 31.4159L93.4721 31.6212L92.7507 32.0319ZM89.6592 30.7999H89.9683L90.7927 31.0052C91.2049 31.0052 91.6172 30.9026 91.9263 30.6972L92.1324 30.5946L91.1019 30.7999L89.247 30.4919L88.7317 29.8759L88.0103 29.7732L88.2164 30.0812L89.6592 30.7999ZM92.3385 30.4919L92.7507 30.7999L93.0599 30.5946L93.8843 30.4919L93.266 30.2866L92.3385 30.4919ZM94.9148 30.0812L93.9874 30.4919L94.5026 30.3892L94.9148 30.0812ZM95.327 29.8759L95.5331 29.9786L95.6362 29.8759H95.327ZM85.5371 16.9399C85.9493 16.9399 86.2584 17.2479 86.3615 17.7612L86.9798 17.0426L87.8042 16.9399V16.8372H88.2164C88.5256 16.8372 88.8347 16.8372 89.0409 16.9399L89.1439 16.6319H89.7622L90.8958 16.1186L88.6286 16.0159L88.3195 16.4266H86.9798L86.6707 15.3999L86.5676 16.1186H84.1974L83.5791 15.9132L83.1669 16.0159V16.6319H83.6821L84.3004 17.0426L84.9188 16.9399L85.2279 17.0426C85.331 16.9399 85.434 16.9399 85.5371 16.9399ZM91.5141 16.1186L92.4416 16.3239C92.7507 16.3239 93.1629 16.2212 93.4721 16.1186H91.5141ZM86.5676 13.0386L86.6707 13.3466L86.7737 12.9359L86.5676 13.0386ZM86.4645 11.6012L86.7737 11.0879V10.5746C86.6706 10.4719 86.6707 10.2666 86.6707 10.0612C86.6707 9.85589 86.6706 9.65056 86.7737 9.34256C86.7737 9.34256 86.7737 9.13722 86.5676 8.62389L86.4645 8.41856L86.5676 8.11056C86.4645 8.00789 86.3615 8.00789 86.1554 7.90522C86.1554 7.90522 86.1554 8.00789 86.0523 8.00789L85.8462 8.62389L86.2584 8.72656L86.1554 9.44522L86.4645 9.95856V11.6012Z" fill="#231F20"/>
<path d="M102.127 22.6893L99.2416 22.5867L96.4592 22.6893H93.8829C93.5738 22.6893 93.4707 22.5867 93.4707 22.2787C93.4707 21.9707 93.6768 21.7653 94.1921 21.7653C94.2951 21.868 94.3982 21.868 94.5012 21.868C94.7073 21.868 94.9134 21.7653 95.0165 21.6627L95.6348 21.7653H96.7684C97.2836 21.4573 97.7989 21.3547 98.3142 21.3547L99.1386 21.4573L99.5508 21.0467H99.963V21.252L100.684 20.944H101.097L101.2 20.5333C101.406 20.636 101.818 20.636 102.436 20.7387C102.436 20.5333 102.539 20.5333 102.642 20.5333C102.745 20.5333 102.745 20.636 102.848 20.7387L103.467 20.636L103.879 20.2253L103.982 18.172L103.879 16.94L103.982 15.4V13.6547L103.879 12.8333V12.1147L103.364 11.088V10.8827C103.364 10.3693 103.055 9.95867 102.539 9.54801L102.436 9.24001L101.715 9.03467L101.2 8.41867L99.5508 8.00801L97.4897 8.52134L96.8714 8.31601L95.4287 8.93201L94.9134 8.82934C94.7073 8.62401 94.6043 8.41867 94.6043 8.31601C94.6043 8.11067 94.8104 7.90534 95.1195 7.59734L95.4287 7.80267L96.1501 7.18667L97.4897 7.08401L98.005 6.77601L98.5203 7.08401C99.0355 6.87867 99.4477 6.67334 99.963 6.67334L100.787 6.87867H101.2L102.745 7.80267L103.467 8.82934L103.982 9.34267L104.703 11.396L105.013 13.244L104.806 13.9627L105.116 14.3733L104.909 14.8867L105.116 15.6053L104.703 15.9133L104.909 16.324L104.806 16.8373L105.013 17.3507L104.909 18.172L105.013 18.5827L104.806 18.6853V20.2253C104.909 20.636 105.013 20.7387 105.116 20.7387C105.219 20.7387 105.322 20.636 105.322 20.5333L105.837 20.7387L106.455 20.5333L107.177 21.0467H107.486C107.795 21.0467 108.001 21.252 108.001 21.56V22.176L108.31 22.3813L108.104 22.792L107.486 22.6893L106.971 22.792L106.249 22.5867H104.703L104.6 23.5107V24.64L104.909 25.3587L104.6 25.564C104.497 25.7693 104.497 25.872 104.497 25.872C104.497 26.0773 104.6 26.18 104.806 26.2827L104.703 27.9253L105.013 28.4387L104.909 28.8493C105.219 28.952 105.322 29.0547 105.322 29.1573L105.013 30.2867C104.806 30.5947 104.6 30.8 104.6 30.9027C103.776 30.492 103.364 30.2867 103.364 30.184L103.57 29.7733C103.364 29.3627 103.261 29.0547 103.261 28.8493V28.7467C103.364 28.5413 103.364 28.336 103.364 28.1307C103.364 28.028 103.364 27.9253 103.261 27.8227V27.104L103.673 26.488L103.467 25.4613L103.673 24.2293L103.467 24.024L103.673 23.6133L103.364 22.5867H102.642L102.127 22.6893Z" fill="#231F20"/>
<path d="M105.115 31.6213L104.497 31.3133C103.157 30.6973 102.951 30.4919 102.951 30.0813V29.9786L103.054 29.6706C102.848 29.2599 102.848 28.9519 102.848 28.7466V28.4386C102.951 28.3359 102.951 28.1306 102.951 28.0279L102.848 27.9253L102.951 27.4119L102.848 26.7959L103.157 26.2826L102.951 25.3586L103.054 24.2293L102.848 23.8186L103.157 23.4079L103.054 22.9973H102.848L102.333 23.4079L99.2413 23.3053H93.9856C93.2642 23.3053 92.9551 22.7919 92.9551 22.3812C92.9551 22.0732 93.0581 21.4573 94.0887 21.2519H94.2948L94.5009 21.3546C94.5009 21.3546 94.6039 21.3546 94.707 21.2519L94.9131 21.0466L95.7375 21.2519H96.665C97.1802 20.9439 97.7985 20.8412 98.4168 20.8412H98.5199L99.0352 20.9439L99.4474 20.6359H100.478L100.684 20.5333H100.787L100.993 20.0199L101.508 20.1226C101.611 20.1226 101.818 20.2253 102.23 20.2253C102.436 20.0199 102.642 20.0199 102.745 20.0199C102.951 20.0199 103.054 20.1226 103.157 20.1226H103.363L103.466 20.0199L103.569 18.1719L103.466 16.9399L103.569 15.3999V13.6546L103.466 12.7306V12.1146L102.951 11.0879V10.7799C102.951 10.4719 102.745 10.1639 102.333 9.85591L102.23 9.75325L102.127 9.54791L101.508 9.44525L100.993 8.82925L99.5504 8.52125L97.4894 9.03458L96.9741 8.82925L95.5314 9.44525L94.6039 9.34258L94.5009 9.23991C94.1917 8.93191 94.0887 8.62391 94.0887 8.31591C94.0887 7.69991 94.707 7.28925 94.81 7.18658L95.0161 6.98125L95.3253 7.18658L95.8405 6.77591L97.2833 6.57058L98.0046 6.15991L98.5199 6.46791C98.9321 6.26258 99.4474 6.15991 99.9626 6.15991H100.066L100.89 6.36525H101.405L103.157 7.39191L103.879 8.41858L104.394 9.03458L105.218 11.1906L105.63 13.1412L105.527 13.7572L105.94 14.1679L105.734 14.7839L105.94 15.7079L105.63 16.0159L105.734 16.1186L105.63 16.6319L105.837 17.1452L105.734 17.9666L105.837 18.6853L105.63 18.8906V19.9172L106.146 20.1226L106.867 19.9172L107.588 20.4306H107.795C108.413 20.4306 108.825 20.8413 108.825 21.5599V21.8679L109.237 22.1759L108.722 23.3053L107.795 23.2026L107.279 23.3053L106.558 23.0999H105.424V24.3319L105.837 25.3586L105.424 25.6666L105.734 25.8719L105.63 27.6173L106.043 28.1306V28.3359C106.352 28.5413 106.352 28.8493 106.352 28.9519V29.0546L106.043 30.3893L105.94 30.4919C105.734 30.7999 105.63 30.9026 105.63 30.9026L105.115 31.6213ZM104.188 29.8759C104.291 29.9786 104.394 29.9786 104.6 30.0813C104.6 30.0813 104.6 29.9786 104.703 29.9786L104.909 29.3626L104.497 29.2599L104.6 28.5413L104.291 28.0279L104.394 26.4879L104.085 27.0013V27.5146C104.188 27.6173 104.188 27.8226 104.188 28.0279C104.188 28.2333 104.188 28.4386 104.085 28.7466C104.085 28.7466 104.085 28.9519 104.291 29.4653L104.394 29.6706L104.188 29.8759ZM104.085 25.2559L104.291 25.1533L104.188 24.8453L104.085 25.2559ZM102.436 21.7653H103.776L104.085 22.7919L104.188 22.0733H106.558L107.176 22.2786L107.588 22.1759V21.5599H107.073L106.455 21.1493L105.837 21.2519L105.527 21.1493C105.424 21.2519 105.321 21.2519 105.218 21.2519C104.806 21.2519 104.497 20.9439 104.394 20.4306L103.776 21.1493L102.951 21.2519V21.3546H102.539C102.23 21.3546 101.921 21.3546 101.715 21.2519L101.508 21.5599H100.89L99.7565 22.0733L102.024 22.1759L102.436 21.7653ZM98.3138 21.8679C98.0046 21.8679 97.5924 21.9706 97.2833 22.0733L99.2413 21.9706H99.3443L98.3138 21.8679ZM102.024 8.31591L102.642 8.52125L102.436 8.21325L101.096 7.49458H100.787L99.9626 7.28925C99.5504 7.28925 99.1382 7.39191 98.8291 7.59725L98.5199 7.69991L99.5504 7.49458L101.405 7.80258L102.024 8.31591ZM96.3558 7.80258L95.9436 8.21325L96.8711 7.80258H96.3558ZM96.8711 7.69991L97.4894 7.90525L98.4168 7.69991L98.0046 7.39191L97.6955 7.59725L96.8711 7.69991Z" fill="#231F20"/>
<path d="M182.61 43.3252C181.271 43.3252 180.24 42.1959 180.24 40.9639C180.24 39.6292 181.374 38.6025 182.61 38.6025C183.95 38.6025 184.981 39.7319 184.981 40.9639C184.981 42.2985 183.95 43.3252 182.61 43.3252ZM182.61 39.0132C181.58 39.0132 180.755 39.8345 180.755 40.8612C180.755 41.8879 181.58 42.7092 182.61 42.7092C183.641 42.7092 184.465 41.8879 184.465 40.8612C184.465 39.9372 183.641 39.0132 182.61 39.0132Z" fill="#231F20"/>
<path d="M184.156 42.2986H183.332L182.611 41.2719H182.301V42.2986H181.58V39.5266H183.229C183.332 39.5266 183.435 39.6293 183.538 39.6293C183.641 39.7319 183.744 39.7319 183.744 39.8346C183.847 39.9373 183.847 40.0399 183.847 40.2453C183.847 40.4506 183.847 40.6559 183.744 40.7586C183.641 40.8613 183.538 40.9639 183.332 41.0666L184.156 42.2986ZM183.023 40.3479V40.1426L182.92 40.0399H182.301V40.7586H182.817C182.92 40.7586 182.92 40.7586 183.023 40.6559L183.126 40.5533C183.023 40.5533 183.023 40.4506 183.023 40.3479Z" fill="#231F20"/>
</svg>
