<svg width="288" height="56" viewBox="0 0 288 56" fill="none" xmlns="http://www.w3.org/2000/svg">
<path d="M27.2187 18.9158H22.1918C21.7212 18.9158 21.3232 19.3134 21.3232 19.784V39.3005C21.3232 43.2329 19.6409 45.0642 16.0546 45.0642C12.4683 45.0642 10.7857 43.2329 10.7857 39.3005V19.784C10.7857 19.3134 10.3881 18.9158 9.91748 18.9158H4.89058C4.47366 18.9158 4.06445 19.3458 4.06445 19.784V40.5259C4.06445 43.7307 5.13128 46.3763 7.14933 48.1776C9.23546 50.0392 12.2394 50.983 16.0546 50.983C19.8698 50.983 22.8738 50.0392 24.9599 48.1776C26.978 46.3763 28.0448 43.7304 28.0448 40.5259V19.784C28.0445 19.3458 27.6356 18.9158 27.2187 18.9158Z" fill="#336F1E"/>
<path d="M93.0668 18.9158H86.6109C86.3458 18.9158 85.9856 19.0743 85.8073 19.297H85.8068L77.918 28.7014C77.8569 28.7618 77.7729 28.7998 77.6799 28.7998H77.6193C77.5263 28.7998 77.4425 28.762 77.3811 28.7014L69.4923 19.297H69.4918C69.3135 19.0743 68.9534 18.9158 68.6886 18.9158H62.2324C61.8155 18.9158 61.4062 19.3458 61.4062 19.784V49.1886C61.4062 49.6269 61.8155 50.0569 62.2324 50.0569H67.2595C67.7301 50.0569 68.1278 49.6593 68.1278 49.1886V28.3037L77.1096 38.7804C77.1297 38.8045 77.1515 38.8274 77.1751 38.8487L77.1787 38.8525V38.852C77.3018 38.962 77.4675 39.0295 77.6496 39.0295C77.8317 39.0295 77.9974 38.9617 78.1205 38.852V38.8525L78.1243 38.8487C78.1477 38.8274 78.1693 38.8045 78.1893 38.7804L87.1714 28.3037V49.1886C87.1714 49.6593 87.569 50.0569 88.0399 50.0569H93.0668C93.4837 50.0569 93.8929 49.6269 93.8929 49.1886V19.784C93.8929 19.3458 93.4837 18.9158 93.0668 18.9158Z" fill="#336F1E"/>
<path d="M58.7864 50.123H43.8611V48.9488H50.3943L49.2381 45.3514L47.263 39.3589H37.781L35.6692 45.3568L34.5286 48.9488H38.7954V50.123H28.9551V48.9488H32.8252L34.2453 45.1801L43.5803 18.7471H43.9672L44.0055 18.856L53.1656 45.0979L54.5923 48.9488H58.7864V50.123ZM38.1894 38.0072H46.8509L42.5662 25.1804L38.1894 38.0072Z" fill="#336F1E"/>
<path d="M51.0103 3.21899L48.3262 18.8445L61.4063 13.3257V3.21899H51.0103Z" fill="#0080C6"/>
<path d="M112.496 18.6807V19.0791H110.853L110.836 20.4901V26.8312C110.853 28.4748 110.886 30.0353 113.973 30.0353C117.094 30.0353 117.294 28.6738 117.343 27.1965V20.4901L117.327 19.0791H115.65V18.6807H119.319V19.0791H117.874L117.858 20.4901V26.5327C117.841 28.707 117.825 30.5665 113.525 30.5665C112.911 30.5665 111.45 30.5003 110.521 30.1183C109.043 29.4876 109.01 28.1927 108.993 26.599V20.4901L108.977 19.0791H107.549V18.6807H112.496Z" fill="#0080C6"/>
<path d="M128.4 30.0022H129.694V30.4006H125.412V30.0022H126.723L126.74 28.6908V25.6694C126.723 23.976 126.723 23.4779 126.308 23.0798C126.042 22.8306 125.694 22.8141 125.545 22.8141C124.947 22.8141 124.499 23.1129 124.183 23.4116C123.303 24.2915 123.27 25.4703 123.237 26.516V28.6908L123.254 30.0022H124.615V30.4006H120.166V30.0022H121.627L121.643 28.6908V24.2252L121.627 22.7807H120.166V22.3823H121.743C122.473 22.3823 122.722 22.3659 123.32 22.316L123.303 23.8766C123.735 23.229 124.366 22.2495 126.159 22.2495C128.4 22.2495 128.4 23.976 128.4 24.8892C128.4 25.2874 128.4 25.7025 128.383 26.1009V28.6908L128.4 30.0022Z" fill="#0080C6"/>
<path d="M132.018 22.3823C132.683 22.3658 132.915 22.3658 133.562 22.316L133.546 24.0589V28.5908L133.562 30.0021H134.89V30.4005H130.475V30.0021H131.902L131.919 28.5908V24.0589L131.902 22.7807H130.475V22.3823H132.018ZM131.703 19.7595C131.703 19.2283 132.135 18.78 132.682 18.78C133.197 18.78 133.646 19.2283 133.646 19.7595C133.646 20.2907 133.197 20.7226 132.682 20.7226C132.417 20.7226 132.168 20.6226 131.985 20.4402C131.803 20.2573 131.703 20.0084 131.703 19.7595Z" fill="#0080C6"/>
<path d="M144.169 22.3823V22.7807H142.957L142.31 24.2912L139.886 30.5496H139.455L136.981 24.2912L136.367 22.7807H135.172V22.3823H139.786V22.7807H138.292L138.691 23.9262L140.318 28.2258L141.978 23.9097L142.393 22.7807H140.849V22.3823H144.169Z" fill="#0080C6"/>
<path d="M151.925 28.0928C151.444 29.2382 150.747 30.5663 148.406 30.5663C147.692 30.5663 146.646 30.4833 145.7 29.5369C144.754 28.5744 144.588 27.346 144.588 26.3665C144.588 25.9347 144.621 25.553 144.704 25.2044C144.87 24.4407 145.285 23.6605 145.833 23.1624C146.447 22.5649 147.393 22.1663 148.406 22.1663C149.485 22.1663 150.348 22.5981 150.929 23.1791C151.826 24.0921 151.909 25.1212 151.958 25.8684H146.431C146.431 26.7978 146.43 27.8104 146.779 28.6574C147.277 29.9354 148.373 30.0682 148.871 30.0682C149.302 30.0682 149.684 29.9521 149.983 29.8187C150.946 29.3209 151.311 28.4082 151.494 27.9433L151.925 28.0928ZM149.983 25.4037C149.966 24.7731 149.949 24.1257 149.7 23.5611C149.352 22.7974 148.737 22.6315 148.256 22.6315C146.662 22.6315 146.53 24.4078 146.447 25.4037H149.983Z" fill="#0080C6"/>
<path d="M155.694 30.0021H157.104V30.4005H152.672V30.0021H154.066L154.083 28.5908V24.1586L154.066 22.7642H152.672V22.3823H154.2C154.846 22.3658 155.079 22.3658 155.727 22.2993L155.71 24.2251C156.125 23.3453 156.673 22.2163 158 22.2163C159.096 22.2163 159.495 23.063 159.495 23.7769C159.495 24.3911 159.246 24.8892 158.648 24.8892C158.399 24.8892 157.818 24.7063 157.818 24.0258C157.818 23.9097 157.901 23.3949 157.901 23.2788C157.901 22.7974 157.569 22.7807 157.469 22.7807C157.353 22.7807 157.171 22.8305 156.888 23.0964C155.76 24.2084 155.71 25.9349 155.676 27.346V28.5908L155.694 30.0021Z" fill="#0080C6"/>
<path d="M160.907 27.3957C160.956 28.126 161.023 28.9062 161.687 29.5368C162.201 30.0182 162.733 30.1012 163.197 30.1012C164.392 30.1012 165.057 29.5037 165.057 28.6735C165.057 27.7271 164.227 27.4117 163.114 27.0302C162.135 26.6983 160.658 26.1835 160.658 24.5569C160.658 23.1125 161.736 22.1831 163.331 22.1831C164.194 22.1831 164.957 22.4487 165.654 22.6642L165.687 24.7892H165.206C165.09 24.1254 164.825 22.6478 163.264 22.6478C162.335 22.6478 161.803 23.2122 161.803 23.8264C161.803 24.1254 161.919 24.3907 162.101 24.5736C162.334 24.8059 162.467 24.8557 163.762 25.3204C165.057 25.802 166.318 26.3166 166.318 27.9765C166.318 29.4873 165.09 30.5661 163.197 30.5661C162.168 30.5661 161.305 30.3005 160.441 30.0352V27.396L160.907 27.3957Z" fill="#0080C6"/>
<path d="M168.958 22.3823C169.622 22.3658 169.854 22.3658 170.502 22.316L170.485 24.0589V28.5908L170.502 30.0021H171.829V30.4005H167.414V30.0021H168.842L168.858 28.5908V24.0589L168.842 22.7807H167.414V22.3823H168.958ZM168.642 19.7595C168.642 19.2283 169.074 18.78 169.621 18.78C170.136 18.78 170.584 19.2283 170.584 19.7595C170.584 20.2907 170.136 20.7226 169.621 20.7226C169.356 20.7226 169.107 20.6226 168.924 20.4402C168.742 20.2573 168.642 20.0084 168.642 19.7595Z" fill="#0080C6"/>
<path d="M178.618 18.6805C179.315 18.6805 179.547 18.6638 180.112 18.614L180.095 20.3736V28.5576L180.112 30.0021H181.44V30.4005H178.451V29.122C178.236 29.5368 177.704 30.5328 176.161 30.5328C174.418 30.5328 172.99 29.0557 172.99 26.3998C172.99 24.1256 174.118 22.2163 176.26 22.2163C177.738 22.2163 178.137 23.0134 178.451 23.6276V20.3736L178.435 19.079H176.808V18.6805H178.618ZM174.816 26.1175C174.816 27.6444 174.816 29.9353 176.642 29.9353C178.451 29.9353 178.451 27.462 178.451 26.4825C178.451 25.8185 178.435 24.5238 178.086 23.7604C177.787 23.1462 177.257 22.7642 176.576 22.7642C174.816 22.7806 174.816 25.1545 174.816 26.1175Z" fill="#0080C6"/>
<path d="M190.305 30.0022V30.4006H189.093C188.877 30.4006 188.695 30.4006 188.496 30.3672C187.516 30.2511 187.351 29.6367 187.25 29.2552C186.935 29.7032 186.337 30.5663 184.628 30.5663C184.346 30.5663 183.582 30.5499 183.067 30.0353C182.818 29.7862 182.453 29.2218 182.453 28.1593C182.453 27.5282 182.586 26.9975 183.001 26.5657C183.466 26.1007 183.93 26.0013 185.375 25.7025C186.337 25.5032 186.786 25.3372 187.35 25.1379V24.5404C187.334 23.4117 187.316 22.5814 186.006 22.5814C184.711 22.5814 184.694 23.395 184.678 23.9098C184.661 24.2581 184.644 24.7562 183.88 24.7562C183.532 24.7562 183.067 24.7562 183.067 24.059C183.067 23.843 183.117 23.6439 183.2 23.4448C183.599 22.4653 184.827 22.1997 186.055 22.1997C186.719 22.1997 187.433 22.2994 187.948 22.5483C188.977 23.0631 188.977 23.9925 188.977 24.7562V28.3916C188.96 29.6367 189.11 30.0022 189.89 30.0022H190.305ZM187.351 25.5697L185.857 26.018C184.993 26.2836 184.263 26.599 184.263 28.2426C184.263 28.724 184.263 30.0025 185.392 30.0025C185.973 30.0025 186.338 29.7034 186.57 29.4712C187.284 28.7574 187.317 27.8606 187.351 26.9977L187.351 25.5697Z" fill="#0080C6"/>
<path d="M197.127 18.6805C197.825 18.6805 198.057 18.6638 198.621 18.614L198.605 20.3736V28.5576L198.621 30.0021H199.95V30.4005H196.961V29.122C196.746 29.5368 196.214 30.5328 194.67 30.5328C192.927 30.5328 191.5 29.0557 191.5 26.3998C191.5 24.1256 192.628 22.2163 194.77 22.2163C196.247 22.2163 196.646 23.0134 196.961 23.6276V20.3736L196.945 19.079H195.318V18.6805H197.127ZM193.326 26.1175C193.326 27.6444 193.326 29.9353 195.152 29.9353C196.961 29.9353 196.961 27.462 196.961 26.4825C196.961 25.8185 196.945 24.5238 196.596 23.7604C196.297 23.1462 195.766 22.7642 195.086 22.7642C193.326 22.7806 193.326 25.1545 193.326 26.1175Z" fill="#0080C6"/>
<path d="M210.307 18.5479H210.639L213.926 28.5246L214.441 30.0022H215.935V30.4006H210.639V30.0022H212.349L211.967 28.6076L211.254 26.3167H208.232L207.469 28.6076L207.054 30.0022H208.78V30.4006H205.078V30.0022H206.456L206.971 28.5577L210.307 18.5479ZM209.81 21.652L208.399 25.8517H211.121L209.81 21.652Z" fill="#0080C6"/>
<path d="M222.629 22.3822C223.409 22.3822 223.592 22.3658 224.206 22.3159L224.19 24.0424V28.6406L224.206 30.002H225.584V30.4002H224.189C223.476 30.4169 223.193 30.4336 222.596 30.4667L222.513 28.9894C222.214 29.4377 221.467 30.5664 219.674 30.5664C218.878 30.5664 218.18 30.3175 217.815 29.9188C217.284 29.3878 217.284 28.5746 217.284 28.1923L217.3 26.1835L217.251 22.7806H216.006V22.3822H217.3C218.064 22.3658 218.33 22.3658 218.927 22.3159L218.91 24.0424V26.8478C218.927 28.4412 218.944 29.2381 219.392 29.6863C219.575 29.869 219.907 30.0182 220.322 30.0182C220.786 30.0182 221.318 29.8191 221.733 29.4038C222.513 28.6403 222.529 27.7274 222.546 26.9475V24.0424L222.529 22.7806H221.036V22.3822H222.629Z" fill="#0080C6"/>
<path d="M229.121 20.1914L229.088 22.3826H230.864V22.8473H229.104L229.071 28.3756C229.087 28.94 229.087 29.9195 229.984 29.9195C230.565 29.9195 230.913 29.5044 231.162 28.9403L231.511 29.1062C231.145 29.8699 230.747 30.4838 229.369 30.4838C227.46 30.4838 227.46 29.2888 227.46 28.492L227.51 22.8476H226.215V22.3829H227.494L227.527 20.1917L229.121 20.1914Z" fill="#0080C6"/>
<path d="M239.494 26.3665C239.494 28.8567 237.851 30.5498 235.677 30.5498C233.568 30.5498 231.875 28.9066 231.875 26.4161C231.875 23.5776 233.767 22.1665 235.743 22.1501C237.901 22.1334 239.494 23.8599 239.494 26.3665ZM233.751 26.4659C233.751 28.7568 234.049 30.1183 235.677 30.1183C237.568 30.1183 237.635 28.4915 237.635 26.383C237.635 25.3873 237.568 24.7564 237.552 24.5404C237.469 23.9262 237.32 22.5483 235.693 22.5817C233.967 22.615 233.751 24.2252 233.751 26.4659ZM235.377 21.6851H234.896L235.743 19.2782C235.909 18.8299 236.042 18.6971 236.473 18.6807H237.22C237.436 18.6807 237.735 18.7138 237.735 19.0624C237.735 19.2782 237.552 19.4773 237.353 19.6766L235.377 21.6851Z" fill="#0080C6"/>
<path d="M248.908 30.0022H250.203V30.4006H245.92V30.0022H247.231L247.248 28.6908V25.6694C247.231 23.976 247.231 23.4779 246.816 23.0798C246.551 22.8306 246.202 22.8141 246.052 22.8141C245.455 22.8141 245.007 23.1129 244.691 23.4116C243.811 24.2915 243.778 25.4703 243.745 26.516V28.6908L243.761 30.0022H245.123V30.4006H240.674V30.0022H242.135L242.151 28.6908V24.2252L242.135 22.7807H240.674V22.3823H242.251C242.981 22.3823 243.23 22.3659 243.828 22.316L243.811 23.8766C244.243 23.229 244.874 22.2495 246.667 22.2495C248.908 22.2495 248.908 23.976 248.908 24.8892C248.908 25.2874 248.908 25.7025 248.891 26.1009V28.6908L248.908 30.0022Z" fill="#0080C6"/>
<path d="M259.034 26.3665C259.034 28.8567 257.39 30.5495 255.215 30.5495C253.107 30.5495 251.414 28.9065 251.414 26.416C251.414 23.5775 253.307 22.1665 255.282 22.15C257.44 22.1331 259.034 23.8596 259.034 26.3665ZM253.29 26.4659C253.29 28.7567 253.588 30.1182 255.215 30.1182C257.107 30.1182 257.174 28.4914 257.174 26.3829C257.174 25.387 257.107 24.7561 257.092 24.5403C257.009 23.9261 256.859 22.5482 255.232 22.5813C253.506 22.6147 253.29 24.2249 253.29 26.4659Z" fill="#0080C6"/>
<path d="M263.332 23.7271C263.564 23.3618 263.764 23.0466 264.195 22.7311C264.66 22.4157 265.357 22.1665 266.153 22.1665C266.486 22.1665 266.934 22.2163 267.332 22.3992C268.196 22.7974 268.361 23.4779 268.478 23.9927C268.81 23.3785 269.474 22.1999 271.333 22.1999C271.781 22.1999 272.462 22.2495 272.993 22.7311C273.641 23.3286 273.641 24.1257 273.641 24.7731L273.591 28.5908L273.608 30.0021H274.968V30.4006H270.636V30.0021H271.947L271.964 28.5908C271.98 27.5284 271.997 26.4662 271.997 25.3873C271.997 24.0261 271.997 22.8472 270.768 22.8472C270.121 22.8472 269.673 23.1296 269.358 23.4283C268.528 24.2418 268.495 25.5198 268.462 26.6157V28.5908L268.478 30.0021H269.806V30.4006H265.507V30.0021H266.818L266.834 28.5908V25.3873C266.834 24.4409 266.818 24.0589 266.734 23.7106C266.668 23.5115 266.486 22.7974 265.539 22.7974C264.942 22.7974 264.427 23.0299 264.095 23.3618C263.365 24.1088 263.332 25.3539 263.298 26.5658V28.5908L263.315 30.0021H264.593V30.4006H260.211V30.0021H261.638L261.655 28.5908V24.358L261.638 22.7807H260.211V22.3825H261.821C262.568 22.3825 262.734 22.3661 263.365 22.316L263.332 23.7271Z" fill="#0080C6"/>
<path d="M283.901 30.0022V30.4006H282.689C282.473 30.4006 282.29 30.4006 282.091 30.3672C281.112 30.2511 280.946 29.6367 280.846 29.2552C280.531 29.7032 279.933 30.5663 278.223 30.5663C277.941 30.5663 277.177 30.5499 276.663 30.0353C276.414 29.7862 276.049 29.2218 276.049 28.1593C276.049 27.5282 276.181 26.9975 276.596 26.5657C277.061 26.1007 277.526 26.0013 278.97 25.7025C279.933 25.5032 280.381 25.3372 280.945 25.1379V24.5404C280.93 23.4117 280.912 22.5814 279.601 22.5814C278.307 22.5814 278.29 23.395 278.273 23.9098C278.256 24.2581 278.24 24.7562 277.476 24.7562C277.128 24.7562 276.662 24.7562 276.662 24.059C276.662 23.843 276.712 23.6439 276.796 23.4448C277.194 22.4653 278.422 22.1997 279.651 22.1997C280.315 22.1997 281.028 22.2994 281.543 22.5483C282.572 23.0631 282.572 23.9925 282.572 24.7562V28.3916C282.556 29.6367 282.706 30.0022 283.486 30.0022H283.901ZM280.946 25.5697L279.452 26.018C278.589 26.2836 277.858 26.599 277.858 28.2426C277.858 28.724 277.858 30.0025 278.987 30.0025C279.568 30.0025 279.934 29.7034 280.166 29.4712C280.879 28.7574 280.913 27.8606 280.946 26.9977L280.946 25.5697Z" fill="#0080C6"/>
<path d="M113.559 38.0475C114.256 38.0475 114.489 38.0308 115.053 37.981L115.036 39.7406V47.9246L115.053 49.369H116.381V49.7674H113.393V48.4889C113.177 48.904 112.646 49.8997 111.102 49.8997C109.359 49.8997 107.932 48.4224 107.932 45.7665C107.932 43.4923 109.06 41.5829 111.202 41.5829C112.679 41.5829 113.077 42.3803 113.393 42.9942V39.7403L113.376 38.4457H111.749V38.0472H113.559V38.0475ZM109.758 45.4844C109.758 47.0113 109.758 49.3025 111.584 49.3025C113.393 49.3025 113.393 46.8287 113.393 45.8497C113.393 45.1857 113.377 43.8908 113.028 43.127C112.729 42.5128 112.198 42.1311 111.517 42.1311C109.758 42.1478 109.758 44.5214 109.758 45.4844Z" fill="#0080C6"/>
<path d="M124.831 47.4597C124.35 48.6051 123.653 49.9334 121.312 49.9334C120.598 49.9334 119.552 49.8502 118.606 48.9041C117.66 47.9413 117.494 46.7129 117.494 45.7334C117.494 45.3014 117.527 44.9199 117.61 44.5713C117.776 43.8079 118.191 43.0275 118.739 42.5294C119.353 41.9321 120.3 41.5334 121.312 41.5334C122.391 41.5334 123.254 41.9653 123.835 42.5463C124.732 43.459 124.815 44.4881 124.864 45.2354H119.337C119.337 46.165 119.337 47.1776 119.685 48.0243C120.183 49.3025 121.279 49.4351 121.777 49.4351C122.208 49.4351 122.59 49.319 122.889 49.1857C123.852 48.6878 124.217 47.7751 124.4 47.3102L124.831 47.4597ZM122.889 44.7704C122.872 44.1398 122.856 43.4922 122.607 42.9278C122.258 42.1638 121.644 41.9981 121.163 41.9981C119.569 41.9981 119.436 43.7745 119.353 44.7704H122.889Z" fill="#0080C6"/>
<path d="M141.034 38.0474H144.669V38.4458H143.142L143.125 39.7405V47.6755L143.142 49.3691H144.669V49.7673H139.473V49.3691H141.266L141.283 47.6755V38.7944L136.817 49.9831H136.551L132.169 38.7944L132.153 39.7405V47.6755L132.169 49.3691H133.978V49.7673H130.127V49.3691H131.654L131.671 47.6755V39.7405L131.654 38.4458H130.127V38.0474H133.862L137.415 47.1281L141.034 38.0474Z" fill="#0080C6"/>
<path d="M153.715 49.3691V49.7676H152.504C152.287 49.7676 152.105 49.7676 151.906 49.7344C150.926 49.6183 150.76 49.0039 150.661 48.6221C150.345 49.0701 149.748 49.9335 148.038 49.9335C147.756 49.9335 146.992 49.9168 146.477 49.4023C146.228 49.1531 145.863 48.589 145.863 47.5263C145.863 46.8954 145.996 46.3644 146.411 45.9328C146.876 45.4676 147.34 45.3685 148.785 45.0697C149.748 44.8706 150.196 44.7044 150.76 44.5051V43.9076C150.744 42.7789 150.727 41.9489 149.416 41.9489C148.121 41.9489 148.104 42.7622 148.088 43.2769C148.071 43.6253 148.054 44.1236 147.291 44.1236C146.943 44.1236 146.477 44.1236 146.477 43.4262C146.477 43.2104 146.527 43.0113 146.611 42.812C147.009 41.8328 148.237 41.5669 149.466 41.5669C150.13 41.5669 150.843 41.6666 151.358 41.9152C152.387 42.43 152.387 43.3594 152.387 44.1234V47.7585C152.371 49.0039 152.52 49.3691 153.3 49.3691H153.715ZM150.76 44.9367L149.266 45.3849C148.403 45.6505 147.673 45.966 147.673 47.6092C147.673 48.0906 147.673 49.3691 148.802 49.3691C149.383 49.3691 149.748 49.0701 149.98 48.8379C150.694 48.124 150.727 47.2275 150.761 46.3644L150.76 44.9367Z" fill="#0080C6"/>
<path d="M160.538 38.0475C161.235 38.0475 161.468 38.0308 162.032 37.981L162.015 39.7406V47.9246L162.032 49.369H163.359V49.7674H160.371V48.4889C160.156 48.904 159.624 49.8997 158.08 49.8997C156.338 49.8997 154.91 48.4224 154.91 45.7665C154.91 43.4923 156.039 41.5829 158.18 41.5829C159.658 41.5829 160.056 42.3803 160.371 42.9942V39.7403L160.355 38.4457H158.728V38.0472H160.538V38.0475ZM156.736 45.4844C156.736 47.0113 156.736 49.3025 158.562 49.3025C160.371 49.3025 160.371 46.8287 160.371 45.8497C160.371 45.1857 160.356 43.8908 160.006 43.127C159.707 42.5128 159.176 42.1311 158.496 42.1311C156.736 42.1478 156.736 44.5214 156.736 45.4844Z" fill="#0080C6"/>
<path d="M167.012 49.369H168.422V49.7675H163.99V49.369H165.385L165.401 47.958V43.5258L165.385 42.1312H163.99V41.7494H165.517C166.165 41.7327 166.397 41.7327 167.045 41.6665L167.028 43.592C167.443 42.7122 167.991 41.5835 169.319 41.5835C170.415 41.5835 170.813 42.4302 170.813 43.1438C170.813 43.7582 170.564 44.2561 169.966 44.2561C169.717 44.2561 169.136 44.0734 169.136 43.393C169.136 43.2769 169.219 42.7621 169.219 42.646C169.219 42.1646 168.887 42.1481 168.787 42.1481C168.672 42.1481 168.489 42.1977 168.206 42.4638C167.078 43.5759 167.028 45.3024 166.995 46.7134V47.9585L167.012 49.369Z" fill="#0080C6"/>
<path d="M172.755 41.7492C173.419 41.7328 173.651 41.7328 174.299 41.6827L174.282 43.4256V47.9578L174.299 49.3688H175.626V49.7672H171.211V49.3688H172.639L172.656 47.9578V43.4256L172.639 42.1474H171.211V41.749H172.755V41.7492ZM172.439 39.1262C172.439 38.595 172.871 38.1467 173.418 38.1467C173.933 38.1467 174.382 38.595 174.382 39.1262C174.382 39.6574 173.933 40.0893 173.418 40.0893C173.153 40.0893 172.904 39.9893 172.721 39.8069C172.539 39.624 172.439 39.3754 172.439 39.1262Z" fill="#0080C6"/>
<path d="M182.417 38.0475C183.114 38.0475 183.346 38.0308 183.911 37.981L183.894 39.7406V47.9246L183.911 49.369H185.238V49.7674H182.251V48.4889C182.035 48.904 181.504 49.8997 179.959 49.8997C178.217 49.8997 176.789 48.4224 176.789 45.7665C176.789 43.4923 177.918 41.5829 180.059 41.5829C181.537 41.5829 181.935 42.3803 182.25 42.9942V39.7403L182.234 38.4457H180.607V38.0472H182.417V38.0475ZM178.615 45.4844C178.615 47.0113 178.615 49.3025 180.441 49.3025C182.251 49.3025 182.251 46.8287 182.251 45.8497C182.251 45.1857 182.234 43.8908 181.885 43.127C181.586 42.5128 181.055 42.1311 180.375 42.1311C178.615 42.1478 178.615 44.5214 178.615 45.4844Z" fill="#0080C6"/>
</svg>
