<svg width="512" height="512" viewBox="0 0 512 512" fill="none" xmlns="http://www.w3.org/2000/svg">
<g clip-path="url(#clip0_401_2)">
<rect width="512" height="512" rx="256" fill="white"/>
<path d="M171.106 210.625L207.328 211.919L242.256 210.625H274.597C278.478 210.625 279.772 211.919 279.772 215.8C279.772 219.681 277.184 222.268 270.716 222.268C269.423 222.268 268.129 220.974 265.542 220.974C262.954 220.974 260.367 222.268 259.073 223.562L251.311 222.268H237.081C230.613 226.149 224.145 227.443 217.677 227.443L207.328 226.149L202.153 231.324H196.978V228.736L187.923 232.617H182.748L181.455 237.792C178.867 236.498 173.693 236.498 165.931 235.205C165.931 237.792 164.637 237.792 163.344 237.792C162.05 237.792 162.05 236.498 160.756 235.205L152.995 236.498L147.82 241.673L146.526 267.546L147.82 283.069L146.526 302.474V324.466L147.82 334.815V343.871L154.288 356.807V359.394C154.288 365.863 158.169 371.037 164.637 376.212L165.931 380.093L174.986 382.68L181.455 390.442L200.859 394.323L226.732 387.855L234.494 390.442L252.605 381.386L259.073 382.68C261.661 385.267 262.954 387.855 262.954 389.148C262.954 391.735 260.367 394.323 256.486 398.204L252.605 396.91L244.843 403.378L226.732 405.966L220.264 409.846L217.677 408.553C211.209 411.14 206.034 413.727 199.566 413.727L189.217 411.14H184.042L164.637 399.497L155.582 386.561L149.114 380.093L140.058 354.22L136.177 330.934L138.765 321.879L134.884 316.704L137.471 310.236L134.884 301.18L140.058 297.299L137.471 292.125L138.765 285.657L136.177 279.188L137.471 268.839L136.177 263.665L138.765 262.371V242.966C137.471 237.792 136.177 236.498 134.884 236.498C133.59 236.498 132.296 237.792 132.296 239.085L125.828 236.498L114.185 237.792L105.13 231.324H101.249C97.3679 231.324 94.7806 228.736 94.7806 224.855V217.094L90.8997 214.506L93.487 209.332L101.249 210.625L107.717 209.332L116.773 211.919H138.765L140.058 200.276V188.633L136.177 179.578L140.058 176.991C141.352 174.403 141.352 173.11 141.352 173.11C141.352 170.522 140.058 169.229 137.471 167.935L138.765 147.237L134.884 140.769L136.177 135.594C132.296 134.3 131.003 133.007 131.003 131.713L134.884 117.483C137.471 113.602 140.058 111.015 140.058 109.721C150.407 114.896 155.582 117.483 155.582 118.777L152.995 123.951C155.582 129.126 156.876 133.007 156.876 135.594V136.888C155.582 139.475 155.582 142.062 155.582 144.65C155.582 145.943 155.582 147.237 156.876 148.53V157.586L151.701 165.348L154.288 178.284L151.701 195.102L154.288 197.689L151.701 202.863L155.582 215.8H164.637L171.106 210.625V210.625Z" fill="#333333"/>
<path d="M222.85 420.196L216.382 416.315C211.207 418.902 204.739 420.196 198.271 420.196H196.977L186.628 417.608H180.16L158.168 404.672L149.113 391.735L142.644 383.974L132.295 356.807L127.121 330.934L128.414 323.172L123.24 317.998L125.827 310.236L123.24 298.593L127.121 294.712V292.125L128.414 285.657L127.121 279.188L128.414 268.839L125.827 259.784L128.414 257.196V244.26L121.946 241.673L112.891 244.26L103.835 237.792H101.248C93.4859 237.792 88.3113 232.617 88.3113 223.562V219.681L83.1367 215.8L89.6049 201.57L101.248 202.863L107.716 201.57L116.771 204.157H131.002V188.633L125.827 175.697L131.002 171.816L129.708 169.229L131.002 147.237L127.121 139.475V136.888C123.24 134.3 123.24 130.419 123.24 129.126L127.121 112.308L128.414 111.015C131.002 107.134 132.295 105.84 132.295 105.84L134.882 98.0783L142.644 101.959C159.462 109.721 162.049 112.308 162.049 117.483V118.777L160.755 122.658C163.343 127.832 163.343 131.713 163.343 134.3V138.181C162.049 139.475 162.049 142.062 162.049 143.356L163.343 144.65L162.049 151.118L163.343 158.88L159.462 165.348L162.049 176.991L160.755 191.221L163.343 196.395L159.462 201.57L160.755 206.744H163.343L169.811 201.57L208.62 202.863L243.549 201.57H274.596C283.652 201.57 287.532 208.038 287.532 213.213C287.532 217.094 286.239 224.855 273.302 227.443H270.715L268.128 226.149C268.128 226.149 266.834 226.149 265.54 227.443L262.953 230.03L252.604 227.443H240.961C234.493 231.324 226.731 232.617 218.969 232.617H217.676L209.914 233.911L204.739 237.792H191.803L189.216 239.085H187.922L185.335 245.554L178.866 244.26C177.573 244.26 174.985 242.966 169.811 242.966C167.224 245.554 164.636 245.554 163.343 245.554C160.755 245.554 159.462 244.26 158.168 244.26H155.581L154.287 245.554L152.993 268.839L154.287 284.363L152.993 303.768V325.76L154.287 337.402V345.164L160.755 358.101V361.982C160.755 365.863 163.343 369.744 168.517 373.624L169.811 374.918L171.105 377.505L178.866 378.799L185.335 386.561L200.858 389.148L226.731 382.68L233.199 385.267L251.31 377.505L262.953 378.799L264.247 380.093C268.128 383.974 269.421 387.855 269.421 391.735C269.421 399.497 261.66 404.672 259.072 405.966L256.485 408.553V407.259L250.017 412.434L231.906 415.021L222.85 420.196V420.196ZM184.041 403.378H187.922L198.271 405.966C203.446 405.966 208.62 404.672 212.501 402.085L215.088 400.791L202.152 403.378L178.866 399.497L172.398 391.735L163.343 390.442L165.93 394.323L184.041 403.378V403.378ZM217.676 400.791L222.85 404.672L226.731 402.085L237.08 400.791L229.318 398.204L217.676 400.791ZM250.017 394.323L238.374 399.497L244.842 398.204L250.017 394.323V394.323ZM255.191 391.735L257.779 393.029L259.072 391.735H255.191ZM140.057 303.768V305.061V303.768ZM132.295 228.736C137.47 228.736 141.351 232.617 142.644 239.085L150.406 230.03L160.755 228.736V227.443H165.93C169.811 227.443 173.692 227.443 176.279 228.736L177.573 224.855H185.335L199.565 218.387L171.105 217.094L164.636 222.268H147.819L143.938 209.332L142.644 218.387H112.891L105.129 215.8L99.9541 217.094V224.855H106.422L114.184 230.03L121.946 228.736L125.827 230.03C129.708 228.736 131.002 228.736 132.295 228.736V228.736ZM207.326 219.681L218.969 222.268C222.85 222.268 228.025 220.974 231.906 219.681H207.326ZM145.232 180.872L146.525 184.752L147.819 179.578V178.284V179.578L145.232 180.872V180.872ZM143.938 161.467C143.938 162.761 145.232 162.761 143.938 161.467L147.819 154.999V148.53C146.525 147.237 146.525 144.649 146.525 142.062C146.525 139.475 146.525 136.888 147.819 133.007C147.819 133.007 147.819 130.419 145.232 123.951L143.938 121.364L145.232 117.483C143.938 116.189 142.644 116.189 140.057 114.896C140.057 114.896 140.057 116.189 138.763 116.189L136.176 123.951L141.351 125.245L140.057 134.3L143.938 140.769V161.467Z" fill="#333333"/>
<path d="M338.793 302.539L302.571 301.245L267.643 302.539H235.302C231.421 302.539 230.127 301.245 230.127 297.364C230.127 293.483 232.715 290.896 239.183 290.896C240.476 292.19 241.77 292.19 243.064 292.19C245.651 292.19 248.238 290.896 249.532 289.602L257.294 290.896H271.524C277.992 287.015 284.46 285.721 290.929 285.721L301.278 287.015L306.452 281.84H311.627V284.428L320.682 280.547H325.857L327.15 275.372C329.738 276.666 334.912 276.666 342.674 277.959C342.674 275.372 343.968 275.372 345.262 275.372C346.555 275.372 346.555 276.666 347.849 277.959L355.611 276.666L360.785 271.491L362.079 245.618L360.785 230.095L362.079 210.69V188.698L360.785 178.349V169.293L354.317 156.357V153.77C354.317 147.301 350.436 142.127 343.968 136.952L342.674 133.071L333.619 130.484L327.15 122.722L306.452 116.254L280.579 122.722L272.817 120.135L254.706 129.19L248.238 127.897C245.651 125.31 244.357 122.722 244.357 121.429C244.357 118.841 246.945 116.254 250.825 112.373L254.706 113.667L262.468 107.199L280.579 104.611L287.048 100.73L293.516 104.611C299.984 102.024 305.159 99.4367 311.627 99.4367L321.976 102.024H327.15L346.555 113.667L355.611 126.603L362.079 133.071L371.134 158.944L375.015 182.23L372.428 191.285L376.309 196.46L373.722 202.928L376.309 211.984L371.134 215.865L373.722 221.039L372.428 227.507L375.015 233.976L373.722 244.325L375.015 249.499L372.428 250.793V270.198C373.722 275.372 375.015 276.666 376.309 276.666C377.603 276.666 378.896 275.372 378.896 274.079L385.364 276.666L393.126 274.079L402.182 280.547H406.063C409.944 280.547 412.531 283.134 412.531 287.015V294.777L416.412 297.364L413.825 302.539L406.063 301.245L399.595 302.539L390.539 299.951H371.134L369.841 311.594V323.237L373.722 332.293L369.841 334.88C368.547 337.467 368.547 338.761 368.547 338.761C368.547 341.348 369.841 342.642 372.428 343.935L371.134 364.634L375.015 371.102L373.722 376.276C377.603 377.57 378.896 378.864 378.896 380.157L375.015 394.387C372.428 398.268 369.841 400.856 369.841 402.149C359.492 396.975 354.317 394.387 354.317 393.094L358.198 389.213C355.611 384.038 354.317 380.157 354.317 377.57V376.276C355.611 373.689 355.611 371.102 355.611 368.515C355.611 367.221 355.611 365.927 354.317 364.634V355.578L359.492 347.816L356.904 334.88L359.492 319.356L356.904 316.769L359.492 311.594L355.611 298.658H345.262L338.793 302.539Z" fill="#333333"/>
<path d="M376.309 413.792L368.547 409.911C351.73 402.149 349.142 399.562 349.142 394.387V393.094L350.436 389.213C347.849 384.038 347.849 380.157 347.849 377.57V373.689C349.142 372.395 349.142 369.808 349.142 368.515L347.849 367.221L349.142 360.753L347.849 352.991L351.73 346.523L349.142 334.88L350.436 320.65L347.849 315.475L351.73 310.301L350.436 305.126H347.849L341.38 310.301L302.571 309.007H236.595C227.54 309.007 223.659 302.539 223.659 297.364C223.659 293.483 224.953 285.721 237.889 283.134H240.476L243.064 284.428C243.064 284.428 244.357 284.428 245.651 283.134L248.238 280.547L258.587 283.134H270.23C276.698 279.253 284.46 277.959 292.222 277.959H293.516L299.984 279.253L305.159 275.372H318.095L320.682 274.079H321.976L324.563 267.61L331.031 268.904C332.325 268.904 334.912 270.198 340.087 270.198C342.674 267.61 345.261 267.61 346.555 267.61C349.142 267.61 350.436 268.904 351.73 268.904H354.317L355.611 267.61L356.904 244.325L355.611 228.801L356.904 209.396V187.404L355.611 175.762V168L349.142 155.063V151.182C349.142 147.301 346.555 143.421 341.38 139.54L340.087 138.246L338.793 135.659L331.031 134.365L324.563 126.603L306.452 124.016L280.579 130.484L274.111 127.897L256 135.659L244.357 134.365L243.064 133.071C239.183 129.19 237.889 125.31 237.889 121.429C237.889 113.667 245.651 108.492 246.945 107.198L250.825 104.611L254.706 105.905L261.175 100.73L279.286 98.143L287.047 92.9684L293.516 96.8493C298.69 94.2621 305.159 92.9684 311.627 92.9684H312.92L323.27 95.5557H329.738L351.73 108.492L360.785 121.429L367.253 129.19L377.603 156.357L382.777 180.936L381.484 188.698L386.658 193.873L384.071 201.634L386.658 213.277L382.777 217.158L384.071 218.452L382.777 224.92L385.364 231.388L384.071 241.737L385.364 250.793L382.777 253.38V266.317L389.245 268.904L398.301 266.317L407.356 272.785H409.944C417.706 272.785 422.88 277.959 422.88 287.015V290.896L428.055 294.777L421.586 309.007L409.944 307.713L403.475 309.007L394.42 306.42H380.19V324.531L385.364 337.467L380.19 341.348L384.071 343.935L382.777 365.927L387.952 372.395V374.983C391.833 377.57 391.833 381.451 391.833 382.745V384.038L387.952 400.856L386.658 402.149C384.071 406.03 382.777 407.324 382.777 407.324L376.309 413.792V413.792ZM364.666 393.094C365.96 394.387 367.253 394.387 369.841 395.681C369.841 395.681 369.841 394.387 371.134 394.387L373.722 386.626L368.547 385.332L369.841 376.276L365.96 369.808L367.253 350.403L363.372 356.872V363.34C364.666 364.634 364.666 367.221 364.666 369.808C364.666 372.395 364.666 374.983 363.372 378.864C363.372 378.864 363.372 381.451 365.96 387.919L367.253 390.506L364.666 393.094V393.094ZM363.372 333.586L365.96 332.292L364.666 328.412L363.372 333.586V333.586ZM342.674 290.896H359.492L363.372 303.832L364.666 294.777H394.42L402.182 297.364L407.356 296.07V288.309H400.888L393.126 283.134L385.364 284.428L381.484 283.134C380.19 284.428 378.896 284.428 377.603 284.428C372.428 284.428 368.547 280.547 367.253 274.079L359.492 283.134L349.142 284.428V285.721H343.968C340.087 285.721 336.206 285.721 333.619 284.428L332.325 288.309H324.563L310.333 294.777L338.793 296.07L342.674 290.896V290.896ZM290.928 290.896C287.048 290.896 281.873 292.19 277.992 293.483L302.571 292.19H303.865L290.928 290.896V290.896ZM369.841 208.103V209.396V208.103ZM369.841 197.754V199.047V197.754ZM368.547 180.936V182.23V180.936ZM337.5 121.429L345.261 122.722L342.674 118.841L325.857 109.786H321.976L311.627 107.198C306.452 107.198 301.278 108.492 297.397 111.079L293.516 112.373L306.452 109.786L329.738 113.667L337.5 121.429V121.429ZM252.119 121.429H254.706H252.119C252.119 121.429 252.119 120.135 252.119 121.429ZM266.349 113.667L261.175 118.841L272.817 113.667H266.349ZM272.817 112.373L280.579 114.96L292.222 112.373L287.047 108.492L283.167 111.079L272.817 112.373V112.373Z" fill="#333333"/>
</g>
<defs>
<clipPath id="clip0_401_2">
<rect width="512" height="512" fill="white"/>
</clipPath>
</defs>
</svg>
