<svg width="626" height="422" viewBox="0 0 626 422" fill="none" xmlns="http://www.w3.org/2000/svg">
<g clip-path="url(#clip0_1409_1208)">
<mask id="mask0_1409_1208" style="mask-type:alpha" maskUnits="userSpaceOnUse" x="0" y="0" width="626" height="422">
<path d="M626 0H0V422H626V0Z" fill="url(#paint0_radial_1409_1208)"/>
</mask>
<g mask="url(#mask0_1409_1208)">
<line x1="-37" y1="92.5" x2="664" y2="92.5" stroke="#E9E9EB"/>
<line x1="-37" y1="205.5" x2="664" y2="205.5" stroke="#E9E9EB"/>
<line x1="-37" y1="329.5" x2="664" y2="329.5" stroke="#E9E9EB"/>
<line x1="-37" y1="216.5" x2="664" y2="216.5" stroke="#E9E9EB"/>
<line x1="433.5" y1="-68" x2="433.5" y2="489" stroke="#E9E9EB"/>
<line x1="444.5" y1="-68" x2="444.5" y2="489" stroke="#E9E9EB"/>
<line x1="318.5" y1="-68" x2="318.5" y2="489" stroke="#E9E9EB"/>
<line x1="181.5" y1="-68" x2="181.5" y2="489" stroke="#E9E9EB"/>
<line x1="192.5" y1="-68" x2="192.5" y2="489" stroke="#E9E9EB"/>
<line x1="307.5" y1="-68" x2="307.5" y2="489" stroke="#E9E9EB"/>
<rect x="-59.5" y="92.5" width="115" height="113" rx="15.5" fill="white" stroke="#E9E9EB"/>
<path d="M-3.89935 120.016C-4.02364 120.026 -4.42138 120.065 -4.77767 120.094C-13.0158 120.836 -20.7319 125.281 -25.6205 132.113C-28.3403 135.91 -30.0823 140.219 -30.739 144.782C-30.971 146.375 -31 146.845 -31 149.006C-31 151.164 -30.971 151.636 -30.739 153.229C-29.1626 164.119 -21.4134 173.268 -10.9008 176.657C-9.01789 177.264 -7.03346 177.678 -4.77767 177.927C-3.89938 178.024 -0.100344 178.024 0.777946 177.927C4.67432 177.496 7.97202 176.533 11.2283 174.872C11.7255 174.617 11.8229 174.548 11.7545 174.493C11.709 174.457 9.58359 171.607 7.03158 168.16L2.39367 161.896L-3.4167 153.296C-6.61501 148.569 -9.24576 144.703 -9.26854 144.703C-9.29133 144.697 -9.31413 148.517 -9.32449 153.184C-9.34106 161.351 -9.34727 161.681 -9.44877 161.873C-9.59791 162.151 -9.70977 162.265 -9.94798 162.389C-10.1303 162.48 -10.2898 162.497 -11.1453 162.497H-12.1251L-12.3861 162.333C-12.5559 162.226 -12.6823 162.083 -12.7672 161.919L-12.8853 161.664L-12.8749 150.298L-12.8563 138.926L-12.6823 138.704C-12.5912 138.586 -12.3985 138.433 -12.2618 138.358C-12.0298 138.247 -11.9386 138.234 -10.9589 138.234C-9.80092 138.234 -9.60829 138.28 -9.30793 138.609C-9.223 138.7 -6.07645 143.438 -2.31265 149.146C1.45323 154.855 6.60072 162.65 9.12995 166.476L13.7224 173.432L13.9544 173.279C16.0134 171.941 18.1905 170.037 19.9139 168.052C23.5824 163.841 25.9459 158.704 26.7393 153.229C26.9713 151.636 27.0003 151.164 27.0003 149.006C27.0003 146.845 26.9713 146.375 26.7393 144.782C25.1629 133.892 17.4137 124.743 6.90111 121.352C5.04717 120.751 3.07514 120.339 0.862844 120.088C0.318056 120.032 -3.42914 119.97 -3.89935 120.016ZM7.97204 137.555C8.24547 137.689 8.46713 137.95 8.54584 138.224C8.59141 138.371 8.60178 141.521 8.59142 148.624L8.57486 158.818L6.77682 156.063L4.97468 153.308V145.898C4.97468 141.109 4.99748 138.416 5.03063 138.286C5.12177 137.967 5.32062 137.718 5.59198 137.571C5.82398 137.451 5.90886 137.441 6.79958 137.441C7.63851 137.441 7.78561 137.451 7.97204 137.555Z" fill="black"/>
<rect x="66" y="92" width="116" height="114" rx="16" fill="white"/>
<rect x="66.5" y="92.5" width="115" height="113" rx="15.5" stroke="#E9E9EB" stroke-opacity="0.913725"/>
<path fill-rule="evenodd" clip-rule="evenodd" d="M124.333 120C111.444 120 103.389 126.444 100.167 139.333C105 132.889 110.639 130.472 117.083 132.083C120.76 133.002 123.388 135.671 126.297 138.623C131.036 143.433 136.52 149 148.5 149C161.389 149 169.444 142.556 172.667 129.667C167.833 136.111 162.194 138.528 155.75 136.917C152.073 135.998 149.445 133.329 146.536 130.377C141.798 125.567 136.313 120 124.333 120ZM100.167 149C87.2778 149 79.2222 155.444 76 168.333C80.8333 161.889 86.4722 159.472 92.9167 161.083C96.5936 162.003 99.2215 164.671 102.13 167.623C106.869 172.433 112.354 178 124.333 178C137.222 178 145.278 171.556 148.5 158.667C143.667 165.111 138.028 167.528 131.583 165.917C127.906 164.998 125.279 162.329 122.37 159.377C117.631 154.567 112.146 149 100.167 149Z" fill="#38BDF8"/>
<rect x="192.5" y="92.5" width="115" height="113" rx="15.5" fill="white" stroke="#E9E9EB"/>
<path d="M248.101 120.016C247.976 120.026 247.579 120.065 247.222 120.094C238.984 120.836 231.268 125.281 226.38 132.113C223.66 135.91 221.918 140.219 221.261 144.782C221.029 146.375 221 146.845 221 149.006C221 151.164 221.029 151.636 221.261 153.229C222.837 164.119 230.587 173.268 241.099 176.657C242.982 177.264 244.967 177.678 247.222 177.927C248.101 178.024 251.9 178.024 252.778 177.927C256.674 177.496 259.972 176.533 263.228 174.872C263.725 174.617 263.823 174.548 263.755 174.493C263.709 174.457 261.584 171.607 259.032 168.16L254.394 161.896L248.583 153.296C245.385 148.569 242.754 144.703 242.731 144.703C242.709 144.697 242.686 148.517 242.676 153.184C242.659 161.351 242.653 161.681 242.551 161.873C242.402 162.151 242.29 162.265 242.052 162.389C241.87 162.48 241.71 162.497 240.855 162.497H239.875L239.614 162.333C239.444 162.226 239.318 162.083 239.233 161.919L239.115 161.664L239.125 150.298L239.144 138.926L239.318 138.704C239.409 138.586 239.601 138.433 239.738 138.358C239.97 138.247 240.061 138.234 241.041 138.234C242.199 138.234 242.392 138.28 242.692 138.609C242.777 138.7 245.924 143.438 249.687 149.146C253.453 154.855 258.601 162.65 261.13 166.476L265.722 173.432L265.954 173.279C268.013 171.941 270.19 170.037 271.914 168.052C275.582 163.841 277.946 158.704 278.739 153.229C278.971 151.636 279 151.164 279 149.006C279 146.845 278.971 146.375 278.739 144.782C277.163 133.892 269.414 124.743 258.901 121.352C257.047 120.751 255.075 120.339 252.863 120.088C252.318 120.032 248.571 119.97 248.101 120.016ZM259.972 137.555C260.245 137.689 260.467 137.95 260.546 138.224C260.591 138.371 260.602 141.521 260.591 148.624L260.575 158.818L258.777 156.063L256.975 153.308V145.898C256.975 141.109 256.997 138.416 257.031 138.286C257.122 137.967 257.321 137.718 257.592 137.571C257.824 137.451 257.909 137.441 258.8 137.441C259.639 137.441 259.786 137.451 259.972 137.555Z" fill="black"/>
<rect x="318.5" y="92.5" width="115" height="113" rx="15.5" fill="white" stroke="#E9E9EB"/>
<g clip-path="url(#clip1_1409_1208)">
<path d="M348.029 127.58C347.892 123.636 350.964 120 355.117 120H397.672C401.825 120 404.898 123.636 404.76 127.58C404.628 131.368 404.8 136.275 406.035 140.276C407.274 144.289 409.363 146.826 412.784 147.152V150.848C409.363 151.174 407.274 153.711 406.035 157.724C404.8 161.725 404.628 166.632 404.76 170.42C404.898 174.364 401.825 178 397.672 178H355.117C350.964 178 347.892 174.364 348.029 170.42C348.161 166.632 347.99 161.725 346.755 157.724C345.516 153.711 343.422 151.174 340 150.848V147.152C343.422 146.826 345.516 144.289 346.755 140.276C347.99 136.275 348.161 131.368 348.029 127.58V127.58Z" fill="url(#paint1_linear_1409_1208)"/>
<path d="M377.97 164.418C384.693 164.418 388.745 161.126 388.745 155.696C388.745 151.592 385.854 148.62 381.561 148.15V147.979C384.715 147.466 387.19 144.537 387.19 141.266C387.19 136.606 383.511 133.57 377.904 133.57H365.289V164.418H377.97ZM370.195 137.482H376.721C380.269 137.482 382.284 139.064 382.284 141.929C382.284 144.986 379.941 146.696 375.692 146.696H370.195V137.482V137.482ZM370.195 160.506V150.352H376.678C381.321 150.352 383.73 152.062 383.73 155.397C383.73 158.732 381.386 160.506 376.962 160.506H370.195V160.506Z" fill="url(#paint2_linear_1409_1208)" stroke="white"/>
</g>
<rect x="444.5" y="92.5" width="115" height="113" rx="15.5" fill="white" stroke="#E9E9EB"/>
<g clip-path="url(#clip2_1409_1208)">
<path d="M502.334 149C502.334 143.716 506.618 139.432 511.902 139.432C517.187 139.432 521.47 143.716 521.47 149C521.47 154.284 517.187 158.568 511.902 158.568C506.618 158.568 502.334 154.284 502.334 149Z" fill="#1ABCFE"/>
<path d="M483.197 168.137C483.197 162.852 487.481 158.568 492.766 158.568H502.334V168.137C502.334 173.421 498.05 177.705 492.766 177.705C487.481 177.705 483.197 173.421 483.197 168.137Z" fill="#0ACF83"/>
<path d="M502.334 120.295V139.431H511.902C517.187 139.431 521.47 135.148 521.47 129.863C521.47 124.579 517.187 120.295 511.902 120.295H502.334Z" fill="#FF7262"/>
<path d="M483.197 129.863C483.197 135.148 487.481 139.431 492.766 139.431H502.334V120.295H492.766C487.481 120.295 483.197 124.579 483.197 129.863Z" fill="#F24E1E"/>
<path d="M483.197 149C483.197 154.284 487.481 158.568 492.766 158.568H502.334V139.432H492.766C487.481 139.432 483.197 143.716 483.197 149Z" fill="#A259FF"/>
</g>
<rect x="570.5" y="92.5" width="115" height="113" rx="15.5" fill="white" stroke="#E9E9EB"/>
<path d="M626.101 120.016C625.976 120.026 625.579 120.065 625.222 120.094C616.984 120.836 609.268 125.281 604.38 132.113C601.66 135.91 599.918 140.219 599.261 144.782C599.029 146.375 599 146.845 599 149.006C599 151.164 599.029 151.636 599.261 153.229C600.837 164.119 608.587 173.268 619.099 176.657C620.982 177.264 622.967 177.678 625.222 177.927C626.101 178.024 629.9 178.024 630.778 177.927C634.674 177.496 637.972 176.533 641.228 174.872C641.725 174.617 641.823 174.548 641.755 174.493C641.709 174.457 639.584 171.607 637.032 168.16L632.394 161.896L626.583 153.296C623.385 148.569 620.754 144.703 620.731 144.703C620.709 144.697 620.686 148.517 620.676 153.184C620.659 161.351 620.653 161.681 620.551 161.873C620.402 162.151 620.29 162.265 620.052 162.389C619.87 162.48 619.71 162.497 618.855 162.497H617.875L617.614 162.333C617.444 162.226 617.318 162.083 617.233 161.919L617.115 161.664L617.125 150.298L617.144 138.926L617.318 138.704C617.409 138.586 617.601 138.433 617.738 138.358C617.97 138.247 618.061 138.234 619.041 138.234C620.199 138.234 620.392 138.28 620.692 138.609C620.777 138.7 623.924 143.438 627.687 149.146C631.453 154.855 636.601 162.65 639.13 166.476L643.722 173.432L643.954 173.279C646.013 171.941 648.19 170.037 649.914 168.052C653.582 163.841 655.946 158.704 656.739 153.229C656.971 151.636 657 151.164 657 149.006C657 146.845 656.971 146.375 656.739 144.782C655.163 133.892 647.414 124.743 636.901 121.352C635.047 120.751 633.075 120.339 630.863 120.088C630.318 120.032 626.571 119.97 626.101 120.016ZM637.972 137.555C638.245 137.689 638.467 137.95 638.546 138.224C638.591 138.371 638.602 141.521 638.591 148.624L638.575 158.818L636.777 156.063L634.975 153.308V145.898C634.975 141.109 634.997 138.416 635.031 138.286C635.122 137.967 635.321 137.718 635.592 137.571C635.824 137.451 635.909 137.441 636.8 137.441C637.639 137.441 637.786 137.451 637.972 137.555Z" fill="black"/>
<rect x="-59.5" y="216.5" width="115" height="113" rx="15.5" fill="white" stroke="#E9E9EB"/>
<path d="M-3.89935 244.016C-4.02364 244.026 -4.42138 244.065 -4.77767 244.094C-13.0158 244.836 -20.7319 249.281 -25.6205 256.113C-28.3403 259.91 -30.0823 264.219 -30.739 268.782C-30.971 270.375 -31 270.845 -31 273.006C-31 275.164 -30.971 275.636 -30.739 277.229C-29.1626 288.119 -21.4134 297.268 -10.9008 300.657C-9.01789 301.264 -7.03346 301.678 -4.77767 301.927C-3.89938 302.024 -0.100344 302.024 0.777946 301.927C4.67432 301.496 7.97202 300.533 11.2283 298.872C11.7255 298.617 11.8229 298.548 11.7545 298.493C11.709 298.457 9.58359 295.607 7.03158 292.16L2.39367 285.896L-3.4167 277.296C-6.61501 272.569 -9.24576 268.703 -9.26854 268.703C-9.29133 268.697 -9.31413 272.517 -9.32449 277.184C-9.34106 285.351 -9.34727 285.681 -9.44877 285.873C-9.59791 286.151 -9.70977 286.265 -9.94798 286.389C-10.1303 286.48 -10.2898 286.497 -11.1453 286.497H-12.1251L-12.3861 286.333C-12.5559 286.226 -12.6823 286.083 -12.7672 285.919L-12.8853 285.664L-12.8749 274.298L-12.8563 262.926L-12.6823 262.704C-12.5912 262.586 -12.3985 262.433 -12.2618 262.358C-12.0298 262.247 -11.9386 262.234 -10.9589 262.234C-9.80092 262.234 -9.60829 262.28 -9.30793 262.609C-9.223 262.7 -6.07645 267.438 -2.31265 273.146C1.45323 278.855 6.60072 286.65 9.12995 290.476L13.7224 297.432L13.9544 297.279C16.0134 295.941 18.1905 294.037 19.9139 292.052C23.5824 287.841 25.9459 282.704 26.7393 277.229C26.9713 275.636 27.0003 275.164 27.0003 273.006C27.0003 270.845 26.9713 270.375 26.7393 268.782C25.1629 257.892 17.4137 248.743 6.90111 245.352C5.04717 244.751 3.07514 244.339 0.862844 244.088C0.318056 244.032 -3.42914 243.97 -3.89935 244.016ZM7.97204 261.555C8.24547 261.689 8.46713 261.95 8.54584 262.224C8.59141 262.371 8.60178 265.521 8.59142 272.624L8.57486 282.818L6.77682 280.063L4.97468 277.308V269.898C4.97468 265.109 4.99748 262.416 5.03063 262.286C5.12177 261.967 5.32062 261.718 5.59198 261.571C5.82398 261.451 5.90886 261.441 6.79958 261.441C7.63851 261.441 7.78561 261.451 7.97204 261.555Z" fill="black"/>
<rect x="66" y="216" width="116" height="114" rx="16" fill="white"/>
<rect x="66.5" y="216.5" width="115" height="113" rx="15.5" stroke="#E9E9EB" stroke-opacity="0.913725"/>
<g clip-path="url(#clip3_1409_1208)">
<path d="M105.977 245.909L124.031 244L142.085 245.909L156.062 264.672L124.031 301.971L92 264.672L105.977 245.909Z" fill="#FDB300"/>
<path d="M104.974 264.672L124.031 301.971L92 264.672H104.974Z" fill="#EA6C00"/>
<path d="M143.088 264.672L124.032 301.971L156.062 264.672H143.088Z" fill="#EA6C00"/>
<path d="M104.975 264.672H143.088L124.031 301.971L104.975 264.672Z" fill="#FDAD00"/>
<path d="M124.031 244L105.978 245.909L104.975 264.672L124.031 244Z" fill="#FDD231"/>
<path d="M124.031 244L142.085 245.909L143.088 264.672L124.031 244Z" fill="#FDD231"/>
<path d="M156.062 264.671L142.085 245.908L143.088 264.671H156.062Z" fill="#FDAD00"/>
<path d="M92 264.671L105.977 245.908L104.974 264.671H92Z" fill="#FDAD00"/>
<path d="M124.031 244L104.975 264.672H143.088L124.031 244Z" fill="#FEEEB7"/>
</g>
<rect x="192.5" y="216.5" width="241" height="113" rx="15.5" fill="white" stroke="#E9E9EB"/>
<path d="M313.201 263.485C306.688 263.485 301.992 267.753 301.992 274.156C301.992 280.558 307.278 284.826 313.791 284.826C317.725 284.826 321.194 283.261 323.341 280.623L318.828 278.003C317.637 279.313 315.826 280.078 313.791 280.078C310.965 280.078 308.564 278.596 307.673 276.225H324.202C324.332 275.561 324.409 274.873 324.409 274.15C324.409 267.753 319.713 263.485 313.201 263.485ZM307.62 272.081C308.358 269.715 310.375 268.227 313.195 268.227C316.02 268.227 318.038 269.715 318.769 272.081H307.62ZM376.722 263.485C370.209 263.485 365.514 267.753 365.514 274.156C365.514 280.558 370.799 284.826 377.312 284.826C381.247 284.826 384.715 283.261 386.863 280.623L382.35 278.003C381.158 279.313 379.347 280.078 377.312 280.078C374.486 280.078 372.085 278.596 371.195 276.225H387.724C387.854 275.561 387.93 274.873 387.93 274.15C387.93 267.753 383.235 263.485 376.722 263.485ZM371.147 272.081C371.885 269.715 373.902 268.227 376.722 268.227C379.548 268.227 381.565 269.715 382.297 272.081H371.147ZM348.123 274.156C348.123 277.712 350.436 280.084 354.022 280.084C356.453 280.084 358.276 278.975 359.214 277.167L363.744 279.793C361.868 282.935 358.352 284.826 354.022 284.826C347.504 284.826 342.814 280.558 342.814 274.156C342.814 267.753 347.51 263.485 354.022 263.485C358.352 263.485 361.862 265.376 363.744 268.518L359.214 271.144C358.276 269.336 356.453 268.227 354.022 268.227C350.442 268.227 348.123 270.599 348.123 274.156ZM396.779 256.964V284.233H391.47V256.964H396.779ZM251.797 254L273.594 291.94H230L251.797 254ZM306.293 256.964L289.946 285.419L273.6 256.964H279.729L289.946 274.748L300.164 256.964H306.293ZM341.044 264.078V269.822C340.454 269.65 339.829 269.532 339.157 269.532C335.729 269.532 333.258 271.903 333.258 275.46V284.233H327.948V264.078H333.258V269.532C333.258 266.52 336.744 264.078 341.044 264.078Z" fill="black"/>
<rect x="444.5" y="216.5" width="115" height="113" rx="15.5" fill="white" stroke="#E9E9EB"/>
<g clip-path="url(#clip4_1409_1208)">
<path d="M535.946 266.925C535.758 266.777 534.01 265.456 530.322 265.456C529.348 265.46 528.376 265.544 527.416 265.706C526.702 260.813 522.657 258.428 522.476 258.321L521.485 257.75L520.834 258.69C520.018 259.952 519.423 261.344 519.073 262.806C518.413 265.599 518.815 268.222 520.233 270.465C518.52 271.419 515.772 271.654 515.216 271.675H469.717C468.528 271.677 467.564 272.637 467.558 273.825C467.505 277.811 468.18 281.774 469.55 285.517C471.118 289.627 473.449 292.655 476.483 294.508C479.883 296.59 485.406 297.779 491.666 297.779C494.495 297.788 497.317 297.532 500.098 297.015C503.963 296.305 507.683 294.954 511.103 293.018C513.92 291.386 516.456 289.31 518.612 286.87C522.217 282.79 524.365 278.245 525.962 274.206C526.176 274.206 526.39 274.206 526.598 274.206C530.545 274.206 532.972 272.627 534.31 271.303C535.2 270.459 535.894 269.431 536.344 268.291L536.627 267.464L535.946 266.925Z" fill="#0091E2"/>
<path d="M473.933 270.342H480.03C480.324 270.342 480.562 270.104 480.562 269.81V264.379C480.564 264.085 480.327 263.845 480.033 263.844C480.032 263.844 480.031 263.844 480.03 263.844H473.933C473.639 263.844 473.4 264.082 473.4 264.376C473.4 264.377 473.4 264.378 473.4 264.379V269.81C473.4 270.104 473.639 270.342 473.933 270.342Z" fill="#0091E2"/>
<path d="M482.334 270.342H488.431C488.725 270.342 488.964 270.104 488.964 269.81V264.379C488.965 264.085 488.728 263.845 488.434 263.844C488.433 263.844 488.432 263.844 488.431 263.844H482.334C482.038 263.844 481.799 264.083 481.799 264.379V269.81C481.801 270.104 482.04 270.342 482.334 270.342Z" fill="#0091E2"/>
<path d="M490.864 270.342H496.962C497.256 270.342 497.494 270.104 497.494 269.81V264.379C497.496 264.085 497.258 263.845 496.964 263.844C496.963 263.844 496.962 263.844 496.961 263.844H490.864C490.57 263.844 490.332 264.082 490.332 264.376C490.332 264.377 490.332 264.378 490.332 264.379V269.81C490.332 270.104 490.571 270.342 490.864 270.342Z" fill="#0091E2"/>
<path d="M499.294 270.342H505.391C505.686 270.342 505.925 270.105 505.926 269.81V264.379C505.926 264.083 505.687 263.844 505.391 263.844H499.294C499 263.844 498.762 264.082 498.762 264.376C498.762 264.377 498.762 264.378 498.762 264.379V269.81C498.762 270.104 499 270.342 499.294 270.342Z" fill="#0091E2"/>
<path d="M482.334 262.53H488.431C488.726 262.528 488.964 262.289 488.964 261.994V256.564C488.964 256.27 488.725 256.031 488.431 256.031H482.334C482.04 256.031 481.8 256.269 481.799 256.564V261.994C481.8 262.289 482.039 262.528 482.334 262.53Z" fill="#0091E2"/>
<path d="M490.864 262.53H496.961C497.256 262.528 497.494 262.289 497.494 261.994V256.564C497.494 256.27 497.255 256.031 496.961 256.031H490.864C490.57 256.031 490.332 256.27 490.332 256.564V261.994C490.332 262.289 490.57 262.528 490.864 262.53Z" fill="#0091E2"/>
<path d="M499.294 262.53H505.391C505.686 262.528 505.925 262.289 505.926 261.994V256.564C505.925 256.269 505.686 256.031 505.391 256.031H499.294C499 256.031 498.762 256.27 498.762 256.564V261.994C498.762 262.289 499 262.528 499.294 262.53Z" fill="#0091E2"/>
<path d="M499.294 254.713H505.391C505.686 254.713 505.925 254.476 505.926 254.181V248.747C505.925 248.453 505.686 248.215 505.391 248.215H499.294C499 248.215 498.762 248.453 498.762 248.747V254.181C498.762 254.475 499 254.713 499.294 254.713Z" fill="#0091E2"/>
<path d="M507.796 270.342H513.893C514.188 270.342 514.427 270.105 514.428 269.81V264.379C514.428 264.083 514.189 263.844 513.893 263.844H507.796C507.502 263.844 507.264 264.082 507.264 264.376C507.264 264.377 507.264 264.378 507.264 264.379V269.81C507.264 270.104 507.502 270.342 507.796 270.342Z" fill="#0091E2"/>
</g>
<rect x="570.5" y="216.5" width="115" height="113" rx="15.5" fill="white" stroke="#E9E9EB"/>
<path d="M626.101 244.016C625.976 244.026 625.579 244.065 625.222 244.094C616.984 244.836 609.268 249.281 604.38 256.113C601.66 259.91 599.918 264.219 599.261 268.782C599.029 270.375 599 270.845 599 273.006C599 275.164 599.029 275.636 599.261 277.229C600.837 288.119 608.587 297.268 619.099 300.657C620.982 301.264 622.967 301.678 625.222 301.927C626.101 302.024 629.9 302.024 630.778 301.927C634.674 301.496 637.972 300.533 641.228 298.872C641.725 298.617 641.823 298.548 641.755 298.493C641.709 298.457 639.584 295.607 637.032 292.16L632.394 285.896L626.583 277.296C623.385 272.569 620.754 268.703 620.731 268.703C620.709 268.697 620.686 272.517 620.676 277.184C620.659 285.351 620.653 285.681 620.551 285.873C620.402 286.151 620.29 286.265 620.052 286.389C619.87 286.48 619.71 286.497 618.855 286.497H617.875L617.614 286.333C617.444 286.226 617.318 286.083 617.233 285.919L617.115 285.664L617.125 274.298L617.144 262.926L617.318 262.704C617.409 262.586 617.601 262.433 617.738 262.358C617.97 262.247 618.061 262.234 619.041 262.234C620.199 262.234 620.392 262.28 620.692 262.609C620.777 262.7 623.924 267.438 627.687 273.146C631.453 278.855 636.601 286.65 639.13 290.476L643.722 297.432L643.954 297.279C646.013 295.941 648.19 294.037 649.914 292.052C653.582 287.841 655.946 282.704 656.739 277.229C656.971 275.636 657 275.164 657 273.006C657 270.845 656.971 270.375 656.739 268.782C655.163 257.892 647.414 248.743 636.901 245.352C635.047 244.751 633.075 244.339 630.863 244.088C630.318 244.032 626.571 243.97 626.101 244.016ZM637.972 261.555C638.245 261.689 638.467 261.95 638.546 262.224C638.591 262.371 638.602 265.521 638.591 272.624L638.575 282.818L636.777 280.063L634.975 277.308V269.898C634.975 265.109 634.997 262.416 635.031 262.286C635.122 261.967 635.321 261.718 635.592 261.571C635.824 261.451 635.909 261.441 636.8 261.441C637.639 261.441 637.786 261.451 637.972 261.555Z" fill="black"/>
</g>
</g>
<defs>
<radialGradient id="paint0_radial_1409_1208" cx="0" cy="0" r="1" gradientUnits="userSpaceOnUse" gradientTransform="translate(317.402 211.754) rotate(-0.160449) scale(269.1 413.342)">
<stop/>
<stop offset="1" stop-opacity="0"/>
</radialGradient>
<linearGradient id="paint1_linear_1409_1208" x1="350.815" y1="121.535" x2="414.416" y2="172.022" gradientUnits="userSpaceOnUse">
<stop stop-color="#9013FE"/>
<stop offset="1" stop-color="#6610F2"/>
</linearGradient>
<linearGradient id="paint2_linear_1409_1208" x1="367.508" y1="135.601" x2="381.724" y2="159.644" gradientUnits="userSpaceOnUse">
<stop stop-color="white"/>
<stop offset="1" stop-color="#F1E5FC"/>
</linearGradient>
<clipPath id="clip0_1409_1208">
<rect width="626" height="422" fill="white"/>
</clipPath>
<clipPath id="clip1_1409_1208">
<rect width="72.7843" height="58" fill="white" transform="translate(340 120)"/>
</clipPath>
<clipPath id="clip2_1409_1208">
<rect width="38.6667" height="58" fill="white" transform="translate(483 120)"/>
</clipPath>
<clipPath id="clip3_1409_1208">
<rect width="64.191" height="58" fill="white" transform="translate(92 244)"/>
</clipPath>
<clipPath id="clip4_1409_1208">
<rect width="69.6" height="58" fill="white" transform="translate(467 244)"/>
</clipPath>
</defs>
</svg>
