<svg width="207" height="56" viewBox="0 0 207 56" fill="none" xmlns="http://www.w3.org/2000/svg">
<path d="M100.174 25.0313C99.5319 25.6119 98.6318 26.0648 97.7828 26.2289C95.2536 26.7175 93.6866 25.11 93.7097 21.6199C93.7629 19.7243 94.6213 17.6009 96.736 16.1707C97.3784 15.7362 98.2002 15.4297 98.9698 15.3489C100.647 15.1724 101.98 16.1275 102.331 17.7703C102.924 20.5526 102.334 23.079 100.174 25.0313ZM109.283 14.3883C107.979 10.5529 104.801 8.54349 100.772 8.89688C98.5172 9.09481 96.6873 10.1147 95.1337 11.705C95.0883 11.7368 95.0431 11.7686 94.9977 11.8005C95.0087 11.7353 95.0198 11.6701 95.0306 11.605C95.1698 10.8931 95.3093 10.1814 95.4575 9.42587H88.8369C86.8906 19.9355 84.9506 30.4111 82.9941 40.9758C85.3894 40.9758 87.6394 40.9868 89.8888 40.9537C90.0569 40.9512 90.3306 40.6545 90.3691 40.4581C90.8027 38.2501 91.2002 36.0352 91.6061 33.8219C91.8169 32.6729 92.0251 31.5234 92.229 30.4033C93.0009 30.9217 93.6613 31.4972 94.4242 31.8533C97.2232 33.1596 100.003 32.8363 102.681 31.4833C109.189 28.1963 111.219 20.0804 109.283 14.3883Z" fill="white"/>
<path d="M71.5598 25.5194H84.1863C83.8967 27.1066 83.6262 28.6411 83.3331 30.1709C83.2104 30.8107 83.2363 31.6847 82.836 32.0082C82.4308 32.3356 81.5822 32.1302 80.9279 32.1307C74.9233 32.1349 68.9188 32.1331 62.9141 32.1331H62.0379C62.0145 29.4627 62.5215 26.994 63.6849 24.6707C65.277 21.4915 67.8267 19.2094 70.7089 17.2536C72.4466 16.0744 74.2486 14.9865 75.9508 13.7591C76.8001 13.1467 77.5786 12.3829 78.2285 11.5607C78.9614 10.6333 79.1486 9.49842 78.4797 8.43749C77.8007 7.3605 76.6903 7.20734 75.5243 7.354C74.064 7.53764 72.9564 8.36353 71.9732 9.38377C71.6098 9.76113 71.2945 10.1849 70.9263 10.6246C69.1998 9.22193 67.494 7.83606 65.7333 6.40556C68.0368 3.27992 70.9187 1.07824 74.7507 0.267788C77.1216 -0.23366 79.4406 -0.0450435 81.6589 0.952114C86.4494 3.10546 88.2227 8.27515 85.8662 13.1403C84.7153 15.5163 82.8646 17.2738 80.7477 18.7445C78.8379 20.0714 76.8207 21.2427 74.8756 22.5203C74.0538 23.0601 73.2729 23.6698 72.5186 24.3016C72.186 24.5801 71.9657 24.9929 71.5598 25.5194Z" fill="white"/>
<path d="M120.566 11.9716C120.542 12.0365 120.513 12.0951 120.505 12.1567C120.502 12.1733 120.562 12.1986 120.594 12.2197C120.625 12.1602 120.659 12.1016 120.682 12.039C120.684 12.0328 120.617 12.0009 120.566 11.9716ZM131.244 32.0987H123.947C124.25 30.4861 124.548 28.9277 124.834 27.3672C125.385 24.3573 125.985 21.3546 126.458 18.3321C126.778 16.2854 125.764 15.4294 123.73 15.8907C121.367 16.4268 119.994 18.1163 119.215 20.2215C118.634 21.7943 118.403 23.5022 118.07 25.1605C117.641 27.2928 117.274 29.4376 116.851 31.5713C116.81 31.7795 116.57 32.1084 116.418 32.1107C114.118 32.1453 111.818 32.1347 109.43 32.1347C111.401 21.5673 113.356 11.0843 115.314 0.587332H122.656C121.95 4.37561 121.254 8.1153 120.558 11.855C120.61 11.8926 120.663 11.9302 120.715 11.9679C120.898 11.7954 121.083 11.6244 121.265 11.4503C123.761 9.0612 126.7 8.30966 130.016 9.20186C132.926 9.98502 134.524 12.3899 134.2 15.6579C133.984 17.8416 133.513 20.0016 133.125 22.1666C132.567 25.2787 131.982 28.386 131.405 31.4945C131.369 31.6918 131.303 31.8835 131.244 32.0987Z" fill="white"/>
<path d="M147.165 26.1849C146.822 26.2584 146.464 26.2685 146.113 26.3082C143.954 26.2516 142.517 24.9833 142.189 22.8192C141.704 19.6201 143.845 16.2626 146.92 15.3975C149.571 14.6519 151.771 16.0809 152.166 18.8038C152.656 22.1879 150.426 25.4874 147.165 26.1849ZM157.295 12.5102C154.991 9.8642 151.918 8.95223 148.53 8.84268C142.22 8.66222 136.097 13.6052 134.96 19.8282C134.455 22.5927 134.609 25.2925 136.137 27.7494C138.193 31.0571 141.387 32.412 145.1 32.6149C151.906 32.9867 157.792 28.5697 159.32 21.9348C160.105 18.5253 159.69 15.26 157.295 12.5102Z" fill="white"/>
<path d="M10.992 12.499L10.9507 12.4485C10.9354 12.464 10.9201 12.4794 10.9046 12.4948C10.9257 12.5119 10.9468 12.5291 10.9679 12.5462C10.9759 12.5305 10.9839 12.5148 10.992 12.499ZM0.21875 32.1369C1.64313 24.4917 3.04584 16.9623 4.45224 9.4133H11.5313C11.3446 10.3915 11.1644 11.3356 10.9601 12.4062C11.6095 11.8151 12.1273 11.2677 12.7194 10.8183C15.1 9.01107 17.7564 8.40683 20.6721 9.146C23.3028 9.81298 24.992 11.8461 24.9727 14.6068C24.961 16.287 24.6761 17.9777 24.3842 19.641C23.6584 23.7761 22.8581 27.8983 22.0779 32.079H14.7893C14.8144 31.8323 14.8216 31.5909 14.8657 31.3563C15.6364 27.2537 16.416 23.1528 17.1797 19.049C17.2625 18.6038 17.2926 18.1422 17.2894 17.6887C17.2804 16.349 16.6564 15.7529 15.3016 15.7859C14.1422 15.8142 13.135 16.2576 12.2596 17.0008C10.5984 18.4113 9.74971 20.266 9.36202 22.3662C8.79719 25.4265 8.24269 28.4887 7.65452 31.5445C7.61192 31.7655 7.33327 32.1084 7.1597 32.1115C4.88227 32.1496 2.60407 32.1369 0.21875 32.1369Z" fill="white"/>
<path d="M162.907 9.41108H169.99C169.791 10.4321 169.602 11.4064 169.369 12.6023C170.468 11.2484 171.646 10.3283 173.037 9.6859C175.234 8.67102 177.484 8.55612 179.757 9.35866C182.133 10.1978 183.359 12.0099 183.401 14.4379C183.431 16.1876 183.121 17.9583 182.822 19.6955C182.145 23.6334 181.381 27.5566 180.65 31.4851C180.614 31.6822 180.552 31.8747 180.495 32.0993H173.198C173.449 30.7347 173.686 29.4227 173.933 28.1127C174.504 25.0807 175.083 22.0499 175.65 19.0172C175.71 18.6949 175.725 18.3629 175.744 18.0344C175.844 16.3084 174.992 15.5392 173.269 15.8177C171.526 16.0994 170.297 17.1422 169.32 18.5385C168.321 19.966 167.938 21.6097 167.639 23.2899C167.147 26.0538 166.632 28.8135 166.1 31.5699C166.06 31.7787 165.816 32.1089 165.663 32.1113C163.362 32.1461 161.061 32.1354 158.674 32.1354C160.094 24.5108 161.5 16.9647 162.907 9.41108Z" fill="white"/>
<path d="M198.815 17.8413H192.523C192.979 15.9575 194.742 14.5562 196.592 14.5803C198.228 14.6015 199.184 15.964 198.815 17.8413ZM205.945 16.2932C205.504 13.0418 203.907 10.6718 200.758 9.50614C196.184 7.81356 190.566 9.35936 187.448 13.1151C185.108 15.9326 184.081 19.216 184.12 22.8143C184.161 26.5351 185.712 29.5069 189.091 31.2567C193.677 33.6313 199.338 32.9256 203.781 29.895C203.91 29.8068 204.005 29.5002 203.956 29.3455C203.406 27.5913 202.824 25.8468 202.269 24.1567C200.9 24.7425 199.606 25.3757 198.257 25.8526C196.672 26.4131 195.036 26.5411 193.448 25.8021C192.092 25.1713 191.257 23.543 191.61 22.2361H192.432C196.46 22.2361 200.488 22.2248 204.516 22.2492C205.069 22.2525 205.323 22.0965 205.456 21.5505C205.877 19.8189 206.189 18.0865 205.945 16.2932Z" fill="white"/>
<path d="M40.3247 17.8428H33.9819C34.7047 16.0749 35.7723 14.8672 37.6607 14.6152C39.5957 14.357 40.8844 15.9038 40.3247 17.8428ZM47.5095 16.4848C47.1335 13.1692 45.5844 10.6252 42.3369 9.54527C37.7796 8.0297 33.5543 8.82472 29.9904 12.1118C26.7288 15.1202 25.4887 19.032 25.6959 23.3689C25.9033 27.7177 28.4385 30.8166 32.6175 32.0602C36.5853 33.2409 40.3715 32.6581 43.9819 30.7168C45.6676 29.8104 45.6663 29.8041 45.0809 28.0102C44.6543 26.7029 44.222 25.3975 43.7752 24.0392C43.2208 24.3469 42.7691 24.6209 42.2977 24.8556C40.5374 25.732 38.7261 26.4033 36.705 26.2629C34.4385 26.1054 32.9425 24.5086 33.0795 22.236H34.0215C38.0478 22.236 42.0743 22.2253 46.1007 22.2492C46.6284 22.2522 46.8502 22.0989 46.9853 21.5865C47.4272 19.9094 47.7064 18.2214 47.5095 16.4848Z" fill="white"/>
<path d="M50.937 15.7512H48.2305C48.4117 14.7182 48.5768 13.7594 48.7488 12.802C48.8963 11.9805 49.0682 11.163 49.1968 10.3387C49.2626 9.91668 49.4254 9.73036 49.8843 9.75204C50.6664 9.78915 51.4518 9.76237 52.3197 9.76237C52.5937 8.33288 52.8569 6.92521 53.1349 5.52046C53.2813 4.78104 53.2223 3.77152 53.6791 3.38765C54.1341 3.00544 55.1185 3.23461 55.8709 3.22926C57.3654 3.21867 58.8601 3.23091 60.3548 3.23614C60.403 3.23627 60.451 3.26305 60.58 3.30144C60.1906 5.41321 59.7995 7.53455 59.392 9.74401H63.9826C63.7893 10.8446 63.6154 11.8531 63.434 12.8603C63.2994 13.6069 63.1224 14.3476 63.0265 15.0989C62.9627 15.5976 62.7771 15.7815 62.2575 15.7639C61.1187 15.7253 59.9773 15.7725 58.838 15.7419C58.387 15.7299 58.2247 15.8899 58.1509 16.3229C57.7895 18.4422 57.3853 20.5541 57.0212 22.6727C56.7287 24.3762 57.3999 25.3052 59.0942 25.5347C59.7911 25.629 60.4999 25.6335 61.3001 25.6853C60.903 27.8376 60.5072 29.984 60.0946 32.2205C57.0981 32.521 54.192 32.4019 51.7076 30.4697C49.6005 28.831 49.0525 26.5117 49.431 23.9914C49.799 21.5423 50.3361 19.1187 50.796 16.6833C50.8474 16.4114 50.8794 16.1359 50.937 15.7512Z" fill="white"/>
<path d="M95.134 11.705C95.0887 11.7369 95.0433 11.7688 94.998 11.8005C95.0091 11.7354 95.0201 11.6703 95.0309 11.605C95.066 11.6373 95.1005 11.6707 95.134 11.705Z" fill="white"/>
<path d="M120.565 11.9716C120.617 12.0009 120.684 12.0328 120.682 12.039C120.659 12.1016 120.624 12.1602 120.593 12.2197C120.562 12.1986 120.502 12.1733 120.504 12.1567C120.513 12.0951 120.542 12.0365 120.565 11.9716Z" fill="white"/>
<path d="M10.9917 12.4992C10.9836 12.515 10.9756 12.5307 10.9676 12.5464C10.9465 12.5293 10.9253 12.5121 10.9043 12.495C10.9197 12.4796 10.935 12.4641 10.9503 12.4487L10.9917 12.4992Z" fill="white"/>
<path d="M100.789 48.3207L99.6127 45.1867C99.4604 44.7901 99.3035 44.3035 99.1422 43.727C99.0407 44.1698 98.8954 44.6564 98.7063 45.1867L97.5163 48.3207H100.789ZM102.415 52.5962L101.155 49.3792H97.1012L95.856 52.5962H94.666L98.6648 42.4402H99.6542L103.632 52.5962H102.415Z" fill="white"/>
<path d="M110.038 52.5962V47.6911C110.038 47.0731 109.898 46.6118 109.616 46.3073C109.335 46.003 108.894 45.8507 108.295 45.8507C107.502 45.8507 106.921 46.0652 106.551 46.4941C106.183 46.9233 105.998 47.6311 105.998 48.6181V52.5962H104.85V45.0136H105.784L105.97 46.0515H106.026C106.261 45.6778 106.591 45.3884 107.015 45.1833C107.439 44.9781 107.912 44.8753 108.433 44.8753C109.347 44.8753 110.034 45.0958 110.495 45.5361C110.956 45.9766 111.187 46.681 111.187 47.6496V52.5962H110.038Z" fill="white"/>
<path d="M117.281 42.4815H119.426V52.5962H117.281V42.4815Z" fill="white"/>
<path d="M128.137 47.4974C128.137 45.3252 127.177 44.2389 125.259 44.2389H124.117V50.8252H125.037C127.104 50.8252 128.137 49.7159 128.137 47.4974ZM130.365 47.4419C130.365 49.1071 129.891 50.3823 128.943 51.2678C127.995 52.1535 126.626 52.5962 124.837 52.5962H121.973V42.4817H125.148C126.799 42.4817 128.081 42.9176 128.995 43.7892C129.908 44.661 130.365 45.8785 130.365 47.4419Z" fill="white"/>
<path d="M136.362 52.5962H134.217V44.2666H131.471V42.4815H139.109V44.2666H136.362V52.5962Z" fill="white"/>
<path d="M148.794 43.3879C147.683 43.3879 146.805 43.7582 146.162 44.4983C145.518 45.2388 145.197 46.2521 145.197 47.539C145.197 48.8628 145.507 49.8855 146.127 50.6073C146.747 51.3291 147.632 51.6899 148.78 51.6899C149.486 51.6899 150.291 51.5631 151.195 51.3095V52.3402C150.494 52.6033 149.629 52.7346 148.601 52.7346C147.111 52.7346 145.961 52.2827 145.152 51.3786C144.342 50.4747 143.938 49.1902 143.938 47.525C143.938 46.483 144.132 45.5696 144.522 44.7855C144.912 44.0015 145.474 43.3974 146.21 42.9728C146.946 42.5487 147.812 42.3365 148.808 42.3365C149.869 42.3365 150.796 42.53 151.589 42.9176L151.091 43.9275C150.325 43.5678 149.56 43.3879 148.794 43.3879Z" fill="white"/>
<path d="M153.997 48.7981C153.997 49.7667 154.19 50.5048 154.578 51.0119C154.965 51.5195 155.535 51.7729 156.286 51.7729C157.038 51.7729 157.609 51.5205 157.999 51.0155C158.389 50.5104 158.583 49.7713 158.583 48.7981C158.583 47.8341 158.389 47.102 157.999 46.6014C157.609 46.1011 157.034 45.8509 156.273 45.8509C155.521 45.8509 154.954 46.0977 154.571 46.5911C154.188 47.0848 153.997 47.8204 153.997 48.7981ZM159.773 48.7981C159.773 50.0342 159.462 50.9993 158.839 51.6935C158.217 52.3876 157.357 52.7346 156.259 52.7346C155.581 52.7346 154.979 52.5755 154.453 52.2573C153.927 51.9391 153.522 51.4825 153.236 50.8875C152.95 50.2925 152.807 49.5961 152.807 48.7981C152.807 47.5621 153.116 46.5993 153.734 45.9097C154.352 45.2203 155.21 44.8753 156.307 44.8753C157.368 44.8753 158.211 45.2283 158.836 45.9339C159.461 46.6397 159.773 47.5944 159.773 48.7981Z" fill="white"/>
<path d="M171.452 52.5962V47.6633C171.452 47.0592 171.323 46.6061 171.065 46.304C170.806 46.002 170.405 45.8507 169.861 45.8507C169.146 45.8507 168.618 46.0561 168.276 46.4667C167.935 46.8771 167.765 47.5089 167.765 48.3622V52.5962H166.616V47.6633C166.616 47.0592 166.487 46.6061 166.229 46.304C165.97 46.002 165.567 45.8507 165.018 45.8507C164.298 45.8507 163.771 46.0664 163.437 46.4977C163.103 46.929 162.936 47.6358 162.936 48.6181V52.5962H161.787V45.0136H162.721L162.908 46.0515H162.963C163.18 45.6824 163.486 45.3942 163.88 45.1866C164.274 44.9791 164.716 44.8753 165.205 44.8753C166.39 44.8753 167.165 45.3043 167.529 46.1622H167.585C167.811 45.7656 168.138 45.452 168.567 45.2213C168.996 44.9907 169.485 44.8753 170.034 44.8753C170.891 44.8753 171.534 45.0958 171.96 45.5361C172.387 45.9766 172.6 46.681 172.6 47.6496V52.5962H171.452Z" fill="white"/>
<path d="M178.329 45.8508C177.554 45.8508 176.994 46.0653 176.648 46.4942C176.302 46.9232 176.125 47.6058 176.115 48.5422V48.798C176.115 49.8635 176.293 50.6255 176.648 51.0845C177.003 51.5436 177.573 51.7729 178.357 51.7729C179.012 51.7729 179.525 51.5078 179.896 50.9772C180.267 50.447 180.453 49.716 180.453 48.7841C180.453 47.8387 180.267 47.1133 179.896 46.6083C179.525 46.1033 179.002 45.8508 178.329 45.8508ZM178.495 52.7346C178.002 52.7346 177.551 52.6434 177.143 52.4612C176.734 52.2791 176.392 51.999 176.115 51.6206H176.032C176.088 52.0634 176.115 52.4832 176.115 52.8797V56H174.967V45.0137H175.901L176.06 46.0514H176.115C176.41 45.6364 176.754 45.3367 177.146 45.152C177.538 44.9676 177.988 44.8753 178.495 44.8753C179.501 44.8753 180.277 45.219 180.823 45.9062C181.37 46.5934 181.643 47.5574 181.643 48.798C181.643 50.0432 181.365 51.0108 180.809 51.7002C180.254 52.3898 179.482 52.7346 178.495 52.7346Z" fill="white"/>
<path d="M185.718 51.7868C186.433 51.7868 186.994 51.5908 187.402 51.1986C187.811 50.8066 188.015 50.2579 188.015 49.5522V48.8671L186.866 48.9157C185.953 48.9479 185.295 49.0898 184.891 49.341C184.488 49.5925 184.286 49.9834 184.286 50.5139C184.286 50.9288 184.411 51.2448 184.663 51.4616C184.914 51.6784 185.266 51.7868 185.718 51.7868ZM188.312 52.5962L188.084 51.5171H188.029C187.65 51.992 187.273 52.3138 186.897 52.482C186.522 52.6503 186.052 52.7346 185.49 52.7346C184.738 52.7346 184.148 52.5408 183.722 52.1535C183.295 51.766 183.082 51.2148 183.082 50.4999C183.082 48.9687 184.307 48.1661 186.756 48.0924L188.042 48.0509V47.5805C188.042 46.9854 187.915 46.5462 187.658 46.2625C187.402 45.9788 186.993 45.837 186.43 45.837C185.799 45.837 185.083 46.0306 184.286 46.4182L183.933 45.5395C184.307 45.3367 184.716 45.1774 185.161 45.0622C185.606 44.9469 186.052 44.8892 186.5 44.8892C187.404 44.8892 188.074 45.0898 188.509 45.491C188.945 45.8924 189.163 46.5358 189.163 47.4215V52.5962H188.312Z" fill="white"/>
<path d="M196.718 52.5962V47.6911C196.718 47.0731 196.577 46.6118 196.296 46.3073C196.015 46.003 195.574 45.8507 194.975 45.8507C194.181 45.8507 193.6 46.0652 193.231 46.4941C192.862 46.9233 192.678 47.6311 192.678 48.6181V52.5962H191.529V45.0136H192.463L192.65 46.0515H192.706C192.941 45.6778 193.27 45.3884 193.695 45.1833C194.119 44.9781 194.592 44.8753 195.113 44.8753C196.026 44.8753 196.714 45.0958 197.175 45.5361C197.636 45.9766 197.867 46.681 197.867 47.6496V52.5962H196.718Z" fill="white"/>
<path d="M199.021 45.0137H200.253L201.913 49.3377C202.278 50.3248 202.504 51.0372 202.591 51.4755H202.647C202.707 51.2402 202.832 50.8378 203.024 50.2683C203.215 49.6986 203.841 47.9471 204.902 45.0137H206.134L202.875 53.6477C202.552 54.501 202.175 55.1064 201.744 55.4639C201.313 55.8212 200.783 56 200.156 56C199.805 56 199.46 55.9607 199.118 55.8825V54.9623C199.372 55.0175 199.656 55.0453 199.969 55.0453C200.758 55.0453 201.32 54.6025 201.657 53.717L202.079 52.6378L199.021 45.0137Z" fill="white"/>
</svg>
