<svg width="200" height="77" viewBox="0 0 200 77" fill="none" xmlns="http://www.w3.org/2000/svg">
<path d="M22.3919 49.4854L25.6895 49.588L28.7811 49.4854H31.5635C31.8727 49.4854 32.0788 49.588 32.0788 49.896C32.0788 50.204 31.8727 50.4094 31.3574 50.512C31.2543 50.4094 31.1513 50.4094 30.9452 50.4094C30.7391 50.4094 30.533 50.512 30.3269 50.6147L29.7086 50.512H28.4719C27.8536 50.82 27.3384 51.0254 26.72 51.0254L25.7926 50.82L25.1743 51.3334H24.7621V51.0254L23.9376 51.436H23.5254L23.4224 51.8467C23.1132 51.744 22.701 51.744 22.0827 51.6414C22.0827 51.8467 21.9796 51.9494 21.8766 51.9494C21.7735 51.9494 21.7735 51.8467 21.5674 51.744L20.9491 51.8467L20.5369 52.36L20.4339 54.6187L20.5369 55.9534L20.4339 57.6987V59.6494L20.5369 60.5734V61.3947L21.0522 62.524V62.7294C21.0522 63.2427 21.3613 63.756 21.9796 64.2694L22.0827 64.68L22.9071 64.8854L23.5254 65.5014L25.2773 65.8094L27.5445 65.296L28.1628 65.5014L29.8116 64.7827L30.4299 64.8854C30.636 65.0907 30.7391 65.296 30.7391 65.5014C30.7391 65.7067 30.533 66.0147 30.1208 66.22L29.8116 66.1174L29.0902 66.7334L27.5445 66.9387L27.0292 67.2467L26.5139 66.9387C25.9987 67.2467 25.4834 67.3494 24.8651 67.3494L23.8346 67.2467H23.3193L21.5674 66.22L20.743 65.0907L20.2278 64.4747L19.4033 62.216L18.9911 60.06L19.1972 59.2387L18.785 58.828L18.9911 58.3147L18.8881 57.4934L19.4033 57.0827L19.1972 56.672L19.3003 56.1587L18.9911 55.44L19.0942 54.516L18.9911 54.1054L19.1972 54.0027V52.2574C19.0942 51.8467 18.9911 51.6414 18.785 51.6414C18.682 51.6414 18.5789 51.744 18.4759 51.8467L17.9606 51.6414L17.2392 51.8467L16.5179 51.3334H16.1057C15.6935 51.3334 15.5904 51.128 15.5904 50.7174V49.9987L15.2812 49.7934L15.4874 49.3827L16.2087 49.4854L16.724 49.3827L17.4453 49.588H19.4033L19.5064 48.4587V47.3294L19.1972 46.508L19.6094 46.2C19.7125 45.9947 19.7125 45.892 19.7125 45.892C19.7125 45.6867 19.6094 45.4814 19.3003 45.3787L19.4033 43.5307L18.9911 42.9147L19.0942 42.504C18.785 42.4014 18.682 42.2987 18.682 42.0934L18.9911 40.8614C19.3003 40.5534 19.4033 40.348 19.4033 40.2454C20.3308 40.656 20.8461 40.964 20.8461 41.0667L20.64 41.4774C20.8461 41.888 20.9491 42.2987 20.9491 42.504V42.6067C20.8461 42.812 20.8461 43.12 20.8461 43.2227C20.8461 43.3254 20.8461 43.5307 20.9491 43.6334V44.5574L20.5369 45.1734L20.8461 46.3027L20.64 47.74L20.8461 48.048L20.5369 48.4587L20.9491 49.588H21.7735L22.3919 49.4854Z" fill="white"/>
<path d="M24.7632 67.9654L23.8357 67.7601H23.2174L21.2594 66.6307L20.435 65.3987L19.8167 64.6801L18.8892 62.2161L18.477 59.9574L18.6831 59.2387L18.2709 58.7254L18.477 58.0067L18.2709 56.9801L18.6831 56.6721L18.58 56.4667L18.6831 55.8507L18.477 55.2347L18.58 54.3107L18.477 53.5921L18.7861 53.3867V52.1547L18.0648 51.8467L17.2404 52.0521L16.4159 51.4361H16.2098C15.4885 51.4361 15.0763 51.0254 15.0763 50.3067V49.8961L14.6641 49.5881L15.1793 48.3561L16.2098 48.4587L16.8282 48.3561L17.6526 48.5614H18.9923V47.1241L18.58 45.9947L19.0953 45.5841H18.9923L18.6831 45.3787L18.7861 43.4281L18.477 43.1201V42.9147C18.1678 42.7094 18.0648 42.4014 18.0648 42.1961V42.0934L18.477 40.6561L18.58 40.5534C18.8892 40.2454 18.8892 40.0401 18.8892 40.0401L19.0953 39.4241L19.7136 39.7321C21.2594 40.4507 21.4655 40.6561 21.4655 41.0667V41.1694L21.3625 41.4774C21.5686 41.8881 21.6716 42.1961 21.6716 42.5041V42.8121C21.5686 43.0174 21.5686 43.1201 21.5686 43.3254L21.7747 43.5307L21.6716 44.1467L21.7747 44.7627L21.3625 45.3787L21.5686 46.4054L21.3625 47.7401L21.6716 48.1507L21.3625 48.6641L21.5686 49.1774H21.8777L22.496 48.7667L25.8967 48.8694L28.9883 48.7667H31.7707C32.389 48.7667 32.8012 49.1774 32.8012 49.6907C32.8012 49.9987 32.6982 50.6147 31.5646 50.8201H31.3585L31.1524 50.7174H31.0494C30.9463 50.7174 30.9463 50.7174 30.8433 50.8201L30.6371 51.0254L29.8127 50.8201H28.7822C28.1639 51.1281 27.5456 51.3334 26.9273 51.3334H26.8242L26.2059 51.2307L25.7937 51.6414H24.6601L24.454 51.7441H24.351L24.1449 52.2574L23.2174 52.3601C23.1143 52.3601 22.8052 52.2574 22.2899 52.2574C22.0838 52.4627 21.8777 52.4627 21.7747 52.4627C21.5686 52.4627 21.4655 52.3601 21.3625 52.2574H21.1563L20.9502 52.4627L20.8472 54.5161L20.9502 55.8507L20.7441 57.8014V59.7521L20.8472 60.7787V61.4974L21.3625 62.6267V62.9347C21.3625 63.2427 21.5686 63.6534 22.0838 64.0641L22.1869 64.1667L22.2899 64.3721L23.0113 64.5774L23.6296 65.1934L25.0723 65.5014L27.4425 64.9881L28.0608 65.1934L29.6066 64.4747L30.5341 64.5774L30.6371 64.6801C30.9463 64.9881 31.1524 65.2961 31.1524 65.7067C31.1524 66.1174 30.8433 66.5281 30.328 66.9387L30.1219 67.1441L29.8127 67.0414L29.1944 67.5547L27.5456 67.7601L26.8242 68.1707L26.2059 67.8627C25.8967 67.8627 25.3815 67.9654 24.7632 67.9654ZM23.5265 66.7334H23.9388L24.8662 66.9387C25.3815 66.9387 25.7937 66.8361 26.2059 66.6307L26.5151 66.5281L27.0303 66.8361L27.3395 66.6307L28.8853 66.4254L29.7097 65.7067L30.0188 65.8094L30.1219 65.7067V65.6041H29.8127L28.1639 66.4254L27.4425 66.2201L25.1754 66.7334L23.1143 66.3227L22.496 65.6041L21.5686 65.3987L21.9808 65.9121L23.5265 66.7334ZM20.7441 64.1667L21.2594 64.7827L21.5686 65.1934L21.3625 64.7827C21.0533 64.4747 20.7441 64.1667 20.538 63.8587L20.7441 64.1667ZM19.9197 62.1134L20.3319 63.3454C20.3319 63.2427 20.2289 63.0374 20.2289 62.9347V62.8321L19.8167 61.8054L19.9197 62.1134ZM19.6106 60.1627L19.8167 61.2921V60.6761L19.7136 59.8547L19.6106 60.1627ZM19.5075 58.7254L19.7136 58.9307V57.4934L19.5075 57.5961L19.6106 58.2121L19.5075 58.7254ZM19.6106 55.4401L19.8167 55.9534L19.7136 54.6187L19.6106 55.4401ZM18.8892 51.1281C19.3014 51.1281 19.7136 51.4361 19.8167 52.1547V52.6681V52.0521L20.538 51.3334L21.5686 51.2307V51.1281H21.9808C22.393 51.1281 22.7021 51.2307 22.9082 51.2307L23.0113 50.9227H23.8357L25.2784 50.2041V50.5121L25.4845 50.3067L26.6181 50.5121C27.1334 50.5121 27.5456 50.4094 28.0608 50.1014L25.5876 50.2041L22.496 50.1014L21.9808 50.5121H20.538L20.1258 49.0747L20.0228 50.1014H17.4465L16.7251 49.8961L16.2098 49.9987V50.8201H16.8282L17.5495 51.3334L18.1678 51.1281L18.58 51.3334C18.58 51.1281 18.7861 51.1281 18.8892 51.1281ZM19.9197 46.7134L20.1258 47.2267V47.7401L20.2289 46.6107L20.1258 46.3027C20.1258 46.3027 20.1258 46.4054 20.0228 46.5081L19.9197 46.7134ZM19.9197 45.1734L20.0228 45.2761L20.435 44.6601V44.0441C20.3319 43.9414 20.3319 43.7361 20.3319 43.5307C20.3319 43.3254 20.3319 43.0174 20.435 42.8121C20.435 42.7094 20.435 42.5041 20.1258 41.9907L20.0228 41.7854L20.1258 41.4774C20.0228 41.3747 19.8167 41.2721 19.6106 41.1694C19.6106 41.2721 19.5075 41.2721 19.5075 41.3747L19.3014 42.0934L19.8167 42.1961L19.6106 42.9147L20.0228 43.4281L19.9197 45.1734ZM63.8199 55.4401C63.8199 55.6454 63.7169 55.8507 63.5108 55.9534L62.7894 55.7481L61.965 56.3641L60.9345 56.2614C60.5223 56.5694 60.1101 56.6721 59.5948 56.6721C59.1826 56.6721 58.9765 56.7747 58.8734 56.8774C58.4612 56.6721 58.1521 56.6721 57.7399 56.6721C57.4307 56.6721 57.2246 56.7747 57.1216 56.9801C57.2246 57.0827 57.3277 57.2881 57.4307 57.3907L57.3277 57.9041L57.4307 59.4441L58.049 60.3681L58.1521 61.1894L59.1826 62.7294L58.9765 63.4481L59.6979 64.0641L60.8314 65.9121C61.4497 66.5281 61.7589 67.0414 61.862 67.3494L62.6864 67.7601L62.9955 68.4787L63.3047 68.6841L62.6864 69.0947L61.965 68.4787H61.5528L60.9345 68.1707H60.5223L60.1101 67.3494L59.6979 67.1441C59.2856 66.4254 58.8734 65.8094 58.4612 65.3987V64.9881L58.049 64.5774V63.8587L57.3277 63.1401L56.2971 60.7787L55.988 60.3681L55.7819 59.2387C55.7819 59.1361 55.5758 58.7254 55.1636 58.1094V57.0827H54.6483L54.03 57.4934L53.1025 57.2881L52.4842 57.6987L52.2781 57.4934L51.7628 57.8014L51.6598 57.4934C51.5567 57.4934 51.4537 57.4934 51.1445 57.5961C50.9384 57.6987 50.6293 57.6987 50.4232 57.6987H48.9804L48.156 58.2121L47.3316 58.0067L46.198 58.1094V58.3147L45.7858 58.1094L45.1675 58.4174L44.7553 58.1094H44.0339L43.3126 58.4174L42.3851 57.6987L42.0759 57.9041L41.4576 57.6987C40.9424 57.9041 40.221 58.7254 39.2935 60.0601L38.5722 60.2654C37.3355 62.2161 36.6142 63.1401 36.5111 63.1401L36.0989 63.3454L34.7592 65.0907H34.5531L33.4196 66.9387L32.1829 67.7601L31.2555 67.5547L31.4616 67.1441V66.5281L31.7707 66.1174L31.5646 65.7067L32.389 65.6041L33.0073 65.2961C33.5226 65.0907 33.8318 64.6801 33.9348 64.1667C34.5531 63.9614 34.9653 63.6534 35.0684 63.0374C35.7898 62.6267 36.305 61.9081 36.6142 60.8814L37.2325 60.6761L38.7783 58.3147V57.6987C38.5722 57.4934 38.3661 57.2881 38.263 56.9801L39.1905 56.1587V55.8507L40.3241 55.9534L40.9424 55.5427L41.0454 55.7481L41.6637 54.9267C41.5607 54.9267 41.4576 54.8241 41.4576 54.7214C41.4576 54.6187 41.6637 54.4134 42.0759 54.2081L42.282 54.5161C42.282 54.1054 42.4881 53.6947 42.7973 53.1814L42.6942 53.0787H43.2095L43.4156 52.4627C43.8278 52.4627 44.0339 52.2574 44.0339 51.9494V51.4361C44.7553 50.8201 45.1675 50.2041 45.1675 49.6907V49.5881L45.7858 49.4854L45.8889 48.8694L46.198 48.7667L46.7133 47.7401L47.0224 47.9454L46.7133 47.2267C47.1255 47.2267 47.4347 46.9187 47.4347 46.3027L47.7438 46.5081V45.5841H48.053V44.9681L48.5682 44.4547C48.8774 44.2494 49.0835 43.8387 49.0835 43.4281L49.5987 42.9147L49.2896 42.1961C49.7018 41.5801 50.114 41.3747 50.5262 41.3747H50.6293L50.9384 40.9641L51.2476 41.4774C51.3506 41.5801 51.4537 41.6827 51.6598 41.7854L52.4842 42.1961L52.5873 43.4281C52.7934 43.6334 52.9995 43.9414 53.2056 44.3521L53.6178 44.4547L53.7208 45.4814L54.133 46.9187L54.7514 48.0481L55.1636 49.5881L55.2666 50.6147L55.8849 51.5387L55.6788 51.9494L56.1941 52.5654V53.2841L56.2971 53.9001C56.2971 54.0027 56.1941 54.2081 56.091 54.4134C56.6063 55.5427 57.1216 56.0561 57.7399 56.0561L58.6673 55.8507H59.8009C60.1101 55.9534 60.4192 55.9534 60.6253 55.9534C61.0375 55.9534 61.3467 55.8507 61.5528 55.6454C61.7589 55.4401 61.965 55.3374 61.965 55.3374C62.0681 55.3374 62.3772 55.4401 62.7894 55.7481L63.8199 55.4401ZM54.8544 54.3107C54.6483 53.7974 54.4422 53.4894 54.133 53.2841L54.3391 52.6681L53.7208 52.2574L53.5147 50.5121L52.8964 49.5881L52.7934 48.8694L52.5873 48.2534V48.0481H52.4842L52.3812 47.0214C52.3812 46.9187 52.2781 46.7134 52.1751 46.5081L51.8659 45.9947C51.7628 45.8921 51.6598 45.7894 51.4537 45.6867C51.2476 45.5841 50.9384 45.3787 50.5262 45.1734L50.011 45.4814L49.7018 45.9947L48.5682 47.5347L48.2591 48.0481C48.156 48.1507 47.8469 48.5614 47.1255 49.2801L46.9194 49.9987L45.8889 50.5121C45.6828 51.7441 45.1675 52.3601 44.4461 52.5654L44.0339 54.0027L43.2095 54.4134V54.9267L43.1065 55.4401C43.6217 55.6454 44.0339 55.7481 44.24 55.9534H44.8583L45.7858 56.1587C45.9919 56.2614 46.095 56.2614 46.198 56.2614C46.3011 56.2614 46.6102 56.2614 46.8163 56.1587H47.0224C47.0224 56.1587 47.2285 56.1587 47.3316 56.2614C47.5377 56.3641 47.7438 56.3641 47.8469 56.3641L48.4652 56.2614L50.3201 56.1587L51.8659 55.9534C52.7934 56.0561 53.4117 56.1587 53.7208 56.1587C54.4422 56.1587 54.8544 55.9534 54.8544 55.6454C54.8544 55.4401 54.7514 55.1321 54.4422 54.8241L54.8544 54.3107Z" fill="white"/>
<path d="M62.7885 69.916L61.8611 69.1974H61.4489L60.8306 68.684H60.2122L59.697 67.76L59.1817 67.5547L59.0787 67.3494C58.8122 66.7333 58.4271 66.1752 57.9451 65.7067L57.842 65.604V65.1934L57.4298 64.7827V64.064L56.8115 63.3454L55.781 60.984L55.3688 60.4707L55.1627 59.136C55.1627 59.0334 55.0596 58.828 54.6474 58.212L54.5444 58.1094V57.596L54.0291 57.904L53.1016 57.6987L52.2772 58.212L52.0711 58.0067L51.3498 58.52L51.1436 58.0067C50.8345 58.1094 50.5253 58.212 50.2162 58.212H48.9796L48.1551 58.7254L47.1246 58.52H46.5063V59.136L45.5788 58.6227L44.9605 58.9307L44.4453 58.52H44.033L43.0025 58.9307L42.3842 58.52L42.1781 58.6227L41.4567 58.3147C41.1476 58.52 40.6323 59.0334 39.7049 60.4707L39.6018 60.676L38.8804 60.8814C37.2316 63.448 36.9224 63.756 36.7163 63.8587L36.5102 63.9614L35.0675 65.7067H34.8614L33.8309 67.3494L32.2851 68.2734L30.5332 67.76L30.9454 66.836V66.1174L31.1515 65.8094L30.8424 65.0907L32.3881 64.8854L32.9034 64.5774C33.2126 64.4747 33.4187 64.1667 33.5217 63.756L33.6248 63.448L33.9339 63.3454C34.4492 63.2427 34.6553 62.9347 34.6553 62.7294V62.524L34.8614 62.4214C35.4797 62.1134 35.8919 61.4974 36.098 60.676L36.2011 60.368L36.9224 60.06L38.2621 58.0067V57.6987C38.056 57.4934 37.953 57.288 37.8499 56.98L37.7469 56.672L38.7774 55.748V55.0294L40.3232 55.2347L41.1476 54.7214V54.516C41.1476 54.208 41.4567 53.9 42.0751 53.4894L42.1781 53.3867C42.1781 53.284 42.2812 53.1814 42.2812 53.0787L41.2506 52.36L43.0025 52.2574L43.2086 51.6414H43.7239V50.9227L43.93 50.7174C44.5483 50.204 44.8575 49.6907 44.8575 49.3827V48.7667L45.5788 48.6641L45.6819 48.048L46.0941 47.9454L46.5063 47.2267L46.3002 46.7134H47.0216C47.1246 46.7134 47.2277 46.7134 47.3307 46.3027L47.4338 45.4814L47.6399 45.5841V45.0707H47.949V44.7627L48.1551 44.5574C48.1551 44.5574 48.3612 44.4547 48.6704 44.0441C48.8765 43.8387 48.9795 43.6334 49.0826 43.3254V43.1201L49.4948 42.7094L48.7734 42.0934L48.9796 41.7854C49.4948 41.1694 49.907 40.8614 50.4223 40.7587L51.0406 39.8347L51.762 40.9641L51.9681 41.1694L52.9986 41.6827L53.1016 43.0174C53.3077 43.2227 53.4108 43.428 53.6169 43.736L54.1322 43.9414L54.2352 45.276L54.5444 46.6107L55.1627 47.6374L55.5749 49.28L55.6779 50.1014L56.5024 51.128L56.2963 51.436L56.7085 51.8467V52.668L56.8115 53.3867C56.8115 53.592 56.8115 53.6947 56.7085 53.9C57.0176 54.6187 57.3268 54.9267 57.739 55.0294L58.6665 54.824H60.0061C60.3153 54.9267 60.5214 54.9267 60.7275 54.9267C61.0367 54.9267 61.1397 54.9267 61.3458 54.824C61.758 54.516 61.8611 54.4134 62.1702 54.4134C62.3763 54.4134 62.5824 54.516 63.2008 54.824L64.6435 54.7214V55.44C64.6435 55.8507 64.4374 56.2614 64.0252 56.4667L63.8191 56.5694L63.0977 56.364L62.2733 56.98L61.2428 56.8774C60.8306 57.1854 60.3153 57.288 59.8 57.288H59.4909L59.2848 57.6987L58.8726 57.4934C58.6665 57.3907 58.5634 57.3907 58.3573 57.288L58.1512 58.0067L58.2542 59.3414L58.8726 60.2654L58.9756 61.0867L59.9031 62.6267L59.8 63.2427L60.3153 63.756L61.4489 65.604C62.0672 66.3227 62.2733 66.6307 62.3763 66.9387L63.2008 67.3494L63.5099 68.1707L64.3343 68.7867L62.7885 69.916ZM61.758 68.068H62.0672L61.4489 67.76L61.3458 67.5547C61.3458 67.452 61.1397 67.144 60.4183 66.3227L60.3153 66.22L59.2848 64.4747L58.5634 63.6534L58.7695 62.9347L57.842 61.4974L57.6359 60.5734L57.0176 59.6494L56.8115 57.8014L56.9146 57.596C56.8115 57.4934 56.7085 57.3907 56.7085 57.1854L56.6054 56.98L56.7085 56.7747C56.8115 56.5694 56.9146 56.364 57.3268 56.1587C56.7085 55.9534 56.0902 55.3374 55.6779 54.208L55.5749 53.9L55.781 53.6947C55.884 53.592 55.884 53.592 55.884 53.4894L55.781 52.8734V52.36L55.1627 51.6414L55.3688 51.2307L54.8535 50.512L54.7505 49.3827L54.3383 47.9454L53.72 46.816L53.3077 45.276L53.2047 44.5574L52.8955 44.4547H52.6894C52.4833 43.9414 52.2772 43.8387 52.2772 43.736L52.0711 43.6334L51.9681 42.5041L51.4528 42.2987C51.2467 42.1961 51.1436 42.0934 51.0406 41.9907H50.6284C50.5253 41.9907 50.4223 41.9907 50.0101 42.4014L50.3192 43.1201L49.5979 43.8387C49.4948 44.3521 49.2887 44.66 48.8765 44.968C48.6704 45.0707 48.5673 45.1734 48.5673 45.276V46.2H48.2582V46.816L49.0826 45.6867L49.4948 44.968L50.4223 44.4547L50.6284 44.5574C51.0406 44.7627 51.3498 44.9681 51.5559 45.0707C51.762 45.2761 51.9681 45.3787 52.0711 45.5841L52.3803 46.0974C52.5864 46.4054 52.6894 46.6107 52.6894 46.9187V47.432H52.8955V48.1507L53.2047 48.7667L53.3077 49.4854L53.9261 50.4094L54.1322 52.052L54.9566 52.4627L54.7505 53.0787C54.9566 53.284 55.1627 53.6947 55.3688 54.1054L55.4718 54.516L55.0596 54.824C55.1627 55.0294 55.2657 55.3374 55.2657 55.5427C55.2657 55.8507 55.1627 56.2614 54.5444 56.4667H55.5749V57.8014C56.0902 58.6227 56.1932 58.828 56.1932 58.9307L56.2963 59.9574L56.6054 60.2654L57.6359 62.6267L58.4604 63.448V64.1667L58.8726 64.5774V65.0907C59.2848 65.5014 59.5939 66.0147 59.9031 66.6307L60.3153 66.836L60.7275 67.452H61.0367L61.758 68.068ZM31.9759 67.144H32.079L33.0065 66.6307L33.6248 65.604C33.5217 65.7067 33.4187 65.7067 33.2126 65.8094L32.5942 66.1174H32.2851L31.8729 66.6307V67.144H31.9759ZM34.3461 64.5774H34.4492L34.5522 64.372C34.5522 64.4747 34.4492 64.4747 34.3461 64.5774ZM37.0255 61.292C36.9224 61.4974 36.9224 61.6 36.8194 61.8054C36.9224 61.6 37.0255 61.4974 37.2316 61.1894L37.0255 61.292ZM38.9835 57.0827L39.0865 57.1854L39.2926 57.3907V58.52L38.4682 59.8547L38.8804 59.752C39.8079 58.3147 40.5293 57.596 41.1476 57.288L41.3537 57.1854L41.972 57.3907L42.4873 56.98L43.2086 57.6987L43.7239 57.4934H44.7544L45.0636 57.6987L45.5788 57.3907L45.7849 57.4934L47.2277 57.3907L47.949 57.4934L48.6704 56.98H50.3192C50.5253 56.98 50.7314 56.98 50.8345 56.8774C51.1436 56.7747 51.3498 56.672 51.5559 56.672H51.9681V56.7747L52.2772 56.5694L52.4833 56.7747L52.9986 56.4667L53.9261 56.672L54.3383 56.364H53.72C53.5138 56.364 53.1016 56.364 51.865 56.1587L50.4223 56.364L48.5673 56.672L47.949 56.7747H47.846C47.6399 56.7747 47.3307 56.7747 47.1246 56.672H46.8155C46.5063 56.7747 46.1971 56.7747 45.991 56.7747C45.888 56.7747 45.6819 56.7747 45.3727 56.672L44.7544 56.4667L44.033 56.5694L43.93 56.4667C43.8269 56.364 43.5178 56.2614 42.8995 56.056H42.6934V56.1587L42.5903 56.056L42.3842 55.8507L42.4873 55.6454L42.1781 55.132L41.0445 56.5694L40.7354 56.1587L40.4262 56.4667H39.7049L38.9835 57.0827ZM58.3573 56.1587C58.4604 56.1587 58.6665 56.2614 58.7695 56.2614C58.9756 56.1587 59.2848 56.056 59.5939 56.056H58.6665L58.3573 56.1587ZM47.0216 55.5427C47.1246 55.5427 47.2277 55.5427 47.5368 55.6454C47.6399 55.6454 47.7429 55.748 47.846 55.748L48.4643 55.6454L50.3192 55.5427L51.865 55.3374H51.9681C53.1016 55.44 53.5138 55.44 53.72 55.44H54.2352C54.2352 55.3374 54.1322 55.2347 54.0291 55.132L53.72 54.7214L54.3383 54.208C54.2352 54.0027 54.1322 53.9 54.0291 53.7974L53.6169 53.592L53.823 52.976L53.4108 52.7707L53.2047 50.82L52.5864 49.896L52.4833 49.0747L52.2772 48.5614H52.0711L51.9681 47.0214C51.9681 47.0214 51.9681 46.9187 51.865 46.816L51.3498 46.2L51.1436 45.9947C51.0406 45.892 50.9375 45.7894 50.6284 45.6867L50.5253 45.7894L50.2162 46.2L49.0826 47.74L48.7734 48.2534C48.6704 48.356 48.5673 48.5614 48.1551 48.972L48.3612 49.3827L48.0521 49.1774L47.6399 49.588L47.4338 50.4094L46.4032 50.9227C46.0941 52.052 45.6819 52.7707 44.9605 53.0787L44.5483 54.4134L43.7239 54.7214V55.132C44.033 55.2347 44.2391 55.3374 44.3422 55.44H44.8575L45.888 55.748L46.0941 55.8507C46.0941 55.8507 46.3002 55.8507 46.6093 55.748C46.7124 55.5427 46.9185 55.5427 47.0216 55.5427ZM43.2086 53.4894C43.1056 53.592 43.1056 53.7974 43.0025 53.9L43.7239 53.592L44.033 52.668C44.033 52.668 43.93 52.668 43.8269 52.7707L43.6208 53.3867L43.2086 53.4894ZM44.5483 51.5387V52.1547C44.9605 52.052 45.3727 51.436 45.4758 50.512V50.3067C45.2697 50.6147 44.9605 51.0254 44.5483 51.5387ZM45.5788 49.896C45.5788 49.9987 45.4758 50.1014 45.4758 50.204L46.5063 49.6907L46.7124 49.0747L46.8155 48.972L47.1246 48.6641L46.9185 48.4587L46.5063 48.972L46.3002 49.0747L46.1971 49.7934L45.5788 49.896ZM47.4338 47.5347L47.6399 47.9454L47.7429 47.8427L48.0521 47.3294L47.846 47.2267C47.7429 47.3294 47.6399 47.432 47.4338 47.5347ZM97.311 47.2267L96.6927 48.2534L96.7958 48.972L97.0019 48.8694C97.0019 49.0747 96.8988 49.4854 96.6927 49.9987L96.3836 50.6147V52.976L95.9714 54.0027L96.0744 54.7214L95.6622 56.8774L95.8683 57.3907L95.4561 59.136L95.5591 59.8547L95.25 61.0867L95.5591 62.216L94.8378 63.3454L95.0439 63.9614L94.6317 64.7827L94.8378 65.1934L95.0439 67.3494L95.353 68.068C95.1469 68.1707 94.9408 68.376 94.8378 68.684L94.3225 68.7867L94.1164 66.4254L93.8073 66.3227C93.8073 66.0147 93.8073 65.8094 93.7042 65.5014V63.756C93.7042 63.448 93.7042 63.14 93.6012 63.0374L93.292 62.4214L92.3645 62.3187L91.8493 61.6L91.6432 61.908L91.231 61.3947L90.4065 61.6L89.4791 60.8814L88.9638 60.984L88.0363 60.7787L87.5211 60.1627L87.2119 60.2654L84.3265 58.52L84.0173 58.1094L82.9868 57.6987L82.3685 56.8774L81.8532 56.5694L81.1318 55.8507L78.9677 54.9267L77.422 52.976H76.8036L76.3914 52.36C75.9792 52.1547 75.464 51.744 74.8457 51.128H75.0518C74.7426 50.82 74.5365 50.512 74.3304 49.9987L74.0212 49.896H73.9182C73.609 49.896 73.4029 49.9987 73.2999 50.204C73.1968 50.4094 73.0938 50.9227 72.9907 51.5387L72.5785 53.9L72.9907 55.3374L72.2693 57.904C72.4755 58.828 72.5785 59.444 72.5785 59.444V59.6494C72.5785 60.06 72.4755 60.368 72.2693 60.5734C72.0632 60.7787 71.9602 60.984 71.9602 61.0867C71.9602 61.1894 72.1663 61.292 72.5785 61.3947L72.2693 62.4214V63.5507L72.0632 64.8854L72.2693 65.3987L72.0632 65.7067C71.9602 66.6307 71.7541 67.3494 71.4449 67.8627H71.1358C70.7236 67.8627 70.5175 67.5547 70.5175 66.9387V66.7334L71.1358 64.8854L70.9297 64.1667L71.2388 63.14L70.9297 62.7294L71.3419 62.0107L70.8266 61.292C70.9297 60.8814 70.9297 60.676 70.9297 60.368C70.9297 60.1627 70.9297 59.752 70.8266 59.3414L71.0327 59.444L71.2388 59.0334L70.8266 58.3147L71.2388 57.1854L71.0327 55.748L71.2388 54.4134L70.9297 53.3867L71.2388 51.128V49.3827L71.4449 47.74L71.2388 47.2267V44.968L71.7541 44.8654C71.3419 44.4547 71.1358 44.1467 71.1358 43.736C71.1358 43.5307 71.2388 43.428 71.4449 43.2227L72.2693 43.428L72.4754 43.1201C72.7846 43.3254 72.8877 43.6334 72.8877 43.8387C72.8877 44.0441 72.7846 44.2494 72.6816 44.4547H73.2999L73.4029 45.5841L74.0212 46.0974L74.1243 46.816L74.8457 47.3294L75.0518 48.2534C75.1548 48.664 75.2579 48.8694 75.567 49.0747L77.1128 50.204V50.3067C77.1128 50.512 77.3189 50.82 77.6281 51.128L78.7616 51.8467L79.8952 53.1814L83.6051 56.2614H84.0173C84.3265 56.5694 84.5326 56.7747 84.6356 56.98C84.7387 57.1854 84.8417 57.288 84.8417 57.3907L86.3875 57.904L87.6241 58.9307L88.3455 59.136L89.6852 59.8547L90.9218 60.2654C91.7462 61.0867 92.3645 61.3947 92.8798 61.3947L93.6012 61.1894H93.7042L93.8073 59.8547L94.4256 58.4174L94.1164 58.1094L94.2195 55.9534L94.7347 55.132L94.6317 54.6187C94.6317 54.516 94.4256 54.1054 94.2195 53.6947L94.7347 51.8467L94.5286 50.1014L94.9408 46.7134L94.5286 46.2L95.1469 44.2494L94.9408 44.0441L95.25 43.6334L95.1469 43.3254L95.8683 43.0174L95.9714 43.3254L96.5897 43.2227C96.4866 43.5307 96.4866 43.8387 96.4866 44.0441C96.4866 44.3521 96.5897 44.6601 96.6927 44.8654C96.7958 45.0707 96.8988 45.2761 96.8988 45.3787L96.6927 46.2L97.311 47.2267Z" fill="white"/>
<path d="M95.0432 69.5054L93.8066 69.1974L93.6004 66.836L93.2913 66.7334V66.3227C93.2913 66.0147 93.1882 65.7067 93.1882 65.3987V63.6534C93.1882 63.3454 93.0852 63.14 93.0852 63.14L92.8791 62.9347L92.0547 62.832L91.8486 62.524L91.6425 62.832L91.0241 62.0107L90.3028 62.216L89.3753 61.4974L88.9631 61.6L87.7265 61.3947L87.3143 60.8814L87.0051 60.984L83.8105 58.9307L83.6044 58.52L82.5739 58.1094L81.9556 57.288L81.4403 56.98L80.7189 56.2614L78.5548 55.3374L77.1121 53.4894H76.3907L75.9785 52.8734C75.4633 52.668 75.051 52.1547 74.4327 51.5387L73.7114 50.7174C73.6083 50.9227 73.6083 51.2307 73.5053 51.8467L73.0931 54.1054L73.5053 55.5427L72.7839 58.0067C73.0931 59.3414 73.0931 59.444 73.0931 59.5467V59.752C73.0931 60.2654 72.99 60.676 72.6809 60.984L73.1961 61.1894L72.7839 62.6267V63.8587L72.5778 64.988L72.887 65.604L72.5778 66.1174C72.4747 67.0414 72.2686 67.8627 71.8564 68.4787L71.6503 68.684H71.032C70.7229 68.684 69.8984 68.5814 69.8984 67.2467V66.7334L70.4137 64.988L70.2076 64.2694L70.5168 63.448L70.2076 62.9347L70.6198 62.1134L70.1045 61.4974V61.292C70.2076 60.984 70.2076 60.676 70.2076 60.4707C70.2076 60.2654 70.2076 59.9574 70.1045 59.5467L69.8984 58.52L70.1045 58.6227L70.0015 58.4174L70.4137 57.288L70.2076 55.9534L70.5168 54.516L70.2076 53.4894L70.5168 51.128V49.3827L70.7229 47.8427L70.5168 47.3294L70.6198 44.5574H70.7229C70.6198 44.352 70.5168 44.044 70.5168 43.8387C70.5168 43.6334 70.6198 43.2227 71.032 42.9147L71.2381 42.7094L71.9595 42.9147L72.2686 42.4014L72.6809 42.812C73.0931 43.12 73.2992 43.5307 73.2992 43.9414V44.044H73.7114L73.8144 45.3787L74.3297 45.892L74.4327 46.508L75.1541 46.9187L75.4633 48.048C75.5663 48.2534 75.6694 48.4587 75.7724 48.5614L77.5243 49.7934V50.3067C77.5243 50.3067 77.6274 50.512 77.8335 50.7174L78.967 51.436L80.2037 52.8734L83.7074 55.748H84.1196L84.2227 55.8507C84.6349 56.1587 84.9441 56.4667 85.0471 56.8774V56.98L86.4898 57.4934L87.7265 58.52L88.3448 58.7254L89.6845 59.444L91.0241 59.8547L91.1272 59.9574C91.9516 60.7787 92.4669 60.984 92.673 60.984L93.0852 60.8814L93.1882 59.8547L93.7035 58.7254L93.4974 58.52L93.7035 55.9534L94.2188 55.2347V54.9267C94.2188 54.9267 94.1157 54.7214 93.8066 54.208L93.7035 54.0027L94.2188 52.052L94.0127 50.4094L94.4249 47.2267L93.9096 46.3027L94.5279 44.352L94.2188 44.044L94.631 43.5307L94.5279 43.0174L96.1768 42.196L96.3829 42.7094L97.5164 42.504L97.3103 43.428C97.2073 43.736 97.2073 43.9414 97.2073 44.1467C97.2073 44.352 97.2073 44.5574 97.3103 44.66C97.5164 45.0707 97.6195 45.276 97.6195 45.3787V45.4814L97.3103 46.2L97.9286 47.3294L97.4134 48.1507L97.5164 48.048V48.8694C97.5164 49.1774 97.4134 49.588 97.1042 50.204L97.0012 50.7174V53.0787L96.4859 54.1054L96.589 54.7214L96.1768 56.7747L96.3829 57.288L95.9706 59.136L96.0737 59.9574L95.7645 61.0867L96.1768 62.3187L95.4554 63.448L95.6615 64.064L95.2493 64.7827L95.3523 65.0907L95.5584 67.3494L96.0737 68.376L95.6615 68.684L95.3523 68.992L95.0432 69.5054ZM71.1351 66.9387V67.3494C71.3412 66.9387 71.4442 66.3227 71.5473 65.7067V65.604L71.1351 66.9387ZM71.4442 64.2694L71.5473 64.5774L71.7534 63.5507V63.448L71.4442 64.2694ZM94.2188 63.5507V64.2694L94.3218 64.064L94.2188 63.5507ZM94.0127 62.7294C94.1157 62.832 94.1157 63.0374 94.2188 63.2427L94.9401 62.1134L94.631 60.984L94.9401 59.752L94.8371 59.0334L94.3218 60.06L94.2188 61.8054H93.6004L93.2913 61.908H93.4974L94.0127 62.7294ZM71.5473 62.832L71.7534 63.0374V62.4214L71.5473 62.832ZM71.3412 61.292L71.8564 62.0107L71.9595 61.8054C71.6503 61.7027 71.4442 61.4974 71.4442 61.1894C71.4442 60.984 71.5473 60.676 71.8564 60.368C71.9595 60.2654 72.0625 60.06 72.0625 59.8547V59.6494C72.0625 59.5467 72.0625 59.3414 71.7534 58.1094V58.0067L72.3717 55.6454L71.9595 54.208L72.3717 51.6414C72.5778 50.6147 72.6809 50.3067 72.7839 50.1014C72.887 49.896 73.1961 49.4854 73.9175 49.4854H74.1236L74.7419 49.6907L74.8449 49.896C75.0511 50.3067 75.2572 50.6147 75.4633 50.82L76.4938 51.744H76.1846C76.2877 51.8467 76.4938 51.9494 76.4938 51.9494L76.5968 52.052L76.906 52.4627H77.5243L79.0701 54.516L81.1311 55.44L81.9556 56.2614L82.5739 56.5694L83.1922 57.288L84.2227 57.6987L84.5319 58.1094L87.1082 59.752L87.5204 59.6494L88.1387 60.368L88.757 60.4707L89.1692 60.368L87.8295 59.6494L87.1082 59.444L85.8715 58.4174L84.5319 58.0067C84.2227 57.904 84.0166 57.596 83.9135 57.288C83.9135 57.1854 83.8105 57.0827 83.6044 56.8774H83.1922L79.4823 53.592L78.4518 52.2574L77.4213 51.5387C77.009 51.128 76.8029 50.82 76.8029 50.512L75.4633 49.4854C75.1541 49.1774 74.948 48.8694 74.7419 48.356L74.5358 47.6374L73.7114 47.124L73.6083 46.4054L72.99 45.892L72.887 45.1734L71.8564 45.4814V47.2267L72.0625 47.74L71.8564 49.4854V51.2307L71.5473 53.3867L71.8564 54.4134L71.5473 55.9534L71.7534 57.3907L71.4442 58.4174L71.8564 59.136L71.4442 60.06V60.5734C71.4442 60.676 71.3412 60.984 71.3412 61.292ZM89.8906 60.4707L90.5089 60.984L90.818 60.8814L90.6119 60.676L89.8906 60.4707ZM94.734 57.904L95.0432 58.212L95.2493 57.3907L95.0432 56.8774L95.3523 55.44L94.9401 56.1587L94.734 57.904ZM94.9401 53.592C95.2493 54.1054 95.3523 54.4134 95.3523 54.516L95.4554 55.0294L95.5584 54.7214L95.4554 54.0027L95.9706 52.8734V50.512L96.2798 49.7934C96.2798 49.6907 96.3829 49.588 96.3829 49.588L96.1768 48.2534L96.692 47.432L96.1768 46.4054L96.4859 45.4814C96.4859 45.4814 96.3829 45.3787 96.3829 45.276C96.1768 44.968 96.0737 44.5574 96.0737 44.1467V43.9414L95.7645 44.044L95.6615 44.1467L95.7645 44.2494L95.1462 46.2L95.6615 46.7134L95.1462 50.204L95.3523 51.9494L94.9401 53.592ZM73.8144 50.6147H74.0205V50.512C73.9175 50.512 73.8144 50.512 73.8144 50.6147C73.8144 50.512 73.8144 50.512 73.8144 50.6147ZM71.7534 43.9414C71.7534 44.044 71.8564 44.2494 72.1656 44.4547L72.2686 44.2494C72.3717 44.1467 72.3717 44.1467 72.3717 44.044L71.7534 43.9414Z" fill="white"/>
<path d="M107.718 49.4852L111.016 49.5879L114.108 49.4852H116.89C117.199 49.4852 117.405 49.5879 117.405 49.8959C117.405 50.2039 117.199 50.4092 116.684 50.5119C116.581 50.4092 116.478 50.4092 116.272 50.4092C116.066 50.4092 115.86 50.5119 115.654 50.6146L115.035 50.5119H113.799C113.18 50.8199 112.665 51.0252 112.047 51.0252L111.119 50.8199L110.707 51.2306H110.295V50.9226L109.47 51.3332H109.058L108.955 51.7439C108.646 51.6412 108.234 51.6412 107.615 51.5386C107.615 51.7439 107.512 51.8466 107.409 51.8466C107.306 51.8466 107.306 51.7439 107.1 51.6412L106.482 51.7439L106.07 52.2572L105.967 54.5159L106.07 55.8506L105.967 57.5959V59.5466L106.07 60.4706V61.2919L106.276 62.6266V62.8319C106.276 63.3452 106.585 63.8586 107.203 64.3719L107.306 64.7826L108.131 64.9879L108.749 65.6039L110.501 65.9119L112.768 65.3986L113.386 65.6039L115.035 64.8852L115.654 64.9879C115.86 65.1932 115.963 65.3986 115.963 65.6039C115.963 65.8092 115.757 66.1172 115.344 66.3226L115.035 66.2199L114.314 66.8359L112.768 67.0412L112.253 67.3492L111.738 67.0412C111.222 67.3492 110.707 67.4519 110.089 67.4519L109.161 67.2466H108.646L106.894 66.2199L106.07 65.0906L105.554 64.4746L104.73 62.2159L104.318 60.0599L104.524 59.2386L104.112 58.8279L104.318 58.3146L104.215 57.4932L104.73 57.0826L104.524 56.6719L104.627 56.1586L104.421 55.5426L104.524 54.6186L104.421 54.2079L104.627 54.1052V52.3599C104.524 51.9492 104.421 51.7439 104.215 51.7439C104.112 51.7439 104.009 51.8466 103.906 51.9492L103.39 51.7439L102.669 51.9492L101.948 51.4359H101.535C101.123 51.4359 101.02 51.2306 101.02 50.8199V50.1012L100.711 49.8959L100.917 49.4852L101.638 49.5879L102.154 49.4852L102.875 49.6906H104.833L104.936 48.5612V47.4319L104.627 46.6106L105.039 46.3026C105.142 46.0972 105.142 45.9946 105.142 45.9946C105.142 45.7892 105.039 45.5839 104.73 45.4812L104.833 43.6332L104.421 43.0172L104.524 42.6066C104.215 42.5039 104.112 42.4012 104.112 42.1959L104.421 40.9639C104.73 40.6559 104.833 40.4506 104.833 40.3479C105.76 40.7586 106.276 41.0666 106.276 41.1692L106.07 41.5799C106.276 41.9906 106.379 42.4012 106.379 42.6066V42.7092C106.276 42.9146 106.276 43.2226 106.276 43.3252C106.276 43.4279 106.276 43.6332 106.379 43.7359V44.6599L105.967 45.2759L106.276 46.4052L106.07 47.8426L106.276 48.1506L105.967 48.5612L106.379 49.6906H107.203L107.718 49.4852Z" fill="white"/>
<path d="M110.089 67.9653L109.058 67.76H108.44L106.482 66.6306L105.658 65.3986L105.039 64.68L104.112 62.216L103.7 59.9573L103.906 59.2386L103.494 58.7253L103.7 58.0066L103.494 56.98L103.906 56.672L103.803 56.4666L103.906 55.8506L103.7 55.2346L103.803 54.3106L103.7 53.592L104.009 53.3866V52.1546L103.287 51.8466L102.463 52.052L101.639 51.436H101.433C100.711 51.436 100.299 51.0253 100.299 50.3066V49.896L99.8867 49.588L100.402 48.356L101.433 48.4586L102.051 48.356L102.875 48.5613H104.215V47.124L103.803 45.9946L104.318 45.584H104.215L103.906 45.3786L104.009 43.428L103.597 42.812V42.6066C103.287 42.4013 103.184 42.0933 103.184 41.888V41.7853L103.597 40.348L103.7 40.2453C104.009 39.9373 104.009 39.732 104.009 39.732L104.215 39.116L104.833 39.424C106.379 40.1426 106.585 40.348 106.585 40.7586V40.8613L106.482 41.1693C106.688 41.58 106.791 41.888 106.791 42.196V42.504C106.688 42.7093 106.688 42.812 106.688 43.0173L106.894 43.2226L106.791 43.8386L106.894 44.4546L106.482 45.0706L106.688 46.0973L106.482 47.432L106.791 47.8426L106.482 48.356L106.688 48.8693H106.997L107.616 48.4586L111.016 48.5613L114.108 48.4586H116.89C117.509 48.4586 117.921 48.8693 117.921 49.3826C117.921 49.6906 117.818 50.3066 116.684 50.512H116.478L116.272 50.4093H116.169C116.066 50.4093 116.066 50.4093 115.963 50.512L115.757 50.7173L114.932 50.512H113.902C113.283 50.82 112.665 51.0253 112.047 51.0253H111.944L111.326 50.9226L110.913 51.3333H109.78L109.574 51.436H109.471L109.264 51.9493L108.749 51.8466C108.646 51.8466 108.337 51.744 107.822 51.744C107.616 51.9493 107.41 51.9493 107.306 51.9493C107.1 51.9493 106.997 51.8466 106.894 51.744H106.688L106.482 51.9493L106.379 54.0026L106.482 55.3373L106.379 57.0826V59.0333L106.482 60.06V60.7786L106.997 61.908V62.216C106.997 62.524 107.203 62.9346 107.719 63.3453L107.822 63.448L107.925 63.6533L108.646 63.8586L109.264 64.4746L110.707 64.7826L113.077 64.2693L113.696 64.4746L115.241 63.756L116.169 63.8586L116.272 63.9613C116.581 64.2693 116.787 64.5773 116.787 64.988C116.787 65.3986 116.478 65.8093 115.963 66.22L115.757 66.4253L115.448 66.3226L114.829 66.836L113.18 67.0413L112.459 67.452L111.841 67.144C111.222 67.8626 110.707 67.9653 110.089 67.9653ZM108.852 66.7333H109.264L110.192 66.9386C110.707 66.9386 111.119 66.836 111.532 66.6306L111.841 66.528L112.356 66.836L112.665 66.6306L114.211 66.4253L115.035 65.7066L115.345 65.8093L115.448 65.7066V65.604H115.138L113.49 66.4253L112.768 66.22L110.501 66.7333L108.44 66.3226L107.822 65.604L106.894 65.3986L107.306 65.912L108.852 66.7333ZM106.07 64.1666L106.585 64.7826L106.894 65.1933L106.688 64.7826C106.379 64.4746 106.07 64.1666 105.864 63.8586L106.07 64.1666ZM105.245 62.1133L105.658 63.3453C105.658 63.2426 105.555 63.0373 105.555 62.9346V62.832L105.142 61.8053L105.245 62.1133ZM104.936 60.1626L105.142 61.292V60.676L105.039 59.752L104.936 60.1626ZM104.833 58.7253L105.039 58.9306V57.4933L104.833 57.596L104.936 58.212L104.833 58.7253ZM104.936 55.44L105.142 55.9533L105.039 54.6186L104.936 55.44ZM104.215 51.128C104.627 51.128 105.039 51.436 105.142 52.1546V52.668V52.052L105.864 51.3333L106.894 51.2306V51.128H107.306C107.719 51.128 108.028 51.2306 108.234 51.2306L108.337 50.9226H109.058L110.501 50.204V50.512L110.707 50.3066L111.841 50.512C112.356 50.512 112.768 50.4093 113.284 50.1013L110.81 50.204L107.719 50.1013L107.203 50.512H105.761L105.348 49.0746L105.245 50.1013H102.669L101.948 49.896L101.433 49.9986V50.82H102.051L102.772 51.3333L103.39 51.128L103.803 51.3333C103.906 51.128 104.112 51.128 104.215 51.128ZM105.245 46.7133L105.452 47.2266V47.74L105.555 46.6106L105.452 46.3026C105.452 46.3026 105.452 46.4053 105.348 46.508L105.245 46.7133ZM105.245 45.1733L105.348 45.276L105.761 44.66V44.044C105.658 43.9413 105.658 43.736 105.658 43.5306C105.658 43.3253 105.658 43.0173 105.761 42.812C105.761 42.7093 105.761 42.504 105.452 41.9906L105.348 41.7853L105.452 41.4773C105.348 41.3746 105.142 41.272 104.936 41.1693C104.936 41.272 104.833 41.272 104.833 41.3746L104.627 42.196L105.142 42.2986L104.936 43.0173L105.348 43.5306L105.245 45.1733Z" fill="white"/>
<path d="M153.681 63.9613C153.784 64.2693 153.887 64.4746 153.887 64.5773C153.887 64.68 153.784 64.8853 153.475 65.0906C153.166 65.296 152.857 65.604 152.445 65.912L151.929 65.7066L151.311 66.6306C150.796 66.6306 150.28 66.836 149.868 67.0413L148.529 66.7333L147.807 67.0413L147.601 67.452C147.189 67.144 146.88 66.9386 146.777 66.9386C146.674 66.9386 146.674 66.9386 146.674 67.0413H146.467L146.055 67.452L145.643 66.9386L145.334 67.0413C145.025 66.836 144.819 66.7333 144.613 66.7333H143.067L142.655 66.22L142.139 66.3226L141.418 65.912L141.006 66.1173L140.697 65.604H139.975L139.563 65.0906H139.048L138.739 64.7826C138.636 64.5773 138.326 64.372 138.12 64.1666L136.678 63.448C135.853 63.0373 135.235 62.3186 134.72 61.3946H134.204L133.483 60.4706L132.143 59.3413L130.597 57.596L130.185 57.4933L129.464 56.7746C129.361 56.672 129.052 56.5693 128.536 56.364C128.33 56.4666 128.124 56.5693 127.918 56.5693C127.815 56.5693 127.609 56.4666 127.506 56.364H126.888L126.475 55.748C126.681 55.5426 126.785 55.2346 126.785 54.824L127.403 54.6186V54.3106L128.021 54.208C128.227 54.1053 128.433 54.0026 128.639 54.0026C128.743 54.0026 128.846 54.0026 129.052 54.1053C129.155 54.208 129.258 54.208 129.258 54.208C129.258 54.208 129.361 54.208 129.464 54.1053C129.567 54.7213 130.288 54.9266 131.422 54.9266C132.452 54.9266 133.277 54.824 133.792 54.6186V54.4133L137.296 54.3106C138.12 53.9 138.945 53.6946 139.872 53.6946L140.181 53.7973L141.006 53.4893L141.212 53.1813H141.727L142.448 52.8733H142.964C143.273 52.8733 143.376 52.8733 143.479 52.7706C143.582 52.668 143.582 52.5653 143.582 52.4626V52.36C143.994 52.36 144.2 52.2573 144.2 52.1546C145.334 51.8466 145.952 51.3333 145.952 50.6146C145.952 50.3066 145.746 49.896 145.437 49.588L143.891 48.048H143.479C142.758 47.6373 142.345 47.432 142.139 47.432H141.727L140.8 47.0213H140.181L139.563 46.508H138.429L138.017 46.3026L135.441 46.0973L135.029 45.892L134.72 46.0973L134.204 45.892L133.689 46.0973L132.349 45.892L130.907 46.0973L130.185 45.892L129.361 45.9946L128.639 45.892L128.021 46.0973L127.609 45.892L126.785 46.4053L126.166 46.3026C125.96 46.7133 125.754 47.124 125.445 47.432L125.754 48.048L125.651 50.82L125.96 53.1813C125.651 54.3106 125.445 54.9266 125.445 55.2346L125.136 61.292L125.548 64.7826L125.239 66.6306V67.0413C125.239 67.2466 124.93 67.452 124.311 67.452H124.105L124.311 65.604L124.105 64.8853L123.693 62.9346L124.002 62.7293C123.59 62.216 123.384 61.908 123.384 61.8053C123.384 61.4973 123.59 61.1893 123.899 60.8813L123.487 60.1626H123.384C123.384 59.9573 123.59 59.5466 124.002 58.828C123.796 58.6226 123.693 58.3146 123.693 57.904L123.796 57.1853V56.7746C124.002 56.364 124.105 56.056 124.105 55.748C124.105 55.44 124.002 55.132 123.796 54.6186L124.105 53.7973L124.002 53.0786L124.311 52.8733C124.208 52.7706 124.208 52.5653 124.208 52.36C124.208 52.1546 124.311 51.744 124.517 51.2306L124.105 51.3333L123.796 50.1013L124.002 49.1773L123.796 47.2266L124.002 47.0213C123.487 46.508 123.178 46.3026 122.869 46.3026H122.765L122.456 46.6106L121.323 46.508L120.601 47.432C120.292 47.124 119.983 47.0213 119.674 47.0213C119.468 46.7133 119.262 46.4053 119.262 46.3026C119.262 46.2 119.262 45.9946 119.365 45.892C119.468 45.7893 119.571 45.584 119.674 45.4813L120.292 45.0706L121.735 44.8653L123.693 44.7626L124.105 44.4546V44.352C124.105 43.8386 124.517 43.6333 125.239 43.6333H125.857C126.063 44.2493 126.269 44.66 126.681 44.66C126.785 44.66 127.094 44.5573 127.712 44.2493L128.846 44.5573L130.701 44.2493L133.174 44.5573L136.678 44.66L138.429 44.968H139.769L140.284 45.3786C140.284 45.1733 140.387 45.0706 140.594 45.0706C140.697 45.0706 140.903 45.1733 141.006 45.3786C141.006 45.584 141.109 45.7893 141.212 45.892L141.727 45.9946V45.3786L143.582 46.0973L144.2 46.6106L144.303 46.508C144.613 46.7133 145.025 46.816 145.54 46.816L145.849 47.2266L146.261 47.3293C146.777 48.1506 147.189 48.664 147.395 49.0746C147.704 49.4853 147.807 49.7933 147.807 50.1013C147.807 50.7173 147.601 51.128 147.086 51.6413C146.571 52.052 146.055 52.5653 145.54 53.284H144.613C144.509 53.284 144.2 53.3866 143.788 53.592L143.582 54.0026H142.242L141.83 54.3106C141.727 54.4133 141.624 54.4133 141.418 54.516L140.697 54.7213C139.872 54.7213 139.151 55.0293 138.532 55.748L137.811 55.2346L137.193 55.5426C137.09 55.44 136.884 55.44 136.781 55.44C136.574 55.44 136.368 55.5426 136.059 55.8506L135.441 55.5426L134.823 55.8506L134.616 55.5426L133.792 56.056L132.659 55.9533C132.452 55.9533 132.143 55.9533 131.937 56.056L132.349 56.672L133.483 57.6986L133.792 58.3146L135.647 59.752L136.059 60.4706L136.368 60.7786C136.471 60.8813 136.678 61.292 136.987 62.0106H138.223L139.666 63.448L140.387 63.756L141.418 64.372L142.448 64.68L143.891 65.1933L144.406 65.0906L144.613 65.296L144.716 65.1933L144.922 65.5013L145.54 65.3986L145.643 65.912L146.158 65.604L146.674 65.8093L148.322 65.604L148.941 65.8093L151.208 65.3986L152.857 64.988L152.96 65.296L153.269 64.68H153.99L153.681 63.9613Z" fill="white"/>
<path d="M147.703 68.3759L147.188 67.9652C147.085 67.8626 146.982 67.8626 146.982 67.7599L146.57 67.6572L145.952 68.2732L145.436 67.6572L145.127 67.7599L144.921 67.5546C144.818 67.4519 144.612 67.3492 144.509 67.3492H142.757L142.345 66.9386L141.933 67.0412L141.211 66.6306L140.593 66.9386L140.181 66.2199H139.562L139.15 65.7066H138.841C138.429 65.7066 138.223 65.3986 138.12 65.0906C138.017 64.9879 137.914 64.7826 137.707 64.6799L136.265 63.9612C135.44 63.5506 134.719 62.8319 134.204 61.9079H133.688L132.761 60.7786L131.421 59.7519L129.979 58.0066L129.566 57.9039L128.742 57.0826C128.742 57.0826 128.536 56.9799 128.227 56.8772C127.814 57.0826 127.505 57.0826 127.196 56.8772H126.269L125.444 55.6452L125.753 55.3372C125.753 55.3372 125.856 55.1319 125.959 54.7212V54.4132L126.475 54.2079V53.8999L127.402 53.6946C127.814 53.3866 128.227 53.3866 128.742 53.4892L129.257 52.6679L129.566 53.8999C129.669 54.2079 130.185 54.3106 131.009 54.3106C131.73 54.3106 132.349 54.2079 132.864 54.1052V53.8999L136.78 53.7972C137.604 53.3866 138.532 53.1812 139.459 53.1812H139.562L139.768 53.2839L140.181 53.0786L140.49 52.6679L141.211 52.7706L141.933 52.4626H142.551V51.9492L143.066 51.8466H143.169L143.581 51.7439C144.509 51.5386 144.921 51.1279 144.921 50.7172C144.921 50.5119 144.818 50.3066 144.612 50.1012L143.169 48.7666H142.86L142.757 48.6639C141.933 48.1506 141.726 48.0479 141.623 48.0479H141.108L140.181 47.6372H139.562L138.944 47.1239H137.914L137.501 46.9186L134.925 46.7132L134.616 46.5079L134.41 46.6106L133.791 46.4052L133.379 46.5079L131.937 46.3026L130.494 46.6106L129.669 46.3026L128.845 46.4052L128.227 46.3026L127.608 46.6106L127.196 46.5079L126.372 47.0212L125.856 46.9186C125.753 47.1239 125.65 47.3292 125.444 47.5346L125.65 48.0479L125.547 50.8199L125.856 53.1812V53.2839C125.444 54.7212 125.341 55.0292 125.341 55.1319L125.032 61.0866L125.444 64.5772L125.135 66.4252V66.8359C125.135 67.1439 124.929 67.7599 123.692 67.7599H122.765L123.074 65.3986L122.868 64.7826L122.353 62.5239L122.456 62.4212C122.147 62.0106 122.147 61.8052 122.147 61.5999C122.147 61.2919 122.25 60.8812 122.559 60.5732L122.456 60.3679C122.25 60.2652 122.147 60.0599 122.147 59.8546C122.147 59.6492 122.25 59.3412 122.662 58.6226C122.559 58.3146 122.456 58.0066 122.456 57.6986V57.5959L122.559 56.8772V56.4666L122.662 56.3639C122.868 55.9532 122.868 55.7479 122.868 55.6452C122.868 55.5426 122.868 55.2346 122.559 54.8239L122.456 54.6186L122.765 53.7972L122.559 52.9759L122.765 52.7706V52.4626V52.0519H122.662L122.25 50.1012L122.456 49.1772L122.25 47.1239C122.147 47.0212 122.043 46.9186 121.94 46.9186L121.631 47.2266L120.601 47.1239L119.673 48.2532L119.261 47.9452C118.952 47.7399 118.746 47.6372 118.643 47.6372H118.437L118.334 47.4319C118.024 47.0212 117.818 46.6106 117.818 46.3026C117.818 46.0972 117.921 45.7892 118.024 45.5839C118.128 45.3786 118.334 45.1732 118.54 44.9679L119.261 44.4546L120.91 44.2492L122.662 44.1466L122.765 44.0439C122.765 43.6332 123.074 42.9146 124.414 42.9146H125.444L125.547 43.3252C125.65 43.6332 125.753 43.8386 125.856 43.8386C125.959 43.8386 126.166 43.7359 126.681 43.5306L126.887 43.4279L128.124 43.7359L129.979 43.4279L132.452 43.7359L135.956 43.8386L137.604 44.1466H139.047L139.356 44.3519C139.459 44.3519 139.562 44.2492 139.665 44.2492C139.872 44.2492 140.078 44.3519 140.284 44.4546V44.3519L142.963 45.4812L143.169 45.6866L143.272 45.5839L143.684 45.8919C143.788 45.9946 144.097 46.0972 144.715 46.0972H144.921L145.23 46.5079L145.642 46.6106L145.745 46.8159C146.261 47.6372 146.673 48.1506 146.879 48.5612C147.188 49.0746 147.394 49.4852 147.394 49.8959C147.394 50.6146 147.085 51.2306 146.467 51.8466C145.952 52.2572 145.436 52.7706 144.921 53.3866L144.715 53.5919L143.684 53.6946C143.684 53.6946 143.581 53.6946 143.272 53.8999L143.066 54.4132H141.623L141.417 54.6186C141.314 54.7212 141.108 54.8239 140.799 54.9266L139.975 55.1319H139.872C139.253 55.1319 138.635 55.4399 138.12 55.9532L137.81 56.2612L136.883 55.6452L136.265 55.9532L135.956 55.7479H135.852C135.852 55.7479 135.749 55.8506 135.543 55.9532L135.234 56.1586L134.513 55.8506L133.688 56.1586L133.482 55.9532L132.864 56.2612L132.04 56.1586L132.967 56.8772L133.276 57.3906L135.131 58.8279L135.543 59.6492L135.749 59.9572C135.852 60.0599 135.956 60.2652 136.265 61.0866H137.398L138.944 62.6266L139.665 62.9346L140.593 63.5506L141.52 63.8586L142.757 64.3719L143.375 64.2692L143.581 64.0639L143.891 64.6799L144.715 64.4746L144.818 64.6799L144.921 64.5772L145.642 64.7826L147.291 64.5772L147.91 64.7826L150.074 64.3719L151.826 63.8586L152.032 63.5506H152.753L153.474 62.0106L153.99 63.3452C154.196 63.8586 154.196 64.0639 154.196 64.1666C154.196 64.5772 153.887 64.8852 153.577 65.0906C153.268 65.2959 152.959 65.6039 152.65 65.9119L152.444 66.1172L152.032 66.0146L151.516 66.8359H151.207C150.795 66.8359 150.383 66.9386 149.971 67.1439L149.765 67.2466L148.425 66.9386L148.013 67.1439L147.703 68.3759ZM146.673 66.4252C146.879 66.4252 146.982 66.4252 147.291 66.6306L148.116 66.2199L147.497 66.1172L145.849 66.3226L145.436 66.2199L145.024 66.5279H145.127L145.539 66.3226L145.849 66.6306L146.055 66.4252H146.261C146.467 66.5279 146.57 66.4252 146.673 66.4252ZM148.734 66.2199L149.868 66.5279C150.28 66.3226 150.692 66.2199 151.104 66.2199L151.413 65.8092L150.795 66.0146L148.734 66.2199ZM143.169 66.3226H144.509L144.406 66.1172L143.891 66.2199L143.684 65.9119L143.478 65.7066L143.066 65.8092L141.52 65.1932L140.49 64.8852L139.459 64.2692L138.635 63.8586L137.295 62.5239H135.852L135.749 62.2159C135.44 61.3946 135.234 61.1892 135.234 61.0866L134.925 60.6759L134.513 59.9572L132.658 58.5199L132.349 57.9039L131.215 56.9799L130.288 55.6452L131.009 55.4399H130.803C129.669 55.4399 128.948 55.2346 128.536 54.7212C128.433 54.7212 128.33 54.6186 128.124 54.5159H128.021C128.021 54.5159 127.917 54.5159 127.814 54.6186L127.711 54.7212L127.402 54.8239V55.0292L126.784 55.2346C126.784 55.3372 126.784 55.3372 126.681 55.4399L127.299 55.8506L127.402 55.9532C127.402 55.9532 127.505 55.9532 127.711 55.8506L127.917 55.7479L128.124 55.8506C128.948 56.1586 129.154 56.2612 129.36 56.4666L129.979 57.0826L130.391 57.1852L132.04 59.0332L133.379 60.1626L133.998 60.9839H134.616L134.719 61.2919C135.131 62.1132 135.646 62.7292 136.368 63.1399L137.81 63.8586C138.223 64.0639 138.429 64.3719 138.635 64.6799C138.635 64.6799 138.635 64.7826 138.738 64.7826H139.356L139.768 65.2959H140.49L140.696 65.7066L141.005 65.6039L141.83 66.0146L142.448 65.9119L143.169 66.3226ZM123.898 64.8852L124.105 65.3986L124.208 64.7826L124.001 63.0372L123.589 63.3452L123.898 64.8852ZM123.28 61.9079C123.28 62.0106 123.383 62.1132 123.692 62.5239L124.001 62.9346L123.795 61.4972V61.1892L123.589 61.3946C123.28 61.5999 123.28 61.8052 123.28 61.9079ZM123.28 59.9572L123.795 60.9839L124.105 55.3372C124.105 55.1319 124.208 54.7212 124.62 53.2839L124.311 51.2306L124.105 51.6412C123.795 52.2572 123.795 52.4626 123.795 52.5652V52.7706L124.105 53.1812L123.692 53.4892L123.795 54.0026L123.486 54.7212C123.692 55.1319 123.795 55.5426 123.795 55.8506C123.795 56.1586 123.692 56.5692 123.486 56.9799V57.2879L123.383 58.0066C123.383 58.3146 123.486 58.4172 123.589 58.5199L123.898 58.8279L123.692 59.1359C123.486 59.5466 123.383 59.8546 123.28 59.9572ZM132.246 55.3372L132.864 55.4399L133.585 55.0292L133.379 55.1319C133.07 55.2346 132.761 55.3372 132.246 55.3372ZM134.719 54.9266L135.234 55.1319C135.44 55.0292 135.543 54.9266 135.646 54.9266H134.719ZM134.101 54.9266L134.204 55.1319L134.616 54.9266H134.101ZM137.295 54.7212L137.81 55.0292C138.223 54.6186 138.738 54.4132 139.253 54.3106C138.635 54.3106 137.914 54.4132 137.295 54.7212ZM143.891 52.6679H144.406L144.715 52.3599C144.509 52.4626 144.2 52.5652 143.891 52.6679ZM143.066 47.5346H143.478L145.23 49.1772C145.642 49.5879 145.952 50.1012 145.952 50.6146C145.952 50.8199 145.952 51.0252 145.849 51.2306L145.952 51.1279C146.364 50.8199 146.467 50.4092 146.467 49.9986C146.467 49.7932 146.364 49.5879 146.158 49.2799C145.952 48.9719 145.539 48.4586 145.127 47.7399L144.715 47.6372L144.406 47.2266C144.097 47.2266 143.891 47.1239 143.684 47.0212L143.478 47.2266L142.448 46.4052L141.417 45.9946V46.4052L140.078 46.1999L139.975 45.9946C139.975 45.8919 139.872 45.8919 139.872 45.7892L139.768 46.0972L138.738 45.1732H137.604L135.852 44.8652L132.349 44.7626L129.979 44.4546L128.124 44.7626L126.99 44.5572C126.269 44.8652 126.063 44.9679 125.959 44.9679C125.547 44.9679 125.032 44.7626 124.723 43.9412H124.517C124.105 43.9412 124.001 44.0439 124.001 44.0439V44.5572L123.28 45.1732L121.219 45.2759L119.982 45.3786L119.467 45.6866L119.261 45.8919V46.0972C119.261 46.0972 119.261 46.1999 119.364 46.4052C119.467 46.4052 119.673 46.5079 119.776 46.6106L120.395 45.8919L121.528 45.9946L121.837 45.6866H122.147C122.559 45.6866 123.074 45.9946 123.692 46.6106L124.105 47.0212L123.692 47.4319L123.898 49.1772L123.692 49.9986L123.795 50.6146L124.517 50.5119L124.62 48.1506L124.208 47.3292L124.414 47.0212C124.62 46.7132 124.826 46.4052 125.032 45.9946L125.238 45.5839L126.063 45.6866L126.99 45.0706L127.402 45.2759L127.917 45.0706L128.742 45.1732L129.669 45.0706L130.391 45.2759L131.73 45.0706L133.07 45.2759L133.585 45.0706L133.998 45.1732L134.307 44.9679L134.925 45.2759L137.501 45.4812L137.914 45.6866H139.047L139.665 46.1999H140.181L141.108 46.6106H141.417C141.83 46.9186 142.139 47.0212 143.066 47.5346Z" fill="white"/>
<path d="M183.978 55.4401C183.978 55.6454 183.875 55.8508 183.669 55.9534L182.948 55.7481L182.124 56.3641L181.093 56.2614C180.681 56.5694 180.269 56.6721 179.753 56.6721C179.341 56.6721 179.135 56.7748 179.032 56.8774C178.62 56.6721 178.311 56.6721 177.898 56.6721C177.589 56.6721 177.383 56.7748 177.28 56.9801C177.383 57.0828 177.486 57.2881 177.589 57.3908L177.486 57.9041L177.589 59.4441L178.208 60.3681L178.311 61.1894L179.341 62.7294L179.135 63.4481L179.856 64.0641L180.99 65.9121C181.608 66.5281 181.917 67.0414 182.02 67.3494L182.845 67.7601L183.154 68.4788L183.566 68.7868L182.948 69.1974L182.227 68.5814H181.814L181.196 68.0681H180.784L180.372 67.2468L179.959 67.0414C179.547 66.3228 179.135 65.7068 178.723 65.2961V64.8854L178.311 64.4748V63.7561L177.589 63.0374L176.559 60.6761L176.25 60.2654L176.043 59.1361C176.043 59.0334 175.837 58.6228 175.425 58.0068V56.9801H174.91L174.292 57.3908L173.364 57.1854L172.746 57.5961L172.54 57.3908L172.024 57.6988L171.921 57.3908C171.818 57.3908 171.715 57.3908 171.406 57.4934C171.2 57.5961 170.891 57.5961 170.685 57.5961H169.242L168.418 58.1094L167.593 57.9041L166.46 58.0068V58.2121L166.047 58.0068L165.429 58.3148L165.017 58.0068H164.295L163.574 58.3148L162.956 57.6988L162.647 57.9041L162.028 57.6988C161.513 57.9041 160.792 58.7254 159.864 60.0601L159.143 60.2654C157.906 62.2161 157.185 63.1401 157.082 63.1401L156.67 63.3454L155.33 65.0908H155.124L153.99 66.9388L152.754 67.6574L151.826 67.4521L152.032 67.0414V66.4254L152.341 66.0148L152.135 65.7068L152.96 65.6041L153.578 65.2961C154.093 65.0908 154.402 64.6801 154.506 64.1668C155.124 63.9614 155.536 63.6534 155.639 63.0374C156.36 62.6268 156.876 61.9081 157.185 60.8814L157.803 60.6761L159.349 58.3148V57.6988C159.143 57.4934 158.937 57.2881 158.834 56.9801L159.761 56.1588V55.8508L160.895 55.9534L161.513 55.5428L161.616 55.7481L162.234 54.9268C162.131 54.9268 162.028 54.8241 162.028 54.7214C162.028 54.6188 162.234 54.4134 162.647 54.2081L162.853 54.5161C162.853 54.1054 163.059 53.6948 163.368 53.1814L163.265 53.0788H163.78L163.986 52.4628C164.399 52.4628 164.605 52.2574 164.605 51.9494V51.4361C165.326 50.8201 165.738 50.2041 165.738 49.6908V49.5881L166.357 49.4854L166.46 48.8694L166.769 48.7668L167.284 47.7401L167.593 47.9454L167.387 47.4321C167.799 47.4321 168.108 47.1241 168.108 46.5081L168.418 46.7134V45.7894H168.727V45.1734L169.242 44.6601C169.551 44.4548 169.757 44.0441 169.757 43.6334L170.273 43.1201L169.963 42.4014C170.376 41.7854 170.788 41.5801 171.2 41.5801H171.303L171.612 41.1694L171.921 41.6828C172.024 41.7854 172.127 41.8881 172.334 41.9908L173.158 42.4014L173.261 43.6334C173.467 43.8388 173.673 44.1468 173.879 44.5574L174.292 44.6601L174.395 45.6868L174.807 47.1241L175.425 48.2534L175.837 49.7934L175.94 50.8201L176.559 51.7441L176.353 52.1548L176.868 52.7708V53.4894L176.971 54.1054C176.971 54.2081 176.868 54.4134 176.765 54.6188C177.28 55.7481 177.795 56.2614 178.414 56.2614L179.341 56.0561H180.475C180.784 56.1588 181.093 56.1588 181.299 56.1588C181.711 56.1588 182.02 56.0561 182.227 55.8508C182.433 55.6454 182.639 55.5428 182.639 55.5428C182.742 55.5428 183.051 55.6454 183.463 55.9534L183.978 55.4401ZM175.013 54.3108C174.807 53.7974 174.601 53.4894 174.292 53.2841L174.498 52.6681L173.879 52.3601L173.673 50.6148L173.055 49.6908L172.952 48.9721L172.643 48.3561V48.1508H172.54L172.437 47.1241C172.437 47.0214 172.334 46.8161 172.231 46.6108L171.921 46.0974C171.818 45.9948 171.715 45.8921 171.509 45.7894C171.303 45.6868 170.994 45.4814 170.582 45.2761L170.066 45.5841L169.757 46.0974L168.624 47.7401L168.315 48.2534C168.211 48.3561 167.902 48.7668 167.181 49.4854L166.975 50.2041L165.944 50.7174C165.738 51.9494 165.223 52.5654 164.502 52.7708L164.089 54.2081L163.162 54.6188V55.1321L163.059 55.7481C163.574 55.9534 163.986 56.0561 164.192 56.2614H164.811L165.738 56.4668C165.944 56.5694 166.047 56.5694 166.15 56.5694C166.253 56.5694 166.46 56.5694 166.769 56.4668H166.975C166.975 56.4668 167.181 56.4668 167.284 56.5694C167.49 56.6721 167.696 56.6721 167.799 56.6721L168.418 56.5694L170.273 56.4668L171.818 56.2614C172.746 56.3641 173.364 56.4668 173.673 56.4668C174.395 56.4668 174.807 56.2614 174.807 55.9534C174.807 55.7481 174.704 55.4401 174.395 55.1321L175.013 54.3108Z" fill="white"/>
<path d="M182.948 69.9161L182.021 69.1974H181.506L180.887 68.6841H180.269L179.754 67.7601L179.238 67.5547L179.135 67.3494C178.869 66.7333 178.484 66.1752 178.002 65.7067L177.796 65.5014V65.0907L177.383 64.6801V63.9614L176.765 63.2427L175.735 60.8814L175.322 60.3681L175.116 59.0334C175.116 58.9307 175.013 58.7254 174.601 58.1094L174.498 58.0067V57.4934L173.983 57.8014L173.055 57.5961L172.231 58.1094L172.025 57.9041L171.303 58.3147L171.097 57.8014C170.788 57.9041 170.479 58.0067 170.17 58.0067H168.933L168.109 58.5201L167.078 58.3147H166.46V58.9307L165.532 58.4174L164.914 58.7254L164.399 58.3147H163.987L162.956 58.7254L162.441 58.1094L162.235 58.2121L161.513 57.9041C161.204 58.1094 160.689 58.6227 159.761 60.0601L159.658 60.2654L158.937 60.4707C157.288 63.0374 156.979 63.3454 156.773 63.4481L156.567 63.5507L155.124 65.3987H154.918L153.888 67.0414L152.342 67.9654L150.59 67.4521L151.002 66.5281V65.8094L151.208 65.5014L150.899 64.7827L152.445 64.5774L152.96 64.2694C153.269 64.1667 153.475 63.8587 153.578 63.4481L153.681 63.1401L153.991 63.0374C154.506 62.9347 154.712 62.6267 154.712 62.4214V62.2161L154.918 62.1134C155.536 61.8054 155.949 61.1894 156.155 60.3681L156.258 60.0601L156.979 59.7521L158.319 57.6987V57.3907C158.113 57.1854 158.01 56.9801 157.907 56.6721L157.803 56.3641L158.834 55.4401V54.7214L160.38 54.9267L161.204 54.4134V54.2081C161.204 53.9001 161.513 53.5921 162.132 53.1814L162.235 53.0787C162.235 52.9761 162.338 52.8734 162.338 52.7707L161.307 52.0521L163.059 51.9494L163.265 51.3334H163.781V50.6147L163.987 50.4094C164.605 49.8961 164.914 49.3827 164.914 49.0747V48.4587L165.635 48.3561L165.739 47.7401L166.151 47.6374L166.563 46.9187L166.357 46.4054H167.078C167.181 46.4054 167.284 46.4054 167.387 45.9947L167.49 45.1734L167.697 45.2761V44.7627H168.006V44.4547L168.212 44.2494L168.727 43.7361C168.933 43.5307 169.036 43.3254 169.139 43.0174V42.8121L169.551 42.4014L169.242 41.6827L169.448 41.3747C169.964 40.7587 170.376 40.4507 170.891 40.3481L171.509 39.4241L172.231 40.5534L172.437 40.7587L173.467 41.2721L173.57 42.6067C173.777 42.8121 173.88 43.0174 174.086 43.3254L174.601 43.5307L174.704 44.8654L175.013 46.2001L175.632 47.2267L176.044 48.8694L176.147 49.6907L176.971 50.7174L176.765 51.0254L177.177 51.4361V52.2574L177.28 52.9761C177.28 53.1814 177.28 53.2841 177.177 53.4894C177.486 54.2081 177.796 54.5161 178.208 54.6187L179.135 54.4134H180.475C180.784 54.5161 180.99 54.5161 181.196 54.5161C181.506 54.5161 181.609 54.5161 181.815 54.4134C182.227 54.1054 182.33 54.0027 182.639 54.0027C182.845 54.0027 183.051 54.1054 183.67 54.4134L185.112 54.3107V55.4401C185.112 55.8507 184.906 56.2614 184.494 56.4667L184.288 56.5694L183.567 56.3641L182.742 56.9801L181.712 56.8774C181.299 57.1854 180.784 57.2881 180.269 57.2881H179.96L179.754 57.6987L179.341 57.4934C179.135 57.3907 179.032 57.3907 178.826 57.2881L178.62 58.0067L178.723 59.3414L179.341 60.2654L179.444 61.0867L180.578 62.7294L180.475 63.3454L180.99 63.8587L182.124 65.7067C182.742 66.4254 182.948 66.7334 183.051 67.0414L183.876 67.4521L184.185 68.2734L185.009 68.8894L182.948 69.9161ZM181.918 68.0681H182.227L181.506 67.7601L181.402 67.5547C181.402 67.4521 181.196 67.1441 180.475 66.3227L180.372 66.2201L179.341 64.4747L178.414 63.6534L178.62 62.9347L177.693 61.4974L177.59 60.6761L176.971 59.7521L176.765 57.9041L176.868 57.6987C176.765 57.5961 176.662 57.4934 176.662 57.2881L176.559 57.0827L176.662 56.8774C176.765 56.6721 176.868 56.4667 177.28 56.2614C176.662 56.0561 176.044 55.4401 175.632 54.3107L175.528 54.0027L175.735 53.7974C175.838 53.6947 175.838 53.6947 175.838 53.5921L175.735 52.9761V52.4627L175.116 51.7441L175.322 51.3334L174.807 50.6147L174.704 49.4854L174.292 48.0481L173.674 46.9187L173.261 45.3787L173.158 44.6601L172.849 44.5574L172.746 44.3521C172.54 43.8387 172.334 43.7361 172.334 43.6334L172.128 43.5307L172.025 42.4014L171.509 42.1961C171.303 42.0934 171.2 41.9907 171.097 41.8881H170.685C170.582 41.8881 170.479 41.8881 170.067 42.2987L170.376 43.0174L169.655 43.7361C169.551 44.2494 169.345 44.5574 168.933 44.8654C168.727 44.9681 168.624 45.0707 168.624 45.1734V46.2001H168.315V46.8161L169.139 45.6867L169.551 44.9681L170.479 44.4547L170.685 44.5574C171.097 44.7627 171.406 44.9681 171.612 45.0707C171.819 45.2761 172.025 45.3787 172.128 45.5841L172.437 46.0974C172.643 46.4054 172.746 46.6107 172.746 46.9187V47.4321H172.952V48.1507L173.261 48.7667L173.364 49.4854L173.983 50.4094L174.189 52.0521L175.013 52.4627L174.704 53.1814C174.91 53.3867 175.116 53.7974 175.322 54.2081L175.425 54.6187L175.013 54.9267C175.116 55.1321 175.219 55.4401 175.219 55.6454C175.219 55.9534 175.116 56.3641 174.498 56.5694H175.528V57.9041C176.044 58.7254 176.147 58.9307 176.147 59.0334L176.25 60.0601L176.559 60.3681L177.59 62.7294L178.414 63.5507V64.2694L178.826 64.6801V65.1934C179.238 65.6041 179.548 66.1174 179.857 66.7334L180.269 66.9387L180.681 67.5547H180.99L181.918 68.0681ZM152.033 67.1441H152.136L153.063 66.6307L153.681 65.6041C153.578 65.7067 153.475 65.7067 153.269 65.8094L152.651 66.1174H152.342L151.93 66.6307V67.1441H152.033ZM154.506 64.5774H154.609L154.712 64.3721C154.712 64.4747 154.609 64.4747 154.506 64.5774ZM157.185 61.2921C157.082 61.4974 157.082 61.6001 156.979 61.8054C157.082 61.6001 157.185 61.4974 157.391 61.1894L157.185 61.2921ZM159.04 57.0827L159.143 57.1854L159.349 57.3907V58.5201L158.525 59.8547L158.937 59.7521C159.865 58.3147 160.586 57.5961 161.204 57.2881L161.41 57.1854L162.029 57.3907L162.544 56.9801L163.265 57.6987L163.781 57.4934H164.811L165.12 57.6987L165.635 57.3907L165.842 57.4934L167.284 57.3907L168.006 57.4934L168.727 56.9801H170.376C170.582 56.9801 170.788 56.9801 170.891 56.8774C171.2 56.7747 171.406 56.6721 171.612 56.6721H172.025V56.7747L172.334 56.5694L172.54 56.7747L173.055 56.4667L173.983 56.6721L174.395 56.3641H173.777C173.57 56.3641 173.158 56.3641 171.922 56.1587L170.479 56.3641L168.727 56.4667L168.109 56.5694H168.006C167.8 56.5694 167.49 56.5694 167.284 56.4667H166.975C166.666 56.5694 166.357 56.5694 166.151 56.5694C166.048 56.5694 165.842 56.5694 165.532 56.4667L164.708 56.2614L163.987 56.3641V56.4667C163.884 56.3641 163.574 56.2614 162.956 56.0561H162.75V56.1587L162.647 56.0561L162.441 55.9534L162.544 55.7481L162.235 55.2347L161.101 56.6721L160.792 56.2614L160.483 56.4667L159.761 56.3641L159.04 57.0827ZM178.414 56.1587C178.517 56.1587 178.723 56.2614 178.826 56.2614C179.032 56.1587 179.341 56.0561 179.651 56.0561H178.723L178.414 56.1587ZM167.078 55.5427C167.181 55.5427 167.284 55.5427 167.593 55.6454C167.697 55.6454 167.8 55.7481 167.903 55.7481L168.521 55.6454L170.376 55.5427L171.922 55.3374H172.025C173.158 55.5427 173.674 55.5427 173.777 55.5427H174.292C174.292 55.4401 174.189 55.3374 174.086 55.2347L173.777 54.8241L174.395 54.3107C174.292 54.1054 174.189 54.0027 174.086 53.9001L173.674 53.6947L173.88 53.0787L173.467 52.8734L173.261 50.9227L172.643 49.9987L172.54 49.1774L172.334 48.6641H172.128L172.025 47.1241C172.025 47.1241 172.025 47.0214 171.922 46.9187L171.612 46.4054L171.406 46.2001C171.303 46.0974 171.2 45.9947 170.891 45.8921L170.788 45.9947L170.479 46.4054L169.345 47.9454L169.036 48.4587C168.933 48.5614 168.933 48.7667 168.418 49.1774L168.624 49.5881L168.315 49.3827L167.903 49.7934L167.697 50.6147L166.666 51.1281C166.357 52.2574 165.945 52.9761 165.223 53.2841L164.811 54.7214L163.987 55.0294V55.4401C164.296 55.5427 164.502 55.6454 164.605 55.7481H165.12L166.151 56.0561L166.357 56.1587C166.357 56.1587 166.563 56.1587 166.872 56.0561C166.872 55.5427 167.078 55.5427 167.078 55.5427ZM163.265 53.4894C163.162 53.5921 163.162 53.7974 163.059 53.9001L163.781 53.5921L164.09 52.6681C164.09 52.6681 163.987 52.6681 163.884 52.7707L163.677 53.4894H163.265ZM164.605 51.5387V52.1547C165.017 52.0521 165.429 51.4361 165.532 50.5121V50.3067C165.429 50.6147 165.12 51.0254 164.605 51.5387ZM165.739 49.8961C165.739 49.9987 165.635 50.1014 165.635 50.2041L166.666 49.6907L166.872 49.0747L166.975 48.9721L167.284 48.6641L167.078 48.4587L166.769 49.0747L166.563 49.1774L166.46 49.8961H165.739ZM167.593 47.5347L167.8 47.9454L167.903 47.8427L168.212 47.3294L168.006 47.2267C167.8 47.3294 167.697 47.4321 167.593 47.5347Z" fill="white"/>
<path d="M88.1412 15.5025L91.0267 15.6052L93.8091 15.5025H96.3854C96.6945 15.5025 96.7976 15.6052 96.7976 15.9132C96.7976 16.2212 96.5915 16.4265 96.0762 16.4265C95.9732 16.3238 95.8701 16.3238 95.7671 16.3238C95.561 16.3238 95.3549 16.4265 95.2518 16.5292L94.5304 16.4265H93.3969C92.8816 16.7345 92.3663 16.8372 91.8511 16.8372L91.0267 16.7345L90.6144 17.1452H90.2022V16.9398L89.4809 17.2478H89.0687L88.9656 17.6585C88.8626 17.4532 88.4503 17.4532 87.832 17.4532C87.832 17.6585 87.729 17.6585 87.6259 17.6585C87.5229 17.6585 87.5229 17.5558 87.4198 17.4532L86.8015 17.5558L86.3893 17.9665L86.2863 20.0198L86.3893 21.2518L86.2863 22.7918V24.5372L86.3893 25.3585V26.0772L86.9046 27.1038V27.3092C86.9046 27.8225 87.2137 28.2332 87.729 28.6438L87.832 28.9518L88.5534 29.1572L89.0687 29.7732L90.6144 30.0812L92.6755 29.5678L93.2938 29.7732L94.7365 29.0545L95.2518 29.1572C95.4579 29.3625 95.561 29.5678 95.561 29.6705C95.561 29.8758 95.3548 30.0812 95.0457 30.3892L94.7365 30.2865L94.1182 30.7998L92.6755 31.0052L92.1602 31.3132L91.8511 31.1078C91.3358 31.3132 90.9236 31.5185 90.4083 31.5185L89.5839 31.3132H89.1717L87.6259 30.3892L86.9046 29.3625L86.3893 28.8492L85.6679 26.7958L85.3588 24.9478L85.5649 24.2292L85.2557 23.8185L85.4618 23.3052L85.0496 22.5865L85.4618 22.2785L85.2557 21.8678L85.3588 21.3545L85.1527 20.8412L85.2557 20.0198L85.1527 19.6092L85.3588 19.5065V17.9665C85.2557 17.5558 85.1527 17.4532 85.0496 17.4532C84.9466 17.4532 84.8435 17.5558 84.8435 17.6585L84.3283 17.4532L83.6069 17.5558L82.8855 17.0425H82.5764C82.2672 17.0425 82.0611 16.8372 82.0611 16.5292V15.9132L81.752 15.7078L81.9581 15.2972L82.5764 15.3998L83.0916 15.2972L83.813 15.5025H85.5649L85.6679 14.5785V13.6545L85.3588 12.9358L85.6679 12.7305C85.771 12.5252 85.771 12.4225 85.771 12.4225C85.771 12.2172 85.6679 12.1145 85.4618 12.0118L85.5649 10.3692L85.2557 9.85585L85.3588 9.44518C85.0496 9.34251 84.9466 9.23985 84.9466 9.13718L85.2557 8.00785C85.4618 7.69985 85.6679 7.49451 85.6679 7.39185C86.4924 7.80251 86.9046 8.00785 86.9046 8.11051L86.6985 8.52118C86.9046 8.93185 87.0076 9.23985 87.0076 9.44518V9.54785C86.9046 9.75318 86.9046 9.95851 86.9046 10.1638C86.9046 10.2665 86.9046 10.3692 87.0076 10.4718V11.1905L86.5954 11.8065L86.8015 12.8332L86.5954 14.0652L86.8015 14.2705L86.5954 14.6812L86.9046 15.7078H87.6259L88.1412 15.5025Z" fill="white"/>
<path d="M92.2624 32.0319L91.7472 31.7239C91.335 31.9292 90.8197 32.0319 90.3045 32.0319H90.2014L89.377 31.8266H88.8617L87.1098 30.7999L86.3885 29.7732L85.8732 29.1572L85.0488 27.0012L84.6366 24.9479L84.7396 24.3319L84.3274 23.9212L84.5335 23.3052L84.3274 22.3812L84.6366 22.0732V21.9706L84.7396 21.4572L84.6366 20.9439L84.7396 20.1226L84.6366 19.4039L84.8427 19.1986V18.1719L84.3274 17.9666L83.6061 18.1719L82.8847 17.6586H82.5755C81.9572 17.6586 81.545 17.2479 81.545 16.5292V16.2212L81.1328 15.9132L81.6481 14.7839L82.5755 14.8866L83.0908 14.7839L83.8122 14.9892H84.9457V13.7572L84.5335 12.7306L84.9457 12.4226L84.6366 12.2172L84.7396 10.4719L84.6366 9.85589V9.65056C84.3274 9.44522 84.3274 9.13722 84.3274 9.03456V8.93189L84.6366 7.69989L84.7396 7.59722C84.9457 7.28922 84.9457 7.18656 85.0488 7.18656L85.2549 6.57056L85.8732 6.87856C87.2129 7.49456 87.419 7.69989 87.419 8.11056V8.21322L87.3159 8.52122C87.522 8.93189 87.522 9.23989 87.522 9.44522V9.75322C87.419 9.85589 87.419 10.0612 87.419 10.1639L87.522 10.2666L87.419 10.7799L87.522 11.3959L87.2129 11.9092L87.419 12.8332L87.3159 13.9626L87.522 14.3732L87.2129 14.7839L87.3159 15.1946H87.522L88.0373 14.7839L91.1289 14.8866L93.9113 14.7839H96.3845C97.1059 14.7839 97.4151 15.2972 97.4151 15.7079C97.4151 16.0159 97.312 16.6319 96.2815 16.8372H96.0754L95.8693 16.7346C95.8693 16.7346 95.7662 16.7346 95.6632 16.8372L95.4571 17.0426L94.6326 16.8372H93.7052C92.9838 17.2479 92.4685 17.4532 91.8502 17.4532H91.7472L91.2319 17.3506L90.8197 17.6586H89.7892L89.5831 17.7612H89.48L89.2739 18.2746L88.7587 18.1719C88.6556 18.1719 88.4495 18.0692 88.0373 18.0692C87.8312 18.2746 87.6251 18.2746 87.522 18.2746C87.3159 18.2746 87.2129 18.1719 87.1098 18.1719H86.9037L86.8007 18.2746L86.6976 20.1226L86.8007 21.3546L86.6976 22.8946V24.6399L86.8007 25.5639V26.1799L87.3159 27.2066V27.5146C87.3159 27.8226 87.522 28.1306 87.9343 28.4386L88.0373 28.5412L88.1404 28.7466L88.7587 28.8492L89.2739 29.4652L90.5106 29.6706L92.5716 29.1572L93.0869 29.3626L94.5296 28.7466L95.4571 28.8492L95.5601 28.9519C95.8693 29.2599 95.9723 29.5679 95.9723 29.8759C95.9723 30.4919 95.354 30.9026 95.1479 31.0052L94.9418 31.2106V31.0052L94.4265 31.4159L92.9838 31.6212L92.2624 32.0319ZM89.1709 30.7999H89.48L90.3045 31.0052C90.7167 31.0052 91.1289 30.9026 91.438 30.6972L91.6441 30.5946L90.6136 30.7999L88.7587 30.4919L88.2434 29.8759L87.522 29.7732L87.7282 30.0812L89.1709 30.7999ZM91.8502 30.4919L92.2624 30.7999L92.5716 30.5946L93.396 30.4919L92.7777 30.2866L91.8502 30.4919ZM94.4265 30.0812L93.4991 30.4919L94.0143 30.3892L94.4265 30.0812ZM94.8388 29.8759L95.0449 29.9786L95.1479 29.8759H94.8388ZM85.0488 16.9399C85.461 16.9399 85.7702 17.2479 85.8732 17.7612L86.4915 17.0426L87.3159 16.9399V16.8372H87.7282C88.0373 16.8372 88.3465 16.8372 88.5526 16.9399L88.6556 16.6319H89.2739L90.4075 16.1186L88.1404 16.0159L87.8312 16.4266H86.4915L86.1824 15.3999L86.0793 16.1186H83.7091L83.0908 15.9132L82.6786 16.0159V16.6319H83.1939L83.8122 17.0426L84.4305 16.9399L84.7396 17.0426C84.8427 16.9399 84.9457 16.9399 85.0488 16.9399ZM91.0258 16.1186L91.9533 16.3239C92.2624 16.3239 92.6747 16.2212 92.9838 16.1186H91.0258ZM86.0793 13.0386L86.1824 13.3466L86.2854 12.9359L86.0793 13.0386ZM85.9763 11.6012L86.2854 11.0879V10.5746C86.1824 10.4719 86.1824 10.2666 86.1824 10.0612C86.1824 9.85589 86.1824 9.65056 86.2854 9.34256C86.2854 9.34256 86.2854 9.13722 86.0793 8.62389L85.9763 8.41856L86.0793 8.11056C85.9763 8.00789 85.8732 8.00789 85.6671 7.90522C85.6671 7.90522 85.6671 8.00789 85.5641 8.00789L85.3579 8.62389L85.7702 8.72656L85.6671 9.44522L85.9763 9.95856V11.6012Z" fill="white"/>
<path d="M101.639 22.6893L98.7533 22.5867L95.9709 22.6893H93.3946C93.0855 22.6893 92.9824 22.5867 92.9824 22.2787C92.9824 21.9707 93.1885 21.7653 93.7038 21.7653C93.8068 21.868 93.9099 21.868 94.0129 21.868C94.219 21.868 94.4252 21.7653 94.5282 21.6627L95.1465 21.7653H96.2801C96.7954 21.4573 97.3106 21.3547 97.8259 21.3547L98.6503 21.4573L99.0625 21.0467H99.4747V21.252L100.196 20.944H100.608L100.711 20.5333C100.917 20.636 101.33 20.636 101.948 20.7387C101.948 20.5333 102.051 20.5333 102.154 20.5333C102.257 20.5333 102.257 20.636 102.36 20.7387L102.978 20.636L103.391 20.2253L103.494 18.172L103.391 16.94L103.494 15.4V13.6547L103.391 12.8333V12.1147L102.875 11.088V10.8827C102.875 10.3693 102.566 9.95867 102.051 9.54801L101.948 9.24001L101.227 9.03467L100.711 8.41867L99.0625 8.00801L97.0015 8.52134L96.3831 8.31601L94.9404 8.93201L94.4252 8.82934C94.219 8.62401 94.116 8.41867 94.116 8.31601C94.116 8.11067 94.3221 7.90534 94.6313 7.59734L94.9404 7.80267L95.6618 7.18667L97.0015 7.08401L97.5167 6.77601L98.032 7.08401C98.5472 6.87867 98.9595 6.67334 99.4747 6.67334L100.299 6.87867H100.711L102.257 7.80267L102.978 8.82934L103.494 9.34267L104.215 11.396L104.524 13.244L104.318 13.9627L104.627 14.3733L104.421 14.8867L104.627 15.6053L104.215 15.9133L104.421 16.324L104.318 16.8373L104.524 17.3507L104.421 18.172L104.524 18.5827L104.318 18.6853V20.2253C104.421 20.636 104.524 20.7387 104.627 20.7387C104.73 20.7387 104.833 20.636 104.833 20.5333L105.349 20.7387L105.967 20.5333L106.688 21.0467H106.998C107.307 21.0467 107.513 21.252 107.513 21.56V22.176L107.822 22.3813L107.616 22.792L106.998 22.6893L106.482 22.792L105.761 22.5867H104.215L104.112 23.5107V24.64L104.421 25.3587L104.112 25.564C104.009 25.7693 104.009 25.872 104.009 25.872C104.009 26.0773 104.112 26.18 104.318 26.2827L104.215 27.9253L104.524 28.4387L104.421 28.8493C104.73 28.952 104.833 29.0547 104.833 29.1573L104.524 30.2867C104.318 30.5947 104.112 30.8 104.112 30.9027C103.288 30.492 102.875 30.2867 102.875 30.184L103.082 29.7733C102.875 29.3627 102.772 29.0547 102.772 28.8493V28.7467C102.875 28.5413 102.875 28.336 102.875 28.1307C102.875 28.028 102.875 27.9253 102.772 27.8227V27.104L103.185 26.488L102.978 25.4613L103.185 24.2293L102.978 24.024L103.185 23.6133L102.875 22.5867H102.154L101.639 22.6893Z" fill="white"/>
<path d="M104.627 31.6213L104.009 31.3133C102.669 30.6973 102.463 30.4919 102.463 30.0813V29.9786L102.566 29.6706C102.36 29.2599 102.36 28.9519 102.36 28.7466V28.4386C102.463 28.3359 102.463 28.1306 102.463 28.0279L102.36 27.9253L102.463 27.4119L102.36 26.7959L102.669 26.2826L102.463 25.3586L102.566 24.2293L102.36 23.8186L102.669 23.4079L102.566 22.9973H102.36L101.845 23.4079L98.753 23.3053H93.4973C92.776 23.3053 92.4668 22.7919 92.4668 22.3812C92.4668 22.0732 92.5698 21.4573 93.6004 21.2519H93.8065L94.0126 21.3546C94.0126 21.3546 94.1156 21.3546 94.2187 21.2519L94.4248 21.0466L95.2492 21.2519H96.1767C96.6919 20.9439 97.3103 20.8412 97.9286 20.8412H98.0316L98.5469 20.9439L98.9591 20.6359H99.9896L100.196 20.5333H100.299L100.505 20.0199L101.02 20.1226C101.123 20.1226 101.329 20.2253 101.741 20.2253C101.948 20.0199 102.154 20.0199 102.257 20.0199C102.463 20.0199 102.566 20.1226 102.669 20.1226H102.875L102.978 20.0199L103.081 18.1719L102.978 16.9399L103.081 15.3999V13.6546L102.978 12.7306V12.1146L102.463 11.0879V10.7799C102.463 10.4719 102.257 10.1639 101.845 9.85591L101.741 9.75325L101.638 9.54791L101.02 9.44525L100.505 8.82925L99.0621 8.52125L97.0011 9.03458L96.4858 8.82925L95.0431 9.44525L94.1156 9.34258L94.0126 9.23991C93.7034 8.93191 93.6004 8.62391 93.6004 8.31591C93.6004 7.69991 94.2187 7.28925 94.3217 7.18658L94.5278 6.98125L94.837 7.18658L95.3523 6.77591L96.795 6.57058L97.5164 6.15991L98.0316 6.46791C98.4438 6.26258 98.9591 6.15991 99.4743 6.15991H99.5774L100.402 6.36525H100.917L102.669 7.39191L103.39 8.41858L103.906 9.03458L104.73 11.1906L105.142 13.1412L105.039 13.7572L105.451 14.1679L105.245 14.7839L105.451 15.7079L105.142 16.0159L105.245 16.1186L105.142 16.6319L105.348 17.1452L105.245 17.9666L105.348 18.6853L105.142 18.8906V19.9172L105.657 20.1226L106.379 19.9172L107.1 20.4306H107.306C107.925 20.4306 108.337 20.8413 108.337 21.5599V21.8679L108.749 22.1759L108.234 23.3053L107.306 23.2026L106.791 23.3053L106.07 23.0999H104.936V24.3319L105.348 25.3586L104.936 25.6666L105.245 25.8719L105.142 27.6173L105.554 28.1306V28.3359C105.864 28.5413 105.864 28.8493 105.864 28.9519V29.0546L105.554 30.3893L105.451 30.4919C105.245 30.7999 105.142 30.9026 105.142 30.9026L104.627 31.6213ZM103.699 29.8759C103.803 29.9786 103.906 29.9786 104.112 30.0813C104.112 30.0813 104.112 29.9786 104.215 29.9786L104.421 29.3626L104.009 29.2599L104.112 28.5413L103.803 28.0279L103.906 26.4879L103.596 27.0013V27.5146C103.699 27.6173 103.699 27.8226 103.699 28.0279C103.699 28.2333 103.699 28.4386 103.596 28.7466C103.596 28.7466 103.596 28.9519 103.803 29.4653L103.906 29.6706L103.699 29.8759ZM103.596 25.2559L103.803 25.1533L103.699 24.8453L103.596 25.2559ZM101.948 21.7653H103.287L103.596 22.7919L103.699 22.0733H106.07L106.688 22.2786L107.1 22.1759V21.5599H106.585L105.967 21.1493L105.348 21.2519L105.039 21.1493C104.936 21.2519 104.833 21.2519 104.73 21.2519C104.318 21.2519 104.009 20.9439 103.906 20.4306L103.287 21.1493L102.463 21.2519V21.3546H102.051C101.741 21.3546 101.432 21.3546 101.226 21.2519L101.02 21.5599H100.402L99.2682 22.0733L101.535 22.1759L101.948 21.7653ZM97.8255 21.8679C97.5164 21.8679 97.1041 21.9706 96.795 22.0733L98.753 21.9706H98.856L97.8255 21.8679ZM101.535 8.31591L102.154 8.52125L101.948 8.21325L100.608 7.49458H100.299L99.4743 7.28925C99.0621 7.28925 98.6499 7.39191 98.3408 7.59725L98.0316 7.69991L99.0621 7.49458L100.917 7.80258L101.535 8.31591ZM95.8675 7.80258L95.4553 8.21325L96.3828 7.80258H95.8675ZM96.3828 7.69991L97.0011 7.90525L97.9286 7.69991L97.5164 7.39191L97.2072 7.59725L96.3828 7.69991Z" fill="white"/>
<path d="M182.122 43.3252C180.782 43.3252 179.752 42.1959 179.752 40.9639C179.752 39.6292 180.886 38.6025 182.122 38.6025C183.462 38.6025 184.492 39.7319 184.492 40.9639C184.492 42.2985 183.462 43.3252 182.122 43.3252ZM182.122 39.0132C181.092 39.0132 180.267 39.8345 180.267 40.8612C180.267 41.8879 181.092 42.7092 182.122 42.7092C183.153 42.7092 183.977 41.8879 183.977 40.8612C183.977 39.9372 183.153 39.0132 182.122 39.0132Z" fill="white"/>
<path d="M183.668 42.2986H182.844L182.122 41.2719H181.813V42.2986H181.092V39.5266H182.741C182.844 39.5266 182.947 39.6293 183.05 39.6293C183.153 39.7319 183.256 39.7319 183.256 39.8346C183.359 39.9373 183.359 40.0399 183.359 40.2453C183.359 40.4506 183.359 40.6559 183.256 40.7586C183.153 40.8613 183.05 40.9639 182.844 41.0666L183.668 42.2986ZM182.535 40.3479V40.1426L182.431 40.0399H181.813V40.7586H182.328C182.431 40.7586 182.431 40.7586 182.535 40.6559L182.638 40.5533C182.535 40.5533 182.535 40.4506 182.535 40.3479Z" fill="white"/>
</svg>
