<svg xmlns="http://www.w3.org/2000/svg" width="200" height="77" fill="none"><path fill="#fff" d="m22.4 49.49 3.29.1 3.1-.1h2.77c.31 0 .52.1.52.4 0 .31-.2.52-.72.62-.1-.1-.2-.1-.41-.1-.21 0-.42.1-.62.2l-.62-.1h-1.24a3.8 3.8 0 0 1-1.75.52l-.93-.21-.62.51h-.4v-.3l-.83.4h-.41l-.1.42c-.32-.1-.73-.1-1.35-.2 0 .2-.1.3-.2.3s-.1-.1-.31-.2l-.62.1-.41.51-.1 2.26.1 1.33-.1 1.75v1.95l.1.92v.82l.51 1.13v.2c0 .52.31 1.04.93 1.55l.1.41.83.2.62.62 1.75.3 2.26-.5.62.2 1.65-.72.62.1c.2.21.3.42.3.62s-.2.51-.6.72l-.32-.1-.72.61-1.55.2-.51.32-.52-.31c-.51.3-1.03.4-1.64.4l-1.04-.1h-.51l-1.75-1.02-.83-1.13-.51-.62-.83-2.25-.4-2.16.2-.82-.41-.41.2-.52-.1-.82.51-.4-.2-.42.1-.51-.3-.72.1-.92-.1-.41.2-.1v-1.75c-.1-.41-.2-.62-.41-.62-.1 0-.21.1-.31.2l-.52-.2-.72.2-.72-.5h-.41c-.42 0-.52-.21-.52-.62V50l-.3-.2.2-.42.72.1.51-.1.73.2h1.95l.1-1.12v-1.13l-.3-.82.4-.31c.11-.2.11-.3.11-.3 0-.21-.1-.42-.41-.52l.1-1.85-.4-.62.1-.4c-.32-.1-.42-.21-.42-.42l.31-1.23c.31-.3.41-.51.41-.61.93.4 1.45.71 1.45.82l-.21.4c.2.42.3.83.3 1.03v.1c-.1.21-.1.52-.1.62 0 .1 0 .31.1.41v.93l-.4.61.3 1.13-.2 1.44.2.3-.3.42.4 1.13h.83l.62-.1Z"/><path fill="#fff" d="m24.76 67.97-.92-.21h-.62l-1.96-1.13-.83-1.23-.61-.72-.93-2.46-.41-2.26.2-.72-.4-.51.2-.72-.2-1.03.4-.3-.1-.21.1-.62-.2-.62.1-.92-.1-.72.3-.2v-1.24l-.72-.3-.82.2-.82-.61h-.21c-.72 0-1.13-.41-1.13-1.13v-.41l-.42-.31.52-1.23 1.03.1.62-.1.82.2H19v-1.44L18.58 46l.52-.4H19l-.32-.21.1-1.95-.3-.31v-.2a.89.89 0 0 1-.42-.72v-.1l.42-1.44.1-.1c.3-.31.3-.52.3-.52l.22-.62.61.31c1.55.72 1.76.93 1.76 1.34v.1l-.1.3c.2.42.3.73.3 1.03v.31c-.1.2-.1.31-.1.52l.2.2-.1.62.1.61-.4.62.2 1.03-.2 1.33.3.41-.3.51.2.52h.3l.63-.41 3.4.1 3.09-.1h2.78c.62 0 1.03.4 1.03.92 0 .3-.1.92-1.24 1.13h-.2l-.2-.1h-.11c-.1 0-.1 0-.2.1l-.21.2-.83-.2h-1.03c-.62.3-1.23.51-1.85.51h-.1l-.62-.1-.42.41h-1.13l-.2.1h-.1l-.22.52-.92.1c-.1 0-.41-.1-.93-.1-.2.2-.41.2-.52.2-.2 0-.3-.1-.4-.2h-.21l-.21.2-.1 2.06.1 1.33-.2 1.95v1.95l.1 1.03v.72l.51 1.13v.3c0 .31.2.72.72 1.13l.1.1.11.21.72.2.62.62 1.44.31 2.37-.51.62.2 1.55-.72.92.1.1.11c.32.3.52.62.52 1.03 0 .4-.3.82-.82 1.23l-.2.2-.32-.1-.62.51-1.64.21-.73.41-.61-.3c-.31 0-.83.1-1.45.1Zm-1.23-1.24h.4l.94.2c.51 0 .92-.1 1.34-.3l.3-.1.52.3.3-.2 1.56-.2.82-.72.3.1.11-.1v-.1h-.3l-1.66.82-.72-.21-2.26.51-2.07-.4-.61-.73-.93-.2.41.51 1.55.82Zm-2.79-2.56.52.61.3.41-.2-.4c-.3-.32-.62-.62-.82-.93l.2.3Zm-.82-2.06.41 1.24c0-.1-.1-.31-.1-.42v-.1l-.41-1.02.1.3Zm-.3-1.95.2 1.13v-.61l-.1-.83-.1.31Zm-.11-1.43.2.2V57.5l-.2.1.1.62-.1.52Zm.1-3.29.2.51-.1-1.33-.1.82Zm-.72-4.31c.41 0 .82.3.93 1.02v.52-.62l.72-.72 1.03-.1v-.1h.41c.41 0 .72.1.93.1l.1-.3h.83l1.44-.73v.31l.2-.2 1.14.2c.51 0 .93-.1 1.44-.4l-2.47.1-3.1-.1-.5.4h-1.45l-.41-1.44-.1 1.03h-2.58l-.72-.2-.52.1v.82h.62l.72.51.62-.2.41.2c0-.2.2-.2.3-.2Zm1.03-4.42.2.52v.51l.1-1.13-.1-.3s0 .1-.1.2l-.1.2Zm0-1.54.1.1.41-.61v-.62c-.1-.1-.1-.3-.1-.5 0-.21 0-.52.1-.73 0-.1 0-.3-.3-.82l-.1-.2.1-.31c-.1-.1-.31-.2-.52-.31 0 .1-.1.1-.1.2l-.2.72.5.1-.2.72.41.52-.1 1.74Zm43.9 10.27c0 .2-.1.41-.3.51l-.73-.2-.82.61-1.04-.1c-.4.3-.82.41-1.34.41-.4 0-.61.1-.72.2-.4-.2-.72-.2-1.13-.2-.3 0-.52.1-.62.31.1.1.2.3.31.41l-.1.51.1 1.54.62.93.1.82 1.03 1.54-.2.72.72.61 1.13 1.85c.62.62.93 1.13 1.03 1.44l.83.41.3.72.31.2-.61.41-.72-.61h-.42l-.62-.3h-.4l-.42-.83-.41-.2a8.54 8.54 0 0 0-1.24-1.75v-.41l-.41-.41v-.72l-.72-.72-1.03-2.36-.31-.41-.2-1.13c0-.1-.21-.51-.63-1.13v-1.03h-.51l-.62.41-.93-.2-.62.4-.2-.2-.52.31-.1-.3c-.1 0-.2 0-.52.1-.2.1-.51.1-.72.1h-1.44l-.82.51-.83-.2-1.13.1v.2l-.41-.2-.62.3-.41-.3h-.73l-.72.3-.92-.71-.31.2-.62-.2c-.52.2-1.24 1.03-2.17 2.36l-.72.2c-1.23 1.96-1.96 2.88-2.06 2.88l-.41.2-1.34 1.75h-.2l-1.14 1.85-1.24.82-.92-.2.2-.42v-.61l.31-.41-.2-.41.82-.1.62-.31c.51-.2.82-.62.92-1.13.62-.2 1.04-.52 1.14-1.13a3.5 3.5 0 0 0 1.54-2.16l.62-.2 1.55-2.37v-.61c-.2-.2-.41-.41-.52-.72l.93-.82v-.3l1.13.1.62-.42.1.2.62-.81c-.1 0-.2-.1-.2-.2 0-.11.2-.32.62-.52l.2.3c0-.4.2-.82.52-1.33l-.1-.1h.5l.22-.62c.4 0 .61-.2.61-.51v-.51c.73-.62 1.14-1.24 1.14-1.75v-.1l.62-.1.1-.62.3-.1.52-1.03.31.2-.3-.71c.4 0 .71-.31.71-.93l.31.2v-.92h.31v-.61l.52-.52c.3-.2.51-.61.51-1.02l.52-.52-.31-.71c.41-.62.82-.83 1.24-.83h.1l.3-.4.32.5c.1.11.2.21.41.32l.82.4.1 1.24c.21.2.42.51.63.92l.4.1.11 1.03.41 1.44.62 1.13.41 1.54.1 1.02.62.93-.2.4.51.63v.71l.1.62c0 .1-.1.3-.2.51.52 1.13 1.03 1.65 1.65 1.65l.93-.2h1.13c.31.1.62.1.83.1.4 0 .72-.1.92-.31.2-.21.42-.31.42-.31.1 0 .4.1.82.4l1.03-.3Zm-8.97-1.13c-.2-.51-.4-.82-.72-1.03l.2-.61-.6-.41-.22-1.75-.61-.92-.1-.72-.21-.62v-.2h-.1l-.1-1.03c0-.1-.11-.3-.21-.51l-.31-.52c-.1-.1-.21-.2-.42-.3-.2-.1-.51-.31-.92-.52l-.52.31-.3.51-1.14 1.54-.31.52c-.1.1-.41.51-1.13 1.23l-.21.72-1.03.51c-.2 1.23-.72 1.85-1.44 2.06L44.03 54l-.82.41v.52l-.1.51c.51.2.92.3 1.13.51h.62l.93.2c.2.11.3.11.4.11.11 0 .42 0 .63-.1h.2s.2 0 .31.1c.2.1.41.1.52.1l.62-.1 1.85-.1 1.55-.2c.92.1 1.54.2 1.85.2.72 0 1.13-.2 1.13-.51 0-.21-.1-.52-.4-.83l.4-.5Z"/><path fill="#fff" d="m62.79 69.92-.93-.72h-.41l-.62-.52h-.62l-.51-.92-.52-.2-.1-.21a5.13 5.13 0 0 0-1.13-1.64l-.1-.1v-.42l-.42-.4v-.73l-.62-.71-1.03-2.37-.41-.5-.2-1.34c0-.1-.11-.31-.52-.93l-.1-.1v-.51l-.52.3-.93-.2-.82.51-.2-.2-.73.51-.2-.51c-.32.1-.62.2-.93.2h-1.24l-.82.52-1.04-.21h-.61v.62l-.93-.52-.62.31-.51-.41h-.42l-1.03.41-.62-.41-.2.1-.72-.3c-.31.2-.83.71-1.76 2.15l-.1.2-.72.21c-1.65 2.57-1.96 2.88-2.16 2.98l-.21.1-1.44 1.75h-.2l-1.04 1.64-1.54.92-1.76-.51.42-.92v-.72l.2-.31-.3-.72 1.54-.2.51-.31c.31-.1.52-.41.62-.82l.1-.31.31-.1c.52-.1.73-.42.73-.62v-.2l.2-.1c.62-.32 1.03-.93 1.24-1.75l.1-.31.72-.31 1.34-2.05v-.31c-.2-.2-.3-.41-.41-.72l-.1-.3 1.03-.93v-.72l1.54.2.83-.5v-.21c0-.31.3-.62.93-1.03l.1-.1c0-.1.1-.2.1-.31l-1.03-.72 1.75-.1.2-.62h.52v-.72l.21-.2c.62-.52.93-1.03.93-1.34v-.61l.72-.1.1-.62.41-.1.42-.72-.21-.52h.72c.1 0 .2 0 .31-.4l.1-.83.21.1v-.5h.3v-.32l.22-.2s.2-.1.51-.52c.2-.2.3-.4.41-.71v-.21l.41-.41-.72-.62.21-.3c.51-.62.93-.93 1.44-1.03l.62-.93.72 1.13.2.2 1.04.52.1 1.34c.2.2.31.4.52.72l.51.2.1 1.34.31 1.33.62 1.03.41 1.64.1.82.83 1.03-.2.3.4.42v.82l.11.72c0 .2 0 .3-.1.51.3.72.62 1.03 1.03 1.13l.93-.2H60c.3.1.51.1.72.1.3 0 .41 0 .62-.1.4-.31.51-.42.82-.42.2 0 .41.1 1.03.41l1.44-.1v.72c0 .41-.2.82-.61 1.03l-.21.1-.72-.2-.83.61-1.03-.1c-.4.3-.92.4-1.44.4h-.3l-.22.42-.4-.2c-.21-.1-.32-.1-.52-.21l-.2.72.1 1.33.61.93.1.82.93 1.54-.1.61.52.52 1.13 1.84c.62.72.82 1.03.93 1.34l.82.4.31.83.82.62-1.54 1.13Zm-1.03-1.85h.3l-.61-.31-.1-.2c0-.1-.21-.42-.93-1.24l-.1-.1-1.04-1.75-.72-.82.2-.72-.92-1.43-.2-.93-.62-.92-.2-1.85.1-.2c-.1-.1-.21-.2-.21-.41l-.1-.21.1-.2c.1-.21.2-.42.62-.62-.62-.2-1.24-.82-1.65-1.95l-.1-.31.2-.2c.1-.1.1-.1.1-.21l-.1-.62v-.51l-.62-.72.2-.4-.5-.73-.1-1.13-.42-1.43-.62-1.13-.41-1.54-.1-.72-.31-.1h-.21c-.2-.52-.41-.62-.41-.72l-.2-.1-.11-1.14-.52-.2c-.2-.1-.3-.2-.4-.3h-.42c-.1 0-.2 0-.62.4l.3.72-.71.72c-.1.51-.31.82-.72 1.13-.21.1-.31.2-.31.3v.93h-.31v.62l.82-1.13.41-.72.93-.52.2.1c.42.21.73.42.94.52.2.2.4.3.51.51l.31.52c.2.3.3.51.3.82v.51h.22v.72l.3.62.1.72.63.92.2 1.64.83.41-.2.62c.2.2.4.61.6 1.03l.11.4-.41.31c.1.2.2.52.2.72 0 .31-.1.72-.72.93h1.03v1.33c.52.82.62 1.03.62 1.13l.1 1.03.32.3 1.03 2.37.82.82v.72l.41.4v.52c.41.41.72.92 1.03 1.54l.42.2.4.62h.32l.72.62Zm-29.78-.93h.1l.93-.5.61-1.04c-.1.1-.2.1-.4.2l-.63.32h-.3l-.42.51v.51h.1Zm2.37-2.56h.1l.1-.2c0 .1-.1.1-.2.2Zm2.68-3.29c-.1.2-.1.31-.21.52.1-.21.2-.31.41-.62l-.2.1Zm1.95-4.2.1.1.21.2v1.13l-.82 1.33.41-.1c.93-1.44 1.65-2.15 2.27-2.46l.2-.1.62.2.52-.41.72.72.51-.2h1.03l.31.2.52-.3.2.1 1.45-.1.72.1.72-.52h1.65c.2 0 .41 0 .51-.1.31-.1.52-.2.73-.2h.4v.1l.32-.21.2.2.52-.3.93.2.4-.3h-.61c-.2 0-.62 0-1.85-.21l-1.45.2-1.85.31-.62.1h-.1c-.21 0-.52 0-.73-.1h-.3c-.31.1-.62.1-.83.1-.1 0-.3 0-.62-.1l-.62-.2-.72.1-.1-.1c-.1-.1-.41-.2-1.03-.41h-.2v.1l-.11-.1-.2-.2.1-.21-.31-.52-1.14 1.44-.3-.41-.31.3h-.73l-.72.62Zm19.38-.93c.1 0 .3.1.41.1.2-.1.51-.2.82-.2h-.92l-.31.1Zm-11.34-.62c.1 0 .2 0 .52.1.1 0 .2.1.3.1l.62-.1 1.86-.1 1.55-.2h.1c1.13.1 1.54.1 1.75.1h.52c0-.1-.1-.2-.21-.3l-.31-.42.62-.51c-.1-.2-.2-.31-.31-.41l-.41-.2.2-.62-.4-.2-.22-1.96-.61-.92-.1-.83-.21-.5h-.2l-.11-1.55s0-.1-.1-.2l-.52-.62-.2-.2c-.1-.1-.21-.21-.52-.31l-.1.1-.31.41-1.14 1.54-.3.51c-.11.1-.21.31-.62.72l.2.41-.3-.2-.42.4-.2.83-1.04.51c-.3 1.13-.72 1.85-1.44 2.16l-.41 1.33-.83.31v.41c.31.1.52.2.62.31h.52l1.03.3.2.11s.21 0 .52-.1c.1-.2.3-.2.41-.2Zm-3.81-2.05c-.1.1-.1.3-.2.41l.71-.3.31-.93s-.1 0-.2.1l-.2.62-.42.1Zm1.34-1.95v.61c.41-.1.82-.71.93-1.64v-.2c-.21.3-.52.72-.93 1.23Zm1.03-1.64c0 .1-.1.2-.1.3l1.03-.5.2-.63.1-.1.31-.3-.2-.21-.41.51-.21.1-.1.72-.62.1Zm1.85-2.37.21.42.1-.1.31-.52-.2-.1c-.1.1-.21.2-.42.3Zm49.88-.3-.62 1.02.1.72.21-.1c0 .2-.1.62-.3 1.13l-.32.61v2.37l-.4 1.02.1.72-.42 2.16.2.51-.4 1.75.1.71-.31 1.24.3 1.13-.71 1.13.2.61-.4.82.2.41.2 2.16.31.72c-.2.1-.4.3-.51.61l-.52.1-.2-2.35-.31-.1c0-.32 0-.52-.1-.83v-1.74c0-.31 0-.62-.1-.72l-.32-.62-.93-.1-.51-.72-.2.3-.42-.5-.82.2-.93-.72-.52.1-.92-.2-.52-.62-.3.1-2.9-1.74-.3-.41-1.03-.41-.62-.82-.52-.31-.72-.72-2.16-.92-1.55-1.95h-.62l-.4-.62c-.42-.2-.94-.62-1.55-1.23h.2c-.3-.31-.51-.62-.72-1.13l-.3-.1h-.11c-.31 0-.52.1-.62.3-.1.2-.2.72-.3 1.34l-.42 2.36.41 1.44-.72 2.56c.2.93.3 1.54.3 1.54v.2c0 .42-.1.73-.3.93-.2.2-.31.41-.31.52 0 .1.2.2.62.3l-.31 1.03v1.13l-.2 1.34.2.5-.2.32c-.11.92-.32 1.64-.63 2.15h-.3c-.42 0-.62-.3-.62-.92v-.2l.62-1.85-.21-.72.3-1.03-.3-.41.41-.72-.51-.72c.1-.4.1-.61.1-.92 0-.2 0-.62-.1-1.03l.2.1.2-.4-.4-.73.4-1.12-.2-1.44.2-1.34-.3-1.02.3-2.26v-1.75l.21-1.64-.2-.51v-2.26l.51-.1c-.4-.42-.61-.72-.61-1.13 0-.2.1-.31.3-.52l.83.2.2-.3c.31.2.42.51.42.72 0 .2-.1.4-.2.61h.61l.1 1.13.62.52.1.72.73.5.2.93c.1.41.2.62.52.82l1.54 1.13v.1c0 .21.2.52.52.83l1.13.72 1.14 1.33 3.7 3.08h.42c.3.3.51.51.62.72.1.2.2.3.2.41l1.55.51 1.23 1.03.73.2 1.34.72 1.23.42c.83.82 1.44 1.12 1.96 1.12l.72-.2h.1l.1-1.34.63-1.43-.31-.31.1-2.16.51-.82-.1-.51c0-.1-.2-.51-.41-.93l.51-1.84-.2-1.75.41-3.39-.41-.51.62-1.95-.2-.2.3-.42-.1-.3.72-.31.1.3.62-.1c-.1.31-.1.62-.1.82 0 .31.1.62.2.83.1.2.2.4.2.5l-.2.83.62 1.03Z"/><path fill="#fff" d="m95.04 69.5-1.23-.3-.21-2.36-.3-.1v-.42c0-.3-.11-.61-.11-.92v-1.75c0-.3-.1-.51-.1-.51l-.21-.2-.83-.1-.2-.32-.2.31-.63-.82-.72.2-.92-.71-.42.1-1.23-.2-.42-.52-.3.1-3.2-2.05-.2-.41-1.04-.41-.61-.82-.52-.31-.72-.72-2.17-.92-1.44-1.85h-.72l-.41-.62c-.52-.2-.93-.72-1.55-1.33l-.72-.82c-.1.2-.1.51-.2 1.13l-.42 2.26.42 1.43-.73 2.47c.31 1.33.31 1.43.31 1.54v.2c0 .52-.1.93-.4 1.23l.5.2-.4 1.45v1.23l-.21 1.13.3.61-.3.52c-.1.92-.31 1.74-.72 2.36l-.21.2h-.62c-.3 0-1.13-.1-1.13-1.43v-.52L70.4 65l-.2-.72.3-.82-.3-.52.41-.82-.52-.61v-.2c.1-.32.1-.62.1-.83 0-.2 0-.51-.1-.92l-.2-1.03.2.1-.1-.2.41-1.13-.2-1.34.3-1.43-.3-1.03.3-2.36v-1.75l.21-1.54-.2-.51.1-2.77h.1c-.1-.2-.2-.52-.2-.72 0-.2.1-.62.51-.93l.2-.2.73.2.3-.5.42.4c.41.31.62.72.62 1.13v.1h.41l.1 1.34.52.51.1.62.72.4.31 1.14c.1.2.2.4.31.51l1.75 1.23v.52s.1.2.31.4l1.14.73 1.23 1.43 3.5 2.88h.42l.1.1c.41.3.72.62.83 1.03v.1l1.44.51 1.24 1.03.61.2 1.34.72 1.34.41.1.1c.83.83 1.35 1.03 1.55 1.03l.42-.1.1-1.03.51-1.12-.2-.21.2-2.57.52-.72v-.3s-.1-.2-.41-.72l-.1-.2.5-1.96-.2-1.64.41-3.18-.51-.93.62-1.95-.31-.3.41-.52-.1-.51 1.65-.82.2.5 1.14-.2-.21.93c-.1.3-.1.51-.1.72 0 .2 0 .4.1.51.2.41.3.62.3.72v.1l-.3.72.62 1.13-.52.82.1-.1v.82c0 .3-.1.72-.4 1.33l-.1.52v2.36l-.52 1.03.1.61-.41 2.05.2.52-.4 1.85.1.82-.32 1.13.42 1.23-.72 1.13.2.61-.41.72.1.31.2 2.26.52 1.03-.4.3-.32.31-.3.52Zm-23.9-2.56v.4c.2-.4.3-1.02.4-1.63v-.1l-.4 1.33Zm.3-2.67.1.3.21-1.02v-.1l-.3.82Zm22.78-.72v.72l.1-.2-.1-.52Zm-.2-.82c.1.1.1.3.2.51l.72-1.13-.3-1.13.3-1.23-.1-.72-.52 1.03-.1 1.75h-.62l-.3.1h.2l.51.82Zm-22.47.1.2.2v-.6l-.2.4Zm-.2-1.54.5.72.11-.2c-.31-.1-.52-.31-.52-.62 0-.2.1-.51.42-.82.1-.1.2-.31.2-.52v-.2c0-.1 0-.3-.3-1.54V58l.61-2.36-.41-1.44.41-2.57c.2-1.03.31-1.33.41-1.54.1-.2.42-.61 1.14-.61h.2l.62.2.1.2c.21.42.42.72.62.93l1.03.92h-.3c.1.1.3.2.3.2l.1.11.32.41h.61l1.55 2.06 2.06.92.83.82.61.3.62.73 1.03.4.31.42 2.58 1.64.41-.1.62.72.62.1.4-.1-1.33-.72-.72-.2-1.24-1.03-1.34-.41c-.3-.1-.51-.41-.62-.72 0-.1-.1-.2-.3-.41h-.42l-3.7-3.29-1.04-1.33-1.03-.72c-.41-.41-.62-.72-.62-1.03l-1.34-1.02c-.3-.31-.51-.62-.72-1.13l-.2-.72-.83-.52-.1-.71-.62-.52-.1-.72-1.03.31v1.75l.2.51-.2 1.75v1.74l-.31 2.16.3 1.02-.3 1.54.2 1.44-.3 1.03.4.72-.4.92v.51c0 .1-.1.41-.1.72Zm18.54-.82.62.51.3-.1-.2-.2-.72-.2Zm4.84-2.57.31.31.2-.82-.2-.51.31-1.44-.41.72-.2 1.74Zm.21-4.3c.3.5.41.81.41.92l.1.5.1-.3-.1-.72.52-1.13v-2.36l.31-.72c0-.1.1-.2.1-.2l-.2-1.34.51-.82-.51-1.02.3-.93s-.1-.1-.1-.2c-.2-.31-.3-.72-.3-1.13v-.2l-.32.1-.1.1.1.1-.61 1.95.51.51-.51 3.5.2 1.74-.41 1.64ZM73.81 50.6h.21v-.1c-.1 0-.2 0-.2.1 0-.1 0-.1 0 0Zm-2.06-6.67c0 .1.1.3.42.51l.1-.2c.1-.1.1-.1.1-.2l-.62-.1ZM107.72 49.49l3.3.1 3.09-.1h2.78c.3 0 .52.1.52.4 0 .31-.21.52-.73.62-.1-.1-.2-.1-.4-.1-.21 0-.42.1-.63.2l-.62-.1h-1.23c-.62.31-1.13.52-1.75.52l-.93-.21-.41.41h-.41v-.3l-.83.4h-.41l-.1.41c-.31-.1-.73-.1-1.34-.2 0 .2-.1.3-.21.3-.1 0-.1-.1-.31-.2l-.62.1-.41.52-.1 2.26.1 1.33-.1 1.75v1.95l.1.92v.82l.2 1.34v.2c0 .52.31 1.03.93 1.54l.1.41.83.2.62.62 1.75.31 2.27-.51.62.2 1.64-.71.62.1c.21.2.31.4.31.61 0 .2-.2.52-.62.72l-.3-.1-.73.62-1.54.2-.52.3-.51-.3c-.52.3-1.03.41-1.65.41l-.93-.2h-.51l-1.76-1.03-.82-1.13-.52-.62-.82-2.25-.41-2.16.2-.82-.4-.41.2-.52-.1-.82.51-.4-.2-.42.1-.51-.2-.62.1-.92-.1-.41.2-.1v-1.75c-.1-.41-.2-.62-.41-.62-.1 0-.21.1-.31.2l-.52-.2-.72.2-.72-.5h-.42c-.4 0-.51-.2-.51-.62v-.72l-.3-.2.2-.41.72.1.51-.1.72.2h1.96l.1-1.13v-1.13l-.3-.82.4-.3c.11-.21.11-.32.11-.32 0-.2-.1-.4-.41-.5l.1-1.86-.4-.61.1-.41c-.31-.1-.42-.2-.42-.41l.31-1.24c.31-.3.41-.5.41-.61.93.4 1.45.72 1.45.82l-.21.41c.2.41.3.82.3 1.03v.1c-.1.2-.1.51-.1.62 0 .1 0 .3.1.4v.93l-.4.62.3 1.13-.2 1.43.2.31-.3.41.4 1.13h.83l.52-.2Z"/><path fill="#fff" d="m110.09 67.97-1.03-.21h-.62l-1.96-1.13-.82-1.23-.62-.72-.93-2.46-.41-2.26.2-.72-.4-.51.2-.72-.2-1.03.4-.3-.1-.21.1-.62-.2-.62.1-.92-.1-.72.3-.2v-1.24l-.71-.3-.83.2-.82-.61h-.2c-.73 0-1.14-.41-1.14-1.13v-.41l-.41-.31.51-1.23 1.03.1.62-.1.83.2h1.34v-1.44L103.8 46l.52-.4h-.1l-.31-.21.1-1.95-.41-.62v-.2a.89.89 0 0 1-.42-.72v-.1l.42-1.44.1-.1c.3-.31.3-.52.3-.52l.22-.61.61.3c1.55.72 1.75.93 1.75 1.34v.1l-.1.3c.2.42.31.73.31 1.04v.3c-.1.2-.1.31-.1.52l.2.2-.1.62.1.61-.4.62.2 1.03-.2 1.33.3.41-.3.52.2.5h.3l.63-.4 3.4.1 3.09-.1h2.78c.62 0 1.03.4 1.03.92 0 .31-.1.93-1.24 1.13h-.2l-.2-.1h-.11c-.1 0-.1 0-.2.1l-.21.2-.83-.2h-1.03c-.62.31-1.23.52-1.85.52h-.1l-.62-.1-.42.4h-1.13l-.2.1h-.1l-.22.52-.51-.1c-.1 0-.41-.1-.93-.1-.2.2-.41.2-.51.2-.21 0-.31-.1-.42-.2h-.2l-.2.2-.11 2.05.1 1.34-.1 1.74v1.95l.1 1.03v.72l.52 1.13v.3c0 .31.2.72.72 1.14l.1.1.1.2.73.2.61.62 1.45.31 2.37-.51.62.2 1.54-.71.93.1.1.1c.31.3.52.62.52 1.03 0 .4-.31.82-.83 1.23l-.2.2-.31-.1-.62.52-1.65.2-.72.41-.62-.3c-.62.71-1.13.82-1.75.82Zm-1.24-1.24h.41l.93.2c.52 0 .93-.1 1.34-.3l.31-.1.52.3.3-.2 1.55-.2.83-.72.3.1.1-.1v-.1h-.3l-1.65.82-.72-.21-2.27.51-2.06-.4-.62-.73-.93-.2.42.51 1.54.82Zm-2.78-2.56.52.61.3.41-.2-.4c-.31-.32-.62-.62-.83-.93l.21.3Zm-.82-2.06.4 1.24c0-.1-.1-.31-.1-.42v-.1l-.4-1.02.1.3Zm-.31-1.95.2 1.13v-.61l-.1-.93-.1.41Zm-.1-1.43.2.2V57.5l-.2.1.1.62-.1.52Zm.1-3.29.2.51-.1-1.33-.1.82Zm-.72-4.31c.4 0 .82.3.92 1.02v.52-.62l.72-.72 1.03-.1v-.1h.42c.4 0 .72.1.92.1l.1-.3h.73l1.44-.73v.31l.2-.2 1.14.2c.52 0 .93-.1 1.44-.4l-2.47.1-3.1-.1-.5.4h-1.45l-.41-1.44-.1 1.03h-2.58l-.72-.2-.52.1v.82h.62l.72.51.62-.2.41.2c.1-.2.31-.2.42-.2Zm1.03-4.42.2.52v.51l.1-1.13-.1-.3s0 .1-.1.2l-.1.2Zm0-1.54.1.1.41-.61v-.62c-.1-.1-.1-.3-.1-.5 0-.21 0-.52.1-.73 0-.1 0-.3-.3-.82l-.11-.2.1-.31c-.1-.1-.3-.2-.51-.31 0 .1-.1.1-.1.2l-.21.83.51.1-.2.72.4.51-.1 1.64ZM153.68 63.96c.1.3.2.51.2.62 0 .1-.1.3-.4.51-.31.2-.62.51-1.03.82l-.52-.2-.62.92c-.51 0-1.03.2-1.44.41l-1.34-.3-.72.3-.2.41c-.42-.3-.73-.51-.83-.51-.1 0-.1 0-.1.1h-.21l-.41.41-.42-.51-.3.1c-.31-.2-.52-.3-.73-.3h-1.54l-.41-.52-.52.1-.72-.4-.41.2-.31-.52h-.72l-.42-.5h-.51l-.31-.32c-.1-.2-.41-.4-.62-.61l-1.44-.72a4.74 4.74 0 0 1-1.96-2.06h-.52l-.72-.92-1.34-1.13-1.54-1.74-.41-.1-.73-.73c-.1-.1-.4-.2-.92-.4-.21.1-.42.2-.62.2-.1 0-.31-.1-.41-.2h-.62l-.42-.62c.21-.2.31-.52.31-.93l.62-.2v-.3l.62-.11c.2-.1.41-.2.62-.2.1 0 .2 0 .41.1.1.1.2.1.2.1s.11 0 .21-.1c.1.61.83.82 1.96.82 1.03 0 1.86-.1 2.37-.31v-.2l3.5-.1a5.6 5.6 0 0 1 2.58-.63l.31.1.83-.3.2-.3h.52l.72-.32h.51c.31 0 .42 0 .52-.1.1-.1.1-.2.1-.3v-.11c.41 0 .62-.1.62-.2 1.13-.31 1.75-.83 1.75-1.55 0-.3-.2-.71-.51-1.02l-1.55-1.54h-.41a4.14 4.14 0 0 0-1.34-.62h-.41l-.93-.4h-.62l-.62-.52h-1.13l-.41-.2-2.58-.21-.41-.2-.31.2-.52-.2-.51.2-1.34-.2-1.44.2-.72-.2-.83.1-.72-.1-.62.2-.41-.2-.83.5-.61-.1c-.21.41-.42.82-.73 1.13l.31.62-.1 2.77.31 2.36c-.3 1.13-.52 1.75-.52 2.05l-.3 6.06.4 3.5-.3 1.84v.41c0 .2-.31.41-.93.41h-.2l.2-1.85-.2-.71-.42-1.96.31-.2c-.41-.51-.62-.82-.62-.92 0-.31.21-.62.52-.93l-.41-.72h-.1c0-.2.2-.61.61-1.33-.2-.2-.3-.52-.3-.93l.1-.71v-.42c.2-.4.3-.71.3-1.02 0-.31-.1-.62-.3-1.13l.3-.82-.1-.72.31-.2c-.1-.1-.1-.31-.1-.52 0-.2.1-.62.3-1.13l-.4.1-.31-1.23.2-.92-.2-1.95.2-.2c-.51-.52-.82-.73-1.13-.73h-.1l-.31.31-1.14-.1-.72.92c-.3-.3-.62-.4-.93-.4-.2-.32-.4-.62-.4-.73 0-.1 0-.3.1-.4.1-.11.2-.32.3-.42l.62-.4 1.44-.21 1.96-.1.42-.32v-.1c0-.51.4-.72 1.13-.72h.62c.2.62.4 1.03.82 1.03.1 0 .41-.1 1.03-.41l1.14.3 1.85-.3 2.47.3 3.5.11 1.76.3h1.34l.51.42c0-.2.1-.3.31-.3.1 0 .31.1.42.3 0 .2.1.4.2.51l.52.1v-.61l1.85.72.62.51.1-.1c.31.2.72.3 1.24.3l.3.42.42.1c.52.82.93 1.33 1.14 1.74.3.42.4.72.4 1.03 0 .62-.2 1.03-.71 1.54-.52.41-1.03.93-1.55 1.64h-.93c-.1 0-.41.1-.82.31l-.2.41h-1.35l-.41.31c-.1.1-.2.1-.41.2l-.72.21c-.83 0-1.55.3-2.17 1.03l-.72-.52-.62.31c-.1-.1-.3-.1-.4-.1-.22 0-.42.1-.73.41l-.62-.3-.62.3-.2-.3-.83.5-1.13-.1c-.2 0-.52 0-.72.1l.4.62 1.14 1.03.31.61 1.86 1.44.4.72.32.3c.1.11.3.52.62 1.24h1.23l1.45 1.44.72.3 1.03.62 1.03.31 1.44.51.52-.1.2.2.1-.1.21.31.62-.1.1.51.52-.3.51.2 1.65-.2.62.2 2.27-.41 1.65-.41.1.3.3-.61h.73l-.3-.72Z"/><path fill="#fff" d="m147.7 68.38-.51-.41c-.1-.1-.2-.1-.2-.21l-.42-.1-.62.61-.51-.61-.31.1-.2-.2c-.11-.1-.32-.21-.42-.21h-1.75l-.41-.41-.42.1-.72-.4-.62.3-.4-.72h-.63l-.41-.51h-.3c-.42 0-.63-.31-.73-.62-.1-.1-.2-.3-.41-.41l-1.45-.72a4.95 4.95 0 0 1-2.06-2.05h-.51l-.93-1.13-1.34-1.03-1.44-1.74-.41-.1-.83-.83s-.2-.1-.51-.2c-.42.2-.72.2-1.03 0h-.93l-.83-1.23.31-.31s.1-.2.2-.62v-.3l.52-.21v-.31l.93-.2c.41-.31.83-.31 1.34-.21l.52-.82.3 1.23c.1.3.63.41 1.45.41.72 0 1.34-.1 1.85-.2v-.21l3.92-.1a6.03 6.03 0 0 1 2.68-.62h.1l.2.1.42-.2.31-.41.72.1.72-.3h.62v-.52l.52-.1h.1l.41-.1c.93-.21 1.34-.62 1.34-1.03 0-.2-.1-.41-.3-.62l-1.45-1.33h-.31l-.1-.1c-.83-.52-1.03-.62-1.14-.62h-.51l-.93-.41h-.62l-.62-.52h-1.03l-.4-.2-2.58-.2-.31-.21-.21.1-.62-.2-.41.1-1.44-.2-1.45.3-.82-.3-.82.1-.62-.1-.62.3-.41-.1-.83.51-.51-.1c-.1.2-.21.4-.42.61l.21.52-.1 2.77.3 2.36v.1c-.4 1.44-.5 1.75-.5 1.85l-.32 5.96.41 3.49-.3 1.85v.4c0 .31-.21.93-1.45.93h-.92l.3-2.36-.2-.62-.52-2.26.1-.1c-.3-.4-.3-.61-.3-.82 0-.3.1-.72.4-1.03l-.1-.2c-.2-.1-.3-.31-.3-.52 0-.2.1-.5.51-1.23-.1-.3-.2-.61-.2-.92v-.1l.1-.72v-.41l.1-.1c.2-.42.2-.62.2-.72 0-.1 0-.42-.3-.83l-.1-.2.3-.82-.2-.82.2-.2v-.72h-.1l-.41-1.96.2-.92-.2-2.06c-.1-.1-.2-.2-.31-.2l-.3.3-1.04-.1-.93 1.13-.4-.3c-.32-.21-.52-.31-.63-.31h-.2l-.1-.2c-.32-.42-.52-.83-.52-1.14 0-.2.1-.51.2-.72.1-.2.31-.4.52-.61l.72-.52 1.65-.2 1.75-.1.1-.1c0-.42.31-1.14 1.65-1.14h1.03l.1.42c.11.3.21.5.32.5.1 0 .3-.1.82-.3l.2-.1 1.24.3 1.86-.3 2.47.3 3.5.1 1.65.32h1.45l.3.2c.1 0 .21-.1.31-.1.21 0 .42.1.62.2v-.1l2.68 1.13.2.2.11-.1.41.31c.1.1.42.2 1.03.2h.21l.31.42.41.1.1.2c.52.83.93 1.34 1.14 1.75.3.51.51.93.51 1.34 0 .71-.3 1.33-.92 1.95-.52.4-1.03.92-1.55 1.54l-.2.2-1.04.1s-.1 0-.4.21l-.21.51h-1.45l-.2.2c-.1.11-.31.21-.62.32l-.83.2h-.1c-.62 0-1.24.31-1.75.82l-.31.31-.93-.61-.62.3-.3-.2h-.1s-.11.1-.32.2l-.3.2-.73-.3-.82.3-.2-.2-.63.31-.82-.1.93.72.3.51 1.86 1.44.41.82.2.3c.11.11.22.32.52 1.14h1.14l1.54 1.54.72.3.93.62.93.3 1.24.52.62-.1.2-.2.31.61.83-.2.1.2.1-.1.72.2 1.65-.2.62.2 2.16-.4 1.76-.52.2-.3h.72l.72-1.55.52 1.34c.2.5.2.71.2.82 0 .4-.3.72-.61.92-.31.2-.62.51-.93.82l-.2.2-.42-.1-.51.83h-.31c-.42 0-.83.1-1.24.3l-.2.1-1.34-.3-.42.2-.3 1.24Zm-1.03-1.95c.2 0 .31 0 .62.2l.83-.41-.62-.1-1.65.2-.41-.1-.42.3h.1l.42-.2.3.31.22-.2h.2c.2.1.31 0 .41 0Zm2.06-.21 1.14.3c.41-.2.82-.3 1.23-.3l.31-.41-.62.2-2.06.21Zm-5.56.1h1.34l-.1-.2-.52.1-.2-.3-.21-.21-.41.1-1.55-.62-1.03-.3-1.03-.62-.83-.41-1.34-1.34h-1.44l-.1-.3c-.31-.83-.52-1.03-.52-1.13l-.3-.41-.42-.72-1.85-1.44-.31-.62-1.13-.92-.93-1.33.72-.21h-.2c-1.14 0-1.86-.2-2.27-.72-.1 0-.21-.1-.42-.2h-.1s-.1 0-.2.1l-.1.1-.32.1v.2l-.62.21c0 .1 0 .1-.1.21l.62.41.1.1s.1 0 .31-.1l.2-.1.21.1c.83.3 1.03.41 1.24.62l.62.61.41.1 1.65 1.85 1.34 1.13.62.82h.62l.1.31c.41.82.93 1.44 1.65 1.85l1.44.72c.41.2.62.51.82.82 0 0 0 .1.1.1h.63l.4.52h.73l.2.4.31-.1.83.41.62-.1.72.41ZM123.9 64.9l.2.5.1-.6-.2-1.75-.41.3.3 1.55Zm-.62-2.98c0 .1.1.2.41.61l.31.41-.2-1.43v-.31l-.21.2c-.31.21-.31.42-.31.52Zm0-1.95.52 1.02.3-5.64c0-.2.1-.62.52-2.06l-.3-2.05-.21.41c-.31.62-.31.82-.31.93v.2l.3.41-.4.3.1.52-.31.72c.2.41.3.82.3 1.13 0 .3-.1.72-.3 1.13v.3l-.1.73c0 .3.1.4.2.51l.3.3-.2.32c-.2.4-.3.71-.41.82Zm8.97-4.62.61.1.72-.41-.2.1c-.31.1-.62.2-1.13.2Zm2.47-.41.51.2c.21-.1.31-.2.42-.2h-.93Zm-.62 0 .1.2.42-.2h-.52Zm3.2-.2.51.3c.41-.41.93-.62 1.44-.72-.62 0-1.34.1-1.96.41Zm6.6-2.06h.5l.31-.31c-.2.1-.51.2-.82.3Zm-.83-5.14h.4l1.76 1.65c.41.4.72.92.72 1.43 0 .21 0 .42-.1.62l.1-.1c.41-.31.52-.72.52-1.13 0-.2-.1-.41-.31-.72-.2-.3-.62-.82-1.03-1.54l-.41-.1-.31-.41c-.31 0-.52-.1-.73-.2l-.2.2-1.03-.82-1.03-.42v.42l-1.34-.21-.1-.2c0-.1-.1-.1-.1-.21l-.11.3-1.03-.92h-1.14l-1.75-.3-3.5-.1-2.37-.32-1.86.31-1.13-.2c-.72.3-.93.4-1.03.4-.41 0-.93-.2-1.24-1.02h-.2c-.41 0-.52.1-.52.1v.52l-.72.61-2.06.1-1.24.1-.51.32-.2.2v.2s0 .11.1.32c.1 0 .3.1.4.2l.63-.72 1.13.1.3-.3h.32c.4 0 .92.3 1.54.92l.42.41-.42.41.2 1.75-.2.82.1.61.73-.1.1-2.36-.41-.82.2-.3c.21-.32.42-.62.62-1.04l.2-.4.83.1.93-.62.41.2.52-.2.82.1.93-.1.72.2 1.34-.2 1.34.2.52-.2.4.1.32-.2.62.3 2.57.21.41.2h1.14l.61.52h.52l.93.41h.3c.42.3.73.41 1.66.92Z"/><path fill="#fff" d="M183.98 55.44c0 .2-.1.41-.31.51l-.72-.2-.83.61-1.03-.1c-.4.3-.82.41-1.34.41-.4 0-.62.1-.72.2-.41-.2-.72-.2-1.13-.2-.31 0-.52.1-.62.31.1.1.2.3.3.41l-.1.51.1 1.54.63.93.1.82 1.03 1.54-.2.72.72.61 1.13 1.85c.62.62.93 1.13 1.03 1.44l.82.41.31.72.42.3-.62.42-.72-.62h-.42l-.61-.51h-.42l-.4-.82-.42-.2a8.54 8.54 0 0 0-1.24-1.75v-.41l-.4-.42v-.71l-.73-.72-1.03-2.36-.31-.41-.2-1.13c0-.1-.21-.52-.63-1.13v-1.03h-.51l-.62.41-.93-.2-.61.4-.21-.2-.52.3-.1-.3c-.1 0-.2 0-.51.1-.21.1-.52.1-.72.1h-1.45l-.82.52-.83-.2-1.13.1v.2l-.41-.2-.62.3-.41-.3h-.73l-.72.3-.61-.61-.31.2-.62-.2c-.52.2-1.24 1.03-2.17 2.36l-.72.2c-1.23 1.96-1.95 2.88-2.06 2.88l-.41.2-1.34 1.75h-.2l-1.14 1.85-1.24.72-.92-.2.2-.42v-.61l.31-.42-.2-.3.82-.1.62-.31c.51-.2.82-.62.93-1.13.61-.2 1.03-.52 1.13-1.13a3.5 3.5 0 0 0 1.55-2.16l.61-.2 1.55-2.37v-.61c-.2-.2-.41-.41-.52-.72l.93-.82v-.3l1.14.1.61-.42.1.2.62-.81c-.1 0-.2-.1-.2-.2 0-.11.2-.32.62-.52l.2.3c0-.4.2-.82.52-1.33l-.1-.1h.51l.2-.62c.42 0 .63-.2.63-.51v-.51c.72-.62 1.13-1.24 1.13-1.75v-.1l.62-.1.1-.62.3-.1.52-1.03.31.2-.2-.5c.4 0 .72-.32.72-.93l.3.2v-.92h.32v-.62l.51-.51c.31-.2.52-.62.52-1.03l.51-.51-.3-.72c.4-.61.82-.82 1.23-.82h.1l.31-.41.31.51c.1.1.2.2.41.31l.83.41.1 1.23c.2.2.41.52.62.93l.41.1.1 1.03.42 1.43.62 1.13.4 1.54.11 1.03.62.92-.2.41.5.62v.72l.11.62c0 .1-.1.3-.2.5.51 1.14 1.02 1.65 1.64 1.65l.93-.2h1.13c.31.1.62.1.83.1.41 0 .72-.1.93-.3.2-.21.4-.32.4-.32.11 0 .42.1.83.41l.52-.51ZM175 54.31c-.2-.51-.4-.82-.72-1.03l.2-.61-.61-.31-.2-1.75-.63-.92-.1-.72-.3-.61v-.2h-.11l-.1-1.04c0-.1-.1-.3-.2-.5l-.32-.52c-.1-.1-.2-.2-.41-.31-.2-.1-.52-.3-.93-.51l-.51.3-.31.52-1.14 1.64-.3.51c-.1.1-.42.52-1.14 1.24l-.2.71-1.04.52c-.2 1.23-.72 1.85-1.44 2.05l-.41 1.44-.93.4v.52l-.1.62c.51.2.93.3 1.13.51h.62l.93.2c.2.1.3.1.41.1.1 0 .31 0 .62-.1h.2s.21 0 .31.1c.21.11.42.11.52.11l.62-.1 1.85-.1 1.55-.2c.93.1 1.54.2 1.85.2.73 0 1.14-.2 1.14-.52 0-.2-.1-.51-.41-.82l.61-.82Z"/><path fill="#fff" d="m182.95 69.92-.93-.72h-.51l-.62-.52h-.62l-.52-.92-.51-.2-.1-.21A5.12 5.12 0 0 0 178 65.7l-.2-.2v-.42l-.42-.41v-.72l-.62-.72-1.02-2.36-.42-.51-.2-1.34c0-.1-.1-.3-.52-.92l-.1-.1v-.52l-.52.31-.92-.2-.83.5-.2-.2-.73.41-.2-.5c-.31.1-.62.2-.93.2h-1.24l-.82.51-1.03-.2h-.62v.61l-.93-.51-.62.3-.51-.4h-.41l-1.03.4-.52-.61-.2.1-.73-.3c-.3.2-.82.71-1.75 2.15l-.1.2-.72.21c-1.65 2.57-1.96 2.88-2.17 2.98l-.2.1-1.45 1.85h-.2l-1.03 1.64-1.55.93-1.75-.52.41-.92v-.72l.2-.3-.3-.73 1.54-.2.52-.31c.3-.1.51-.41.62-.82l.1-.31.31-.1c.52-.1.72-.41.72-.62v-.2l.2-.1c.63-.31 1.04-.93 1.25-1.75l.1-.31.72-.3 1.34-2.06v-.3c-.2-.21-.31-.42-.41-.73l-.1-.3 1.02-.93v-.72l1.55.2.82-.5v-.21c0-.31.31-.62.93-1.03l.1-.1c0-.1.1-.2.1-.3l-1.02-.73 1.75-.1.2-.62h.52v-.72l.2-.2c.63-.51.93-1.03.93-1.34v-.61l.72-.1.1-.62.42-.1.41-.72-.2-.51h.72c.1 0 .2 0 .3-.42l.11-.82.2.1v-.5h.32v-.32l.2-.2.52-.51c.2-.2.3-.41.4-.72v-.2l.42-.42-.3-.72.2-.3c.51-.62.93-.93 1.44-1.03l.62-.93.72 1.13.2.2 1.04.52.1 1.34c.2.2.31.4.52.72l.51.2.1 1.34.31 1.33.62 1.03.41 1.64.1.82.83 1.03-.2.3.4.42v.82l.11.72c0 .2 0 .3-.1.5.3.73.62 1.04 1.03 1.14l.92-.2h1.34c.31.1.52.1.73.1.3 0 .4 0 .62-.1.4-.31.51-.42.82-.42.2 0 .41.1 1.03.41l1.44-.1v1.13c0 .41-.2.82-.62 1.03l-.2.1-.72-.2-.83.61-1.03-.1c-.41.3-.93.4-1.44.4h-.31l-.2.42-.42-.2c-.2-.1-.3-.1-.51-.21l-.21.72.1 1.33.62.93.1.82 1.14 1.64-.1.62.51.5 1.13 1.86c.62.72.83 1.02.93 1.33l.83.41.3.82.83.62-2.06 1.03Zm-1.03-1.85h.3l-.71-.31-.1-.2c0-.1-.21-.42-.94-1.24l-.1-.1-1.03-1.75-.93-.82.21-.72-.93-1.43-.1-.82-.62-.93-.2-1.85.1-.2c-.1-.1-.2-.2-.2-.41l-.11-.2.1-.21c.1-.2.2-.41.62-.62-.62-.2-1.24-.82-1.65-1.95l-.1-.3.2-.21c.1-.1.1-.1.1-.2l-.1-.62v-.52l-.61-.72.2-.4-.51-.73-.1-1.12-.42-1.44-.62-1.13-.4-1.54-.11-.72-.31-.1-.1-.2c-.21-.52-.42-.62-.42-.73l-.2-.1-.1-1.13-.52-.2c-.2-.1-.31-.2-.41-.31h-.41c-.1 0-.21 0-.62.4l.3.73-.72.72c-.1.5-.3.82-.72 1.13-.2.1-.3.2-.3.3v1.03h-.31v.62l.82-1.13.41-.72.93-.52.2.1c.42.21.73.42.93.52.2.2.41.3.52.51l.3.52c.21.3.32.51.32.82v.51h.2v.72l.31.62.1.72.62.92.2 1.64.83.41-.3.72c.2.2.4.62.61 1.03l.1.4-.4.32c.1.2.2.51.2.72 0 .3-.1.71-.72.92h1.03v1.33c.51.83.62 1.03.62 1.13l.1 1.03.3.3 1.04 2.37.82.82v.72l.42.41v.51c.4.41.72.93 1.03 1.54l.4.2.42.62h.31l.93.52Zm-29.89-.93h.1l.93-.5.62-1.04c-.1.1-.2.1-.41.2l-.62.32h-.3l-.42.51v.51h.1Zm2.48-2.56h.1l.1-.2c0 .1-.1.1-.2.2Zm2.68-3.29c-.1.2-.1.31-.21.52.1-.21.2-.31.41-.62l-.2.1Zm1.85-4.2.1.1.2.2v1.13l-.81 1.33.4-.1c.94-1.44 1.66-2.15 2.27-2.46l.21-.1.62.2.51-.41.72.72.52-.2h1.03l.31.2.51-.3.21.1 1.44-.1.73.1.72-.52h1.65c.2 0 .4 0 .51-.1.31-.1.52-.2.72-.2h.41v.1l.31-.21.21.2.52-.3.92.2.42-.3h-.62c-.21 0-.62 0-1.86-.21l-1.44.2-1.75.1-.62.1h-.1c-.21 0-.52 0-.73-.1h-.3c-.31.1-.62.1-.83.1-.1 0-.3 0-.62-.1l-.82-.2-.72.1v.1c-.1-.1-.42-.2-1.03-.4h-.21v.1l-.1-.1-.2-.1.1-.21-.31-.52-1.14 1.44-.3-.4-.32.2-.72-.1-.72.71Zm19.37-.93c.1 0 .31.1.42.1.2-.1.51-.2.82-.2h-.93l-.3.1Zm-11.33-.62c.1 0 .2 0 .51.1.1 0 .21.1.31.1l.62-.1 1.86-.1 1.54-.2h.1c1.14.2 1.65.2 1.76.2h.51c0-.1-.1-.2-.2-.3l-.31-.42.62-.5c-.1-.21-.21-.32-.31-.42l-.42-.2.21-.62-.41-.2-.2-1.96-.63-.92-.1-.82-.2-.52h-.21l-.1-1.54s0-.1-.1-.2l-.32-.51-.2-.21c-.1-.1-.21-.2-.52-.3l-.1.1-.31.4-1.13 1.55-.31.5c-.1.11-.1.32-.62.73l.2.4-.3-.2-.42.41-.2.82-1.03.52c-.31 1.13-.72 1.85-1.45 2.15l-.4 1.44-.83.3v.42c.3.1.51.2.61.3h.52l1.03.32.2.1s.21 0 .52-.1c0-.52.2-.52.2-.52Zm-3.82-2.05c-.1.1-.1.3-.2.41l.72-.3.31-.93s-.1 0-.2.1l-.21.72h-.42Zm1.34-1.95v.61c.42-.1.83-.71.93-1.64v-.2c-.1.3-.41.72-.93 1.23Zm1.14-1.64c0 .1-.1.2-.1.3l1.03-.5.2-.63.1-.1.31-.3-.2-.21-.31.61-.2.1-.11.73h-.72Zm1.85-2.37.21.42.1-.1.31-.52-.2-.1c-.21.1-.31.2-.42.3ZM88.14 15.5l2.89.1 2.78-.1h2.58c.3 0 .4.1.4.41 0 .31-.2.52-.71.52-.1-.1-.21-.1-.31-.1-.2 0-.42.1-.52.2l-.72-.1H93.4c-.52.3-1.03.4-1.55.4l-.82-.1-.42.42h-.4v-.21l-.73.3h-.41l-.1.42c-.1-.2-.52-.2-1.14-.2 0 .2-.1.2-.2.2s-.1-.1-.21-.2l-.62.1-.41.4-.1 2.06.1 1.23-.1 1.54v1.75l.1.82v.72l.51 1.02v.2c0 .52.31.93.83 1.34l.1.31.72.2.52.62 1.54.31 2.07-.51.61.2 1.45-.72.51.1c.2.21.31.42.31.52 0 .2-.2.41-.51.72l-.31-.1-.62.51-1.44.2-.52.31-.3-.2c-.52.2-.94.4-1.45.4l-.83-.2h-.4l-1.55-.92-.73-1.03-.51-.51-.72-2.05-.31-1.85.2-.72-.3-.41.2-.51-.41-.72.41-.31-.2-.41.1-.52-.2-.5.1-.83-.1-.41.2-.1v-1.54c-.1-.41-.2-.52-.31-.52-.1 0-.2.1-.2.2l-.52-.2-.72.1-.72-.5h-.31c-.31 0-.52-.21-.52-.52v-.62l-.3-.2.2-.41.62.1.51-.1.72.2h1.75l.1-.92v-.93l-.3-.71.3-.21c.11-.2.11-.3.11-.3 0-.21-.1-.32-.3-.42l.1-1.64-.31-.51.1-.41c-.31-.1-.41-.21-.41-.31l.3-1.13c.21-.31.42-.52.42-.62.82.41 1.23.62 1.23.72l-.2.41c.2.41.3.72.3.93v.1c-.1.2-.1.4-.1.61 0 .1 0 .2.1.31v.72l-.4.62.2 1.02-.2 1.24.2.2-.2.41.3 1.03h.73l.51-.2Z"/><path fill="#fff" d="m92.26 32.03-.51-.3c-.42.2-.93.3-1.45.3h-.1l-.82-.2h-.52l-1.75-1.03-.72-1.03-.52-.61-.82-2.16-.41-2.05.1-.62-.41-.4.2-.62-.2-.93.3-.3v-.1l.11-.52-.1-.52.1-.82-.1-.72.2-.2v-1.03l-.51-.2-.72.2-.73-.51h-.3c-.62 0-1.03-.41-1.03-1.13v-.3l-.42-.32.52-1.13.93.1.51-.1.72.2h1.14v-1.22l-.42-1.03.42-.3-.31-.21.1-1.75-.1-.61v-.2c-.31-.21-.31-.52-.31-.63v-.1l.3-1.23.11-.1c.2-.31.2-.41.3-.41l.21-.62.62.3c1.34.62 1.55.83 1.55 1.24v.1l-.1.31c.2.41.2.72.2.93v.3c-.1.1-.1.31-.1.41l.1.1-.1.52.1.62-.3.5.2.93-.1 1.13.2.41-.3.41.1.41h.2l.52-.4 3.09.1 2.78-.1h2.47c.73 0 1.04.5 1.04.92 0 .3-.1.92-1.14 1.13h-.2l-.21-.1s-.1 0-.2.1l-.21.2-.83-.2h-.92a3.6 3.6 0 0 1-1.86.61h-.1l-.52-.1-.41.3h-1.03l-.2.11h-.11l-.2.51-.52-.1c-.1 0-.31-.1-.72-.1-.2.2-.41.2-.52.2-.2 0-.3-.1-.41-.1h-.2l-.1.1-.11 1.85.1 1.23-.1 1.54v1.75l.1.92v.62l.52 1.03v.3c0 .31.2.62.61.93l.1.1.11.2.62.1.51.63 1.24.2 2.06-.51.52.2 1.44-.61.93.1.1.1c.3.31.41.62.41.93 0 .61-.62 1.02-.82 1.13l-.2.2v-.2l-.52.4-1.45.21-.72.41Zm-3.09-1.23h.31l.82.2c.42 0 .83-.1 1.14-.3l.2-.1-1.03.2-1.85-.3-.52-.62-.72-.1.2.3 1.45.72Zm2.68-.3.41.3.31-.2.83-.1-.62-.21-.93.2Zm2.58-.42-.93.41.51-.1.42-.3Zm.4-.2.21.1.1-.1h-.3Zm-9.78-12.94c.41 0 .72.3.82.82l.62-.72.83-.1v-.1h.4c.32 0 .63 0 .83.1l.1-.3h.62l1.14-.52-2.27-.1-.3.4h-1.35l-.3-1.02-.11.72H83.7l-.62-.2-.41.1v.61h.51l.62.41.62-.1.31.1c.1-.1.2-.1.3-.1Zm5.98-.82.92.2c.31 0 .72-.1 1.03-.2h-1.95Zm-4.95-3.08.1.3.1-.4-.2.1Zm-.1-1.44.3-.51v-.52c-.1-.1-.1-.3-.1-.5 0-.21 0-.42.1-.73 0 0 0-.2-.2-.72l-.1-.2.1-.3c-.1-.11-.2-.11-.41-.21 0 0 0 .1-.1.1l-.21.61.41.1-.1.73.3.5v1.65Z"/><path fill="#fff" d="m101.64 22.69-2.89-.1-2.78.1H93.4c-.3 0-.4-.1-.4-.41 0-.3.2-.51.71-.51.1.1.21.1.31.1.2 0 .42-.1.52-.2l.62.1h1.13c.52-.31 1.03-.42 1.55-.42l.82.1.41-.4h.41v.2l.73-.3h.4l.11-.42c.2.1.62.1 1.24.2 0-.2.1-.2.2-.2s.1.1.21.2l.62-.1.41-.4.1-2.06-.1-1.23.1-1.54v-1.75l-.1-.82v-.72l-.52-1.02v-.2c0-.52-.3-.93-.82-1.34l-.1-.31-.72-.2-.52-.62L99.06 8 97 8.52l-.62-.2-1.44.61-.51-.1c-.21-.2-.31-.41-.31-.51 0-.2.2-.41.51-.72l.31.2.72-.61 1.34-.1.52-.31.51.3c.52-.2.93-.4 1.44-.4l.83.2h.41l1.55.92.72 1.03.51.51.73 2.06.3 1.84-.2.72.3.41-.2.52.2.72-.4.3.2.41-.1.52.2.51-.1.82.1.41-.2.1v1.55c.1.4.2.5.3.5.11 0 .21-.1.21-.2l.52.2.62-.2.72.52h.3c.32 0 .52.2.52.51v.62l.31.2-.2.41-.62-.1-.52.1-.72-.2h-1.55l-.1.92v1.13l.31.72-.3.2c-.11.2-.11.31-.11.31 0 .2.1.31.3.41l-.1 1.65.31.5-.1.42c.31.1.41.2.41.3l-.3 1.14c-.21.3-.42.51-.42.61-.82-.4-1.23-.61-1.23-.72l.2-.4c-.2-.42-.3-.73-.3-.93v-.1c.1-.2.1-.41.1-.62 0-.1 0-.2-.1-.3v-.73l.4-.61-.2-1.03.2-1.23-.2-.2.2-.42-.3-1.02h-.73l-.51.1Z"/><path fill="#fff" d="m104.63 31.62-.62-.3c-1.34-.62-1.55-.83-1.55-1.24v-.1l.1-.3c-.2-.42-.2-.73-.2-.93v-.31c.1-.1.1-.3.1-.41l-.1-.1.1-.52-.1-.61.3-.52-.2-.92.1-1.13-.2-.41.3-.41-.1-.41h-.2l-.52.4-3.09-.1H93.5c-.72 0-1.03-.5-1.03-.92 0-.3.1-.92 1.13-1.13h.2l.21.1s.1 0 .2-.1l.21-.2.83.2h.93a3.4 3.4 0 0 1 1.75-.4h.1l.52.1.4-.31H100l.2-.1h.1l.21-.52.52.1c.1 0 .3.1.72.1.2-.2.41-.2.52-.2.2 0 .3.1.4.1h.22l.1-.1.1-1.85-.1-1.23.1-1.54v-1.75l-.1-.92v-.62l-.52-1.02v-.31c0-.3-.2-.62-.61-.92l-.1-.1-.11-.21-.62-.1-.52-.62-1.44-.3-2.06.5-.51-.2-1.45.62-.92-.1-.1-.11c-.32-.3-.42-.62-.42-.92 0-.62.62-1.03.72-1.13l.2-.2.32.2.51-.41 1.45-.2.72-.42.51.3c.41-.2.93-.3 1.44-.3h.1l.83.2h.52l1.75 1.03.72 1.03.52.61.82 2.16.41 1.95-.1.62.41.4-.2.62.2.93-.3.3.1.1-.1.52.2.52-.1.82.1.72-.2.2v1.03l.5.2.73-.2.72.51h.2c.63 0 1.04.41 1.04 1.13v.3l.4.32-.5 1.13-.93-.1-.52.1-.72-.21h-1.13v1.23l.4 1.03-.4.3.3.21-.1 1.75.41.51v.2c.31.21.31.52.31.62v.1l-.3 1.34-.1.1c-.21.31-.32.41-.32.41l-.51.72Zm-.93-1.74c.1.1.2.1.41.2 0 0 0-.1.1-.1l.21-.62-.41-.1.1-.72-.3-.51.1-1.54-.31.51v.51c.1.1.1.31.1.52 0 .2 0 .4-.1.72 0 0 0 .2.2.72l.1.2-.2.2Zm-.1-4.62.2-.1-.1-.31-.1.4Zm-1.65-3.5h1.34l.3 1.03.1-.72h2.38l.62.2.41-.1v-.61h-.52l-.61-.41-.62.1-.31-.1c-.1.1-.2.1-.31.1-.41 0-.72-.3-.82-.82l-.62.72-.83.1v.1h-.4c-.32 0-.63 0-.83-.1l-.21.31h-.62l-1.13.51 2.27.1.4-.4Zm-4.12.1c-.31 0-.73.11-1.03.21l1.95-.1h.1l-1.02-.1Zm3.7-13.54.62.2-.2-.3-1.34-.73h-.31l-.83-.2c-.4 0-.82.1-1.13.3l-.3.11 1.02-.2 1.86.3.61.52Zm-5.66-.52-.41.41.92-.4h-.51Zm.51-.1.62.2.93-.2-.41-.3-.31.2-.83.1ZM182.12 43.33a2.4 2.4 0 0 1-2.37-2.37 2.4 2.4 0 0 1 2.37-2.36 2.4 2.4 0 0 1 2.37 2.36 2.33 2.33 0 0 1-2.37 2.37Zm0-4.32a1.84 1.84 0 1 0 0 3.7c1.03 0 1.86-.82 1.86-1.85 0-.92-.83-1.85-1.86-1.85Z"/><path fill="#fff" d="M183.67 42.3h-.83l-.72-1.03h-.3v1.03h-.73v-2.77h1.65c.1 0 .2.1.31.1.1.1.2.1.2.2.1.1.1.21.1.42 0 .2 0 .4-.1.5-.1.11-.2.21-.4.32l.82 1.23Zm-1.13-1.95v-.2l-.1-.11h-.63v.72h.52c.1 0 .1 0 .2-.1l.1-.1c-.1 0-.1-.1-.1-.21Z"/></svg>