<svg width="3728" height="1717" viewBox="0 0 3728 1717" fill="none" xmlns="http://www.w3.org/2000/svg">
<g clip-path="url(#clip0)">
<g filter="url(#filter0_f)">
<path d="M2327.96 74.559C2629.68 418.088 2635.89 408.016 3026.97 530.046C3220.74 590.509 2761.92 929.635 2544.27 655.905C2485.59 520.899 2257.08 233.064 2007.38 514.434C1753.84 800.114 2130.64 -105.833 1397 453.31C1616.34 191.816 2062.62 -227.555 2327.96 74.559Z" fill="url(#paint0_linear)"/>
</g>
<g filter="url(#filter1_f)">
<path d="M1056.79 1375.64C685.27 1077.92 680.724 1089.37 257.619 1034.94C47.9808 1007.97 457.176 577.246 729.859 818.598C814.441 946.434 1100.82 1200.28 1306.01 866.598C1514.35 527.8 1291.76 1524.95 1942.99 818.919C1765.34 1126.73 1383.52 1637.48 1056.79 1375.64Z" fill="url(#paint1_linear)"/>
</g>
</g>
<defs>
<filter id="filter0_f" x="1147" y="-560" width="2199.98" height="2152.19" filterUnits="userSpaceOnUse" color-interpolation-filters="sRGB">
<feFlood flood-opacity="0" result="BackgroundImageFix"/>
<feBlend mode="normal" in="SourceGraphic" in2="BackgroundImageFix" result="shape"/>
<feGaussianBlur stdDeviation="125" result="effect1_foregroundBlur"/>
</filter>
<filter id="filter1_f" x="-73" y="-151" width="2265.99" height="2118.44" filterUnits="userSpaceOnUse" color-interpolation-filters="sRGB">
<feFlood flood-opacity="0" result="BackgroundImageFix"/>
<feBlend mode="normal" in="SourceGraphic" in2="BackgroundImageFix" result="shape"/>
<feGaussianBlur stdDeviation="125" result="effect1_foregroundBlur"/>
</filter>
<linearGradient id="paint0_linear" x1="3201.77" y1="521.42" x2="2116.86" y2="-452.011" gradientUnits="userSpaceOnUse">
<stop stop-color="#20145E"/>
<stop offset="0.40625" stop-color="#66E3FF"/>
<stop offset="0.898799" stop-color="#1E1C7D"/>
</linearGradient>
<linearGradient id="paint1_linear" x1="79.9229" y1="1075.39" x2="1368.48" y2="1877.46" gradientUnits="userSpaceOnUse">
<stop stop-color="#20145E"/>
<stop offset="0.40625" stop-color="#A966FF" stop-opacity="0.72"/>
<stop offset="0.898799" stop-color="#1E1C7D"/>
</linearGradient>
<clipPath id="clip0">
<rect width="3728" height="1717" fill="white"/>
</clipPath>
</defs>
</svg>
