<svg width="134" height="47" fill="none" xmlns="http://www.w3.org/2000/svg"><path d="M21.786 1.999c-.417.834-.82 1.622-.88 1.746-.078.124-.387.757-.696 1.39-.294.634-.603 1.268-.68 1.391-.077.124-2.828 5.579-6.12 12.13a3227.849 3227.849 0 0 1-9.44 18.729L.507 44.231h8.051l2.503-4.992 2.519-4.975h10.044l.046 4.99.031 4.977h10.044V.5H22.528l-.742 1.499Zm1.916 17.662v7.572h-3.554c-1.947 0-3.554-.047-3.554-.093s1.313-2.951 2.936-6.428c1.607-3.492 2.89-6.413 2.828-6.506-.047-.092-.016-.108.077-.046.108.062.185.046.185-.046 0-.263.835-2.025.974-2.025.062 0 .108 3.4.108 7.572ZM39.31 28.16v16.07h5.872v-7.618l.016-7.602.742 1.823c.401 1.005.788 1.762.865 1.7.062-.062.077-.046.016.062-.14.247 1.467 4.234 1.653 4.11.093-.062.123 0 .062.155-.062.154.494 1.7 1.344 3.77l1.437 3.523 4.28.047 4.265.03V12.09H54.3v7.216c0 3.955-.046 7.154-.108 7.108-.092-.093-1.421-3.477-3.863-9.874-.587-1.5-1.082-2.705-1.128-2.674-.046.031-.093-.108-.108-.278 0-.185-.124-.602-.263-.927l-.247-.572H39.31v16.07ZM64.496 28.16v16.07H87.675v-7.417H73.304v-4.945h9.117v-7.417h-9.117V20.434h9.117V12.089H64.496v16.07ZM86.594 16.262v4.172H92.31V44.23H101.274V17.575l12.872-.015 12.856-.031.046-2.72.031-2.72H86.594v4.173Z" fill="#fff"/><path d="M117.173 19.213c-1.112.154-2.596.664-3.847 1.313-1.237.65-3.184 2.102-3.122 2.35.016.107-.046.17-.139.154-.294-.062-1.901 1.947-2.55 3.168-.618 1.143-1.22 2.796-1.375 3.693-.34 2.163-.386 2.797-.309 3.677.108 1.221.495 3.122.649 3.23.077.046.139.263.155.479.061.479 1.097 2.596 1.483 2.967.139.154.216.278.17.278-.046 0 .185.355.541.788 1.143 1.437 3.693 3.508 4.064 3.291.093-.061.123-.046.077.047-.139.232 2.163 1.19 3.601 1.514 3.198.71 6.536.294 9.487-1.19 1.19-.587 2.442-1.499 2.334-1.684-.062-.077 0-.093.123-.046.217.077 1.947-1.7 2.612-2.674 1.808-2.657 2.719-6.397 2.318-9.472-.186-1.406-.758-3.322-1.314-4.404-1.128-2.24-3.338-4.59-5.424-5.78-1.313-.756-3.708-1.637-4.048-1.498-.124.046-.201.03-.155-.047.186-.293-3.585-.417-5.331-.154Zm5.13 7.973c2.071 1.02 3.4 2.952 3.508 5.084.093 1.576-.185 2.674-.942 3.817-1.608 2.38-4.497 3.353-7.248 2.442-.571-.186-1.112-.449-1.205-.557-.108-.123-.247-.185-.325-.139-.077.047-.139 0-.139-.093 0-.092-.077-.123-.185-.061-.093.061-.124.046-.077-.047.123-.185-.587-.834-.757-.695-.062.062-.062.03 0-.077.046-.093-.062-.294-.248-.417-.185-.14-.278-.248-.201-.248.093 0 .093-.046 0-.123-.309-.201-.865-1.793-.958-2.69-.185-1.73.572-3.816 1.793-4.975.263-.247.433-.525.371-.602-.047-.093-.016-.109.092-.047.093.062.387-.03.634-.216.943-.68 1.978-.943 3.492-.88 1.206.03 1.546.107 2.395.524Z" fill="#fff"/></svg>