<svg width="231" height="46" fill="none" xmlns="http://www.w3.org/2000/svg"><g clip-path="url(#a)" fill="#fff"><path d="M30.49 15.06c0-8.3-6.72-15.05-14.98-15.05C7.249.01.53 6.76.53 15.06s6.719 15.05 14.98 15.05c8.26-.028 14.98-6.75 14.98-15.05Zm-11.606-.35v.029c1.862.38 3.112 1.812 3.112 3.74 0 1.316-.785 2.485-1.832 3.244-1.077.848-2.56.848-3.84.848h-6.69V7.52h6.69c1.193 0 2.414 0 3.433.642 1.192.76 1.832 1.87 1.832 3.302 0 1.696-1.134 2.835-2.705 3.244Zm-1.367 4.734c.494-.322.785-.935.785-1.55 0-.584-.349-1.168-.843-1.46-.495-.293-1.193-.293-1.775-.293h-2.589v3.624h2.415c.669 0 1.483.059 2.007-.321Zm-.175-6.313c.408-.292.64-.847.64-1.344 0-.555-.262-1.081-.756-1.374-.495-.292-1.425-.233-2.007-.233h-2.124v3.302h2.386c.64 0 1.338.03 1.861-.35ZM62.837 15.85c-2.298-6.576-7.709-8.914-14.312-8.914-3.461 0-6.719.789-9.453 3.097-2.705 2.28-4.073 5.378-4.073 8.914 0 8.3 6.603 10.287 13.323 11.66 2.298.498 6.603 1.111 6.603 4.268 0 3.156-3.345 4.091-5.876 4.091-3.898 0-6.777-1.373-7.883-5.377l-8.144 1.87c1.716 7.394 8.144 10.492 15.242 10.492 3.81 0 7.912-.73 10.966-3.098 2.909-2.28 4.683-5.816 4.683-9.498 0-3.77-1.861-6.897-4.945-8.972-2.647-1.783-6.777-2.543-9.86-3.215-2.153-.38-5.44-1.052-5.44-3.828 0-2.923 2.85-3.537 5.236-3.537 3.345 0 5.38 1.257 6.486 4.472l7.447-2.426Zm29.175 29.604c-.436-1.374-.552-2.776-.552-4.208V28.153c0-3.361.261-6.459-2.59-8.797-2.268-1.87-5.991-2.542-8.871-2.542-5.876 0-12.479 1.987-13.322 8.796l7.65.73c0-2.776 2.269-4.09 4.857-4.09 1.222 0 2.59.38 3.316 1.314.815 1.053.728 2.485.728 3.712v.672c-3.404.322-7.883.555-11.054 1.754-3.694 1.373-6.283 4.208-6.283 8.358 0 5.319 3.84 7.95 8.814 7.95 4.189 0 6.603-1.608 8.93-4.91a16.972 16.972 0 0 0 .378 4.354h8Zm-8.814-12.333c0 1.987.059 3.653-1.105 5.407-.93 1.432-2.414 2.308-4.072 2.308-2.269 0-3.578-1.49-3.578-3.711 0-4.092 5.672-4.822 8.755-5.144v1.14Zm20.915-3.478c0-2.98.553-7.248 4.45-7.248 4.451 0 4.451 5.875 4.451 9.002 0 3.04 0 8.913-4.567 8.913-1.483 0-2.647-.73-3.403-1.928-.873-1.374-.931-3.157-.931-4.706v-4.033ZM95.91 45.454h4.392c.495-1.49.815-3.098 1.804-4.325 2.036 3.36 3.956 4.851 7.97 4.851 8.406 0 11.344-7.248 11.344-14.612 0-6.634-2.414-14.613-10.413-14.613-3.142 0-5.44 1.315-6.836 4.092h-.174V7.462H95.91v37.992Zm53.348 0c-.437-1.374-.553-2.776-.553-4.208V28.153c0-3.361.262-6.459-2.589-8.797-2.269-1.87-5.992-2.542-8.872-2.542-5.875 0-12.478 1.987-13.322 8.796l7.65.73c0-2.776 2.269-4.09 4.829-4.09 1.221 0 2.589.38 3.316 1.314.814 1.053.727 2.485.727 3.712v.672c-3.403.322-7.883.555-11.053 1.754-3.695 1.373-6.284 4.208-6.284 8.358 0 5.319 3.84 7.95 8.814 7.95 4.189 0 6.603-1.608 8.93-4.91a16.98 16.98 0 0 0 .378 4.354h8.029Zm-8.814-12.333c0 1.987.058 3.653-1.105 5.407-.931 1.432-2.415 2.308-4.073 2.308-2.269 0-3.578-1.49-3.578-3.711 0-4.092 5.673-4.822 8.756-5.144v1.14Zm36.593 12.333V7.52h-8.087v12.83c-1.774-2.601-3.839-3.536-6.981-3.536-8.144 0-10.239 8.241-10.239 14.933 0 6.518 2.211 14.262 10.065 14.262 3.578 0 5.876-1.929 7.417-4.91h.117v4.355h7.708Zm-8.087-11.72c0 1.374-.058 2.865-.727 4.15-.669 1.287-2.036 2.28-3.519 2.28-4.015 0-4.451-5.143-4.451-8.183 0-3.36.175-9.469 4.8-9.469 3.694 0 3.897 4.647 3.897 7.365v3.858Zm37.815-.964c.058-3.828-.553-7.803-2.851-11.017-2.298-3.215-6.341-4.969-10.239-4.969-8.697 0-13.584 6.693-13.584 14.993 0 8.358 5.44 14.203 13.817 14.203 9.454 0 12.712-8.3 12.712-9.673l-7.476-.556c0 2.601-2.473 4.413-4.945 4.413-3.52 0-5.381-2.718-5.381-6.02l.058-1.374h17.889Zm-18.006-4.793c.262-3.214 1.658-5.874 5.236-5.874 3.52 0 4.509 2.806 4.683 5.874h-9.919Zm21.584 17.477h8.086V7.52h-8.086v37.934Zm12.101 0h8.086V7.52h-8.086v37.934Z"/></g><defs><clipPath id="a"><path fill="#fff" transform="translate(.512)" d="M0 0h230v46H0z"/></clipPath></defs></svg>