<svg width="183" height="37" fill="none" xmlns="http://www.w3.org/2000/svg"><path d="m143.424 5.946-5.19 5.445v23.83h10.965V17.86c0-9.54-.146-17.361-.292-17.361-.147 0-2.632 2.449-5.483 5.446ZM5.674 6.42.082 12.014V35.22h10.234V23.014c0-6.725.11-12.317.292-12.39.585-.366 5.117.548 6.652 1.316.95.475 2.12 1.498 2.74 2.412.988 1.389 1.097 1.864 1.097 4.166-.036 4.934-2.083 7.164-6.944 7.493l-2.741.183v9.137l4.313-.22c2.339-.11 5.117-.438 6.103-.767 4.313-1.316 7.602-4.313 9.1-8.15.878-2.267 1.207-8.334.622-11.148-1.608-7.675-8.406-12.865-18.31-13.998l-2.01-.22-5.556 5.593ZM37.07 5.873l-3.728 5.007v24.34h22.66V26.816H43.21v-4.02h12.792v-8.772H43.21v-4.02H55.929l3.508-4.386c1.938-2.412 3.509-4.46 3.509-4.569 0-.11-4.97-.183-11.074-.183H40.834L37.07 5.873Z" fill="#fff"/><path d="m61.408 5.69-3.947 4.824v24.707h10.234V17.129l9.685 9.686 9.685 9.685V.865h-9.137v11.001l-6.103-5.518C68.499 3.35 65.648.865 65.537.865c-.11 0-1.973 2.193-4.13 4.825ZM91.342 5.982c-1.937 2.814-3.545 5.19-3.545 5.3 0 .11 1.572.182 3.472.182h3.472V35.221h10.234V12.013l5.299-5.3c2.924-2.924 5.3-5.409 5.3-5.555 0-.183-4.642-.293-10.344-.293H94.85l-3.508 5.117Z" fill="#fff"/><path d="M116.891 12.012 106.072 23.16v6.213c0 3.436.11 6.213.256 6.213.183 0 4.861-4.568 10.416-10.124l10.161-10.16v6.761h-5.665l-4.203 4.203-4.203 4.203h14.436v4.752h8.772V.865h-8.333l-10.818 11.147ZM155.889 6.42l-5.592 5.593V35.22h10.233V23.014c0-6.725.11-12.317.293-12.39.146-.11 1.316-.037 2.595.146 5.774.804 8.771 4.642 7.675 9.795-.731 3.472-3.436 5.482-7.346 5.519h-2.12v9.247l4.13-.22c10.562-.511 15.606-4.934 16.227-14.327.256-3.764-.292-6.688-1.9-9.94-2.632-5.374-8.479-8.773-16.63-9.76l-2.01-.255-5.555 5.592Z" fill="#fff"/></svg>