<svg width="225" height="49" fill="none" xmlns="http://www.w3.org/2000/svg"><g clip-path="url(#a)" fill="#fff"><path d="M69.175 37.838c-.271 1.213-.223 2.589 2.447 3.01 2.718.387 5.464.562 8.21.525 12.573 0 16.78-2.007 18.115-8.847l3.462-17.59c.165-.84-.106-1.366-1.17-1.366h-9.7a1.386 1.386 0 0 0-1.016.262c-.29.217-.481.538-.532.894l-3.288 16.118c-.967 4.844-1.702 5.627-8.472 5.627-2.901 0-4.952-.257-6.286-.363-1.17-.105-1.548.316-1.76 1.472l-.01.258Zm34.904-6.469c-1.702 8.313 4.632 10.004 14.439 10.004h.068a94.366 94.366 0 0 0 16.635-1.214c1.934-.372 2.505-.84 2.766-2.321l3.249-16.367c.745-3.688-.367-8.598-17.534-8.598a70.269 70.269 0 0 0-14.227 1.156c-1.702.42-2.234.84-2.669 2.866l-.048.258c-.271 1.27.106 1.91 1.228 1.739l1.17-.153a70.4 70.4 0 0 1 9.488-.793c8.201 0 10.764.162 10.174 2.866l-.532 2.532h-7.476c-11.344 0-15.397 1.576-16.683 7.787l-.048.238Zm12.737.21.048-.267c.484-2.417 2.399-3.583 5.803-3.583h4.836l-1.547 7.644c-.107.583-.368 1.003-1.49 1.165a16.63 16.63 0 0 1-2.34.105h-.116c-3.869 0-6.016-.793-5.165-5.054l-.029-.01Zm27.844 7.654c-.155.84.106 1.375 1.18 1.375h9.749c.361.047.726-.05 1.016-.268.29-.218.481-.54.531-.897l4.004-20.083c.165-.784.271-1.156 1.016-1.366a11.473 11.473 0 0 1 2.766-.316c4.642 0 5.493 1.472 5.01 3.822l-3.511 17.742c-.165.84.106 1.376 1.17 1.376h9.749c.361.046.726-.05 1.016-.269.29-.218.481-.54.531-.897l3.308-16.69c1.596-8.103-2.824-9.947-14.71-9.947a70.792 70.792 0 0 0-15.301 1.634c-2.176.573-2.824 1.156-3.191 3l-4.333 21.784Zm42.961-11.312c-2.186 11.206 3.249 13.423 17.05 13.423a68.336 68.336 0 0 0 13.753-1.108c1.76-.373 2.35-.898 2.718-2.866l.058-.258c.261-1.262-.107-1.911-1.335-1.74l-.803.106c-3.229.47-6.485.734-9.748.793-9.914 0-10.233-1.844-9.672-4.844l.155-.898h19.372c2.456 0 3.52-.736 4.371-5.054l.213-1.109c1.76-9.057-2.824-11.58-16.364-11.58-12.844 0-17.215 1.998-19.13 11.848l-.638 3.287Zm13.056-1.797.59-3.105c.687-3.583.745-5.474 5.861-5.474 3.868 0 5.058.898 4.265 5.207l-.106.582c-.378 1.911-1.122 2.79-2.67 2.79h-7.94Zm3.462-17.952c-.212.955.058 1.634 1.122 1.634h.213a55.651 55.651 0 0 0 13.008-1.634c2.341-.63 3.192-2.264 3.994-6.162l.049-.258c.213-.956-.474-1.481-1.277-1.214l-.638.21a49.553 49.553 0 0 1-11.722 2.685l-1.325.163c-2.505.315-2.66.63-3.404 4.309l-.02.267ZM.227 27.156c3.211 1.825 11.528 4.91 14.933 4.91 2.901 0 4.439-1.547 6.47-4.996L35.818 3.3A24.886 24.886 0 0 0 24.377.5c-3.191-.001-6.35.619-9.299 1.824a24.307 24.307 0 0 0-7.883 5.203 23.973 23.973 0 0 0-5.266 7.787A23.738 23.738 0 0 0 .082 24.5c0 .887.048 1.774.145 2.656Zm46.79-11.465-10.31 17.274c-2.968 5.044-6.324 7.844-12.33 7.844S8.68 37.408 2.258 34.369a24.121 24.121 0 0 0 11.199 11.556 24.552 24.552 0 0 0 16.063 2.032 24.33 24.33 0 0 0 13.784-8.395 23.81 23.81 0 0 0 5.377-15.09 24.87 24.87 0 0 0-1.654-8.78M224.227-20.844c3.211 1.825 11.528 4.91 14.933 4.91 2.901 0 4.439-1.547 6.47-4.996l14.188-23.77a24.882 24.882 0 0 0-11.441-2.8 24.545 24.545 0 0 0-9.299 1.824 24.307 24.307 0 0 0-7.883 5.203 23.969 23.969 0 0 0-5.266 7.787 23.734 23.734 0 0 0-1.847 9.186c0 .887.048 1.774.145 2.656Zm46.79-11.465-10.309 17.274c-2.969 5.045-6.325 7.844-12.331 7.844-6.006 0-15.697-3.401-22.119-6.44a24.121 24.121 0 0 0 11.199 11.557A24.552 24.552 0 0 0 253.52-.043a24.332 24.332 0 0 0 13.784-8.395 23.812 23.812 0 0 0 5.377-15.09c-.016-3.002-.576-5.975-1.654-8.78"/></g><defs><clipPath id="a"><path fill="#fff" transform="translate(.082 .5)" d="M0 0h224v48H0z"/></clipPath></defs></svg>