<svg width="212" height="37" fill="none" xmlns="http://www.w3.org/2000/svg"><path d="M110.038.85c-2.119.745-3.677 2.064-4.547 3.832l-.534 1.067-.042 10.99-.042 10.989h7.453v-8.533c0-8.169.014-8.534.266-8.969.393-.631.758-.702 1.432-.266.295.21.547.435.547.505 0 .084 1.951 3.607 4.323 7.831a3485.26 3485.26 0 0 1 4.814 8.548l.477.884h7.341l1.01-1.867c.562-1.01 2.667-4.856 4.674-8.519 2.007-3.663 3.789-6.807 3.986-6.99.463-.42.968-.392 1.46.099l.407.407v16.87H150.642V6.324l-.337-.926C149.238 2.381 146.571.5 143.343.5a7.562 7.562 0 0 0-3.41.786c-.856.449-2.344 1.895-3.144 3.074-.477.715-3.621 6.189-7.972 13.866-.87 1.544-1.137 1.895-1.263 1.755-.098-.099-1.867-3.243-3.93-6.99-2.077-3.747-4.126-7.34-4.547-8-.997-1.516-2.667-3.214-3.621-3.705C113.743.43 111.694.26 110.038.85ZM.045 4.149v3.228h5.179c5.137 0 5.165 0 5.642.323.253.168.617.533.786.786l.323.477v18.765H19.413v-9.404c-.014-10.371-.042-9.894.87-10.554.464-.323.478-.323 5.699-.365l5.22-.042V.921H.045v3.228ZM206.796 1.075c-2.722.534-3.691 4.113-1.628 6.008 2.625 2.428 6.765-.127 5.755-3.565-.506-1.769-2.26-2.807-4.127-2.442Zm2.021.604c.857.393 1.222.786 1.629 1.684.603 1.362.112 2.835-1.25 3.79-.729.519-1.922.645-2.722.308-1.292-.547-2.176-1.936-2.035-3.185.154-1.264.785-2.12 1.922-2.64.828-.378 1.6-.364 2.456.043Z" fill="#fff"/><path d="M206.08 4.5c0 1.937.014 2.035.281 2.035.252 0 .28-.098.28-.842V4.85h.913c.996 0 .926-.085 1.123 1.15.056.394.154.534.336.534.211 0 .239-.098.183-.814-.028-.45-.155-.912-.281-1.053-.21-.238-.21-.266.014-.393.155-.098.239-.309.239-.66 0-.926-.379-1.15-1.951-1.15h-1.137V4.5Zm2.498-.997c.071.604-.182.786-1.108.786h-.829V3.04l.674-.042c.926-.056 1.207.056 1.263.505ZM39.835 1.258c-2.47.786-5.263 3.256-6.161 5.473-.281.674-.295 1.025-.337 6.61-.028 3.608.014 6.317.098 7.019.379 2.877 2.765 5.824 5.614 6.933l.926.365 11.902.042 11.888.042V21.552l-10.484-.028-10.499-.042-.66-.379c-1.094-.66-1.234-.926-1.234-2.442v-1.32h22.035v-6.034H40.747v-1.095c0-1.32.323-1.993 1.264-2.624l.631-.422 10.218-.042 10.203-.028V1.061l-11.326.014c-8.758 0-11.467.042-11.902.183ZM65.87 4.065v3.017l12.392.043c11.874.042 12.407.056 12.927.308 1.445.716 1.417 2.695-.043 3.453-.561.28-.758.28-12.926.28H65.87v16.562H73.588V17.482h4.996c4.688 0 5.025.015 5.235.253.126.14 3.607 3.888 7.733 8.323 4.127 4.435 7.986 8.575 8.562 9.193l1.052 1.137 4.997.056 5.01.056-.238-.295c-.126-.154-1.642-1.824-3.383-3.705-1.74-1.88-4.729-5.137-6.652-7.214-1.923-2.091-4.112-4.463-4.856-5.277-1.657-1.783-2.162-2.386-2.078-2.456.029-.029.716-.155 1.516-.295.814-.127 1.797-.351 2.176-.491.856-.323 1.628-1.067 2.063-2.021.323-.688.323-.8.323-5.264 0-4.463-.014-4.575-.323-5.375-.407-.983-1.488-2.147-2.484-2.625l-.702-.35-15.326-.043-15.34-.028v3.004ZM154.01 14.395v13.333H161.589V1.061H154.01v13.334ZM165.253 1.328c.112.154 1.656 1.923 3.424 3.958 6.134 7.003 7.93 9.095 7.93 9.207 0 .056-2.947 3.06-6.554 6.667l-6.569 6.568h10.821l4.772-4.968c2.611-2.737 4.8-4.983 4.843-4.983.056-.014 2.259 2.218 4.912 4.954l4.828 4.969 5.333.014 5.334.014-6.569-6.568-6.568-6.569 5.782-6.456c3.172-3.537 5.909-6.582 6.063-6.765l.281-.309-4.968.014-4.969.014-4.772 5.025c-2.624 2.765-4.8 5.039-4.842 5.039-.042-.014-2.175-2.274-4.758-5.053l-4.673-5.039h-4.632c-4.533 0-4.632 0-4.449.267Z" fill="#fff"/></svg>