<svg width="289" height="56" viewBox="0 0 289 56" fill="none" xmlns="http://www.w3.org/2000/svg">
<path d="M27.7304 18.9158H22.7035C22.2329 18.9158 21.835 19.3134 21.835 19.784V39.3005C21.835 43.2329 20.1526 45.0642 16.5663 45.0642C12.98 45.0642 11.2975 43.2329 11.2975 39.3005V19.784C11.2975 19.3134 10.8998 18.9158 10.4292 18.9158H5.4023C4.98538 18.9158 4.57617 19.3458 4.57617 19.784V40.5259C4.57617 43.7307 5.643 46.3763 7.66105 48.1776C9.74718 50.0392 12.7511 50.983 16.5663 50.983C20.3815 50.983 23.3855 50.0392 25.4716 48.1776C27.4897 46.3763 28.5565 43.7304 28.5565 40.5259V19.784C28.5562 19.3458 28.1473 18.9158 27.7304 18.9158Z" fill="white"/>
<path d="M93.5785 18.9158H87.1226C86.8575 18.9158 86.4973 19.0743 86.3191 19.297H86.3186L78.4297 28.7014C78.3686 28.7618 78.2846 28.7998 78.1916 28.7998H78.131C78.038 28.7998 77.9543 28.762 77.8929 28.7014L70.0041 19.297H70.0035C69.8253 19.0743 69.4651 18.9158 69.2003 18.9158H62.7441C62.3272 18.9158 61.918 19.3458 61.918 19.784V49.1886C61.918 49.6269 62.3272 50.0569 62.7441 50.0569H67.7713C68.2419 50.0569 68.6395 49.6593 68.6395 49.1886V28.3037L77.6213 38.7804C77.6414 38.8045 77.6632 38.8274 77.6868 38.8487L77.6904 38.8525V38.852C77.8135 38.962 77.9792 39.0295 78.1613 39.0295C78.3434 39.0295 78.5091 38.9617 78.6322 38.852V38.8525L78.636 38.8487C78.6594 38.8274 78.681 38.8045 78.701 38.7804L87.6831 28.3037V49.1886C87.6831 49.6593 88.0808 50.0569 88.5516 50.0569H93.5785C93.9954 50.0569 94.4046 49.6269 94.4046 49.1886V19.784C94.4046 19.3458 93.9954 18.9158 93.5785 18.9158Z" fill="white"/>
<path d="M59.2981 50.123H44.3728V48.9488H50.9061L49.7498 45.3514L47.7747 39.3589H38.2927L36.1809 45.3568L35.0403 48.9488H39.3071V50.123H29.4668V48.9488H33.337L34.757 45.1801L44.092 18.7471H44.4789L44.5172 18.856L53.6773 45.0979L55.104 48.9488H59.2981V50.123ZM38.7011 38.0072H47.3626L43.0779 25.1804L38.7011 38.0072Z" fill="white"/>
<path d="M51.522 3.21899L48.8379 18.8445L61.918 13.3257V3.21899H51.522Z" fill="white"/>
<path d="M113.008 18.6807V19.0791H111.364L111.348 20.4901V26.8312C111.364 28.4748 111.397 30.0353 114.485 30.0353C117.606 30.0353 117.805 28.6738 117.855 27.1965V20.4901L117.838 19.0791H116.162V18.6807H119.83V19.0791H118.386L118.369 20.4901V26.5327C118.353 28.707 118.336 30.5665 114.037 30.5665C113.422 30.5665 111.962 30.5003 111.032 30.1183C109.555 29.4876 109.521 28.1927 109.505 26.599V20.4901L109.488 19.0791H108.061V18.6807H113.008Z" fill="white"/>
<path d="M128.911 30.0022H130.206V30.4006H125.923V30.0022H127.235L127.252 28.6908V25.6694C127.235 23.976 127.235 23.4779 126.819 23.0798C126.554 22.8306 126.206 22.8141 126.056 22.8141C125.459 22.8141 125.01 23.1129 124.695 23.4116C123.815 24.2915 123.782 25.4703 123.749 26.516V28.6908L123.765 30.0022H125.127V30.4006H120.678V30.0022H122.139L122.155 28.6908V24.2252L122.139 22.7807H120.678V22.3823H122.255C122.985 22.3823 123.234 22.3659 123.832 22.316L123.815 23.8766C124.247 23.229 124.878 22.2495 126.67 22.2495C128.911 22.2495 128.911 23.976 128.911 24.8892C128.911 25.2874 128.911 25.7025 128.895 26.1009V28.6908L128.911 30.0022Z" fill="white"/>
<path d="M132.53 22.3823C133.194 22.3658 133.427 22.3658 134.074 22.316L134.057 24.0589V28.5908L134.074 30.0021H135.402V30.4005H130.986V30.0021H132.414L132.431 28.5908V24.0589L132.414 22.7807H130.986V22.3823H132.53ZM132.215 19.7595C132.215 19.2283 132.647 18.78 133.194 18.78C133.709 18.78 134.157 19.2283 134.157 19.7595C134.157 20.2907 133.709 20.7226 133.194 20.7226C132.929 20.7226 132.68 20.6226 132.497 20.4402C132.314 20.2573 132.215 20.0084 132.215 19.7595Z" fill="white"/>
<path d="M144.681 22.3823V22.7807H143.469L142.822 24.2912L140.398 30.5496H139.966L137.493 24.2912L136.879 22.7807H135.684V22.3823H140.298V22.7807H138.804L139.203 23.9262L140.83 28.2258L142.49 23.9097L142.905 22.7807H141.361V22.3823H144.681Z" fill="white"/>
<path d="M152.437 28.0928C151.955 29.2382 151.258 30.5663 148.917 30.5663C148.204 30.5663 147.158 30.4833 146.212 29.5369C145.266 28.5744 145.1 27.346 145.1 26.3665C145.1 25.9347 145.133 25.553 145.215 25.2044C145.382 24.4407 145.797 23.6605 146.345 23.1624C146.959 22.5649 147.905 22.1663 148.918 22.1663C149.997 22.1663 150.86 22.5981 151.441 23.1791C152.337 24.0921 152.42 25.1212 152.47 25.8684H146.942C146.942 26.7978 146.942 27.8104 147.29 28.6574C147.789 29.9354 148.884 30.0682 149.383 30.0682C149.814 30.0682 150.196 29.9521 150.495 29.8187C151.457 29.3209 151.823 28.4082 152.006 27.9433L152.437 28.0928ZM150.495 25.4037C150.478 24.7731 150.461 24.1257 150.212 23.5611C149.863 22.7974 149.249 22.6315 148.768 22.6315C147.174 22.6315 147.042 24.4078 146.958 25.4037H150.495Z" fill="white"/>
<path d="M156.206 30.0021H157.616V30.4005H153.184V30.0021H154.578L154.595 28.5908V24.1586L154.578 22.7642H153.184V22.3823H154.711C155.358 22.3658 155.591 22.3658 156.238 22.2993L156.221 24.2251C156.637 23.3453 157.185 22.2163 158.512 22.2163C159.608 22.2163 160.006 23.063 160.006 23.7769C160.006 24.3911 159.757 24.8892 159.16 24.8892C158.91 24.8892 158.33 24.7063 158.33 24.0258C158.33 23.9097 158.413 23.3949 158.413 23.2788C158.413 22.7974 158.081 22.7807 157.981 22.7807C157.865 22.7807 157.682 22.8305 157.4 23.0964C156.271 24.2084 156.221 25.9349 156.188 27.346V28.5908L156.206 30.0021Z" fill="white"/>
<path d="M161.418 27.3957C161.468 28.126 161.535 28.9062 162.198 29.5368C162.713 30.0182 163.245 30.1012 163.709 30.1012C164.904 30.1012 165.569 29.5037 165.569 28.6735C165.569 27.7271 164.739 27.4117 163.626 27.0302C162.646 26.6983 161.169 26.1835 161.169 24.5569C161.169 23.1125 162.248 22.1831 163.842 22.1831C164.705 22.1831 165.469 22.4487 166.166 22.6642L166.199 24.7892H165.717C165.602 24.1254 165.336 22.6478 163.776 22.6478C162.846 22.6478 162.315 23.2122 162.315 23.8264C162.315 24.1254 162.43 24.3907 162.613 24.5736C162.846 24.8059 162.978 24.8557 164.273 25.3204C165.568 25.802 166.83 26.3166 166.83 27.9765C166.83 29.4873 165.601 30.5661 163.709 30.5661C162.68 30.5661 161.817 30.3005 160.953 30.0352V27.396L161.418 27.3957Z" fill="white"/>
<path d="M169.469 22.3823C170.133 22.3658 170.366 22.3658 171.013 22.316L170.997 24.0589V28.5908L171.013 30.0021H172.341V30.4005H167.926V30.0021H169.353L169.37 28.5908V24.0589L169.353 22.7807H167.926V22.3823H169.469ZM169.154 19.7595C169.154 19.2283 169.586 18.78 170.133 18.78C170.648 18.78 171.096 19.2283 171.096 19.7595C171.096 20.2907 170.648 20.7226 170.133 20.7226C169.868 20.7226 169.619 20.6226 169.436 20.4402C169.254 20.2573 169.154 20.0084 169.154 19.7595Z" fill="white"/>
<path d="M179.129 18.6805C179.827 18.6805 180.059 18.6638 180.623 18.614L180.607 20.3736V28.5576L180.623 30.0021H181.951V30.4005H178.963V29.122C178.747 29.5368 178.216 30.5328 176.672 30.5328C174.929 30.5328 173.502 29.0557 173.502 26.3998C173.502 24.1256 174.63 22.2163 176.772 22.2163C178.25 22.2163 178.648 23.0134 178.963 23.6276V20.3736L178.947 19.079H177.32V18.6805H179.129ZM175.328 26.1175C175.328 27.6444 175.328 29.9353 177.154 29.9353C178.963 29.9353 178.963 27.462 178.963 26.4825C178.963 25.8185 178.947 24.5238 178.598 23.7604C178.299 23.1462 177.768 22.7642 177.087 22.7642C175.328 22.7806 175.328 25.1545 175.328 26.1175Z" fill="white"/>
<path d="M190.817 30.0022V30.4006H189.605C189.389 30.4006 189.206 30.4006 189.008 30.3672C188.028 30.2511 187.862 29.6367 187.762 29.2552C187.447 29.7032 186.849 30.5663 185.139 30.5663C184.857 30.5663 184.094 30.5499 183.579 30.0353C183.33 29.7862 182.965 29.2218 182.965 28.1593C182.965 27.5282 183.097 26.9975 183.513 26.5657C183.977 26.1007 184.442 26.0013 185.887 25.7025C186.849 25.5032 187.297 25.3372 187.862 25.1379V24.5404C187.845 23.4117 187.828 22.5814 186.517 22.5814C185.223 22.5814 185.206 23.395 185.189 23.9098C185.172 24.2581 185.156 24.7562 184.392 24.7562C184.044 24.7562 183.579 24.7562 183.579 24.059C183.579 23.843 183.628 23.6439 183.712 23.4448C184.11 22.4653 185.338 22.1997 186.567 22.1997C187.231 22.1997 187.945 22.2994 188.46 22.5483C189.488 23.0631 189.488 23.9925 189.488 24.7562V28.3916C189.472 29.6367 189.622 30.0022 190.402 30.0022H190.817ZM187.862 25.5697L186.368 26.018C185.505 26.2836 184.774 26.599 184.774 28.2426C184.774 28.724 184.774 30.0025 185.903 30.0025C186.484 30.0025 186.85 29.7034 187.082 29.4712C187.796 28.7574 187.829 27.8606 187.863 26.9977L187.862 25.5697Z" fill="white"/>
<path d="M197.639 18.6805C198.337 18.6805 198.569 18.6638 199.133 18.614L199.117 20.3736V28.5576L199.133 30.0021H200.461V30.4005H197.473V29.122C197.257 29.5368 196.726 30.5328 195.182 30.5328C193.439 30.5328 192.012 29.0557 192.012 26.3998C192.012 24.1256 193.14 22.2163 195.282 22.2163C196.759 22.2163 197.158 23.0134 197.473 23.6276V20.3736L197.457 19.079H195.83V18.6805H197.639ZM193.838 26.1175C193.838 27.6444 193.838 29.9353 195.663 29.9353C197.473 29.9353 197.473 27.462 197.473 26.4825C197.473 25.8185 197.457 24.5238 197.108 23.7604C196.809 23.1462 196.278 22.7642 195.598 22.7642C193.838 22.7806 193.838 25.1545 193.838 26.1175Z" fill="white"/>
<path d="M210.819 18.5479H211.151L214.438 28.5246L214.953 30.0022H216.447V30.4006H211.151V30.0022H212.861L212.479 28.6076L211.765 26.3167H208.744L207.981 28.6076L207.565 30.0022H209.292V30.4006H205.59V30.0022H206.968L207.483 28.5577L210.819 18.5479ZM210.321 21.652L208.911 25.8517H211.633L210.321 21.652Z" fill="white"/>
<path d="M223.141 22.3822C223.921 22.3822 224.104 22.3658 224.718 22.3159L224.701 24.0424V28.6406L224.718 30.002H226.096V30.4002H224.701C223.988 30.4169 223.705 30.4336 223.108 30.4667L223.025 28.9894C222.726 29.4377 221.979 30.5664 220.186 30.5664C219.389 30.5664 218.692 30.3175 218.327 29.9188C217.795 29.3878 217.795 28.5746 217.795 28.1923L217.812 26.1835L217.762 22.7806H216.518V22.3822H217.812C218.576 22.3658 218.842 22.3658 219.439 22.3159L219.422 24.0424V26.8478C219.439 28.4412 219.455 29.2381 219.904 29.6863C220.086 29.869 220.419 30.0182 220.833 30.0182C221.298 30.0182 221.829 29.8191 222.244 29.4038C223.025 28.6403 223.041 27.7274 223.058 26.9475V24.0424L223.041 22.7806H221.548V22.3822H223.141Z" fill="white"/>
<path d="M229.632 20.1914L229.599 22.3826H231.375V22.8473H229.616L229.582 28.3756C229.599 28.94 229.599 29.9195 230.495 29.9195C231.076 29.9195 231.425 29.5044 231.674 28.9403L232.023 29.1062C231.657 29.8699 231.259 30.4838 229.881 30.4838C227.972 30.4838 227.972 29.2888 227.972 28.492L228.022 22.8476H226.727V22.3829H228.006L228.039 20.1917L229.632 20.1914Z" fill="white"/>
<path d="M240.006 26.3665C240.006 28.8567 238.363 30.5498 236.188 30.5498C234.08 30.5498 232.387 28.9066 232.387 26.4161C232.387 23.5776 234.279 22.1665 236.255 22.1501C238.412 22.1334 240.006 23.8599 240.006 26.3665ZM234.263 26.4659C234.263 28.7568 234.561 30.1183 236.188 30.1183C238.08 30.1183 238.147 28.4915 238.147 26.383C238.147 25.3873 238.08 24.7564 238.064 24.5404C237.981 23.9262 237.832 22.5483 236.205 22.5817C234.478 22.615 234.263 24.2252 234.263 26.4659ZM235.889 21.6851H235.408L236.255 19.2782C236.421 18.8299 236.554 18.6971 236.985 18.6807H237.732C237.948 18.6807 238.247 18.7138 238.247 19.0624C238.247 19.2782 238.064 19.4773 237.865 19.6766L235.889 21.6851Z" fill="white"/>
<path d="M249.42 30.0022H250.714V30.4006H246.432V30.0022H247.743L247.759 28.6908V25.6694C247.743 23.976 247.743 23.4779 247.328 23.0798C247.062 22.8306 246.714 22.8141 246.564 22.8141C245.967 22.8141 245.519 23.1129 245.203 23.4116C244.323 24.2915 244.29 25.4703 244.256 26.516V28.6908L244.273 30.0022H245.635V30.4006H241.186V30.0022H242.647L242.663 28.6908V24.2252L242.647 22.7807H241.186V22.3823H242.762C243.493 22.3823 243.742 22.3659 244.34 22.316L244.323 23.8766C244.755 23.229 245.386 22.2495 247.179 22.2495C249.42 22.2495 249.42 23.976 249.42 24.8892C249.42 25.2874 249.42 25.7025 249.403 26.1009V28.6908L249.42 30.0022Z" fill="white"/>
<path d="M259.545 26.3665C259.545 28.8567 257.902 30.5495 255.727 30.5495C253.619 30.5495 251.926 28.9065 251.926 26.416C251.926 23.5775 253.818 22.1665 255.794 22.15C257.951 22.1331 259.545 23.8596 259.545 26.3665ZM253.802 26.4659C253.802 28.7567 254.1 30.1182 255.727 30.1182C257.619 30.1182 257.686 28.4914 257.686 26.3829C257.686 25.387 257.619 24.7561 257.603 24.5403C257.52 23.9261 257.371 22.5482 255.744 22.5813C254.018 22.6147 253.802 24.2249 253.802 26.4659Z" fill="white"/>
<path d="M263.844 23.7271C264.076 23.3618 264.275 23.0466 264.706 22.7311C265.172 22.4157 265.869 22.1665 266.665 22.1665C266.997 22.1665 267.445 22.2163 267.844 22.3992C268.707 22.7974 268.873 23.4779 268.989 23.9927C269.321 23.3785 269.985 22.1999 271.844 22.1999C272.293 22.1999 272.974 22.2495 273.505 22.7311C274.152 23.3286 274.152 24.1257 274.152 24.7731L274.102 28.5908L274.119 30.0021H275.48V30.4006H271.148V30.0021H272.459L272.476 28.5908C272.492 27.5284 272.509 26.4662 272.509 25.3873C272.509 24.0261 272.509 22.8472 271.28 22.8472C270.633 22.8472 270.185 23.1296 269.869 23.4283C269.04 24.2418 269.007 25.5198 268.973 26.6157V28.5908L268.989 30.0021H270.317V30.4006H266.018V30.0021H267.33L267.346 28.5908V25.3873C267.346 24.4409 267.33 24.0589 267.246 23.7106C267.18 23.5115 266.997 22.7974 266.051 22.7974C265.454 22.7974 264.939 23.0299 264.607 23.3618C263.877 24.1088 263.843 25.3539 263.81 26.5658V28.5908L263.827 30.0021H265.105V30.4006H260.723V30.0021H262.15L262.167 28.5908V24.358L262.15 22.7807H260.723V22.3825H262.332C263.079 22.3825 263.246 22.3661 263.877 22.316L263.844 23.7271Z" fill="white"/>
<path d="M284.413 30.0022V30.4006H283.2C282.985 30.4006 282.802 30.4006 282.603 30.3672C281.623 30.2511 281.457 29.6367 281.358 29.2552C281.042 29.7032 280.445 30.5663 278.735 30.5663C278.453 30.5663 277.689 30.5499 277.174 30.0353C276.925 29.7862 276.561 29.2218 276.561 28.1593C276.561 27.5282 276.693 26.9975 277.108 26.5657C277.573 26.1007 278.038 26.0013 279.482 25.7025C280.445 25.5032 280.893 25.3372 281.457 25.1379V24.5404C281.441 23.4117 281.424 22.5814 280.113 22.5814C278.818 22.5814 278.801 23.395 278.785 23.9098C278.768 24.2581 278.752 24.7562 277.988 24.7562C277.64 24.7562 277.174 24.7562 277.174 24.059C277.174 23.843 277.224 23.6439 277.308 23.4448C277.706 22.4653 278.934 22.1997 280.163 22.1997C280.827 22.1997 281.54 22.2994 282.055 22.5483C283.084 23.0631 283.084 23.9925 283.084 24.7562V28.3916C283.068 29.6367 283.217 30.0022 283.998 30.0022H284.413ZM281.457 25.5697L279.964 26.018C279.101 26.2836 278.37 26.599 278.37 28.2426C278.37 28.724 278.37 30.0025 279.499 30.0025C280.08 30.0025 280.445 29.7034 280.677 29.4712C281.391 28.7574 281.424 27.8606 281.458 26.9977L281.457 25.5697Z" fill="white"/>
<path d="M114.071 38.0475C114.768 38.0475 115 38.0308 115.565 37.981L115.548 39.7406V47.9246L115.565 49.369H116.893V49.7674H113.904V48.4889C113.689 48.904 113.158 49.8997 111.614 49.8997C109.871 49.8997 108.443 48.4224 108.443 45.7665C108.443 43.4923 109.572 41.5829 111.713 41.5829C113.191 41.5829 113.589 42.3803 113.904 42.9942V39.7403L113.888 38.4457H112.261V38.0472H114.071V38.0475ZM110.269 45.4844C110.269 47.0113 110.269 49.3025 112.095 49.3025C113.905 49.3025 113.905 46.8287 113.905 45.8497C113.905 45.1857 113.888 43.8908 113.54 43.127C113.241 42.5128 112.71 42.1311 112.029 42.1311C110.269 42.1478 110.269 44.5214 110.269 45.4844Z" fill="white"/>
<path d="M125.343 47.4597C124.862 48.6051 124.165 49.9334 121.824 49.9334C121.11 49.9334 120.064 49.8502 119.118 48.9041C118.172 47.9413 118.006 46.7129 118.006 45.7334C118.006 45.3014 118.039 44.9199 118.122 44.5713C118.288 43.8079 118.703 43.0275 119.251 42.5294C119.865 41.9321 120.811 41.5334 121.824 41.5334C122.903 41.5334 123.766 41.9653 124.347 42.5463C125.243 43.459 125.326 44.4881 125.376 45.2354H119.848C119.848 46.165 119.848 47.1776 120.197 48.0243C120.695 49.3025 121.79 49.4351 122.289 49.4351C122.72 49.4351 123.102 49.319 123.401 49.1857C124.364 48.6878 124.729 47.7751 124.912 47.3102L125.343 47.4597ZM123.401 44.7704C123.384 44.1398 123.367 43.4922 123.119 42.9278C122.77 42.1638 122.156 41.9981 121.674 41.9981C120.081 41.9981 119.948 43.7745 119.865 44.7704H123.401Z" fill="white"/>
<path d="M141.545 38.0474H145.18V38.4458H143.654L143.637 39.7405V47.6755L143.654 49.3691H145.18V49.7673H139.984V49.3691H141.778L141.794 47.6755V38.7944L137.329 49.9831H137.063L132.68 38.7944L132.664 39.7405V47.6755L132.68 49.3691H134.49V49.7673H130.639V49.3691H132.166L132.183 47.6755V39.7405L132.166 38.4458H130.639V38.0474H134.374L137.926 47.1281L141.545 38.0474Z" fill="white"/>
<path d="M154.227 49.3691V49.7676H153.015C152.799 49.7676 152.616 49.7676 152.418 49.7344C151.438 49.6183 151.272 49.0039 151.173 48.6221C150.857 49.0701 150.26 49.9335 148.55 49.9335C148.267 49.9335 147.504 49.9168 146.989 49.4023C146.74 49.1531 146.375 48.589 146.375 47.5263C146.375 46.8954 146.508 46.3644 146.923 45.9328C147.388 45.4676 147.852 45.3685 149.297 45.0697C150.26 44.8706 150.708 44.7044 151.272 44.5051V43.9076C151.256 42.7789 151.239 41.9489 149.928 41.9489C148.632 41.9489 148.616 42.7622 148.6 43.2769C148.583 43.6253 148.566 44.1236 147.802 44.1236C147.454 44.1236 146.989 44.1236 146.989 43.4262C146.989 43.2104 147.039 43.0113 147.122 42.812C147.521 41.8328 148.749 41.5669 149.977 41.5669C150.642 41.5669 151.355 41.6666 151.87 41.9152C152.899 42.43 152.899 43.3594 152.899 44.1234V47.7585C152.883 49.0039 153.032 49.3691 153.812 49.3691H154.227ZM151.272 44.9367L149.778 45.3849C148.915 45.6505 148.184 45.966 148.184 47.6092C148.184 48.0906 148.184 49.3691 149.313 49.3691C149.895 49.3691 150.26 49.0701 150.492 48.8379C151.206 48.124 151.239 47.2275 151.272 46.3644L151.272 44.9367Z" fill="white"/>
<path d="M161.049 38.0475C161.747 38.0475 161.979 38.0308 162.543 37.981L162.527 39.7406V47.9246L162.543 49.369H163.871V49.7674H160.883V48.4889C160.667 48.904 160.136 49.8997 158.592 49.8997C156.849 49.8997 155.422 48.4224 155.422 45.7665C155.422 43.4923 156.55 41.5829 158.692 41.5829C160.17 41.5829 160.568 42.3803 160.883 42.9942V39.7403L160.867 38.4457H159.24V38.0472H161.049V38.0475ZM157.248 45.4844C157.248 47.0113 157.248 49.3025 159.074 49.3025C160.883 49.3025 160.883 46.8287 160.883 45.8497C160.883 45.1857 160.867 43.8908 160.518 43.127C160.219 42.5128 159.688 42.1311 159.007 42.1311C157.248 42.1478 157.248 44.5214 157.248 45.4844Z" fill="white"/>
<path d="M167.524 49.369H168.934V49.7675H164.502V49.369H165.897L165.913 47.958V43.5258L165.897 42.1312H164.502V41.7494H166.029C166.677 41.7327 166.909 41.7327 167.557 41.6665L167.54 43.592C167.955 42.7122 168.503 41.5835 169.83 41.5835C170.927 41.5835 171.325 42.4302 171.325 43.1438C171.325 43.7582 171.076 44.2561 170.478 44.2561C170.229 44.2561 169.648 44.0734 169.648 43.393C169.648 43.2769 169.731 42.7621 169.731 42.646C169.731 42.1646 169.399 42.1481 169.299 42.1481C169.183 42.1481 169.001 42.1977 168.718 42.4638C167.59 43.5759 167.54 45.3024 167.506 46.7134V47.9585L167.524 49.369Z" fill="white"/>
<path d="M173.267 41.7492C173.93 41.7328 174.163 41.7328 174.81 41.6827L174.794 43.4256V47.9578L174.81 49.3688H176.138V49.7672H171.723V49.3688H173.15L173.167 47.9578V43.4256L173.15 42.1474H171.723V41.749H173.267V41.7492ZM172.951 39.1262C172.951 38.595 173.383 38.1467 173.93 38.1467C174.445 38.1467 174.893 38.595 174.893 39.1262C174.893 39.6574 174.445 40.0893 173.93 40.0893C173.665 40.0893 173.416 39.9893 173.233 39.8069C173.05 39.624 172.951 39.3754 172.951 39.1262Z" fill="white"/>
<path d="M182.929 38.0475C183.626 38.0475 183.858 38.0308 184.423 37.981L184.406 39.7406V47.9246L184.423 49.369H185.75V49.7674H182.762V48.4889C182.547 48.904 182.015 49.8997 180.471 49.8997C178.729 49.8997 177.301 48.4224 177.301 45.7665C177.301 43.4923 178.43 41.5829 180.571 41.5829C182.048 41.5829 182.447 42.3803 182.762 42.9942V39.7403L182.746 38.4457H181.119V38.0472H182.929V38.0475ZM179.127 45.4844C179.127 47.0113 179.127 49.3025 180.953 49.3025C182.762 49.3025 182.762 46.8287 182.762 45.8497C182.762 45.1857 182.746 43.8908 182.397 43.127C182.098 42.5128 181.567 42.1311 180.886 42.1311C179.127 42.1478 179.127 44.5214 179.127 45.4844Z" fill="white"/>
</svg>
